M48
; DRILL file {KiCad 8.0.6} date 2025-12-06T11:12:11+0100
; FORMAT={-:-/ absolute / metric / decimal}
; #@! TF.CreationDate,2025-12-06T11:12:11+01:00
; #@! TF.GenerationSoftware,Kicad,Pcbnew,8.0.6
; #@! TF.FileFunction,Plated,1,2,PTH
FMAT,2
METRIC
; #@! TA.AperFunction,Plated,PTH,ViaDrill
T1C0.300
; #@! TA.AperFunction,Plated,PTH,ComponentDrill
T2C0.750
; #@! TA.AperFunction,Plated,PTH,ComponentDrill
T3C0.800
; #@! TA.AperFunction,Plated,PTH,ComponentDrill
T4C0.900
; #@! TA.AperFunction,Plated,PTH,ComponentDrill
T5C1.000
; #@! TA.AperFunction,Plated,PTH,ComponentDrill
T6C1.100
; #@! TA.AperFunction,Plated,PTH,ComponentDrill
T7C1.190
; #@! TA.AperFunction,Plated,PTH,ComponentDrill
T8C1.300
; #@! TA.AperFunction,Plated,PTH,ComponentDrill
T9C3.000
%
G90
G05
T1
X86.687Y-126.1
X100.0Y-97.6
X101.7Y-92.6
X103.3Y-96.7
X112.6Y-89.2
X124.06Y-99.0
X161.5Y-98.612
X162.9Y-144.6
X163.688Y-108.912
X164.7Y-111.5
X167.0Y-126.9
X167.8Y-88.7
X168.8Y-126.9
X172.85Y-126.15
X173.197Y-123.3
X184.503Y-130.4
X186.9Y-126.106
X207.3Y-111.6
X208.06Y-90.553
X208.2Y-110.0
T2
X101.06Y-137.47
X102.33Y-136.2
X103.6Y-137.47
X158.0Y-135.6
X159.27Y-134.33
X159.27Y-136.87
T3
X73.2Y-86.95
X73.2Y-94.45
X73.2Y-132.52
X73.2Y-142.68
X76.5Y-86.905
X76.5Y-94.525
X77.18Y-139.275
X77.18Y-141.815
X77.18Y-144.355
X79.04Y-86.905
X79.04Y-94.525
X81.58Y-86.905
X81.58Y-94.525
X84.12Y-86.905
X84.12Y-94.525
X84.72Y-136.2
X84.8Y-139.275
X84.8Y-141.815
X84.8Y-144.355
X86.66Y-86.905
X86.66Y-94.525
X89.2Y-86.905
X89.2Y-94.525
X91.74Y-86.905
X91.74Y-94.525
X94.88Y-136.2
X94.92Y-86.9
X97.9Y-131.85
X97.9Y-139.35
X101.33Y-131.55
X103.33Y-131.55
X103.6Y-143.2
X105.08Y-86.9
X106.1Y-143.2
X106.73Y-131.0
X106.73Y-138.5
X108.0Y-87.075
X108.0Y-94.575
X111.0Y-133.92
X111.0Y-144.08
X111.36Y-87.025
X111.36Y-94.645
X113.9Y-87.025
X113.9Y-94.645
X114.32Y-144.8
X114.375Y-136.475
X114.375Y-139.015
X114.375Y-141.555
X116.44Y-87.025
X116.44Y-94.645
X118.98Y-87.025
X118.98Y-94.645
X121.52Y-87.025
X121.52Y-94.645
X121.995Y-136.475
X121.995Y-139.015
X121.995Y-141.555
X124.06Y-87.025
X124.06Y-94.645
X124.48Y-144.8
X126.6Y-87.025
X126.6Y-94.645
X129.14Y-87.025
X129.14Y-94.645
X130.8Y-136.147
X130.8Y-139.647
X132.4Y-87.075
X132.4Y-94.575
X135.7Y-87.005
X135.7Y-94.625
X136.92Y-133.0
X136.92Y-137.0
X138.24Y-87.005
X138.24Y-94.625
X139.12Y-100.2
X139.12Y-103.2
X140.78Y-87.005
X140.78Y-94.625
X143.32Y-87.005
X143.32Y-94.625
X145.86Y-87.005
X145.86Y-94.625
X147.08Y-133.0
X147.08Y-137.0
X147.6Y-141.32
X147.6Y-151.48
X148.4Y-87.005
X148.4Y-94.625
X149.28Y-100.2
X149.28Y-103.2
X150.8Y-143.95
X150.8Y-151.45
X150.94Y-87.005
X150.94Y-94.625
X153.48Y-87.005
X153.48Y-94.625
X154.8Y-143.95
X154.8Y-151.45
X158.175Y-143.4
X158.175Y-145.94
X158.175Y-148.48
X158.175Y-151.02
X158.25Y-140.2
X158.995Y-86.875
X158.995Y-94.495
X161.535Y-86.875
X161.535Y-94.495
X162.92Y-136.6
X164.075Y-86.875
X164.075Y-94.495
X165.75Y-140.2
X165.795Y-143.4
X165.795Y-145.94
X165.795Y-148.48
X165.795Y-151.02
X166.615Y-86.875
X166.615Y-94.495
X169.155Y-86.875
X169.155Y-94.495
X169.2Y-141.32
X169.2Y-151.48
X171.695Y-86.875
X171.695Y-94.495
X172.6Y-141.32
X172.6Y-151.48
X173.08Y-136.6
X174.235Y-86.875
X174.235Y-94.495
X176.4Y-135.12
X176.4Y-145.28
X176.775Y-86.875
X176.775Y-94.495
X179.575Y-139.675
X179.575Y-142.215
X179.575Y-144.755
X187.195Y-139.675
X187.195Y-142.215
X187.195Y-144.755
X190.4Y-135.12
X190.4Y-145.28
X195.36Y-86.875
X195.36Y-94.495
X197.0Y-135.12
X197.0Y-145.28
X197.9Y-86.875
X197.9Y-94.495
X200.175Y-139.675
X200.175Y-142.215
X200.175Y-144.755
X200.44Y-86.875
X200.44Y-94.495
X202.98Y-86.875
X202.98Y-94.495
X205.52Y-86.875
X205.52Y-94.495
X207.795Y-139.675
X207.795Y-142.215
X207.795Y-144.755
X208.06Y-86.875
X208.06Y-94.495
X210.6Y-86.875
X210.6Y-94.495
X211.0Y-135.12
X211.0Y-145.28
X213.14Y-86.875
X213.14Y-94.495
T4
X142.863Y-110.6
X142.863Y-123.8
X145.403Y-110.6
X145.403Y-123.8
T5
X149.96Y-132.5
X149.96Y-137.5
X154.96Y-135.0
X183.4Y-149.4
T6
X89.22Y-142.4
X99.38Y-142.4
X138.6Y-141.12
X138.6Y-151.28
X144.2Y-142.76
X144.2Y-145.3
X144.2Y-147.84
T7
X77.38Y-149.6
X79.92Y-149.6
X82.46Y-149.6
X85.0Y-149.6
T8
X90.6Y-148.795
X95.6Y-148.795
X102.3Y-149.8
X108.1Y-149.8
X117.0Y-149.8
X122.8Y-149.8
X130.8Y-145.1
X130.8Y-150.1
T9
X70.71Y-119.135
X71.8Y-111.55
X73.893Y-126.106
X76.819Y-105.759
X80.34Y-130.249
X84.171Y-103.6
X88.003Y-130.249
X91.524Y-105.759
X94.45Y-126.106
X96.542Y-111.55
X97.633Y-119.135
X106.91Y-119.129
X108.001Y-111.544
X110.094Y-126.1
X113.019Y-105.753
X116.54Y-130.243
X120.372Y-103.594
X124.203Y-130.243
X127.725Y-105.753
X130.65Y-126.1
X132.743Y-111.544
X133.833Y-119.129
X154.427Y-119.135
X155.517Y-111.55
X157.61Y-126.106
X160.536Y-105.759
X164.057Y-130.249
X167.888Y-103.6
X171.72Y-130.249
X175.241Y-105.759
X178.167Y-126.106
X180.259Y-111.55
X181.35Y-119.135
X190.627Y-119.135
X191.717Y-111.55
X193.81Y-126.106
X196.736Y-105.759
X200.257Y-130.249
X204.088Y-103.6
X207.92Y-130.249
X211.441Y-105.759
X214.367Y-126.106
X216.459Y-111.55
X217.55Y-119.135
M30
