G04 #@! TF.GenerationSoftware,KiCad,Pcbnew,8.0.6*
G04 #@! TF.CreationDate,2025-12-06T11:12:07+01:00*
G04 #@! TF.ProjectId,lpt_nixie_clock,6c70745f-6e69-4786-9965-5f636c6f636b,rev?*
G04 #@! TF.SameCoordinates,Original*
G04 #@! TF.FileFunction,Soldermask,Bot*
G04 #@! TF.FilePolarity,Negative*
%FSLAX46Y46*%
G04 Gerber Fmt 4.6, Leading zero omitted, Abs format (unit mm)*
G04 Created by KiCad (PCBNEW 8.0.6) date 2025-12-06 11:12:07*
%MOMM*%
%LPD*%
G01*
G04 APERTURE LIST*
G04 Aperture macros list*
%AMRoundRect*
0 Rectangle with rounded corners*
0 $1 Rounding radius*
0 $2 $3 $4 $5 $6 $7 $8 $9 X,Y pos of 4 corners*
0 Add a 4 corners polygon primitive as box body*
4,1,4,$2,$3,$4,$5,$6,$7,$8,$9,$2,$3,0*
0 Add four circle primitives for the rounded corners*
1,1,$1+$1,$2,$3*
1,1,$1+$1,$4,$5*
1,1,$1+$1,$6,$7*
1,1,$1+$1,$8,$9*
0 Add four rect primitives between the rounded corners*
20,1,$1+$1,$2,$3,$4,$5,0*
20,1,$1+$1,$4,$5,$6,$7,0*
20,1,$1+$1,$6,$7,$8,$9,0*
20,1,$1+$1,$8,$9,$2,$3,0*%
G04 Aperture macros list end*
%ADD10R,2.800000X2.800000*%
%ADD11C,2.800000*%
%ADD12C,3.200000*%
%ADD13C,1.600000*%
%ADD14O,1.600000X1.600000*%
%ADD15C,2.600000*%
%ADD16R,2.200000X2.200000*%
%ADD17O,2.200000X2.200000*%
%ADD18R,2.400000X1.600000*%
%ADD19O,2.400000X1.600000*%
%ADD20RoundRect,0.250000X0.620000X0.845000X-0.620000X0.845000X-0.620000X-0.845000X0.620000X-0.845000X0*%
%ADD21O,1.740000X2.190000*%
%ADD22RoundRect,0.575000X-0.575000X-0.575000X0.575000X-0.575000X0.575000X0.575000X-0.575000X0.575000X0*%
%ADD23C,2.300000*%
%ADD24R,1.600000X2.400000*%
%ADD25O,1.600000X2.400000*%
%ADD26R,1.600000X1.600000*%
%ADD27C,2.000000*%
%ADD28R,1.100000X1.800000*%
%ADD29RoundRect,0.275000X-0.275000X-0.625000X0.275000X-0.625000X0.275000X0.625000X-0.275000X0.625000X0*%
%ADD30R,1.800000X1.100000*%
%ADD31RoundRect,0.275000X0.625000X-0.275000X0.625000X0.275000X-0.625000X0.275000X-0.625000X-0.275000X0*%
%ADD32R,1.560000X1.560000*%
%ADD33C,1.560000*%
%ADD34R,2.000000X1.905000*%
%ADD35O,2.000000X1.905000*%
%ADD36R,1.800000X1.800000*%
%ADD37C,1.800000*%
%ADD38C,5.500000*%
G04 APERTURE END LIST*
D10*
X90600000Y-148795000D03*
D11*
X95600000Y-148795000D03*
D12*
X68150000Y-148600000D03*
D13*
X147600000Y-151480000D03*
D14*
X147600000Y-141320000D03*
D13*
X197000000Y-145280000D03*
D14*
X197000000Y-135120000D03*
D15*
X130800000Y-150100000D03*
X130800000Y-145100000D03*
D13*
X97900000Y-139350000D03*
D14*
X97900000Y-131850000D03*
D13*
X176400000Y-145280000D03*
D14*
X176400000Y-135120000D03*
D12*
X68150000Y-85800000D03*
D16*
X99380000Y-142400000D03*
D17*
X89220000Y-142400000D03*
D13*
X84720000Y-136200000D03*
D14*
X94880000Y-136200000D03*
D13*
X165750000Y-140200000D03*
D14*
X158250000Y-140200000D03*
D18*
X114375000Y-136475000D03*
D19*
X114375000Y-139015000D03*
X114375000Y-141555000D03*
X121995000Y-141555000D03*
X121995000Y-139015000D03*
X121995000Y-136475000D03*
D20*
X85000000Y-149600000D03*
D21*
X82460000Y-149600000D03*
X79920000Y-149600000D03*
X77380000Y-149600000D03*
D13*
X132400000Y-87075000D03*
D14*
X132400000Y-94575000D03*
D13*
X211000000Y-145280000D03*
D14*
X211000000Y-135120000D03*
D18*
X179575000Y-139675000D03*
D19*
X179575000Y-142215000D03*
X179575000Y-144755000D03*
X187195000Y-144755000D03*
X187195000Y-142215000D03*
X187195000Y-139675000D03*
D22*
X102300000Y-149800000D03*
X108100000Y-149800000D03*
D23*
X117000000Y-149800000D03*
X122800000Y-149800000D03*
D12*
X220150000Y-148600000D03*
D24*
X213140000Y-86875000D03*
D25*
X210600000Y-86875000D03*
X208060000Y-86875000D03*
X205520000Y-86875000D03*
X202980000Y-86875000D03*
X200440000Y-86875000D03*
X197900000Y-86875000D03*
X195360000Y-86875000D03*
X195360000Y-94495000D03*
X197900000Y-94495000D03*
X200440000Y-94495000D03*
X202980000Y-94495000D03*
X205520000Y-94495000D03*
X208060000Y-94495000D03*
X210600000Y-94495000D03*
X213140000Y-94495000D03*
D13*
X114320000Y-144800000D03*
D14*
X124480000Y-144800000D03*
D13*
X136920000Y-133000000D03*
D14*
X147080000Y-133000000D03*
D13*
X139120000Y-100200000D03*
D14*
X149280000Y-100200000D03*
D26*
X106100000Y-143200000D03*
D13*
X103600000Y-143200000D03*
X73200000Y-142680000D03*
D14*
X73200000Y-132520000D03*
D26*
X130800000Y-136147349D03*
D13*
X130800000Y-139647349D03*
D24*
X135700000Y-94625000D03*
D25*
X138240000Y-94625000D03*
X140780000Y-94625000D03*
X143320000Y-94625000D03*
X145860000Y-94625000D03*
X148400000Y-94625000D03*
X150940000Y-94625000D03*
X153480000Y-94625000D03*
X153480000Y-87005000D03*
X150940000Y-87005000D03*
X148400000Y-87005000D03*
X145860000Y-87005000D03*
X143320000Y-87005000D03*
X140780000Y-87005000D03*
X138240000Y-87005000D03*
X135700000Y-87005000D03*
D13*
X111000000Y-144080000D03*
D14*
X111000000Y-133920000D03*
D18*
X77180000Y-139275000D03*
D19*
X77180000Y-141815000D03*
X77180000Y-144355000D03*
X84800000Y-144355000D03*
X84800000Y-141815000D03*
X84800000Y-139275000D03*
D27*
X183400000Y-149400000D03*
D13*
X150800000Y-151450000D03*
D14*
X150800000Y-143950000D03*
D13*
X108000000Y-87075000D03*
D14*
X108000000Y-94575000D03*
D28*
X101060000Y-137870000D03*
D29*
X102330000Y-135800000D03*
X103600000Y-137870000D03*
D13*
X169200000Y-141320000D03*
D14*
X169200000Y-151480000D03*
D30*
X159670000Y-136870000D03*
D31*
X157600000Y-135600000D03*
X159670000Y-134330000D03*
D24*
X76500000Y-94525000D03*
D25*
X79040000Y-94525000D03*
X81580000Y-94525000D03*
X84120000Y-94525000D03*
X86660000Y-94525000D03*
X89200000Y-94525000D03*
X91740000Y-94525000D03*
X91740000Y-86905000D03*
X89200000Y-86905000D03*
X86660000Y-86905000D03*
X84120000Y-86905000D03*
X81580000Y-86905000D03*
X79040000Y-86905000D03*
X76500000Y-86905000D03*
D12*
X220150000Y-85800000D03*
D13*
X173080000Y-136600000D03*
D14*
X162920000Y-136600000D03*
D24*
X176775000Y-86875000D03*
D25*
X174235000Y-86875000D03*
X171695000Y-86875000D03*
X169155000Y-86875000D03*
X166615000Y-86875000D03*
X164075000Y-86875000D03*
X161535000Y-86875000D03*
X158995000Y-86875000D03*
X158995000Y-94495000D03*
X161535000Y-94495000D03*
X164075000Y-94495000D03*
X166615000Y-94495000D03*
X169155000Y-94495000D03*
X171695000Y-94495000D03*
X174235000Y-94495000D03*
X176775000Y-94495000D03*
D13*
X154800000Y-151450000D03*
D14*
X154800000Y-143950000D03*
D13*
X139120000Y-103200000D03*
D14*
X149280000Y-103200000D03*
D26*
X101330000Y-131550000D03*
D13*
X103330000Y-131550000D03*
X147080000Y-137000000D03*
D14*
X136920000Y-137000000D03*
D13*
X105080000Y-86900000D03*
D14*
X94920000Y-86900000D03*
D13*
X106730000Y-138500000D03*
D14*
X106730000Y-131000000D03*
D32*
X149960000Y-137500000D03*
D33*
X154960000Y-135000000D03*
X149960000Y-132500000D03*
D13*
X172600000Y-141320000D03*
D14*
X172600000Y-151480000D03*
D18*
X200175000Y-139675000D03*
D19*
X200175000Y-142215000D03*
X200175000Y-144755000D03*
X207795000Y-144755000D03*
X207795000Y-142215000D03*
X207795000Y-139675000D03*
D16*
X138600000Y-141120000D03*
D17*
X138600000Y-151280000D03*
D34*
X144200000Y-147840000D03*
D35*
X144200000Y-145300000D03*
X144200000Y-142760000D03*
D24*
X111360000Y-94645000D03*
D25*
X113900000Y-94645000D03*
X116440000Y-94645000D03*
X118980000Y-94645000D03*
X121520000Y-94645000D03*
X124060000Y-94645000D03*
X126600000Y-94645000D03*
X129140000Y-94645000D03*
X129140000Y-87025000D03*
X126600000Y-87025000D03*
X124060000Y-87025000D03*
X121520000Y-87025000D03*
X118980000Y-87025000D03*
X116440000Y-87025000D03*
X113900000Y-87025000D03*
X111360000Y-87025000D03*
D18*
X158175000Y-143400000D03*
D19*
X158175000Y-145940000D03*
X158175000Y-148480000D03*
X158175000Y-151020000D03*
X165795000Y-151020000D03*
X165795000Y-148480000D03*
X165795000Y-145940000D03*
X165795000Y-143400000D03*
D13*
X73200000Y-86950000D03*
D14*
X73200000Y-94450000D03*
D13*
X190400000Y-145280000D03*
D14*
X190400000Y-135120000D03*
D36*
X145403200Y-110600000D03*
D37*
X142863200Y-110600000D03*
D38*
X200256865Y-130249104D03*
X193810234Y-126106106D03*
X190626856Y-119135482D03*
X191717433Y-111550356D03*
X196735713Y-105758952D03*
X204088428Y-103600000D03*
X211441143Y-105758952D03*
X216459423Y-111550356D03*
X217550000Y-119135482D03*
X214366622Y-126106106D03*
X207919991Y-130249104D03*
D36*
X145403200Y-123800000D03*
D37*
X142863200Y-123800000D03*
D38*
X80339865Y-130249104D03*
X73893234Y-126106106D03*
X70709856Y-119135482D03*
X71800433Y-111550356D03*
X76818713Y-105758952D03*
X84171428Y-103600000D03*
X91524143Y-105758952D03*
X96542423Y-111550356D03*
X97633000Y-119135482D03*
X94449622Y-126106106D03*
X88002991Y-130249104D03*
X116540243Y-130242998D03*
X110093612Y-126100000D03*
X106910234Y-119129376D03*
X108000811Y-111544250D03*
X113019091Y-105752846D03*
X120371806Y-103593894D03*
X127724521Y-105752846D03*
X132742801Y-111544250D03*
X133833378Y-119129376D03*
X130650000Y-126100000D03*
X124203369Y-130242998D03*
X164056865Y-130249104D03*
X157610234Y-126106106D03*
X154426856Y-119135482D03*
X155517433Y-111550356D03*
X160535713Y-105758952D03*
X167888428Y-103600000D03*
X175241143Y-105758952D03*
X180259423Y-111550356D03*
X181350000Y-119135482D03*
X178166622Y-126106106D03*
X171719991Y-130249104D03*
M02*
