G04 #@! TF.GenerationSoftware,KiCad,Pcbnew,8.0.6*
G04 #@! TF.CreationDate,2025-12-06T11:12:07+01:00*
G04 #@! TF.ProjectId,lpt_nixie_clock,6c70745f-6e69-4786-9965-5f636c6f636b,rev?*
G04 #@! TF.SameCoordinates,Original*
G04 #@! TF.FileFunction,Legend,Top*
G04 #@! TF.FilePolarity,Positive*
%FSLAX46Y46*%
G04 Gerber Fmt 4.6, Leading zero omitted, Abs format (unit mm)*
G04 Created by KiCad (PCBNEW 8.0.6) date 2025-12-06 11:12:07*
%MOMM*%
%LPD*%
G01*
G04 APERTURE LIST*
G04 Aperture macros list*
%AMRoundRect*
0 Rectangle with rounded corners*
0 $1 Rounding radius*
0 $2 $3 $4 $5 $6 $7 $8 $9 X,Y pos of 4 corners*
0 Add a 4 corners polygon primitive as box body*
4,1,4,$2,$3,$4,$5,$6,$7,$8,$9,$2,$3,0*
0 Add four circle primitives for the rounded corners*
1,1,$1+$1,$2,$3*
1,1,$1+$1,$4,$5*
1,1,$1+$1,$6,$7*
1,1,$1+$1,$8,$9*
0 Add four rect primitives between the rounded corners*
20,1,$1+$1,$2,$3,$4,$5,0*
20,1,$1+$1,$4,$5,$6,$7,0*
20,1,$1+$1,$6,$7,$8,$9,0*
20,1,$1+$1,$8,$9,$2,$3,0*%
G04 Aperture macros list end*
%ADD10C,0.000000*%
%ADD11C,0.150000*%
%ADD12C,0.120000*%
%ADD13R,2.800000X2.800000*%
%ADD14C,2.800000*%
%ADD15C,3.200000*%
%ADD16C,1.600000*%
%ADD17O,1.600000X1.600000*%
%ADD18C,2.600000*%
%ADD19R,2.200000X2.200000*%
%ADD20O,2.200000X2.200000*%
%ADD21R,2.400000X1.600000*%
%ADD22O,2.400000X1.600000*%
%ADD23RoundRect,0.250000X0.620000X0.845000X-0.620000X0.845000X-0.620000X-0.845000X0.620000X-0.845000X0*%
%ADD24O,1.740000X2.190000*%
%ADD25RoundRect,0.575000X-0.575000X-0.575000X0.575000X-0.575000X0.575000X0.575000X-0.575000X0.575000X0*%
%ADD26C,2.300000*%
%ADD27R,1.600000X2.400000*%
%ADD28O,1.600000X2.400000*%
%ADD29R,1.600000X1.600000*%
%ADD30C,2.000000*%
%ADD31R,1.100000X1.800000*%
%ADD32RoundRect,0.275000X-0.275000X-0.625000X0.275000X-0.625000X0.275000X0.625000X-0.275000X0.625000X0*%
%ADD33R,1.800000X1.100000*%
%ADD34RoundRect,0.275000X0.625000X-0.275000X0.625000X0.275000X-0.625000X0.275000X-0.625000X-0.275000X0*%
%ADD35R,1.560000X1.560000*%
%ADD36C,1.560000*%
%ADD37R,2.000000X1.905000*%
%ADD38O,2.000000X1.905000*%
%ADD39R,1.800000X1.800000*%
%ADD40C,1.800000*%
%ADD41C,5.500000*%
G04 APERTURE END LIST*
D10*
G36*
X187952328Y-149477692D02*
G01*
X187906247Y-149581496D01*
X187814180Y-149791240D01*
X187616272Y-150241385D01*
X187588271Y-150305535D01*
X187565728Y-150358190D01*
X187557207Y-150378523D01*
X187550897Y-150393963D01*
X187547079Y-150403838D01*
X187546192Y-150406477D01*
X187546034Y-150407473D01*
X187570591Y-150398305D01*
X187635384Y-150372839D01*
X187846389Y-150288727D01*
X188056618Y-150204520D01*
X188120550Y-150179260D01*
X188144028Y-150170371D01*
X188142524Y-150176683D01*
X188138401Y-150192344D01*
X188132240Y-150215064D01*
X188124625Y-150242549D01*
X187843285Y-151286030D01*
X187840568Y-151296896D01*
X187895284Y-151296896D01*
X187906325Y-151296966D01*
X187916603Y-151297163D01*
X187925898Y-151297469D01*
X187933993Y-151297866D01*
X187940668Y-151298336D01*
X187943406Y-151298593D01*
X187945707Y-151298861D01*
X187947544Y-151299138D01*
X187948890Y-151299421D01*
X187949718Y-151299710D01*
X187949929Y-151299855D01*
X187950000Y-151300000D01*
X187907011Y-151366461D01*
X187812143Y-151508629D01*
X187716548Y-151650287D01*
X187671376Y-151715220D01*
X187670951Y-151714894D01*
X187670268Y-151713799D01*
X187668187Y-151709454D01*
X187665251Y-151702498D01*
X187661578Y-151693246D01*
X187652495Y-151669108D01*
X187641884Y-151639549D01*
X187567377Y-151425342D01*
X187533422Y-151327795D01*
X187523066Y-151297812D01*
X187519258Y-151286419D01*
X187520438Y-151286257D01*
X187523824Y-151286073D01*
X187536284Y-151285691D01*
X187554784Y-151285382D01*
X187577467Y-151285254D01*
X187635287Y-151285254D01*
X187643048Y-151258867D01*
X187804479Y-150697350D01*
X187816970Y-150653664D01*
X187826986Y-150617653D01*
X187830749Y-150603698D01*
X187833510Y-150593066D01*
X187835145Y-150586227D01*
X187835499Y-150584377D01*
X187835523Y-150583650D01*
X187811943Y-150592460D01*
X187748745Y-150617459D01*
X187541765Y-150700455D01*
X187335126Y-150783498D01*
X187271970Y-150808613D01*
X187248395Y-150817647D01*
X187251664Y-150803065D01*
X187269593Y-150738242D01*
X187387708Y-150320936D01*
X187554571Y-149733032D01*
X187633735Y-149454408D01*
X187634385Y-149453780D01*
X187635954Y-149453205D01*
X187642175Y-149452207D01*
X187653052Y-149451400D01*
X187669242Y-149450770D01*
X187720174Y-149449988D01*
X187800211Y-149449752D01*
X187965134Y-149449752D01*
X187952328Y-149477692D01*
G37*
G36*
X187653861Y-147944883D02*
G01*
X187664058Y-147945815D01*
X187674202Y-147947433D01*
X187684230Y-147949723D01*
X187694081Y-147952667D01*
X187703693Y-147956250D01*
X187713003Y-147960456D01*
X187721951Y-147965269D01*
X187730473Y-147970674D01*
X187738507Y-147976653D01*
X187742323Y-147979854D01*
X187745993Y-147983192D01*
X187749511Y-147986667D01*
X187752868Y-147990275D01*
X190113410Y-152039635D01*
X190118310Y-152049456D01*
X190120318Y-152053670D01*
X190122056Y-152057527D01*
X190123544Y-152061110D01*
X190124801Y-152064498D01*
X190125847Y-152067774D01*
X190126701Y-152071018D01*
X190127381Y-152074313D01*
X190127909Y-152077739D01*
X190128302Y-152081377D01*
X190128580Y-152085310D01*
X190128763Y-152089617D01*
X190128870Y-152094381D01*
X190128932Y-152105604D01*
X190128908Y-152110968D01*
X190128832Y-152115887D01*
X190128697Y-152120404D01*
X190128495Y-152124564D01*
X190128221Y-152128413D01*
X190127868Y-152131995D01*
X190127428Y-152135356D01*
X190126895Y-152138540D01*
X190126261Y-152141592D01*
X190125521Y-152144557D01*
X190124668Y-152147480D01*
X190123693Y-152150406D01*
X190122592Y-152153380D01*
X190121356Y-152156446D01*
X190119979Y-152159650D01*
X190118455Y-152163036D01*
X190115610Y-152168818D01*
X190112471Y-152174513D01*
X190109053Y-152180107D01*
X190105370Y-152185586D01*
X190101436Y-152190934D01*
X190097267Y-152196140D01*
X190092878Y-152201187D01*
X190088283Y-152206062D01*
X190083497Y-152210750D01*
X190078535Y-152215238D01*
X190073411Y-152219511D01*
X190068140Y-152223555D01*
X190062738Y-152227355D01*
X190057219Y-152230898D01*
X190051597Y-152234169D01*
X190045888Y-152237155D01*
X190020276Y-152249572D01*
X185274357Y-152249572D01*
X185248745Y-152237155D01*
X185243036Y-152234169D01*
X185237414Y-152230898D01*
X185231895Y-152227355D01*
X185226493Y-152223555D01*
X185221222Y-152219511D01*
X185216098Y-152215238D01*
X185211136Y-152210750D01*
X185206350Y-152206062D01*
X185201755Y-152201187D01*
X185197366Y-152196140D01*
X185193197Y-152190934D01*
X185189264Y-152185586D01*
X185185580Y-152180107D01*
X185182162Y-152174513D01*
X185179023Y-152168818D01*
X185176179Y-152163036D01*
X185173277Y-152156447D01*
X185172042Y-152153382D01*
X185170940Y-152150412D01*
X185169966Y-152147492D01*
X185169112Y-152144578D01*
X185168372Y-152141625D01*
X185167739Y-152138589D01*
X185167205Y-152135425D01*
X185166765Y-152132090D01*
X185166412Y-152128539D01*
X185166138Y-152124728D01*
X185165937Y-152120612D01*
X185165801Y-152116146D01*
X185165701Y-152105992D01*
X185165773Y-152095417D01*
X185165880Y-152090842D01*
X185166053Y-152086662D01*
X185166303Y-152082818D01*
X185166643Y-152079252D01*
X185167085Y-152075905D01*
X185167642Y-152072716D01*
X185168326Y-152069628D01*
X185169150Y-152066580D01*
X185170126Y-152063514D01*
X185171267Y-152060371D01*
X185172586Y-152057092D01*
X185174094Y-152053617D01*
X185175805Y-152049887D01*
X185177731Y-152045843D01*
X185277850Y-151873935D01*
X185660472Y-151873935D01*
X187645376Y-151875099D01*
X189630280Y-151873159D01*
X189331866Y-151350060D01*
X187874717Y-148804803D01*
X187787126Y-148651461D01*
X187715032Y-148525985D01*
X187665931Y-148441256D01*
X187652345Y-148418195D01*
X187647316Y-148410151D01*
X186748968Y-149974014D01*
X185756322Y-151705519D01*
X185688606Y-151823924D01*
X185668027Y-151860225D01*
X185660472Y-151873935D01*
X185277850Y-151873935D01*
X187537885Y-147993379D01*
X187541056Y-147990111D01*
X187544445Y-147986866D01*
X187548032Y-147983656D01*
X187551800Y-147980494D01*
X187555730Y-147977394D01*
X187559802Y-147974368D01*
X187563998Y-147971430D01*
X187568299Y-147968592D01*
X187572686Y-147965868D01*
X187577141Y-147963270D01*
X187581645Y-147960813D01*
X187586180Y-147958508D01*
X187590725Y-147956370D01*
X187595263Y-147954410D01*
X187599775Y-147952643D01*
X187604242Y-147951081D01*
X187608974Y-147949614D01*
X187613777Y-147948340D01*
X187623569Y-147946367D01*
X187633554Y-147945143D01*
X187643673Y-147944654D01*
X187653861Y-147944883D01*
G37*
D11*
X149260588Y-129369819D02*
X148689160Y-129369819D01*
X148974874Y-129369819D02*
X148974874Y-128369819D01*
X148974874Y-128369819D02*
X148879636Y-128512676D01*
X148879636Y-128512676D02*
X148784398Y-128607914D01*
X148784398Y-128607914D02*
X148689160Y-128655533D01*
X149593922Y-128369819D02*
X150260588Y-128369819D01*
X150260588Y-128369819D02*
X149832017Y-129369819D01*
X150832017Y-128369819D02*
X150927255Y-128369819D01*
X150927255Y-128369819D02*
X151022493Y-128417438D01*
X151022493Y-128417438D02*
X151070112Y-128465057D01*
X151070112Y-128465057D02*
X151117731Y-128560295D01*
X151117731Y-128560295D02*
X151165350Y-128750771D01*
X151165350Y-128750771D02*
X151165350Y-128988866D01*
X151165350Y-128988866D02*
X151117731Y-129179342D01*
X151117731Y-129179342D02*
X151070112Y-129274580D01*
X151070112Y-129274580D02*
X151022493Y-129322200D01*
X151022493Y-129322200D02*
X150927255Y-129369819D01*
X150927255Y-129369819D02*
X150832017Y-129369819D01*
X150832017Y-129369819D02*
X150736779Y-129322200D01*
X150736779Y-129322200D02*
X150689160Y-129274580D01*
X150689160Y-129274580D02*
X150641541Y-129179342D01*
X150641541Y-129179342D02*
X150593922Y-128988866D01*
X150593922Y-128988866D02*
X150593922Y-128750771D01*
X150593922Y-128750771D02*
X150641541Y-128560295D01*
X150641541Y-128560295D02*
X150689160Y-128465057D01*
X150689160Y-128465057D02*
X150736779Y-128417438D01*
X150736779Y-128417438D02*
X150832017Y-128369819D01*
X151451065Y-128369819D02*
X151784398Y-129369819D01*
X151784398Y-129369819D02*
X152117731Y-128369819D01*
X153165351Y-129084104D02*
X153641541Y-129084104D01*
X153070113Y-129369819D02*
X153403446Y-128369819D01*
X153403446Y-128369819D02*
X153736779Y-129369819D01*
X154498684Y-129369819D02*
X154498684Y-128369819D01*
X154498684Y-129322200D02*
X154403446Y-129369819D01*
X154403446Y-129369819D02*
X154212970Y-129369819D01*
X154212970Y-129369819D02*
X154117732Y-129322200D01*
X154117732Y-129322200D02*
X154070113Y-129274580D01*
X154070113Y-129274580D02*
X154022494Y-129179342D01*
X154022494Y-129179342D02*
X154022494Y-128893628D01*
X154022494Y-128893628D02*
X154070113Y-128798390D01*
X154070113Y-128798390D02*
X154117732Y-128750771D01*
X154117732Y-128750771D02*
X154212970Y-128703152D01*
X154212970Y-128703152D02*
X154403446Y-128703152D01*
X154403446Y-128703152D02*
X154498684Y-128750771D01*
X154974875Y-128703152D02*
X154974875Y-129560295D01*
X154974875Y-129560295D02*
X154927256Y-129655533D01*
X154927256Y-129655533D02*
X154832018Y-129703152D01*
X154832018Y-129703152D02*
X154784399Y-129703152D01*
X154974875Y-128369819D02*
X154927256Y-128417438D01*
X154927256Y-128417438D02*
X154974875Y-128465057D01*
X154974875Y-128465057D02*
X155022494Y-128417438D01*
X155022494Y-128417438D02*
X154974875Y-128369819D01*
X154974875Y-128369819D02*
X154974875Y-128465057D01*
X155451065Y-129274580D02*
X155498684Y-129322200D01*
X155498684Y-129322200D02*
X155451065Y-129369819D01*
X155451065Y-129369819D02*
X155403446Y-129322200D01*
X155403446Y-129322200D02*
X155451065Y-129274580D01*
X155451065Y-129274580D02*
X155451065Y-129369819D01*
X192904762Y-149759875D02*
X192904762Y-148759875D01*
X192904762Y-148759875D02*
X193142857Y-148759875D01*
X193142857Y-148759875D02*
X193285714Y-148807494D01*
X193285714Y-148807494D02*
X193380952Y-148902732D01*
X193380952Y-148902732D02*
X193428571Y-148997970D01*
X193428571Y-148997970D02*
X193476190Y-149188446D01*
X193476190Y-149188446D02*
X193476190Y-149331303D01*
X193476190Y-149331303D02*
X193428571Y-149521779D01*
X193428571Y-149521779D02*
X193380952Y-149617017D01*
X193380952Y-149617017D02*
X193285714Y-149712256D01*
X193285714Y-149712256D02*
X193142857Y-149759875D01*
X193142857Y-149759875D02*
X192904762Y-149759875D01*
X194333333Y-149759875D02*
X194333333Y-149236065D01*
X194333333Y-149236065D02*
X194285714Y-149140827D01*
X194285714Y-149140827D02*
X194190476Y-149093208D01*
X194190476Y-149093208D02*
X194000000Y-149093208D01*
X194000000Y-149093208D02*
X193904762Y-149140827D01*
X194333333Y-149712256D02*
X194238095Y-149759875D01*
X194238095Y-149759875D02*
X194000000Y-149759875D01*
X194000000Y-149759875D02*
X193904762Y-149712256D01*
X193904762Y-149712256D02*
X193857143Y-149617017D01*
X193857143Y-149617017D02*
X193857143Y-149521779D01*
X193857143Y-149521779D02*
X193904762Y-149426541D01*
X193904762Y-149426541D02*
X194000000Y-149378922D01*
X194000000Y-149378922D02*
X194238095Y-149378922D01*
X194238095Y-149378922D02*
X194333333Y-149331303D01*
X194809524Y-149093208D02*
X194809524Y-149759875D01*
X194809524Y-149188446D02*
X194857143Y-149140827D01*
X194857143Y-149140827D02*
X194952381Y-149093208D01*
X194952381Y-149093208D02*
X195095238Y-149093208D01*
X195095238Y-149093208D02*
X195190476Y-149140827D01*
X195190476Y-149140827D02*
X195238095Y-149236065D01*
X195238095Y-149236065D02*
X195238095Y-149759875D01*
X196142857Y-149093208D02*
X196142857Y-149902732D01*
X196142857Y-149902732D02*
X196095238Y-149997970D01*
X196095238Y-149997970D02*
X196047619Y-150045589D01*
X196047619Y-150045589D02*
X195952381Y-150093208D01*
X195952381Y-150093208D02*
X195809524Y-150093208D01*
X195809524Y-150093208D02*
X195714286Y-150045589D01*
X196142857Y-149712256D02*
X196047619Y-149759875D01*
X196047619Y-149759875D02*
X195857143Y-149759875D01*
X195857143Y-149759875D02*
X195761905Y-149712256D01*
X195761905Y-149712256D02*
X195714286Y-149664636D01*
X195714286Y-149664636D02*
X195666667Y-149569398D01*
X195666667Y-149569398D02*
X195666667Y-149283684D01*
X195666667Y-149283684D02*
X195714286Y-149188446D01*
X195714286Y-149188446D02*
X195761905Y-149140827D01*
X195761905Y-149140827D02*
X195857143Y-149093208D01*
X195857143Y-149093208D02*
X196047619Y-149093208D01*
X196047619Y-149093208D02*
X196142857Y-149140827D01*
X197000000Y-149712256D02*
X196904762Y-149759875D01*
X196904762Y-149759875D02*
X196714286Y-149759875D01*
X196714286Y-149759875D02*
X196619048Y-149712256D01*
X196619048Y-149712256D02*
X196571429Y-149617017D01*
X196571429Y-149617017D02*
X196571429Y-149236065D01*
X196571429Y-149236065D02*
X196619048Y-149140827D01*
X196619048Y-149140827D02*
X196714286Y-149093208D01*
X196714286Y-149093208D02*
X196904762Y-149093208D01*
X196904762Y-149093208D02*
X197000000Y-149140827D01*
X197000000Y-149140827D02*
X197047619Y-149236065D01*
X197047619Y-149236065D02*
X197047619Y-149331303D01*
X197047619Y-149331303D02*
X196571429Y-149426541D01*
X197476191Y-149759875D02*
X197476191Y-149093208D01*
X197476191Y-149283684D02*
X197523810Y-149188446D01*
X197523810Y-149188446D02*
X197571429Y-149140827D01*
X197571429Y-149140827D02*
X197666667Y-149093208D01*
X197666667Y-149093208D02*
X197761905Y-149093208D01*
X198095239Y-149664636D02*
X198142858Y-149712256D01*
X198142858Y-149712256D02*
X198095239Y-149759875D01*
X198095239Y-149759875D02*
X198047620Y-149712256D01*
X198047620Y-149712256D02*
X198095239Y-149664636D01*
X198095239Y-149664636D02*
X198095239Y-149759875D01*
X198095239Y-149378922D02*
X198047620Y-148807494D01*
X198047620Y-148807494D02*
X198095239Y-148759875D01*
X198095239Y-148759875D02*
X198142858Y-148807494D01*
X198142858Y-148807494D02*
X198095239Y-149378922D01*
X198095239Y-149378922D02*
X198095239Y-148759875D01*
X190738095Y-151369819D02*
X190738095Y-150369819D01*
X190738095Y-150846009D02*
X191309523Y-150846009D01*
X191309523Y-151369819D02*
X191309523Y-150369819D01*
X191785714Y-151369819D02*
X191785714Y-150703152D01*
X191785714Y-150369819D02*
X191738095Y-150417438D01*
X191738095Y-150417438D02*
X191785714Y-150465057D01*
X191785714Y-150465057D02*
X191833333Y-150417438D01*
X191833333Y-150417438D02*
X191785714Y-150369819D01*
X191785714Y-150369819D02*
X191785714Y-150465057D01*
X192690475Y-150703152D02*
X192690475Y-151512676D01*
X192690475Y-151512676D02*
X192642856Y-151607914D01*
X192642856Y-151607914D02*
X192595237Y-151655533D01*
X192595237Y-151655533D02*
X192499999Y-151703152D01*
X192499999Y-151703152D02*
X192357142Y-151703152D01*
X192357142Y-151703152D02*
X192261904Y-151655533D01*
X192690475Y-151322200D02*
X192595237Y-151369819D01*
X192595237Y-151369819D02*
X192404761Y-151369819D01*
X192404761Y-151369819D02*
X192309523Y-151322200D01*
X192309523Y-151322200D02*
X192261904Y-151274580D01*
X192261904Y-151274580D02*
X192214285Y-151179342D01*
X192214285Y-151179342D02*
X192214285Y-150893628D01*
X192214285Y-150893628D02*
X192261904Y-150798390D01*
X192261904Y-150798390D02*
X192309523Y-150750771D01*
X192309523Y-150750771D02*
X192404761Y-150703152D01*
X192404761Y-150703152D02*
X192595237Y-150703152D01*
X192595237Y-150703152D02*
X192690475Y-150750771D01*
X193166666Y-151369819D02*
X193166666Y-150369819D01*
X193595237Y-151369819D02*
X193595237Y-150846009D01*
X193595237Y-150846009D02*
X193547618Y-150750771D01*
X193547618Y-150750771D02*
X193452380Y-150703152D01*
X193452380Y-150703152D02*
X193309523Y-150703152D01*
X193309523Y-150703152D02*
X193214285Y-150750771D01*
X193214285Y-150750771D02*
X193166666Y-150798390D01*
X194738095Y-150703152D02*
X194976190Y-151369819D01*
X194976190Y-151369819D02*
X195214285Y-150703152D01*
X195738095Y-151369819D02*
X195642857Y-151322200D01*
X195642857Y-151322200D02*
X195595238Y-151274580D01*
X195595238Y-151274580D02*
X195547619Y-151179342D01*
X195547619Y-151179342D02*
X195547619Y-150893628D01*
X195547619Y-150893628D02*
X195595238Y-150798390D01*
X195595238Y-150798390D02*
X195642857Y-150750771D01*
X195642857Y-150750771D02*
X195738095Y-150703152D01*
X195738095Y-150703152D02*
X195880952Y-150703152D01*
X195880952Y-150703152D02*
X195976190Y-150750771D01*
X195976190Y-150750771D02*
X196023809Y-150798390D01*
X196023809Y-150798390D02*
X196071428Y-150893628D01*
X196071428Y-150893628D02*
X196071428Y-151179342D01*
X196071428Y-151179342D02*
X196023809Y-151274580D01*
X196023809Y-151274580D02*
X195976190Y-151322200D01*
X195976190Y-151322200D02*
X195880952Y-151369819D01*
X195880952Y-151369819D02*
X195738095Y-151369819D01*
X196642857Y-151369819D02*
X196547619Y-151322200D01*
X196547619Y-151322200D02*
X196500000Y-151226961D01*
X196500000Y-151226961D02*
X196500000Y-150369819D01*
X196880953Y-150703152D02*
X197261905Y-150703152D01*
X197023810Y-150369819D02*
X197023810Y-151226961D01*
X197023810Y-151226961D02*
X197071429Y-151322200D01*
X197071429Y-151322200D02*
X197166667Y-151369819D01*
X197166667Y-151369819D02*
X197261905Y-151369819D01*
X198023810Y-151369819D02*
X198023810Y-150846009D01*
X198023810Y-150846009D02*
X197976191Y-150750771D01*
X197976191Y-150750771D02*
X197880953Y-150703152D01*
X197880953Y-150703152D02*
X197690477Y-150703152D01*
X197690477Y-150703152D02*
X197595239Y-150750771D01*
X198023810Y-151322200D02*
X197928572Y-151369819D01*
X197928572Y-151369819D02*
X197690477Y-151369819D01*
X197690477Y-151369819D02*
X197595239Y-151322200D01*
X197595239Y-151322200D02*
X197547620Y-151226961D01*
X197547620Y-151226961D02*
X197547620Y-151131723D01*
X197547620Y-151131723D02*
X197595239Y-151036485D01*
X197595239Y-151036485D02*
X197690477Y-150988866D01*
X197690477Y-150988866D02*
X197928572Y-150988866D01*
X197928572Y-150988866D02*
X198023810Y-150941247D01*
X198928572Y-150703152D02*
X198928572Y-151512676D01*
X198928572Y-151512676D02*
X198880953Y-151607914D01*
X198880953Y-151607914D02*
X198833334Y-151655533D01*
X198833334Y-151655533D02*
X198738096Y-151703152D01*
X198738096Y-151703152D02*
X198595239Y-151703152D01*
X198595239Y-151703152D02*
X198500001Y-151655533D01*
X198928572Y-151322200D02*
X198833334Y-151369819D01*
X198833334Y-151369819D02*
X198642858Y-151369819D01*
X198642858Y-151369819D02*
X198547620Y-151322200D01*
X198547620Y-151322200D02*
X198500001Y-151274580D01*
X198500001Y-151274580D02*
X198452382Y-151179342D01*
X198452382Y-151179342D02*
X198452382Y-150893628D01*
X198452382Y-150893628D02*
X198500001Y-150798390D01*
X198500001Y-150798390D02*
X198547620Y-150750771D01*
X198547620Y-150750771D02*
X198642858Y-150703152D01*
X198642858Y-150703152D02*
X198833334Y-150703152D01*
X198833334Y-150703152D02*
X198928572Y-150750771D01*
X199785715Y-151322200D02*
X199690477Y-151369819D01*
X199690477Y-151369819D02*
X199500001Y-151369819D01*
X199500001Y-151369819D02*
X199404763Y-151322200D01*
X199404763Y-151322200D02*
X199357144Y-151226961D01*
X199357144Y-151226961D02*
X199357144Y-150846009D01*
X199357144Y-150846009D02*
X199404763Y-150750771D01*
X199404763Y-150750771D02*
X199500001Y-150703152D01*
X199500001Y-150703152D02*
X199690477Y-150703152D01*
X199690477Y-150703152D02*
X199785715Y-150750771D01*
X199785715Y-150750771D02*
X199833334Y-150846009D01*
X199833334Y-150846009D02*
X199833334Y-150941247D01*
X199833334Y-150941247D02*
X199357144Y-151036485D01*
X200261906Y-151274580D02*
X200309525Y-151322200D01*
X200309525Y-151322200D02*
X200261906Y-151369819D01*
X200261906Y-151369819D02*
X200214287Y-151322200D01*
X200214287Y-151322200D02*
X200261906Y-151274580D01*
X200261906Y-151274580D02*
X200261906Y-151369819D01*
X200261906Y-150988866D02*
X200214287Y-150417438D01*
X200214287Y-150417438D02*
X200261906Y-150369819D01*
X200261906Y-150369819D02*
X200309525Y-150417438D01*
X200309525Y-150417438D02*
X200261906Y-150988866D01*
X200261906Y-150988866D02*
X200261906Y-150369819D01*
X98966666Y-150154819D02*
X98966666Y-150869104D01*
X98966666Y-150869104D02*
X98919047Y-151011961D01*
X98919047Y-151011961D02*
X98823809Y-151107200D01*
X98823809Y-151107200D02*
X98680952Y-151154819D01*
X98680952Y-151154819D02*
X98585714Y-151154819D01*
X99966666Y-151154819D02*
X99395238Y-151154819D01*
X99680952Y-151154819D02*
X99680952Y-150154819D01*
X99680952Y-150154819D02*
X99585714Y-150297676D01*
X99585714Y-150297676D02*
X99490476Y-150392914D01*
X99490476Y-150392914D02*
X99395238Y-150440533D01*
X99080952Y-152554819D02*
X98509524Y-152554819D01*
X98795238Y-152554819D02*
X98795238Y-151554819D01*
X98795238Y-151554819D02*
X98700000Y-151697676D01*
X98700000Y-151697676D02*
X98604762Y-151792914D01*
X98604762Y-151792914D02*
X98509524Y-151840533D01*
X99461905Y-151650057D02*
X99509524Y-151602438D01*
X99509524Y-151602438D02*
X99604762Y-151554819D01*
X99604762Y-151554819D02*
X99842857Y-151554819D01*
X99842857Y-151554819D02*
X99938095Y-151602438D01*
X99938095Y-151602438D02*
X99985714Y-151650057D01*
X99985714Y-151650057D02*
X100033333Y-151745295D01*
X100033333Y-151745295D02*
X100033333Y-151840533D01*
X100033333Y-151840533D02*
X99985714Y-151983390D01*
X99985714Y-151983390D02*
X99414286Y-152554819D01*
X99414286Y-152554819D02*
X100033333Y-152554819D01*
X100319048Y-151554819D02*
X100652381Y-152554819D01*
X100652381Y-152554819D02*
X100985714Y-151554819D01*
X101319048Y-152554819D02*
X101319048Y-151554819D01*
X101319048Y-151554819D02*
X101557143Y-151554819D01*
X101557143Y-151554819D02*
X101700000Y-151602438D01*
X101700000Y-151602438D02*
X101795238Y-151697676D01*
X101795238Y-151697676D02*
X101842857Y-151792914D01*
X101842857Y-151792914D02*
X101890476Y-151983390D01*
X101890476Y-151983390D02*
X101890476Y-152126247D01*
X101890476Y-152126247D02*
X101842857Y-152316723D01*
X101842857Y-152316723D02*
X101795238Y-152411961D01*
X101795238Y-152411961D02*
X101700000Y-152507200D01*
X101700000Y-152507200D02*
X101557143Y-152554819D01*
X101557143Y-152554819D02*
X101319048Y-152554819D01*
X102890476Y-152459580D02*
X102842857Y-152507200D01*
X102842857Y-152507200D02*
X102700000Y-152554819D01*
X102700000Y-152554819D02*
X102604762Y-152554819D01*
X102604762Y-152554819D02*
X102461905Y-152507200D01*
X102461905Y-152507200D02*
X102366667Y-152411961D01*
X102366667Y-152411961D02*
X102319048Y-152316723D01*
X102319048Y-152316723D02*
X102271429Y-152126247D01*
X102271429Y-152126247D02*
X102271429Y-151983390D01*
X102271429Y-151983390D02*
X102319048Y-151792914D01*
X102319048Y-151792914D02*
X102366667Y-151697676D01*
X102366667Y-151697676D02*
X102461905Y-151602438D01*
X102461905Y-151602438D02*
X102604762Y-151554819D01*
X102604762Y-151554819D02*
X102700000Y-151554819D01*
X102700000Y-151554819D02*
X102842857Y-151602438D01*
X102842857Y-151602438D02*
X102890476Y-151650057D01*
X147433333Y-139954819D02*
X147100000Y-139478628D01*
X146861905Y-139954819D02*
X146861905Y-138954819D01*
X146861905Y-138954819D02*
X147242857Y-138954819D01*
X147242857Y-138954819D02*
X147338095Y-139002438D01*
X147338095Y-139002438D02*
X147385714Y-139050057D01*
X147385714Y-139050057D02*
X147433333Y-139145295D01*
X147433333Y-139145295D02*
X147433333Y-139288152D01*
X147433333Y-139288152D02*
X147385714Y-139383390D01*
X147385714Y-139383390D02*
X147338095Y-139431009D01*
X147338095Y-139431009D02*
X147242857Y-139478628D01*
X147242857Y-139478628D02*
X146861905Y-139478628D01*
X148290476Y-139288152D02*
X148290476Y-139954819D01*
X148052381Y-138907200D02*
X147814286Y-139621485D01*
X147814286Y-139621485D02*
X148433333Y-139621485D01*
X196833333Y-147654819D02*
X196500000Y-147178628D01*
X196261905Y-147654819D02*
X196261905Y-146654819D01*
X196261905Y-146654819D02*
X196642857Y-146654819D01*
X196642857Y-146654819D02*
X196738095Y-146702438D01*
X196738095Y-146702438D02*
X196785714Y-146750057D01*
X196785714Y-146750057D02*
X196833333Y-146845295D01*
X196833333Y-146845295D02*
X196833333Y-146988152D01*
X196833333Y-146988152D02*
X196785714Y-147083390D01*
X196785714Y-147083390D02*
X196738095Y-147131009D01*
X196738095Y-147131009D02*
X196642857Y-147178628D01*
X196642857Y-147178628D02*
X196261905Y-147178628D01*
X197166667Y-146654819D02*
X197833333Y-146654819D01*
X197833333Y-146654819D02*
X197404762Y-147654819D01*
X126133333Y-152254819D02*
X125657143Y-152254819D01*
X125657143Y-152254819D02*
X125657143Y-151254819D01*
X126990476Y-152254819D02*
X126419048Y-152254819D01*
X126704762Y-152254819D02*
X126704762Y-151254819D01*
X126704762Y-151254819D02*
X126609524Y-151397676D01*
X126609524Y-151397676D02*
X126514286Y-151492914D01*
X126514286Y-151492914D02*
X126419048Y-151540533D01*
X97703333Y-130359580D02*
X97655714Y-130407200D01*
X97655714Y-130407200D02*
X97512857Y-130454819D01*
X97512857Y-130454819D02*
X97417619Y-130454819D01*
X97417619Y-130454819D02*
X97274762Y-130407200D01*
X97274762Y-130407200D02*
X97179524Y-130311961D01*
X97179524Y-130311961D02*
X97131905Y-130216723D01*
X97131905Y-130216723D02*
X97084286Y-130026247D01*
X97084286Y-130026247D02*
X97084286Y-129883390D01*
X97084286Y-129883390D02*
X97131905Y-129692914D01*
X97131905Y-129692914D02*
X97179524Y-129597676D01*
X97179524Y-129597676D02*
X97274762Y-129502438D01*
X97274762Y-129502438D02*
X97417619Y-129454819D01*
X97417619Y-129454819D02*
X97512857Y-129454819D01*
X97512857Y-129454819D02*
X97655714Y-129502438D01*
X97655714Y-129502438D02*
X97703333Y-129550057D01*
X98036667Y-129454819D02*
X98703333Y-129454819D01*
X98703333Y-129454819D02*
X98274762Y-130454819D01*
X176233333Y-147654819D02*
X175900000Y-147178628D01*
X175661905Y-147654819D02*
X175661905Y-146654819D01*
X175661905Y-146654819D02*
X176042857Y-146654819D01*
X176042857Y-146654819D02*
X176138095Y-146702438D01*
X176138095Y-146702438D02*
X176185714Y-146750057D01*
X176185714Y-146750057D02*
X176233333Y-146845295D01*
X176233333Y-146845295D02*
X176233333Y-146988152D01*
X176233333Y-146988152D02*
X176185714Y-147083390D01*
X176185714Y-147083390D02*
X176138095Y-147131009D01*
X176138095Y-147131009D02*
X176042857Y-147178628D01*
X176042857Y-147178628D02*
X175661905Y-147178628D01*
X176709524Y-147654819D02*
X176900000Y-147654819D01*
X176900000Y-147654819D02*
X176995238Y-147607200D01*
X176995238Y-147607200D02*
X177042857Y-147559580D01*
X177042857Y-147559580D02*
X177138095Y-147416723D01*
X177138095Y-147416723D02*
X177185714Y-147226247D01*
X177185714Y-147226247D02*
X177185714Y-146845295D01*
X177185714Y-146845295D02*
X177138095Y-146750057D01*
X177138095Y-146750057D02*
X177090476Y-146702438D01*
X177090476Y-146702438D02*
X176995238Y-146654819D01*
X176995238Y-146654819D02*
X176804762Y-146654819D01*
X176804762Y-146654819D02*
X176709524Y-146702438D01*
X176709524Y-146702438D02*
X176661905Y-146750057D01*
X176661905Y-146750057D02*
X176614286Y-146845295D01*
X176614286Y-146845295D02*
X176614286Y-147083390D01*
X176614286Y-147083390D02*
X176661905Y-147178628D01*
X176661905Y-147178628D02*
X176709524Y-147226247D01*
X176709524Y-147226247D02*
X176804762Y-147273866D01*
X176804762Y-147273866D02*
X176995238Y-147273866D01*
X176995238Y-147273866D02*
X177090476Y-147226247D01*
X177090476Y-147226247D02*
X177138095Y-147178628D01*
X177138095Y-147178628D02*
X177185714Y-147083390D01*
X99161905Y-145354819D02*
X99161905Y-144354819D01*
X99161905Y-144354819D02*
X99400000Y-144354819D01*
X99400000Y-144354819D02*
X99542857Y-144402438D01*
X99542857Y-144402438D02*
X99638095Y-144497676D01*
X99638095Y-144497676D02*
X99685714Y-144592914D01*
X99685714Y-144592914D02*
X99733333Y-144783390D01*
X99733333Y-144783390D02*
X99733333Y-144926247D01*
X99733333Y-144926247D02*
X99685714Y-145116723D01*
X99685714Y-145116723D02*
X99638095Y-145211961D01*
X99638095Y-145211961D02*
X99542857Y-145307200D01*
X99542857Y-145307200D02*
X99400000Y-145354819D01*
X99400000Y-145354819D02*
X99161905Y-145354819D01*
X100114286Y-144450057D02*
X100161905Y-144402438D01*
X100161905Y-144402438D02*
X100257143Y-144354819D01*
X100257143Y-144354819D02*
X100495238Y-144354819D01*
X100495238Y-144354819D02*
X100590476Y-144402438D01*
X100590476Y-144402438D02*
X100638095Y-144450057D01*
X100638095Y-144450057D02*
X100685714Y-144545295D01*
X100685714Y-144545295D02*
X100685714Y-144640533D01*
X100685714Y-144640533D02*
X100638095Y-144783390D01*
X100638095Y-144783390D02*
X100066667Y-145354819D01*
X100066667Y-145354819D02*
X100685714Y-145354819D01*
X94057142Y-138854819D02*
X93723809Y-138378628D01*
X93485714Y-138854819D02*
X93485714Y-137854819D01*
X93485714Y-137854819D02*
X93866666Y-137854819D01*
X93866666Y-137854819D02*
X93961904Y-137902438D01*
X93961904Y-137902438D02*
X94009523Y-137950057D01*
X94009523Y-137950057D02*
X94057142Y-138045295D01*
X94057142Y-138045295D02*
X94057142Y-138188152D01*
X94057142Y-138188152D02*
X94009523Y-138283390D01*
X94009523Y-138283390D02*
X93961904Y-138331009D01*
X93961904Y-138331009D02*
X93866666Y-138378628D01*
X93866666Y-138378628D02*
X93485714Y-138378628D01*
X95009523Y-138854819D02*
X94438095Y-138854819D01*
X94723809Y-138854819D02*
X94723809Y-137854819D01*
X94723809Y-137854819D02*
X94628571Y-137997676D01*
X94628571Y-137997676D02*
X94533333Y-138092914D01*
X94533333Y-138092914D02*
X94438095Y-138140533D01*
X95866666Y-137854819D02*
X95676190Y-137854819D01*
X95676190Y-137854819D02*
X95580952Y-137902438D01*
X95580952Y-137902438D02*
X95533333Y-137950057D01*
X95533333Y-137950057D02*
X95438095Y-138092914D01*
X95438095Y-138092914D02*
X95390476Y-138283390D01*
X95390476Y-138283390D02*
X95390476Y-138664342D01*
X95390476Y-138664342D02*
X95438095Y-138759580D01*
X95438095Y-138759580D02*
X95485714Y-138807200D01*
X95485714Y-138807200D02*
X95580952Y-138854819D01*
X95580952Y-138854819D02*
X95771428Y-138854819D01*
X95771428Y-138854819D02*
X95866666Y-138807200D01*
X95866666Y-138807200D02*
X95914285Y-138759580D01*
X95914285Y-138759580D02*
X95961904Y-138664342D01*
X95961904Y-138664342D02*
X95961904Y-138426247D01*
X95961904Y-138426247D02*
X95914285Y-138331009D01*
X95914285Y-138331009D02*
X95866666Y-138283390D01*
X95866666Y-138283390D02*
X95771428Y-138235771D01*
X95771428Y-138235771D02*
X95580952Y-138235771D01*
X95580952Y-138235771D02*
X95485714Y-138283390D01*
X95485714Y-138283390D02*
X95438095Y-138331009D01*
X95438095Y-138331009D02*
X95390476Y-138426247D01*
X155933333Y-139559580D02*
X155885714Y-139607200D01*
X155885714Y-139607200D02*
X155742857Y-139654819D01*
X155742857Y-139654819D02*
X155647619Y-139654819D01*
X155647619Y-139654819D02*
X155504762Y-139607200D01*
X155504762Y-139607200D02*
X155409524Y-139511961D01*
X155409524Y-139511961D02*
X155361905Y-139416723D01*
X155361905Y-139416723D02*
X155314286Y-139226247D01*
X155314286Y-139226247D02*
X155314286Y-139083390D01*
X155314286Y-139083390D02*
X155361905Y-138892914D01*
X155361905Y-138892914D02*
X155409524Y-138797676D01*
X155409524Y-138797676D02*
X155504762Y-138702438D01*
X155504762Y-138702438D02*
X155647619Y-138654819D01*
X155647619Y-138654819D02*
X155742857Y-138654819D01*
X155742857Y-138654819D02*
X155885714Y-138702438D01*
X155885714Y-138702438D02*
X155933333Y-138750057D01*
X156885714Y-139654819D02*
X156314286Y-139654819D01*
X156600000Y-139654819D02*
X156600000Y-138654819D01*
X156600000Y-138654819D02*
X156504762Y-138797676D01*
X156504762Y-138797676D02*
X156409524Y-138892914D01*
X156409524Y-138892914D02*
X156314286Y-138940533D01*
X117128571Y-133654819D02*
X117319047Y-133654819D01*
X117319047Y-133654819D02*
X117414285Y-133702438D01*
X117414285Y-133702438D02*
X117509523Y-133797676D01*
X117509523Y-133797676D02*
X117557142Y-133988152D01*
X117557142Y-133988152D02*
X117557142Y-134321485D01*
X117557142Y-134321485D02*
X117509523Y-134511961D01*
X117509523Y-134511961D02*
X117414285Y-134607200D01*
X117414285Y-134607200D02*
X117319047Y-134654819D01*
X117319047Y-134654819D02*
X117128571Y-134654819D01*
X117128571Y-134654819D02*
X117033333Y-134607200D01*
X117033333Y-134607200D02*
X116938095Y-134511961D01*
X116938095Y-134511961D02*
X116890476Y-134321485D01*
X116890476Y-134321485D02*
X116890476Y-133988152D01*
X116890476Y-133988152D02*
X116938095Y-133797676D01*
X116938095Y-133797676D02*
X117033333Y-133702438D01*
X117033333Y-133702438D02*
X117128571Y-133654819D01*
X117985714Y-134654819D02*
X117985714Y-133654819D01*
X118557142Y-134654819D02*
X118128571Y-134083390D01*
X118557142Y-133654819D02*
X117985714Y-134226247D01*
X118890476Y-133654819D02*
X119509523Y-133654819D01*
X119509523Y-133654819D02*
X119176190Y-134035771D01*
X119176190Y-134035771D02*
X119319047Y-134035771D01*
X119319047Y-134035771D02*
X119414285Y-134083390D01*
X119414285Y-134083390D02*
X119461904Y-134131009D01*
X119461904Y-134131009D02*
X119509523Y-134226247D01*
X119509523Y-134226247D02*
X119509523Y-134464342D01*
X119509523Y-134464342D02*
X119461904Y-134559580D01*
X119461904Y-134559580D02*
X119414285Y-134607200D01*
X119414285Y-134607200D02*
X119319047Y-134654819D01*
X119319047Y-134654819D02*
X119033333Y-134654819D01*
X119033333Y-134654819D02*
X118938095Y-134607200D01*
X118938095Y-134607200D02*
X118890476Y-134559580D01*
X74366666Y-150254819D02*
X74366666Y-150969104D01*
X74366666Y-150969104D02*
X74319047Y-151111961D01*
X74319047Y-151111961D02*
X74223809Y-151207200D01*
X74223809Y-151207200D02*
X74080952Y-151254819D01*
X74080952Y-151254819D02*
X73985714Y-151254819D01*
X74795238Y-150350057D02*
X74842857Y-150302438D01*
X74842857Y-150302438D02*
X74938095Y-150254819D01*
X74938095Y-150254819D02*
X75176190Y-150254819D01*
X75176190Y-150254819D02*
X75271428Y-150302438D01*
X75271428Y-150302438D02*
X75319047Y-150350057D01*
X75319047Y-150350057D02*
X75366666Y-150445295D01*
X75366666Y-150445295D02*
X75366666Y-150540533D01*
X75366666Y-150540533D02*
X75319047Y-150683390D01*
X75319047Y-150683390D02*
X74747619Y-151254819D01*
X74747619Y-151254819D02*
X75366666Y-151254819D01*
X70995237Y-152459580D02*
X70947618Y-152507200D01*
X70947618Y-152507200D02*
X70804761Y-152554819D01*
X70804761Y-152554819D02*
X70709523Y-152554819D01*
X70709523Y-152554819D02*
X70566666Y-152507200D01*
X70566666Y-152507200D02*
X70471428Y-152411961D01*
X70471428Y-152411961D02*
X70423809Y-152316723D01*
X70423809Y-152316723D02*
X70376190Y-152126247D01*
X70376190Y-152126247D02*
X70376190Y-151983390D01*
X70376190Y-151983390D02*
X70423809Y-151792914D01*
X70423809Y-151792914D02*
X70471428Y-151697676D01*
X70471428Y-151697676D02*
X70566666Y-151602438D01*
X70566666Y-151602438D02*
X70709523Y-151554819D01*
X70709523Y-151554819D02*
X70804761Y-151554819D01*
X70804761Y-151554819D02*
X70947618Y-151602438D01*
X70947618Y-151602438D02*
X70995237Y-151650057D01*
X71566666Y-152554819D02*
X71471428Y-152507200D01*
X71471428Y-152507200D02*
X71423809Y-152459580D01*
X71423809Y-152459580D02*
X71376190Y-152364342D01*
X71376190Y-152364342D02*
X71376190Y-152078628D01*
X71376190Y-152078628D02*
X71423809Y-151983390D01*
X71423809Y-151983390D02*
X71471428Y-151935771D01*
X71471428Y-151935771D02*
X71566666Y-151888152D01*
X71566666Y-151888152D02*
X71709523Y-151888152D01*
X71709523Y-151888152D02*
X71804761Y-151935771D01*
X71804761Y-151935771D02*
X71852380Y-151983390D01*
X71852380Y-151983390D02*
X71899999Y-152078628D01*
X71899999Y-152078628D02*
X71899999Y-152364342D01*
X71899999Y-152364342D02*
X71852380Y-152459580D01*
X71852380Y-152459580D02*
X71804761Y-152507200D01*
X71804761Y-152507200D02*
X71709523Y-152554819D01*
X71709523Y-152554819D02*
X71566666Y-152554819D01*
X72328571Y-151888152D02*
X72328571Y-152554819D01*
X72328571Y-151983390D02*
X72376190Y-151935771D01*
X72376190Y-151935771D02*
X72471428Y-151888152D01*
X72471428Y-151888152D02*
X72614285Y-151888152D01*
X72614285Y-151888152D02*
X72709523Y-151935771D01*
X72709523Y-151935771D02*
X72757142Y-152031009D01*
X72757142Y-152031009D02*
X72757142Y-152554819D01*
X73090476Y-151888152D02*
X73471428Y-151888152D01*
X73233333Y-151554819D02*
X73233333Y-152411961D01*
X73233333Y-152411961D02*
X73280952Y-152507200D01*
X73280952Y-152507200D02*
X73376190Y-152554819D01*
X73376190Y-152554819D02*
X73471428Y-152554819D01*
X73804762Y-152554819D02*
X73804762Y-151888152D01*
X73804762Y-152078628D02*
X73852381Y-151983390D01*
X73852381Y-151983390D02*
X73900000Y-151935771D01*
X73900000Y-151935771D02*
X73995238Y-151888152D01*
X73995238Y-151888152D02*
X74090476Y-151888152D01*
X74566667Y-152554819D02*
X74471429Y-152507200D01*
X74471429Y-152507200D02*
X74423810Y-152459580D01*
X74423810Y-152459580D02*
X74376191Y-152364342D01*
X74376191Y-152364342D02*
X74376191Y-152078628D01*
X74376191Y-152078628D02*
X74423810Y-151983390D01*
X74423810Y-151983390D02*
X74471429Y-151935771D01*
X74471429Y-151935771D02*
X74566667Y-151888152D01*
X74566667Y-151888152D02*
X74709524Y-151888152D01*
X74709524Y-151888152D02*
X74804762Y-151935771D01*
X74804762Y-151935771D02*
X74852381Y-151983390D01*
X74852381Y-151983390D02*
X74900000Y-152078628D01*
X74900000Y-152078628D02*
X74900000Y-152364342D01*
X74900000Y-152364342D02*
X74852381Y-152459580D01*
X74852381Y-152459580D02*
X74804762Y-152507200D01*
X74804762Y-152507200D02*
X74709524Y-152554819D01*
X74709524Y-152554819D02*
X74566667Y-152554819D01*
X75471429Y-152554819D02*
X75376191Y-152507200D01*
X75376191Y-152507200D02*
X75328572Y-152411961D01*
X75328572Y-152411961D02*
X75328572Y-151554819D01*
X131757142Y-85059580D02*
X131709523Y-85107200D01*
X131709523Y-85107200D02*
X131566666Y-85154819D01*
X131566666Y-85154819D02*
X131471428Y-85154819D01*
X131471428Y-85154819D02*
X131328571Y-85107200D01*
X131328571Y-85107200D02*
X131233333Y-85011961D01*
X131233333Y-85011961D02*
X131185714Y-84916723D01*
X131185714Y-84916723D02*
X131138095Y-84726247D01*
X131138095Y-84726247D02*
X131138095Y-84583390D01*
X131138095Y-84583390D02*
X131185714Y-84392914D01*
X131185714Y-84392914D02*
X131233333Y-84297676D01*
X131233333Y-84297676D02*
X131328571Y-84202438D01*
X131328571Y-84202438D02*
X131471428Y-84154819D01*
X131471428Y-84154819D02*
X131566666Y-84154819D01*
X131566666Y-84154819D02*
X131709523Y-84202438D01*
X131709523Y-84202438D02*
X131757142Y-84250057D01*
X132709523Y-85154819D02*
X132138095Y-85154819D01*
X132423809Y-85154819D02*
X132423809Y-84154819D01*
X132423809Y-84154819D02*
X132328571Y-84297676D01*
X132328571Y-84297676D02*
X132233333Y-84392914D01*
X132233333Y-84392914D02*
X132138095Y-84440533D01*
X133328571Y-84154819D02*
X133423809Y-84154819D01*
X133423809Y-84154819D02*
X133519047Y-84202438D01*
X133519047Y-84202438D02*
X133566666Y-84250057D01*
X133566666Y-84250057D02*
X133614285Y-84345295D01*
X133614285Y-84345295D02*
X133661904Y-84535771D01*
X133661904Y-84535771D02*
X133661904Y-84773866D01*
X133661904Y-84773866D02*
X133614285Y-84964342D01*
X133614285Y-84964342D02*
X133566666Y-85059580D01*
X133566666Y-85059580D02*
X133519047Y-85107200D01*
X133519047Y-85107200D02*
X133423809Y-85154819D01*
X133423809Y-85154819D02*
X133328571Y-85154819D01*
X133328571Y-85154819D02*
X133233333Y-85107200D01*
X133233333Y-85107200D02*
X133185714Y-85059580D01*
X133185714Y-85059580D02*
X133138095Y-84964342D01*
X133138095Y-84964342D02*
X133090476Y-84773866D01*
X133090476Y-84773866D02*
X133090476Y-84535771D01*
X133090476Y-84535771D02*
X133138095Y-84345295D01*
X133138095Y-84345295D02*
X133185714Y-84250057D01*
X133185714Y-84250057D02*
X133233333Y-84202438D01*
X133233333Y-84202438D02*
X133328571Y-84154819D01*
X210833333Y-147654819D02*
X210500000Y-147178628D01*
X210261905Y-147654819D02*
X210261905Y-146654819D01*
X210261905Y-146654819D02*
X210642857Y-146654819D01*
X210642857Y-146654819D02*
X210738095Y-146702438D01*
X210738095Y-146702438D02*
X210785714Y-146750057D01*
X210785714Y-146750057D02*
X210833333Y-146845295D01*
X210833333Y-146845295D02*
X210833333Y-146988152D01*
X210833333Y-146988152D02*
X210785714Y-147083390D01*
X210785714Y-147083390D02*
X210738095Y-147131009D01*
X210738095Y-147131009D02*
X210642857Y-147178628D01*
X210642857Y-147178628D02*
X210261905Y-147178628D01*
X211404762Y-147083390D02*
X211309524Y-147035771D01*
X211309524Y-147035771D02*
X211261905Y-146988152D01*
X211261905Y-146988152D02*
X211214286Y-146892914D01*
X211214286Y-146892914D02*
X211214286Y-146845295D01*
X211214286Y-146845295D02*
X211261905Y-146750057D01*
X211261905Y-146750057D02*
X211309524Y-146702438D01*
X211309524Y-146702438D02*
X211404762Y-146654819D01*
X211404762Y-146654819D02*
X211595238Y-146654819D01*
X211595238Y-146654819D02*
X211690476Y-146702438D01*
X211690476Y-146702438D02*
X211738095Y-146750057D01*
X211738095Y-146750057D02*
X211785714Y-146845295D01*
X211785714Y-146845295D02*
X211785714Y-146892914D01*
X211785714Y-146892914D02*
X211738095Y-146988152D01*
X211738095Y-146988152D02*
X211690476Y-147035771D01*
X211690476Y-147035771D02*
X211595238Y-147083390D01*
X211595238Y-147083390D02*
X211404762Y-147083390D01*
X211404762Y-147083390D02*
X211309524Y-147131009D01*
X211309524Y-147131009D02*
X211261905Y-147178628D01*
X211261905Y-147178628D02*
X211214286Y-147273866D01*
X211214286Y-147273866D02*
X211214286Y-147464342D01*
X211214286Y-147464342D02*
X211261905Y-147559580D01*
X211261905Y-147559580D02*
X211309524Y-147607200D01*
X211309524Y-147607200D02*
X211404762Y-147654819D01*
X211404762Y-147654819D02*
X211595238Y-147654819D01*
X211595238Y-147654819D02*
X211690476Y-147607200D01*
X211690476Y-147607200D02*
X211738095Y-147559580D01*
X211738095Y-147559580D02*
X211785714Y-147464342D01*
X211785714Y-147464342D02*
X211785714Y-147273866D01*
X211785714Y-147273866D02*
X211738095Y-147178628D01*
X211738095Y-147178628D02*
X211690476Y-147131009D01*
X211690476Y-147131009D02*
X211595238Y-147083390D01*
X186028571Y-136954819D02*
X186219047Y-136954819D01*
X186219047Y-136954819D02*
X186314285Y-137002438D01*
X186314285Y-137002438D02*
X186409523Y-137097676D01*
X186409523Y-137097676D02*
X186457142Y-137288152D01*
X186457142Y-137288152D02*
X186457142Y-137621485D01*
X186457142Y-137621485D02*
X186409523Y-137811961D01*
X186409523Y-137811961D02*
X186314285Y-137907200D01*
X186314285Y-137907200D02*
X186219047Y-137954819D01*
X186219047Y-137954819D02*
X186028571Y-137954819D01*
X186028571Y-137954819D02*
X185933333Y-137907200D01*
X185933333Y-137907200D02*
X185838095Y-137811961D01*
X185838095Y-137811961D02*
X185790476Y-137621485D01*
X185790476Y-137621485D02*
X185790476Y-137288152D01*
X185790476Y-137288152D02*
X185838095Y-137097676D01*
X185838095Y-137097676D02*
X185933333Y-137002438D01*
X185933333Y-137002438D02*
X186028571Y-136954819D01*
X186885714Y-137954819D02*
X186885714Y-136954819D01*
X187457142Y-137954819D02*
X187028571Y-137383390D01*
X187457142Y-136954819D02*
X186885714Y-137526247D01*
X187838095Y-137050057D02*
X187885714Y-137002438D01*
X187885714Y-137002438D02*
X187980952Y-136954819D01*
X187980952Y-136954819D02*
X188219047Y-136954819D01*
X188219047Y-136954819D02*
X188314285Y-137002438D01*
X188314285Y-137002438D02*
X188361904Y-137050057D01*
X188361904Y-137050057D02*
X188409523Y-137145295D01*
X188409523Y-137145295D02*
X188409523Y-137240533D01*
X188409523Y-137240533D02*
X188361904Y-137383390D01*
X188361904Y-137383390D02*
X187790476Y-137954819D01*
X187790476Y-137954819D02*
X188409523Y-137954819D01*
X112316666Y-148331009D02*
X111983333Y-148331009D01*
X111983333Y-148854819D02*
X111983333Y-147854819D01*
X111983333Y-147854819D02*
X112459523Y-147854819D01*
X113364285Y-148854819D02*
X112792857Y-148854819D01*
X113078571Y-148854819D02*
X113078571Y-147854819D01*
X113078571Y-147854819D02*
X112983333Y-147997676D01*
X112983333Y-147997676D02*
X112888095Y-148092914D01*
X112888095Y-148092914D02*
X112792857Y-148140533D01*
X110040476Y-150754819D02*
X110611904Y-150754819D01*
X110326190Y-151754819D02*
X110326190Y-150754819D01*
X111421428Y-150754819D02*
X110945238Y-150754819D01*
X110945238Y-150754819D02*
X110897619Y-151231009D01*
X110897619Y-151231009D02*
X110945238Y-151183390D01*
X110945238Y-151183390D02*
X111040476Y-151135771D01*
X111040476Y-151135771D02*
X111278571Y-151135771D01*
X111278571Y-151135771D02*
X111373809Y-151183390D01*
X111373809Y-151183390D02*
X111421428Y-151231009D01*
X111421428Y-151231009D02*
X111469047Y-151326247D01*
X111469047Y-151326247D02*
X111469047Y-151564342D01*
X111469047Y-151564342D02*
X111421428Y-151659580D01*
X111421428Y-151659580D02*
X111373809Y-151707200D01*
X111373809Y-151707200D02*
X111278571Y-151754819D01*
X111278571Y-151754819D02*
X111040476Y-151754819D01*
X111040476Y-151754819D02*
X110945238Y-151707200D01*
X110945238Y-151707200D02*
X110897619Y-151659580D01*
X112088095Y-150754819D02*
X112183333Y-150754819D01*
X112183333Y-150754819D02*
X112278571Y-150802438D01*
X112278571Y-150802438D02*
X112326190Y-150850057D01*
X112326190Y-150850057D02*
X112373809Y-150945295D01*
X112373809Y-150945295D02*
X112421428Y-151135771D01*
X112421428Y-151135771D02*
X112421428Y-151373866D01*
X112421428Y-151373866D02*
X112373809Y-151564342D01*
X112373809Y-151564342D02*
X112326190Y-151659580D01*
X112326190Y-151659580D02*
X112278571Y-151707200D01*
X112278571Y-151707200D02*
X112183333Y-151754819D01*
X112183333Y-151754819D02*
X112088095Y-151754819D01*
X112088095Y-151754819D02*
X111992857Y-151707200D01*
X111992857Y-151707200D02*
X111945238Y-151659580D01*
X111945238Y-151659580D02*
X111897619Y-151564342D01*
X111897619Y-151564342D02*
X111850000Y-151373866D01*
X111850000Y-151373866D02*
X111850000Y-151135771D01*
X111850000Y-151135771D02*
X111897619Y-150945295D01*
X111897619Y-150945295D02*
X111945238Y-150850057D01*
X111945238Y-150850057D02*
X111992857Y-150802438D01*
X111992857Y-150802438D02*
X112088095Y-150754819D01*
X113040476Y-150754819D02*
X113135714Y-150754819D01*
X113135714Y-150754819D02*
X113230952Y-150802438D01*
X113230952Y-150802438D02*
X113278571Y-150850057D01*
X113278571Y-150850057D02*
X113326190Y-150945295D01*
X113326190Y-150945295D02*
X113373809Y-151135771D01*
X113373809Y-151135771D02*
X113373809Y-151373866D01*
X113373809Y-151373866D02*
X113326190Y-151564342D01*
X113326190Y-151564342D02*
X113278571Y-151659580D01*
X113278571Y-151659580D02*
X113230952Y-151707200D01*
X113230952Y-151707200D02*
X113135714Y-151754819D01*
X113135714Y-151754819D02*
X113040476Y-151754819D01*
X113040476Y-151754819D02*
X112945238Y-151707200D01*
X112945238Y-151707200D02*
X112897619Y-151659580D01*
X112897619Y-151659580D02*
X112850000Y-151564342D01*
X112850000Y-151564342D02*
X112802381Y-151373866D01*
X112802381Y-151373866D02*
X112802381Y-151135771D01*
X112802381Y-151135771D02*
X112850000Y-150945295D01*
X112850000Y-150945295D02*
X112897619Y-150850057D01*
X112897619Y-150850057D02*
X112945238Y-150802438D01*
X112945238Y-150802438D02*
X113040476Y-150754819D01*
X113802381Y-151754819D02*
X113802381Y-151088152D01*
X113802381Y-151183390D02*
X113850000Y-151135771D01*
X113850000Y-151135771D02*
X113945238Y-151088152D01*
X113945238Y-151088152D02*
X114088095Y-151088152D01*
X114088095Y-151088152D02*
X114183333Y-151135771D01*
X114183333Y-151135771D02*
X114230952Y-151231009D01*
X114230952Y-151231009D02*
X114230952Y-151754819D01*
X114230952Y-151231009D02*
X114278571Y-151135771D01*
X114278571Y-151135771D02*
X114373809Y-151088152D01*
X114373809Y-151088152D02*
X114516666Y-151088152D01*
X114516666Y-151088152D02*
X114611905Y-151135771D01*
X114611905Y-151135771D02*
X114659524Y-151231009D01*
X114659524Y-151231009D02*
X114659524Y-151754819D01*
X115088095Y-151469104D02*
X115564285Y-151469104D01*
X114992857Y-151754819D02*
X115326190Y-150754819D01*
X115326190Y-150754819D02*
X115659523Y-151754819D01*
X194438095Y-96354819D02*
X194438095Y-97164342D01*
X194438095Y-97164342D02*
X194485714Y-97259580D01*
X194485714Y-97259580D02*
X194533333Y-97307200D01*
X194533333Y-97307200D02*
X194628571Y-97354819D01*
X194628571Y-97354819D02*
X194819047Y-97354819D01*
X194819047Y-97354819D02*
X194914285Y-97307200D01*
X194914285Y-97307200D02*
X194961904Y-97259580D01*
X194961904Y-97259580D02*
X195009523Y-97164342D01*
X195009523Y-97164342D02*
X195009523Y-96354819D01*
X195961904Y-96354819D02*
X195485714Y-96354819D01*
X195485714Y-96354819D02*
X195438095Y-96831009D01*
X195438095Y-96831009D02*
X195485714Y-96783390D01*
X195485714Y-96783390D02*
X195580952Y-96735771D01*
X195580952Y-96735771D02*
X195819047Y-96735771D01*
X195819047Y-96735771D02*
X195914285Y-96783390D01*
X195914285Y-96783390D02*
X195961904Y-96831009D01*
X195961904Y-96831009D02*
X196009523Y-96926247D01*
X196009523Y-96926247D02*
X196009523Y-97164342D01*
X196009523Y-97164342D02*
X195961904Y-97259580D01*
X195961904Y-97259580D02*
X195914285Y-97307200D01*
X195914285Y-97307200D02*
X195819047Y-97354819D01*
X195819047Y-97354819D02*
X195580952Y-97354819D01*
X195580952Y-97354819D02*
X195485714Y-97307200D01*
X195485714Y-97307200D02*
X195438095Y-97259580D01*
X123457142Y-147554819D02*
X123123809Y-147078628D01*
X122885714Y-147554819D02*
X122885714Y-146554819D01*
X122885714Y-146554819D02*
X123266666Y-146554819D01*
X123266666Y-146554819D02*
X123361904Y-146602438D01*
X123361904Y-146602438D02*
X123409523Y-146650057D01*
X123409523Y-146650057D02*
X123457142Y-146745295D01*
X123457142Y-146745295D02*
X123457142Y-146888152D01*
X123457142Y-146888152D02*
X123409523Y-146983390D01*
X123409523Y-146983390D02*
X123361904Y-147031009D01*
X123361904Y-147031009D02*
X123266666Y-147078628D01*
X123266666Y-147078628D02*
X122885714Y-147078628D01*
X124409523Y-147554819D02*
X123838095Y-147554819D01*
X124123809Y-147554819D02*
X124123809Y-146554819D01*
X124123809Y-146554819D02*
X124028571Y-146697676D01*
X124028571Y-146697676D02*
X123933333Y-146792914D01*
X123933333Y-146792914D02*
X123838095Y-146840533D01*
X125266666Y-146888152D02*
X125266666Y-147554819D01*
X125028571Y-146507200D02*
X124790476Y-147221485D01*
X124790476Y-147221485D02*
X125409523Y-147221485D01*
X136533333Y-131254819D02*
X136200000Y-130778628D01*
X135961905Y-131254819D02*
X135961905Y-130254819D01*
X135961905Y-130254819D02*
X136342857Y-130254819D01*
X136342857Y-130254819D02*
X136438095Y-130302438D01*
X136438095Y-130302438D02*
X136485714Y-130350057D01*
X136485714Y-130350057D02*
X136533333Y-130445295D01*
X136533333Y-130445295D02*
X136533333Y-130588152D01*
X136533333Y-130588152D02*
X136485714Y-130683390D01*
X136485714Y-130683390D02*
X136438095Y-130731009D01*
X136438095Y-130731009D02*
X136342857Y-130778628D01*
X136342857Y-130778628D02*
X135961905Y-130778628D01*
X137438095Y-130254819D02*
X136961905Y-130254819D01*
X136961905Y-130254819D02*
X136914286Y-130731009D01*
X136914286Y-130731009D02*
X136961905Y-130683390D01*
X136961905Y-130683390D02*
X137057143Y-130635771D01*
X137057143Y-130635771D02*
X137295238Y-130635771D01*
X137295238Y-130635771D02*
X137390476Y-130683390D01*
X137390476Y-130683390D02*
X137438095Y-130731009D01*
X137438095Y-130731009D02*
X137485714Y-130826247D01*
X137485714Y-130826247D02*
X137485714Y-131064342D01*
X137485714Y-131064342D02*
X137438095Y-131159580D01*
X137438095Y-131159580D02*
X137390476Y-131207200D01*
X137390476Y-131207200D02*
X137295238Y-131254819D01*
X137295238Y-131254819D02*
X137057143Y-131254819D01*
X137057143Y-131254819D02*
X136961905Y-131207200D01*
X136961905Y-131207200D02*
X136914286Y-131159580D01*
X135957142Y-100654819D02*
X135623809Y-100178628D01*
X135385714Y-100654819D02*
X135385714Y-99654819D01*
X135385714Y-99654819D02*
X135766666Y-99654819D01*
X135766666Y-99654819D02*
X135861904Y-99702438D01*
X135861904Y-99702438D02*
X135909523Y-99750057D01*
X135909523Y-99750057D02*
X135957142Y-99845295D01*
X135957142Y-99845295D02*
X135957142Y-99988152D01*
X135957142Y-99988152D02*
X135909523Y-100083390D01*
X135909523Y-100083390D02*
X135861904Y-100131009D01*
X135861904Y-100131009D02*
X135766666Y-100178628D01*
X135766666Y-100178628D02*
X135385714Y-100178628D01*
X136909523Y-100654819D02*
X136338095Y-100654819D01*
X136623809Y-100654819D02*
X136623809Y-99654819D01*
X136623809Y-99654819D02*
X136528571Y-99797676D01*
X136528571Y-99797676D02*
X136433333Y-99892914D01*
X136433333Y-99892914D02*
X136338095Y-99940533D01*
X137861904Y-100654819D02*
X137290476Y-100654819D01*
X137576190Y-100654819D02*
X137576190Y-99654819D01*
X137576190Y-99654819D02*
X137480952Y-99797676D01*
X137480952Y-99797676D02*
X137385714Y-99892914D01*
X137385714Y-99892914D02*
X137290476Y-99940533D01*
X108133333Y-140859580D02*
X108085714Y-140907200D01*
X108085714Y-140907200D02*
X107942857Y-140954819D01*
X107942857Y-140954819D02*
X107847619Y-140954819D01*
X107847619Y-140954819D02*
X107704762Y-140907200D01*
X107704762Y-140907200D02*
X107609524Y-140811961D01*
X107609524Y-140811961D02*
X107561905Y-140716723D01*
X107561905Y-140716723D02*
X107514286Y-140526247D01*
X107514286Y-140526247D02*
X107514286Y-140383390D01*
X107514286Y-140383390D02*
X107561905Y-140192914D01*
X107561905Y-140192914D02*
X107609524Y-140097676D01*
X107609524Y-140097676D02*
X107704762Y-140002438D01*
X107704762Y-140002438D02*
X107847619Y-139954819D01*
X107847619Y-139954819D02*
X107942857Y-139954819D01*
X107942857Y-139954819D02*
X108085714Y-140002438D01*
X108085714Y-140002438D02*
X108133333Y-140050057D01*
X109038095Y-139954819D02*
X108561905Y-139954819D01*
X108561905Y-139954819D02*
X108514286Y-140431009D01*
X108514286Y-140431009D02*
X108561905Y-140383390D01*
X108561905Y-140383390D02*
X108657143Y-140335771D01*
X108657143Y-140335771D02*
X108895238Y-140335771D01*
X108895238Y-140335771D02*
X108990476Y-140383390D01*
X108990476Y-140383390D02*
X109038095Y-140431009D01*
X109038095Y-140431009D02*
X109085714Y-140526247D01*
X109085714Y-140526247D02*
X109085714Y-140764342D01*
X109085714Y-140764342D02*
X109038095Y-140859580D01*
X109038095Y-140859580D02*
X108990476Y-140907200D01*
X108990476Y-140907200D02*
X108895238Y-140954819D01*
X108895238Y-140954819D02*
X108657143Y-140954819D01*
X108657143Y-140954819D02*
X108561905Y-140907200D01*
X108561905Y-140907200D02*
X108514286Y-140859580D01*
X72557142Y-145054819D02*
X72223809Y-144578628D01*
X71985714Y-145054819D02*
X71985714Y-144054819D01*
X71985714Y-144054819D02*
X72366666Y-144054819D01*
X72366666Y-144054819D02*
X72461904Y-144102438D01*
X72461904Y-144102438D02*
X72509523Y-144150057D01*
X72509523Y-144150057D02*
X72557142Y-144245295D01*
X72557142Y-144245295D02*
X72557142Y-144388152D01*
X72557142Y-144388152D02*
X72509523Y-144483390D01*
X72509523Y-144483390D02*
X72461904Y-144531009D01*
X72461904Y-144531009D02*
X72366666Y-144578628D01*
X72366666Y-144578628D02*
X71985714Y-144578628D01*
X73509523Y-145054819D02*
X72938095Y-145054819D01*
X73223809Y-145054819D02*
X73223809Y-144054819D01*
X73223809Y-144054819D02*
X73128571Y-144197676D01*
X73128571Y-144197676D02*
X73033333Y-144292914D01*
X73033333Y-144292914D02*
X72938095Y-144340533D01*
X74414285Y-144054819D02*
X73938095Y-144054819D01*
X73938095Y-144054819D02*
X73890476Y-144531009D01*
X73890476Y-144531009D02*
X73938095Y-144483390D01*
X73938095Y-144483390D02*
X74033333Y-144435771D01*
X74033333Y-144435771D02*
X74271428Y-144435771D01*
X74271428Y-144435771D02*
X74366666Y-144483390D01*
X74366666Y-144483390D02*
X74414285Y-144531009D01*
X74414285Y-144531009D02*
X74461904Y-144626247D01*
X74461904Y-144626247D02*
X74461904Y-144864342D01*
X74461904Y-144864342D02*
X74414285Y-144959580D01*
X74414285Y-144959580D02*
X74366666Y-145007200D01*
X74366666Y-145007200D02*
X74271428Y-145054819D01*
X74271428Y-145054819D02*
X74033333Y-145054819D01*
X74033333Y-145054819D02*
X73938095Y-145007200D01*
X73938095Y-145007200D02*
X73890476Y-144959580D01*
X130633333Y-133259580D02*
X130585714Y-133307200D01*
X130585714Y-133307200D02*
X130442857Y-133354819D01*
X130442857Y-133354819D02*
X130347619Y-133354819D01*
X130347619Y-133354819D02*
X130204762Y-133307200D01*
X130204762Y-133307200D02*
X130109524Y-133211961D01*
X130109524Y-133211961D02*
X130061905Y-133116723D01*
X130061905Y-133116723D02*
X130014286Y-132926247D01*
X130014286Y-132926247D02*
X130014286Y-132783390D01*
X130014286Y-132783390D02*
X130061905Y-132592914D01*
X130061905Y-132592914D02*
X130109524Y-132497676D01*
X130109524Y-132497676D02*
X130204762Y-132402438D01*
X130204762Y-132402438D02*
X130347619Y-132354819D01*
X130347619Y-132354819D02*
X130442857Y-132354819D01*
X130442857Y-132354819D02*
X130585714Y-132402438D01*
X130585714Y-132402438D02*
X130633333Y-132450057D01*
X131490476Y-132688152D02*
X131490476Y-133354819D01*
X131252381Y-132307200D02*
X131014286Y-133021485D01*
X131014286Y-133021485D02*
X131633333Y-133021485D01*
X152738095Y-96354819D02*
X152738095Y-97164342D01*
X152738095Y-97164342D02*
X152785714Y-97259580D01*
X152785714Y-97259580D02*
X152833333Y-97307200D01*
X152833333Y-97307200D02*
X152928571Y-97354819D01*
X152928571Y-97354819D02*
X153119047Y-97354819D01*
X153119047Y-97354819D02*
X153214285Y-97307200D01*
X153214285Y-97307200D02*
X153261904Y-97259580D01*
X153261904Y-97259580D02*
X153309523Y-97164342D01*
X153309523Y-97164342D02*
X153309523Y-96354819D01*
X153690476Y-96354819D02*
X154309523Y-96354819D01*
X154309523Y-96354819D02*
X153976190Y-96735771D01*
X153976190Y-96735771D02*
X154119047Y-96735771D01*
X154119047Y-96735771D02*
X154214285Y-96783390D01*
X154214285Y-96783390D02*
X154261904Y-96831009D01*
X154261904Y-96831009D02*
X154309523Y-96926247D01*
X154309523Y-96926247D02*
X154309523Y-97164342D01*
X154309523Y-97164342D02*
X154261904Y-97259580D01*
X154261904Y-97259580D02*
X154214285Y-97307200D01*
X154214285Y-97307200D02*
X154119047Y-97354819D01*
X154119047Y-97354819D02*
X153833333Y-97354819D01*
X153833333Y-97354819D02*
X153738095Y-97307200D01*
X153738095Y-97307200D02*
X153690476Y-97259580D01*
X113257142Y-134354819D02*
X112923809Y-133878628D01*
X112685714Y-134354819D02*
X112685714Y-133354819D01*
X112685714Y-133354819D02*
X113066666Y-133354819D01*
X113066666Y-133354819D02*
X113161904Y-133402438D01*
X113161904Y-133402438D02*
X113209523Y-133450057D01*
X113209523Y-133450057D02*
X113257142Y-133545295D01*
X113257142Y-133545295D02*
X113257142Y-133688152D01*
X113257142Y-133688152D02*
X113209523Y-133783390D01*
X113209523Y-133783390D02*
X113161904Y-133831009D01*
X113161904Y-133831009D02*
X113066666Y-133878628D01*
X113066666Y-133878628D02*
X112685714Y-133878628D01*
X114209523Y-134354819D02*
X113638095Y-134354819D01*
X113923809Y-134354819D02*
X113923809Y-133354819D01*
X113923809Y-133354819D02*
X113828571Y-133497676D01*
X113828571Y-133497676D02*
X113733333Y-133592914D01*
X113733333Y-133592914D02*
X113638095Y-133640533D01*
X114542857Y-133354819D02*
X115161904Y-133354819D01*
X115161904Y-133354819D02*
X114828571Y-133735771D01*
X114828571Y-133735771D02*
X114971428Y-133735771D01*
X114971428Y-133735771D02*
X115066666Y-133783390D01*
X115066666Y-133783390D02*
X115114285Y-133831009D01*
X115114285Y-133831009D02*
X115161904Y-133926247D01*
X115161904Y-133926247D02*
X115161904Y-134164342D01*
X115161904Y-134164342D02*
X115114285Y-134259580D01*
X115114285Y-134259580D02*
X115066666Y-134307200D01*
X115066666Y-134307200D02*
X114971428Y-134354819D01*
X114971428Y-134354819D02*
X114685714Y-134354819D01*
X114685714Y-134354819D02*
X114590476Y-134307200D01*
X114590476Y-134307200D02*
X114542857Y-134259580D01*
X75928571Y-136454819D02*
X76119047Y-136454819D01*
X76119047Y-136454819D02*
X76214285Y-136502438D01*
X76214285Y-136502438D02*
X76309523Y-136597676D01*
X76309523Y-136597676D02*
X76357142Y-136788152D01*
X76357142Y-136788152D02*
X76357142Y-137121485D01*
X76357142Y-137121485D02*
X76309523Y-137311961D01*
X76309523Y-137311961D02*
X76214285Y-137407200D01*
X76214285Y-137407200D02*
X76119047Y-137454819D01*
X76119047Y-137454819D02*
X75928571Y-137454819D01*
X75928571Y-137454819D02*
X75833333Y-137407200D01*
X75833333Y-137407200D02*
X75738095Y-137311961D01*
X75738095Y-137311961D02*
X75690476Y-137121485D01*
X75690476Y-137121485D02*
X75690476Y-136788152D01*
X75690476Y-136788152D02*
X75738095Y-136597676D01*
X75738095Y-136597676D02*
X75833333Y-136502438D01*
X75833333Y-136502438D02*
X75928571Y-136454819D01*
X76785714Y-137454819D02*
X76785714Y-136454819D01*
X77357142Y-137454819D02*
X76928571Y-136883390D01*
X77357142Y-136454819D02*
X76785714Y-137026247D01*
X78214285Y-136788152D02*
X78214285Y-137454819D01*
X77976190Y-136407200D02*
X77738095Y-137121485D01*
X77738095Y-137121485D02*
X78357142Y-137121485D01*
X179038095Y-148154819D02*
X179609523Y-148154819D01*
X179323809Y-149154819D02*
X179323809Y-148154819D01*
X179942857Y-149154819D02*
X179942857Y-148154819D01*
X179942857Y-148154819D02*
X180323809Y-148154819D01*
X180323809Y-148154819D02*
X180419047Y-148202438D01*
X180419047Y-148202438D02*
X180466666Y-148250057D01*
X180466666Y-148250057D02*
X180514285Y-148345295D01*
X180514285Y-148345295D02*
X180514285Y-148488152D01*
X180514285Y-148488152D02*
X180466666Y-148583390D01*
X180466666Y-148583390D02*
X180419047Y-148631009D01*
X180419047Y-148631009D02*
X180323809Y-148678628D01*
X180323809Y-148678628D02*
X179942857Y-148678628D01*
X181466666Y-149154819D02*
X180895238Y-149154819D01*
X181180952Y-149154819D02*
X181180952Y-148154819D01*
X181180952Y-148154819D02*
X181085714Y-148297676D01*
X181085714Y-148297676D02*
X180990476Y-148392914D01*
X180990476Y-148392914D02*
X180895238Y-148440533D01*
X176961905Y-150373866D02*
X177723810Y-150373866D01*
X177342857Y-150754819D02*
X177342857Y-149992914D01*
X178723809Y-150754819D02*
X178152381Y-150754819D01*
X178438095Y-150754819D02*
X178438095Y-149754819D01*
X178438095Y-149754819D02*
X178342857Y-149897676D01*
X178342857Y-149897676D02*
X178247619Y-149992914D01*
X178247619Y-149992914D02*
X178152381Y-150040533D01*
X179057143Y-149754819D02*
X179723809Y-149754819D01*
X179723809Y-149754819D02*
X179295238Y-150754819D01*
X180295238Y-149754819D02*
X180390476Y-149754819D01*
X180390476Y-149754819D02*
X180485714Y-149802438D01*
X180485714Y-149802438D02*
X180533333Y-149850057D01*
X180533333Y-149850057D02*
X180580952Y-149945295D01*
X180580952Y-149945295D02*
X180628571Y-150135771D01*
X180628571Y-150135771D02*
X180628571Y-150373866D01*
X180628571Y-150373866D02*
X180580952Y-150564342D01*
X180580952Y-150564342D02*
X180533333Y-150659580D01*
X180533333Y-150659580D02*
X180485714Y-150707200D01*
X180485714Y-150707200D02*
X180390476Y-150754819D01*
X180390476Y-150754819D02*
X180295238Y-150754819D01*
X180295238Y-150754819D02*
X180200000Y-150707200D01*
X180200000Y-150707200D02*
X180152381Y-150659580D01*
X180152381Y-150659580D02*
X180104762Y-150564342D01*
X180104762Y-150564342D02*
X180057143Y-150373866D01*
X180057143Y-150373866D02*
X180057143Y-150135771D01*
X180057143Y-150135771D02*
X180104762Y-149945295D01*
X180104762Y-149945295D02*
X180152381Y-149850057D01*
X180152381Y-149850057D02*
X180200000Y-149802438D01*
X180200000Y-149802438D02*
X180295238Y-149754819D01*
X180914286Y-149754819D02*
X181247619Y-150754819D01*
X181247619Y-150754819D02*
X181580952Y-149754819D01*
X150733333Y-142459580D02*
X150685714Y-142507200D01*
X150685714Y-142507200D02*
X150542857Y-142554819D01*
X150542857Y-142554819D02*
X150447619Y-142554819D01*
X150447619Y-142554819D02*
X150304762Y-142507200D01*
X150304762Y-142507200D02*
X150209524Y-142411961D01*
X150209524Y-142411961D02*
X150161905Y-142316723D01*
X150161905Y-142316723D02*
X150114286Y-142126247D01*
X150114286Y-142126247D02*
X150114286Y-141983390D01*
X150114286Y-141983390D02*
X150161905Y-141792914D01*
X150161905Y-141792914D02*
X150209524Y-141697676D01*
X150209524Y-141697676D02*
X150304762Y-141602438D01*
X150304762Y-141602438D02*
X150447619Y-141554819D01*
X150447619Y-141554819D02*
X150542857Y-141554819D01*
X150542857Y-141554819D02*
X150685714Y-141602438D01*
X150685714Y-141602438D02*
X150733333Y-141650057D01*
X151066667Y-141554819D02*
X151685714Y-141554819D01*
X151685714Y-141554819D02*
X151352381Y-141935771D01*
X151352381Y-141935771D02*
X151495238Y-141935771D01*
X151495238Y-141935771D02*
X151590476Y-141983390D01*
X151590476Y-141983390D02*
X151638095Y-142031009D01*
X151638095Y-142031009D02*
X151685714Y-142126247D01*
X151685714Y-142126247D02*
X151685714Y-142364342D01*
X151685714Y-142364342D02*
X151638095Y-142459580D01*
X151638095Y-142459580D02*
X151590476Y-142507200D01*
X151590476Y-142507200D02*
X151495238Y-142554819D01*
X151495238Y-142554819D02*
X151209524Y-142554819D01*
X151209524Y-142554819D02*
X151114286Y-142507200D01*
X151114286Y-142507200D02*
X151066667Y-142459580D01*
X107833333Y-85459580D02*
X107785714Y-85507200D01*
X107785714Y-85507200D02*
X107642857Y-85554819D01*
X107642857Y-85554819D02*
X107547619Y-85554819D01*
X107547619Y-85554819D02*
X107404762Y-85507200D01*
X107404762Y-85507200D02*
X107309524Y-85411961D01*
X107309524Y-85411961D02*
X107261905Y-85316723D01*
X107261905Y-85316723D02*
X107214286Y-85126247D01*
X107214286Y-85126247D02*
X107214286Y-84983390D01*
X107214286Y-84983390D02*
X107261905Y-84792914D01*
X107261905Y-84792914D02*
X107309524Y-84697676D01*
X107309524Y-84697676D02*
X107404762Y-84602438D01*
X107404762Y-84602438D02*
X107547619Y-84554819D01*
X107547619Y-84554819D02*
X107642857Y-84554819D01*
X107642857Y-84554819D02*
X107785714Y-84602438D01*
X107785714Y-84602438D02*
X107833333Y-84650057D01*
X108309524Y-85554819D02*
X108500000Y-85554819D01*
X108500000Y-85554819D02*
X108595238Y-85507200D01*
X108595238Y-85507200D02*
X108642857Y-85459580D01*
X108642857Y-85459580D02*
X108738095Y-85316723D01*
X108738095Y-85316723D02*
X108785714Y-85126247D01*
X108785714Y-85126247D02*
X108785714Y-84745295D01*
X108785714Y-84745295D02*
X108738095Y-84650057D01*
X108738095Y-84650057D02*
X108690476Y-84602438D01*
X108690476Y-84602438D02*
X108595238Y-84554819D01*
X108595238Y-84554819D02*
X108404762Y-84554819D01*
X108404762Y-84554819D02*
X108309524Y-84602438D01*
X108309524Y-84602438D02*
X108261905Y-84650057D01*
X108261905Y-84650057D02*
X108214286Y-84745295D01*
X108214286Y-84745295D02*
X108214286Y-84983390D01*
X108214286Y-84983390D02*
X108261905Y-85078628D01*
X108261905Y-85078628D02*
X108309524Y-85126247D01*
X108309524Y-85126247D02*
X108404762Y-85173866D01*
X108404762Y-85173866D02*
X108595238Y-85173866D01*
X108595238Y-85173866D02*
X108690476Y-85126247D01*
X108690476Y-85126247D02*
X108738095Y-85078628D01*
X108738095Y-85078628D02*
X108785714Y-84983390D01*
X99938095Y-139554819D02*
X99938095Y-140364342D01*
X99938095Y-140364342D02*
X99985714Y-140459580D01*
X99985714Y-140459580D02*
X100033333Y-140507200D01*
X100033333Y-140507200D02*
X100128571Y-140554819D01*
X100128571Y-140554819D02*
X100319047Y-140554819D01*
X100319047Y-140554819D02*
X100414285Y-140507200D01*
X100414285Y-140507200D02*
X100461904Y-140459580D01*
X100461904Y-140459580D02*
X100509523Y-140364342D01*
X100509523Y-140364342D02*
X100509523Y-139554819D01*
X100938095Y-139650057D02*
X100985714Y-139602438D01*
X100985714Y-139602438D02*
X101080952Y-139554819D01*
X101080952Y-139554819D02*
X101319047Y-139554819D01*
X101319047Y-139554819D02*
X101414285Y-139602438D01*
X101414285Y-139602438D02*
X101461904Y-139650057D01*
X101461904Y-139650057D02*
X101509523Y-139745295D01*
X101509523Y-139745295D02*
X101509523Y-139840533D01*
X101509523Y-139840533D02*
X101461904Y-139983390D01*
X101461904Y-139983390D02*
X100890476Y-140554819D01*
X100890476Y-140554819D02*
X101509523Y-140554819D01*
X167933333Y-140054819D02*
X167600000Y-139578628D01*
X167361905Y-140054819D02*
X167361905Y-139054819D01*
X167361905Y-139054819D02*
X167742857Y-139054819D01*
X167742857Y-139054819D02*
X167838095Y-139102438D01*
X167838095Y-139102438D02*
X167885714Y-139150057D01*
X167885714Y-139150057D02*
X167933333Y-139245295D01*
X167933333Y-139245295D02*
X167933333Y-139388152D01*
X167933333Y-139388152D02*
X167885714Y-139483390D01*
X167885714Y-139483390D02*
X167838095Y-139531009D01*
X167838095Y-139531009D02*
X167742857Y-139578628D01*
X167742857Y-139578628D02*
X167361905Y-139578628D01*
X168314286Y-139150057D02*
X168361905Y-139102438D01*
X168361905Y-139102438D02*
X168457143Y-139054819D01*
X168457143Y-139054819D02*
X168695238Y-139054819D01*
X168695238Y-139054819D02*
X168790476Y-139102438D01*
X168790476Y-139102438D02*
X168838095Y-139150057D01*
X168838095Y-139150057D02*
X168885714Y-139245295D01*
X168885714Y-139245295D02*
X168885714Y-139340533D01*
X168885714Y-139340533D02*
X168838095Y-139483390D01*
X168838095Y-139483390D02*
X168266667Y-140054819D01*
X168266667Y-140054819D02*
X168885714Y-140054819D01*
X157004761Y-132750057D02*
X156909523Y-132702438D01*
X156909523Y-132702438D02*
X156814285Y-132607200D01*
X156814285Y-132607200D02*
X156671428Y-132464342D01*
X156671428Y-132464342D02*
X156576190Y-132416723D01*
X156576190Y-132416723D02*
X156480952Y-132416723D01*
X156528571Y-132654819D02*
X156433333Y-132607200D01*
X156433333Y-132607200D02*
X156338095Y-132511961D01*
X156338095Y-132511961D02*
X156290476Y-132321485D01*
X156290476Y-132321485D02*
X156290476Y-131988152D01*
X156290476Y-131988152D02*
X156338095Y-131797676D01*
X156338095Y-131797676D02*
X156433333Y-131702438D01*
X156433333Y-131702438D02*
X156528571Y-131654819D01*
X156528571Y-131654819D02*
X156719047Y-131654819D01*
X156719047Y-131654819D02*
X156814285Y-131702438D01*
X156814285Y-131702438D02*
X156909523Y-131797676D01*
X156909523Y-131797676D02*
X156957142Y-131988152D01*
X156957142Y-131988152D02*
X156957142Y-132321485D01*
X156957142Y-132321485D02*
X156909523Y-132511961D01*
X156909523Y-132511961D02*
X156814285Y-132607200D01*
X156814285Y-132607200D02*
X156719047Y-132654819D01*
X156719047Y-132654819D02*
X156528571Y-132654819D01*
X157909523Y-132654819D02*
X157338095Y-132654819D01*
X157623809Y-132654819D02*
X157623809Y-131654819D01*
X157623809Y-131654819D02*
X157528571Y-131797676D01*
X157528571Y-131797676D02*
X157433333Y-131892914D01*
X157433333Y-131892914D02*
X157338095Y-131940533D01*
X75438095Y-96254819D02*
X75438095Y-97064342D01*
X75438095Y-97064342D02*
X75485714Y-97159580D01*
X75485714Y-97159580D02*
X75533333Y-97207200D01*
X75533333Y-97207200D02*
X75628571Y-97254819D01*
X75628571Y-97254819D02*
X75819047Y-97254819D01*
X75819047Y-97254819D02*
X75914285Y-97207200D01*
X75914285Y-97207200D02*
X75961904Y-97159580D01*
X75961904Y-97159580D02*
X76009523Y-97064342D01*
X76009523Y-97064342D02*
X76009523Y-96254819D01*
X76390476Y-96254819D02*
X77057142Y-96254819D01*
X77057142Y-96254819D02*
X76628571Y-97254819D01*
X167733333Y-134854819D02*
X167400000Y-134378628D01*
X167161905Y-134854819D02*
X167161905Y-133854819D01*
X167161905Y-133854819D02*
X167542857Y-133854819D01*
X167542857Y-133854819D02*
X167638095Y-133902438D01*
X167638095Y-133902438D02*
X167685714Y-133950057D01*
X167685714Y-133950057D02*
X167733333Y-134045295D01*
X167733333Y-134045295D02*
X167733333Y-134188152D01*
X167733333Y-134188152D02*
X167685714Y-134283390D01*
X167685714Y-134283390D02*
X167638095Y-134331009D01*
X167638095Y-134331009D02*
X167542857Y-134378628D01*
X167542857Y-134378628D02*
X167161905Y-134378628D01*
X168685714Y-134854819D02*
X168114286Y-134854819D01*
X168400000Y-134854819D02*
X168400000Y-133854819D01*
X168400000Y-133854819D02*
X168304762Y-133997676D01*
X168304762Y-133997676D02*
X168209524Y-134092914D01*
X168209524Y-134092914D02*
X168114286Y-134140533D01*
X158038095Y-96254819D02*
X158038095Y-97064342D01*
X158038095Y-97064342D02*
X158085714Y-97159580D01*
X158085714Y-97159580D02*
X158133333Y-97207200D01*
X158133333Y-97207200D02*
X158228571Y-97254819D01*
X158228571Y-97254819D02*
X158419047Y-97254819D01*
X158419047Y-97254819D02*
X158514285Y-97207200D01*
X158514285Y-97207200D02*
X158561904Y-97159580D01*
X158561904Y-97159580D02*
X158609523Y-97064342D01*
X158609523Y-97064342D02*
X158609523Y-96254819D01*
X159514285Y-96588152D02*
X159514285Y-97254819D01*
X159276190Y-96207200D02*
X159038095Y-96921485D01*
X159038095Y-96921485D02*
X159657142Y-96921485D01*
X153933333Y-142459580D02*
X153885714Y-142507200D01*
X153885714Y-142507200D02*
X153742857Y-142554819D01*
X153742857Y-142554819D02*
X153647619Y-142554819D01*
X153647619Y-142554819D02*
X153504762Y-142507200D01*
X153504762Y-142507200D02*
X153409524Y-142411961D01*
X153409524Y-142411961D02*
X153361905Y-142316723D01*
X153361905Y-142316723D02*
X153314286Y-142126247D01*
X153314286Y-142126247D02*
X153314286Y-141983390D01*
X153314286Y-141983390D02*
X153361905Y-141792914D01*
X153361905Y-141792914D02*
X153409524Y-141697676D01*
X153409524Y-141697676D02*
X153504762Y-141602438D01*
X153504762Y-141602438D02*
X153647619Y-141554819D01*
X153647619Y-141554819D02*
X153742857Y-141554819D01*
X153742857Y-141554819D02*
X153885714Y-141602438D01*
X153885714Y-141602438D02*
X153933333Y-141650057D01*
X154314286Y-141650057D02*
X154361905Y-141602438D01*
X154361905Y-141602438D02*
X154457143Y-141554819D01*
X154457143Y-141554819D02*
X154695238Y-141554819D01*
X154695238Y-141554819D02*
X154790476Y-141602438D01*
X154790476Y-141602438D02*
X154838095Y-141650057D01*
X154838095Y-141650057D02*
X154885714Y-141745295D01*
X154885714Y-141745295D02*
X154885714Y-141840533D01*
X154885714Y-141840533D02*
X154838095Y-141983390D01*
X154838095Y-141983390D02*
X154266667Y-142554819D01*
X154266667Y-142554819D02*
X154885714Y-142554819D01*
X135957142Y-103654819D02*
X135623809Y-103178628D01*
X135385714Y-103654819D02*
X135385714Y-102654819D01*
X135385714Y-102654819D02*
X135766666Y-102654819D01*
X135766666Y-102654819D02*
X135861904Y-102702438D01*
X135861904Y-102702438D02*
X135909523Y-102750057D01*
X135909523Y-102750057D02*
X135957142Y-102845295D01*
X135957142Y-102845295D02*
X135957142Y-102988152D01*
X135957142Y-102988152D02*
X135909523Y-103083390D01*
X135909523Y-103083390D02*
X135861904Y-103131009D01*
X135861904Y-103131009D02*
X135766666Y-103178628D01*
X135766666Y-103178628D02*
X135385714Y-103178628D01*
X136909523Y-103654819D02*
X136338095Y-103654819D01*
X136623809Y-103654819D02*
X136623809Y-102654819D01*
X136623809Y-102654819D02*
X136528571Y-102797676D01*
X136528571Y-102797676D02*
X136433333Y-102892914D01*
X136433333Y-102892914D02*
X136338095Y-102940533D01*
X137290476Y-102750057D02*
X137338095Y-102702438D01*
X137338095Y-102702438D02*
X137433333Y-102654819D01*
X137433333Y-102654819D02*
X137671428Y-102654819D01*
X137671428Y-102654819D02*
X137766666Y-102702438D01*
X137766666Y-102702438D02*
X137814285Y-102750057D01*
X137814285Y-102750057D02*
X137861904Y-102845295D01*
X137861904Y-102845295D02*
X137861904Y-102940533D01*
X137861904Y-102940533D02*
X137814285Y-103083390D01*
X137814285Y-103083390D02*
X137242857Y-103654819D01*
X137242857Y-103654819D02*
X137861904Y-103654819D01*
X103333333Y-128559580D02*
X103285714Y-128607200D01*
X103285714Y-128607200D02*
X103142857Y-128654819D01*
X103142857Y-128654819D02*
X103047619Y-128654819D01*
X103047619Y-128654819D02*
X102904762Y-128607200D01*
X102904762Y-128607200D02*
X102809524Y-128511961D01*
X102809524Y-128511961D02*
X102761905Y-128416723D01*
X102761905Y-128416723D02*
X102714286Y-128226247D01*
X102714286Y-128226247D02*
X102714286Y-128083390D01*
X102714286Y-128083390D02*
X102761905Y-127892914D01*
X102761905Y-127892914D02*
X102809524Y-127797676D01*
X102809524Y-127797676D02*
X102904762Y-127702438D01*
X102904762Y-127702438D02*
X103047619Y-127654819D01*
X103047619Y-127654819D02*
X103142857Y-127654819D01*
X103142857Y-127654819D02*
X103285714Y-127702438D01*
X103285714Y-127702438D02*
X103333333Y-127750057D01*
X103904762Y-128083390D02*
X103809524Y-128035771D01*
X103809524Y-128035771D02*
X103761905Y-127988152D01*
X103761905Y-127988152D02*
X103714286Y-127892914D01*
X103714286Y-127892914D02*
X103714286Y-127845295D01*
X103714286Y-127845295D02*
X103761905Y-127750057D01*
X103761905Y-127750057D02*
X103809524Y-127702438D01*
X103809524Y-127702438D02*
X103904762Y-127654819D01*
X103904762Y-127654819D02*
X104095238Y-127654819D01*
X104095238Y-127654819D02*
X104190476Y-127702438D01*
X104190476Y-127702438D02*
X104238095Y-127750057D01*
X104238095Y-127750057D02*
X104285714Y-127845295D01*
X104285714Y-127845295D02*
X104285714Y-127892914D01*
X104285714Y-127892914D02*
X104238095Y-127988152D01*
X104238095Y-127988152D02*
X104190476Y-128035771D01*
X104190476Y-128035771D02*
X104095238Y-128083390D01*
X104095238Y-128083390D02*
X103904762Y-128083390D01*
X103904762Y-128083390D02*
X103809524Y-128131009D01*
X103809524Y-128131009D02*
X103761905Y-128178628D01*
X103761905Y-128178628D02*
X103714286Y-128273866D01*
X103714286Y-128273866D02*
X103714286Y-128464342D01*
X103714286Y-128464342D02*
X103761905Y-128559580D01*
X103761905Y-128559580D02*
X103809524Y-128607200D01*
X103809524Y-128607200D02*
X103904762Y-128654819D01*
X103904762Y-128654819D02*
X104095238Y-128654819D01*
X104095238Y-128654819D02*
X104190476Y-128607200D01*
X104190476Y-128607200D02*
X104238095Y-128559580D01*
X104238095Y-128559580D02*
X104285714Y-128464342D01*
X104285714Y-128464342D02*
X104285714Y-128273866D01*
X104285714Y-128273866D02*
X104238095Y-128178628D01*
X104238095Y-128178628D02*
X104190476Y-128131009D01*
X104190476Y-128131009D02*
X104095238Y-128083390D01*
X135933333Y-139654819D02*
X135600000Y-139178628D01*
X135361905Y-139654819D02*
X135361905Y-138654819D01*
X135361905Y-138654819D02*
X135742857Y-138654819D01*
X135742857Y-138654819D02*
X135838095Y-138702438D01*
X135838095Y-138702438D02*
X135885714Y-138750057D01*
X135885714Y-138750057D02*
X135933333Y-138845295D01*
X135933333Y-138845295D02*
X135933333Y-138988152D01*
X135933333Y-138988152D02*
X135885714Y-139083390D01*
X135885714Y-139083390D02*
X135838095Y-139131009D01*
X135838095Y-139131009D02*
X135742857Y-139178628D01*
X135742857Y-139178628D02*
X135361905Y-139178628D01*
X136790476Y-138654819D02*
X136600000Y-138654819D01*
X136600000Y-138654819D02*
X136504762Y-138702438D01*
X136504762Y-138702438D02*
X136457143Y-138750057D01*
X136457143Y-138750057D02*
X136361905Y-138892914D01*
X136361905Y-138892914D02*
X136314286Y-139083390D01*
X136314286Y-139083390D02*
X136314286Y-139464342D01*
X136314286Y-139464342D02*
X136361905Y-139559580D01*
X136361905Y-139559580D02*
X136409524Y-139607200D01*
X136409524Y-139607200D02*
X136504762Y-139654819D01*
X136504762Y-139654819D02*
X136695238Y-139654819D01*
X136695238Y-139654819D02*
X136790476Y-139607200D01*
X136790476Y-139607200D02*
X136838095Y-139559580D01*
X136838095Y-139559580D02*
X136885714Y-139464342D01*
X136885714Y-139464342D02*
X136885714Y-139226247D01*
X136885714Y-139226247D02*
X136838095Y-139131009D01*
X136838095Y-139131009D02*
X136790476Y-139083390D01*
X136790476Y-139083390D02*
X136695238Y-139035771D01*
X136695238Y-139035771D02*
X136504762Y-139035771D01*
X136504762Y-139035771D02*
X136409524Y-139083390D01*
X136409524Y-139083390D02*
X136361905Y-139131009D01*
X136361905Y-139131009D02*
X136314286Y-139226247D01*
X94557142Y-89854819D02*
X94223809Y-89378628D01*
X93985714Y-89854819D02*
X93985714Y-88854819D01*
X93985714Y-88854819D02*
X94366666Y-88854819D01*
X94366666Y-88854819D02*
X94461904Y-88902438D01*
X94461904Y-88902438D02*
X94509523Y-88950057D01*
X94509523Y-88950057D02*
X94557142Y-89045295D01*
X94557142Y-89045295D02*
X94557142Y-89188152D01*
X94557142Y-89188152D02*
X94509523Y-89283390D01*
X94509523Y-89283390D02*
X94461904Y-89331009D01*
X94461904Y-89331009D02*
X94366666Y-89378628D01*
X94366666Y-89378628D02*
X93985714Y-89378628D01*
X95509523Y-89854819D02*
X94938095Y-89854819D01*
X95223809Y-89854819D02*
X95223809Y-88854819D01*
X95223809Y-88854819D02*
X95128571Y-88997676D01*
X95128571Y-88997676D02*
X95033333Y-89092914D01*
X95033333Y-89092914D02*
X94938095Y-89140533D01*
X95842857Y-88854819D02*
X96509523Y-88854819D01*
X96509523Y-88854819D02*
X96080952Y-89854819D01*
X106533333Y-129559580D02*
X106485714Y-129607200D01*
X106485714Y-129607200D02*
X106342857Y-129654819D01*
X106342857Y-129654819D02*
X106247619Y-129654819D01*
X106247619Y-129654819D02*
X106104762Y-129607200D01*
X106104762Y-129607200D02*
X106009524Y-129511961D01*
X106009524Y-129511961D02*
X105961905Y-129416723D01*
X105961905Y-129416723D02*
X105914286Y-129226247D01*
X105914286Y-129226247D02*
X105914286Y-129083390D01*
X105914286Y-129083390D02*
X105961905Y-128892914D01*
X105961905Y-128892914D02*
X106009524Y-128797676D01*
X106009524Y-128797676D02*
X106104762Y-128702438D01*
X106104762Y-128702438D02*
X106247619Y-128654819D01*
X106247619Y-128654819D02*
X106342857Y-128654819D01*
X106342857Y-128654819D02*
X106485714Y-128702438D01*
X106485714Y-128702438D02*
X106533333Y-128750057D01*
X107390476Y-128654819D02*
X107200000Y-128654819D01*
X107200000Y-128654819D02*
X107104762Y-128702438D01*
X107104762Y-128702438D02*
X107057143Y-128750057D01*
X107057143Y-128750057D02*
X106961905Y-128892914D01*
X106961905Y-128892914D02*
X106914286Y-129083390D01*
X106914286Y-129083390D02*
X106914286Y-129464342D01*
X106914286Y-129464342D02*
X106961905Y-129559580D01*
X106961905Y-129559580D02*
X107009524Y-129607200D01*
X107009524Y-129607200D02*
X107104762Y-129654819D01*
X107104762Y-129654819D02*
X107295238Y-129654819D01*
X107295238Y-129654819D02*
X107390476Y-129607200D01*
X107390476Y-129607200D02*
X107438095Y-129559580D01*
X107438095Y-129559580D02*
X107485714Y-129464342D01*
X107485714Y-129464342D02*
X107485714Y-129226247D01*
X107485714Y-129226247D02*
X107438095Y-129131009D01*
X107438095Y-129131009D02*
X107390476Y-129083390D01*
X107390476Y-129083390D02*
X107295238Y-129035771D01*
X107295238Y-129035771D02*
X107104762Y-129035771D01*
X107104762Y-129035771D02*
X107009524Y-129083390D01*
X107009524Y-129083390D02*
X106961905Y-129131009D01*
X106961905Y-129131009D02*
X106914286Y-129226247D01*
X149304761Y-127854819D02*
X148971428Y-127378628D01*
X148733333Y-127854819D02*
X148733333Y-126854819D01*
X148733333Y-126854819D02*
X149114285Y-126854819D01*
X149114285Y-126854819D02*
X149209523Y-126902438D01*
X149209523Y-126902438D02*
X149257142Y-126950057D01*
X149257142Y-126950057D02*
X149304761Y-127045295D01*
X149304761Y-127045295D02*
X149304761Y-127188152D01*
X149304761Y-127188152D02*
X149257142Y-127283390D01*
X149257142Y-127283390D02*
X149209523Y-127331009D01*
X149209523Y-127331009D02*
X149114285Y-127378628D01*
X149114285Y-127378628D02*
X148733333Y-127378628D01*
X149590476Y-126854819D02*
X149923809Y-127854819D01*
X149923809Y-127854819D02*
X150257142Y-126854819D01*
X151114285Y-127854819D02*
X150542857Y-127854819D01*
X150828571Y-127854819D02*
X150828571Y-126854819D01*
X150828571Y-126854819D02*
X150733333Y-126997676D01*
X150733333Y-126997676D02*
X150638095Y-127092914D01*
X150638095Y-127092914D02*
X150542857Y-127140533D01*
X174933333Y-152454819D02*
X174600000Y-151978628D01*
X174361905Y-152454819D02*
X174361905Y-151454819D01*
X174361905Y-151454819D02*
X174742857Y-151454819D01*
X174742857Y-151454819D02*
X174838095Y-151502438D01*
X174838095Y-151502438D02*
X174885714Y-151550057D01*
X174885714Y-151550057D02*
X174933333Y-151645295D01*
X174933333Y-151645295D02*
X174933333Y-151788152D01*
X174933333Y-151788152D02*
X174885714Y-151883390D01*
X174885714Y-151883390D02*
X174838095Y-151931009D01*
X174838095Y-151931009D02*
X174742857Y-151978628D01*
X174742857Y-151978628D02*
X174361905Y-151978628D01*
X175266667Y-151454819D02*
X175885714Y-151454819D01*
X175885714Y-151454819D02*
X175552381Y-151835771D01*
X175552381Y-151835771D02*
X175695238Y-151835771D01*
X175695238Y-151835771D02*
X175790476Y-151883390D01*
X175790476Y-151883390D02*
X175838095Y-151931009D01*
X175838095Y-151931009D02*
X175885714Y-152026247D01*
X175885714Y-152026247D02*
X175885714Y-152264342D01*
X175885714Y-152264342D02*
X175838095Y-152359580D01*
X175838095Y-152359580D02*
X175790476Y-152407200D01*
X175790476Y-152407200D02*
X175695238Y-152454819D01*
X175695238Y-152454819D02*
X175409524Y-152454819D01*
X175409524Y-152454819D02*
X175314286Y-152407200D01*
X175314286Y-152407200D02*
X175266667Y-152359580D01*
X202913571Y-136799819D02*
X203104047Y-136799819D01*
X203104047Y-136799819D02*
X203199285Y-136847438D01*
X203199285Y-136847438D02*
X203294523Y-136942676D01*
X203294523Y-136942676D02*
X203342142Y-137133152D01*
X203342142Y-137133152D02*
X203342142Y-137466485D01*
X203342142Y-137466485D02*
X203294523Y-137656961D01*
X203294523Y-137656961D02*
X203199285Y-137752200D01*
X203199285Y-137752200D02*
X203104047Y-137799819D01*
X203104047Y-137799819D02*
X202913571Y-137799819D01*
X202913571Y-137799819D02*
X202818333Y-137752200D01*
X202818333Y-137752200D02*
X202723095Y-137656961D01*
X202723095Y-137656961D02*
X202675476Y-137466485D01*
X202675476Y-137466485D02*
X202675476Y-137133152D01*
X202675476Y-137133152D02*
X202723095Y-136942676D01*
X202723095Y-136942676D02*
X202818333Y-136847438D01*
X202818333Y-136847438D02*
X202913571Y-136799819D01*
X203770714Y-137799819D02*
X203770714Y-136799819D01*
X204342142Y-137799819D02*
X203913571Y-137228390D01*
X204342142Y-136799819D02*
X203770714Y-137371247D01*
X205294523Y-137799819D02*
X204723095Y-137799819D01*
X205008809Y-137799819D02*
X205008809Y-136799819D01*
X205008809Y-136799819D02*
X204913571Y-136942676D01*
X204913571Y-136942676D02*
X204818333Y-137037914D01*
X204818333Y-137037914D02*
X204723095Y-137085533D01*
X135161905Y-152454819D02*
X135161905Y-151454819D01*
X135161905Y-151454819D02*
X135400000Y-151454819D01*
X135400000Y-151454819D02*
X135542857Y-151502438D01*
X135542857Y-151502438D02*
X135638095Y-151597676D01*
X135638095Y-151597676D02*
X135685714Y-151692914D01*
X135685714Y-151692914D02*
X135733333Y-151883390D01*
X135733333Y-151883390D02*
X135733333Y-152026247D01*
X135733333Y-152026247D02*
X135685714Y-152216723D01*
X135685714Y-152216723D02*
X135638095Y-152311961D01*
X135638095Y-152311961D02*
X135542857Y-152407200D01*
X135542857Y-152407200D02*
X135400000Y-152454819D01*
X135400000Y-152454819D02*
X135161905Y-152454819D01*
X136685714Y-152454819D02*
X136114286Y-152454819D01*
X136400000Y-152454819D02*
X136400000Y-151454819D01*
X136400000Y-151454819D02*
X136304762Y-151597676D01*
X136304762Y-151597676D02*
X136209524Y-151692914D01*
X136209524Y-151692914D02*
X136114286Y-151740533D01*
X110238095Y-96354819D02*
X110238095Y-97164342D01*
X110238095Y-97164342D02*
X110285714Y-97259580D01*
X110285714Y-97259580D02*
X110333333Y-97307200D01*
X110333333Y-97307200D02*
X110428571Y-97354819D01*
X110428571Y-97354819D02*
X110619047Y-97354819D01*
X110619047Y-97354819D02*
X110714285Y-97307200D01*
X110714285Y-97307200D02*
X110761904Y-97259580D01*
X110761904Y-97259580D02*
X110809523Y-97164342D01*
X110809523Y-97164342D02*
X110809523Y-96354819D01*
X111714285Y-96354819D02*
X111523809Y-96354819D01*
X111523809Y-96354819D02*
X111428571Y-96402438D01*
X111428571Y-96402438D02*
X111380952Y-96450057D01*
X111380952Y-96450057D02*
X111285714Y-96592914D01*
X111285714Y-96592914D02*
X111238095Y-96783390D01*
X111238095Y-96783390D02*
X111238095Y-97164342D01*
X111238095Y-97164342D02*
X111285714Y-97259580D01*
X111285714Y-97259580D02*
X111333333Y-97307200D01*
X111333333Y-97307200D02*
X111428571Y-97354819D01*
X111428571Y-97354819D02*
X111619047Y-97354819D01*
X111619047Y-97354819D02*
X111714285Y-97307200D01*
X111714285Y-97307200D02*
X111761904Y-97259580D01*
X111761904Y-97259580D02*
X111809523Y-97164342D01*
X111809523Y-97164342D02*
X111809523Y-96926247D01*
X111809523Y-96926247D02*
X111761904Y-96831009D01*
X111761904Y-96831009D02*
X111714285Y-96783390D01*
X111714285Y-96783390D02*
X111619047Y-96735771D01*
X111619047Y-96735771D02*
X111428571Y-96735771D01*
X111428571Y-96735771D02*
X111333333Y-96783390D01*
X111333333Y-96783390D02*
X111285714Y-96831009D01*
X111285714Y-96831009D02*
X111238095Y-96926247D01*
X155538095Y-140954819D02*
X155538095Y-141764342D01*
X155538095Y-141764342D02*
X155585714Y-141859580D01*
X155585714Y-141859580D02*
X155633333Y-141907200D01*
X155633333Y-141907200D02*
X155728571Y-141954819D01*
X155728571Y-141954819D02*
X155919047Y-141954819D01*
X155919047Y-141954819D02*
X156014285Y-141907200D01*
X156014285Y-141907200D02*
X156061904Y-141859580D01*
X156061904Y-141859580D02*
X156109523Y-141764342D01*
X156109523Y-141764342D02*
X156109523Y-140954819D01*
X157109523Y-141954819D02*
X156538095Y-141954819D01*
X156823809Y-141954819D02*
X156823809Y-140954819D01*
X156823809Y-140954819D02*
X156728571Y-141097676D01*
X156728571Y-141097676D02*
X156633333Y-141192914D01*
X156633333Y-141192914D02*
X156538095Y-141240533D01*
X72557142Y-85359580D02*
X72509523Y-85407200D01*
X72509523Y-85407200D02*
X72366666Y-85454819D01*
X72366666Y-85454819D02*
X72271428Y-85454819D01*
X72271428Y-85454819D02*
X72128571Y-85407200D01*
X72128571Y-85407200D02*
X72033333Y-85311961D01*
X72033333Y-85311961D02*
X71985714Y-85216723D01*
X71985714Y-85216723D02*
X71938095Y-85026247D01*
X71938095Y-85026247D02*
X71938095Y-84883390D01*
X71938095Y-84883390D02*
X71985714Y-84692914D01*
X71985714Y-84692914D02*
X72033333Y-84597676D01*
X72033333Y-84597676D02*
X72128571Y-84502438D01*
X72128571Y-84502438D02*
X72271428Y-84454819D01*
X72271428Y-84454819D02*
X72366666Y-84454819D01*
X72366666Y-84454819D02*
X72509523Y-84502438D01*
X72509523Y-84502438D02*
X72557142Y-84550057D01*
X73509523Y-85454819D02*
X72938095Y-85454819D01*
X73223809Y-85454819D02*
X73223809Y-84454819D01*
X73223809Y-84454819D02*
X73128571Y-84597676D01*
X73128571Y-84597676D02*
X73033333Y-84692914D01*
X73033333Y-84692914D02*
X72938095Y-84740533D01*
X74461904Y-85454819D02*
X73890476Y-85454819D01*
X74176190Y-85454819D02*
X74176190Y-84454819D01*
X74176190Y-84454819D02*
X74080952Y-84597676D01*
X74080952Y-84597676D02*
X73985714Y-84692914D01*
X73985714Y-84692914D02*
X73890476Y-84740533D01*
X189757142Y-147654819D02*
X189423809Y-147178628D01*
X189185714Y-147654819D02*
X189185714Y-146654819D01*
X189185714Y-146654819D02*
X189566666Y-146654819D01*
X189566666Y-146654819D02*
X189661904Y-146702438D01*
X189661904Y-146702438D02*
X189709523Y-146750057D01*
X189709523Y-146750057D02*
X189757142Y-146845295D01*
X189757142Y-146845295D02*
X189757142Y-146988152D01*
X189757142Y-146988152D02*
X189709523Y-147083390D01*
X189709523Y-147083390D02*
X189661904Y-147131009D01*
X189661904Y-147131009D02*
X189566666Y-147178628D01*
X189566666Y-147178628D02*
X189185714Y-147178628D01*
X190709523Y-147654819D02*
X190138095Y-147654819D01*
X190423809Y-147654819D02*
X190423809Y-146654819D01*
X190423809Y-146654819D02*
X190328571Y-146797676D01*
X190328571Y-146797676D02*
X190233333Y-146892914D01*
X190233333Y-146892914D02*
X190138095Y-146940533D01*
X191328571Y-146654819D02*
X191423809Y-146654819D01*
X191423809Y-146654819D02*
X191519047Y-146702438D01*
X191519047Y-146702438D02*
X191566666Y-146750057D01*
X191566666Y-146750057D02*
X191614285Y-146845295D01*
X191614285Y-146845295D02*
X191661904Y-147035771D01*
X191661904Y-147035771D02*
X191661904Y-147273866D01*
X191661904Y-147273866D02*
X191614285Y-147464342D01*
X191614285Y-147464342D02*
X191566666Y-147559580D01*
X191566666Y-147559580D02*
X191519047Y-147607200D01*
X191519047Y-147607200D02*
X191423809Y-147654819D01*
X191423809Y-147654819D02*
X191328571Y-147654819D01*
X191328571Y-147654819D02*
X191233333Y-147607200D01*
X191233333Y-147607200D02*
X191185714Y-147559580D01*
X191185714Y-147559580D02*
X191138095Y-147464342D01*
X191138095Y-147464342D02*
X191090476Y-147273866D01*
X191090476Y-147273866D02*
X191090476Y-147035771D01*
X191090476Y-147035771D02*
X191138095Y-146845295D01*
X191138095Y-146845295D02*
X191185714Y-146750057D01*
X191185714Y-146750057D02*
X191233333Y-146702438D01*
X191233333Y-146702438D02*
X191328571Y-146654819D01*
D12*
X87240000Y-150765000D02*
X87240000Y-152955000D01*
X87240000Y-152955000D02*
X89190000Y-152955000D01*
X87480000Y-144675000D02*
X87480000Y-152715000D01*
X87480000Y-144675000D02*
X98220000Y-144675000D01*
X87480000Y-148295000D02*
X88720000Y-148295000D01*
X87480000Y-149295000D02*
X88720000Y-149295000D01*
X87480000Y-150595000D02*
X88720000Y-150595000D01*
X87480000Y-152715000D02*
X98220000Y-152715000D01*
X92480000Y-148295000D02*
X93765000Y-148295000D01*
X92480000Y-149295000D02*
X93765000Y-149295000D01*
X92480000Y-150595000D02*
X94931000Y-150595000D01*
X94114000Y-150043000D02*
X94114000Y-150043000D01*
X96270000Y-150595000D02*
X98220000Y-150595000D01*
X97087000Y-147547000D02*
X97087000Y-147547000D01*
X97436000Y-148295000D02*
X98220000Y-148295000D01*
X97436000Y-149295000D02*
X98220000Y-149295000D01*
X98220000Y-144675000D02*
X98220000Y-152715000D01*
X88724578Y-149367619D02*
G75*
G02*
X88725000Y-148221000I1875415J572619D01*
G01*
X90633500Y-150755607D02*
G75*
G02*
X90026000Y-150670000I-33500J1960607D01*
G01*
X91173049Y-150669357D02*
G75*
G02*
X90600000Y-150755000I-573051J1874363D01*
G01*
X90027381Y-146919578D02*
G75*
G02*
X91174000Y-146920000I572619J-1875422D01*
G01*
X92475422Y-148222381D02*
G75*
G02*
X92475000Y-149369000I-1875422J-572619D01*
G01*
X94034339Y-149974122D02*
G75*
G02*
X94035000Y-147615000I1565661J1179122D01*
G01*
X94121125Y-150081294D02*
G75*
G02*
X94035001Y-149974999I1478775J1286194D01*
G01*
X94034826Y-147614305D02*
G75*
G02*
X94121000Y-147508000I1564674J-1180295D01*
G01*
X94238710Y-150205010D02*
G75*
G02*
X94120999Y-150081000I1361390J1410110D01*
G01*
X94121202Y-147507988D02*
G75*
G02*
X94239000Y-147384000I1478698J-1286912D01*
G01*
X94367069Y-150318253D02*
G75*
G02*
X94239000Y-150205000I1232831J1523153D01*
G01*
X94238867Y-147384262D02*
G75*
G02*
X94367000Y-147270999I1361233J-1410838D01*
G01*
X94504517Y-150420664D02*
G75*
G02*
X94367000Y-150319000I1095483J1625664D01*
G01*
X94367452Y-147270623D02*
G75*
G02*
X94505000Y-147169000I1232548J-1524377D01*
G01*
X94680344Y-150525739D02*
G75*
G02*
X94532999Y-150439001I919756J1730939D01*
G01*
X94533630Y-147150683D02*
G75*
G02*
X94681002Y-147064003I1066670J-1644917D01*
G01*
X94962283Y-150648815D02*
G75*
G02*
X94772000Y-150572000I637717J1853815D01*
G01*
X94772694Y-147017741D02*
G75*
G02*
X94963000Y-146941000I827306J-1777259D01*
G01*
X95600479Y-150755685D02*
G75*
G02*
X95092999Y-150689004I-479J1960785D01*
G01*
X96107285Y-150688215D02*
G75*
G02*
X95600000Y-150755000I-507285J1893215D01*
G01*
X95093681Y-146901527D02*
G75*
G02*
X95601000Y-146835001I506319J-1893473D01*
G01*
X95600487Y-146834056D02*
G75*
G02*
X96108000Y-146901000I-487J-1960944D01*
G01*
X96429295Y-150572050D02*
G75*
G02*
X96238999Y-150648998I-829395J1777350D01*
G01*
X96238712Y-146941080D02*
G75*
G02*
X96429001Y-147017998I-638812J-1854220D01*
G01*
X96668362Y-150439143D02*
G75*
G02*
X96521000Y-150526000I-1068362J1644143D01*
G01*
X96520652Y-147064174D02*
G75*
G02*
X96667999Y-147151001I-920552J-1730626D01*
G01*
X96833457Y-150318294D02*
G75*
G02*
X96696002Y-150420003I-1233357J1523094D01*
G01*
X96696479Y-147169249D02*
G75*
G02*
X96833999Y-147271001I-1096279J-1625451D01*
G01*
X96962130Y-150205651D02*
G75*
G02*
X96833999Y-150318999I-1362630J1411251D01*
G01*
X96833928Y-147271659D02*
G75*
G02*
X96962000Y-147385000I-1234028J-1523441D01*
G01*
X97079707Y-150080928D02*
G75*
G02*
X96961999Y-150204999I-1479907J1286128D01*
G01*
X96962286Y-147384903D02*
G75*
G02*
X97080000Y-147509000I-1362086J-1409897D01*
G01*
X97166102Y-149974628D02*
G75*
G02*
X97079999Y-150080999I-1566802J1180228D01*
G01*
X97079873Y-147508636D02*
G75*
G02*
X97166000Y-147615000I-1479373J-1285964D01*
G01*
X97165937Y-147614916D02*
G75*
G02*
X97166000Y-149975000I-1565937J-1180084D01*
G01*
X146230000Y-143130000D02*
X146230000Y-149670000D01*
X146230000Y-149670000D02*
X148970000Y-149670000D01*
X147600000Y-142360000D02*
X147600000Y-143130000D01*
X147600000Y-150440000D02*
X147600000Y-149670000D01*
X148970000Y-143130000D02*
X146230000Y-143130000D01*
X148970000Y-149670000D02*
X148970000Y-143130000D01*
X195630000Y-136930000D02*
X195630000Y-143470000D01*
X195630000Y-143470000D02*
X198370000Y-143470000D01*
X197000000Y-136160000D02*
X197000000Y-136930000D01*
X197000000Y-144240000D02*
X197000000Y-143470000D01*
X198370000Y-136930000D02*
X195630000Y-136930000D01*
X198370000Y-143470000D02*
X198370000Y-136930000D01*
X135670000Y-147600000D02*
G75*
G02*
X125930000Y-147600000I-4870000J0D01*
G01*
X125930000Y-147600000D02*
G75*
G02*
X135670000Y-147600000I4870000J0D01*
G01*
X96480000Y-133580000D02*
X96480000Y-137620000D01*
X96480000Y-137620000D02*
X99320000Y-137620000D01*
X97900000Y-132890000D02*
X97900000Y-133580000D01*
X97900000Y-138310000D02*
X97900000Y-137620000D01*
X99320000Y-133580000D02*
X96480000Y-133580000D01*
X99320000Y-137620000D02*
X99320000Y-133580000D01*
X175030000Y-136930000D02*
X175030000Y-143470000D01*
X175030000Y-143470000D02*
X177770000Y-143470000D01*
X176400000Y-136160000D02*
X176400000Y-136930000D01*
X176400000Y-144240000D02*
X176400000Y-143470000D01*
X177770000Y-136930000D02*
X175030000Y-136930000D01*
X177770000Y-143470000D02*
X177770000Y-136930000D01*
X90560000Y-142400000D02*
X91580000Y-142400000D01*
X91580000Y-140930000D02*
X91580000Y-143870000D01*
X91580000Y-143870000D02*
X97020000Y-143870000D01*
X96000000Y-143870000D02*
X96000000Y-140930000D01*
X96120000Y-143870000D02*
X96120000Y-140930000D01*
X96240000Y-143870000D02*
X96240000Y-140930000D01*
X97020000Y-140930000D02*
X91580000Y-140930000D01*
X97020000Y-143870000D02*
X97020000Y-140930000D01*
X98040000Y-142400000D02*
X97020000Y-142400000D01*
X85760000Y-136200000D02*
X86530000Y-136200000D01*
X86530000Y-134830000D02*
X86530000Y-137570000D01*
X86530000Y-137570000D02*
X93070000Y-137570000D01*
X93070000Y-134830000D02*
X86530000Y-134830000D01*
X93070000Y-137570000D02*
X93070000Y-134830000D01*
X93840000Y-136200000D02*
X93070000Y-136200000D01*
X159290000Y-140200000D02*
X159980000Y-140200000D01*
X159980000Y-138780000D02*
X159980000Y-141620000D01*
X159980000Y-141620000D02*
X164020000Y-141620000D01*
X164020000Y-138780000D02*
X159980000Y-138780000D01*
X164020000Y-141620000D02*
X164020000Y-138780000D01*
X164710000Y-140200000D02*
X164020000Y-140200000D01*
X115935000Y-135145000D02*
X115935000Y-142885000D01*
X115935000Y-142885000D02*
X120435000Y-142885000D01*
X117185000Y-135145000D02*
X115935000Y-135145000D01*
X120435000Y-135145000D02*
X119185000Y-135145000D01*
X120435000Y-142885000D02*
X120435000Y-135145000D01*
X119185000Y-135145000D02*
G75*
G02*
X117185000Y-135145000I-1000000J0D01*
G01*
X76000000Y-146610000D02*
X76000000Y-152630000D01*
X76000000Y-152630000D02*
X86380000Y-152630000D01*
X76580000Y-152030000D02*
X76580000Y-152630000D01*
X77380000Y-147610000D02*
X77380000Y-146610000D01*
X77630000Y-146610000D02*
X77630000Y-147610000D01*
X77630000Y-148140000D02*
X77380000Y-147610000D01*
X78180000Y-152030000D02*
X76580000Y-152030000D01*
X78180000Y-152630000D02*
X78180000Y-152030000D01*
X79120000Y-152030000D02*
X79120000Y-152630000D01*
X80720000Y-152030000D02*
X79120000Y-152030000D01*
X80720000Y-152630000D02*
X80720000Y-152030000D01*
X81660000Y-152030000D02*
X81660000Y-152630000D01*
X83260000Y-152030000D02*
X81660000Y-152030000D01*
X83260000Y-152630000D02*
X83260000Y-152030000D01*
X84200000Y-152030000D02*
X84200000Y-152630000D01*
X84750000Y-146610000D02*
X84750000Y-147610000D01*
X84750000Y-148140000D02*
X77630000Y-148140000D01*
X85000000Y-146610000D02*
X85000000Y-147610000D01*
X85000000Y-147610000D02*
X77380000Y-147610000D01*
X85000000Y-147610000D02*
X84750000Y-148140000D01*
X85800000Y-152030000D02*
X84200000Y-152030000D01*
X85800000Y-152630000D02*
X85800000Y-152030000D01*
X86380000Y-146610000D02*
X76000000Y-146610000D01*
X86380000Y-152630000D02*
X86380000Y-146610000D01*
X86670000Y-151600000D02*
X86670000Y-147600000D01*
X130980000Y-88805000D02*
X130980000Y-92845000D01*
X130980000Y-92845000D02*
X133820000Y-92845000D01*
X132400000Y-88115000D02*
X132400000Y-88805000D01*
X132400000Y-93535000D02*
X132400000Y-92845000D01*
X133820000Y-88805000D02*
X130980000Y-88805000D01*
X133820000Y-92845000D02*
X133820000Y-88805000D01*
X209630000Y-136930000D02*
X209630000Y-143470000D01*
X209630000Y-143470000D02*
X212370000Y-143470000D01*
X211000000Y-136160000D02*
X211000000Y-136930000D01*
X211000000Y-144240000D02*
X211000000Y-143470000D01*
X212370000Y-136930000D02*
X209630000Y-136930000D01*
X212370000Y-143470000D02*
X212370000Y-136930000D01*
X181135000Y-138345000D02*
X181135000Y-146085000D01*
X181135000Y-146085000D02*
X185635000Y-146085000D01*
X182385000Y-138345000D02*
X181135000Y-138345000D01*
X185635000Y-138345000D02*
X184385000Y-138345000D01*
X185635000Y-146085000D02*
X185635000Y-138345000D01*
X184385000Y-138345000D02*
G75*
G02*
X182385000Y-138345000I-1000000J0D01*
G01*
X103200000Y-147050000D02*
X103200000Y-148400000D01*
X103200000Y-152550000D02*
X103200000Y-151200000D01*
X107200000Y-147050000D02*
X103200000Y-147050000D01*
X107200000Y-147050000D02*
X107200000Y-148400000D01*
X107200000Y-152550000D02*
X103200000Y-152550000D01*
X107200000Y-152550000D02*
X107200000Y-151200000D01*
X117900000Y-147050000D02*
X117900000Y-148800000D01*
X117900000Y-147300000D02*
X107200000Y-147300000D01*
X117900000Y-152300000D02*
X107200000Y-152300000D01*
X117900000Y-152550000D02*
X117900000Y-150800000D01*
X117900000Y-152550000D02*
X121900000Y-152550000D01*
X121900000Y-147050000D02*
X117900000Y-147050000D01*
X121900000Y-148800000D02*
X121900000Y-147050000D01*
X121900000Y-150800000D02*
X121900000Y-152550000D01*
X194030000Y-88435000D02*
X194030000Y-92935000D01*
X194030000Y-92935000D02*
X214470000Y-92935000D01*
X214470000Y-88435000D02*
X194030000Y-88435000D01*
X214470000Y-89685000D02*
X214470000Y-88435000D01*
X214470000Y-92935000D02*
X214470000Y-91685000D01*
X214470000Y-91685000D02*
G75*
G02*
X214470000Y-89685000I0J1000000D01*
G01*
X115360000Y-144800000D02*
X116130000Y-144800000D01*
X116130000Y-143430000D02*
X116130000Y-146170000D01*
X116130000Y-146170000D02*
X122670000Y-146170000D01*
X122670000Y-143430000D02*
X116130000Y-143430000D01*
X122670000Y-146170000D02*
X122670000Y-143430000D01*
X123440000Y-144800000D02*
X122670000Y-144800000D01*
X137960000Y-133000000D02*
X138730000Y-133000000D01*
X138730000Y-131630000D02*
X138730000Y-134370000D01*
X138730000Y-134370000D02*
X145270000Y-134370000D01*
X145270000Y-131630000D02*
X138730000Y-131630000D01*
X145270000Y-134370000D02*
X145270000Y-131630000D01*
X146040000Y-133000000D02*
X145270000Y-133000000D01*
X140160000Y-100200000D02*
X140930000Y-100200000D01*
X140930000Y-98830000D02*
X140930000Y-101570000D01*
X140930000Y-101570000D02*
X147470000Y-101570000D01*
X147470000Y-98830000D02*
X140930000Y-98830000D01*
X147470000Y-101570000D02*
X147470000Y-98830000D01*
X148240000Y-100200000D02*
X147470000Y-100200000D01*
X101609000Y-143602000D02*
X101609000Y-142798000D01*
X101649000Y-143833000D02*
X101649000Y-142567000D01*
X101689000Y-144002000D02*
X101689000Y-142398000D01*
X101729000Y-144140000D02*
X101729000Y-142260000D01*
X101769000Y-144259000D02*
X101769000Y-142141000D01*
X101809000Y-144365000D02*
X101809000Y-142035000D01*
X101849000Y-144462000D02*
X101849000Y-141938000D01*
X101889000Y-144550000D02*
X101889000Y-141850000D01*
X101929000Y-144632000D02*
X101929000Y-141768000D01*
X101969000Y-144709000D02*
X101969000Y-141691000D01*
X102009000Y-144781000D02*
X102009000Y-141619000D01*
X102049000Y-144850000D02*
X102049000Y-141550000D01*
X102089000Y-144914000D02*
X102089000Y-141486000D01*
X102129000Y-144976000D02*
X102129000Y-141424000D01*
X102169000Y-145034000D02*
X102169000Y-141366000D01*
X102209000Y-145090000D02*
X102209000Y-141310000D01*
X102249000Y-145144000D02*
X102249000Y-141256000D01*
X102289000Y-145195000D02*
X102289000Y-141205000D01*
X102329000Y-145244000D02*
X102329000Y-141156000D01*
X102369000Y-145292000D02*
X102369000Y-141108000D01*
X102409000Y-145337000D02*
X102409000Y-141063000D01*
X102449000Y-145382000D02*
X102449000Y-141018000D01*
X102489000Y-145424000D02*
X102489000Y-140976000D01*
X102529000Y-145465000D02*
X102529000Y-140935000D01*
X102569000Y-142160000D02*
X102569000Y-140895000D01*
X102569000Y-145505000D02*
X102569000Y-144240000D01*
X102609000Y-142160000D02*
X102609000Y-140857000D01*
X102609000Y-145543000D02*
X102609000Y-144240000D01*
X102649000Y-142160000D02*
X102649000Y-140820000D01*
X102649000Y-145580000D02*
X102649000Y-144240000D01*
X102689000Y-142160000D02*
X102689000Y-140784000D01*
X102689000Y-145616000D02*
X102689000Y-144240000D01*
X102729000Y-142160000D02*
X102729000Y-140750000D01*
X102729000Y-145650000D02*
X102729000Y-144240000D01*
X102769000Y-142160000D02*
X102769000Y-140716000D01*
X102769000Y-145684000D02*
X102769000Y-144240000D01*
X102809000Y-142160000D02*
X102809000Y-140684000D01*
X102809000Y-145716000D02*
X102809000Y-144240000D01*
X102849000Y-142160000D02*
X102849000Y-140652000D01*
X102849000Y-145748000D02*
X102849000Y-144240000D01*
X102889000Y-142160000D02*
X102889000Y-140622000D01*
X102889000Y-145778000D02*
X102889000Y-144240000D01*
X102929000Y-142160000D02*
X102929000Y-140593000D01*
X102929000Y-145807000D02*
X102929000Y-144240000D01*
X102969000Y-142160000D02*
X102969000Y-140564000D01*
X102969000Y-145836000D02*
X102969000Y-144240000D01*
X103009000Y-142160000D02*
X103009000Y-140536000D01*
X103009000Y-145864000D02*
X103009000Y-144240000D01*
X103049000Y-142160000D02*
X103049000Y-140510000D01*
X103049000Y-145890000D02*
X103049000Y-144240000D01*
X103089000Y-142160000D02*
X103089000Y-140484000D01*
X103089000Y-145916000D02*
X103089000Y-144240000D01*
X103129000Y-142160000D02*
X103129000Y-140458000D01*
X103129000Y-145942000D02*
X103129000Y-144240000D01*
X103169000Y-142160000D02*
X103169000Y-140434000D01*
X103169000Y-145966000D02*
X103169000Y-144240000D01*
X103209000Y-142160000D02*
X103209000Y-140410000D01*
X103209000Y-145990000D02*
X103209000Y-144240000D01*
X103249000Y-142160000D02*
X103249000Y-140388000D01*
X103249000Y-146012000D02*
X103249000Y-144240000D01*
X103289000Y-142160000D02*
X103289000Y-140366000D01*
X103289000Y-146034000D02*
X103289000Y-144240000D01*
X103329000Y-142160000D02*
X103329000Y-140344000D01*
X103329000Y-146056000D02*
X103329000Y-144240000D01*
X103369000Y-142160000D02*
X103369000Y-140324000D01*
X103369000Y-146076000D02*
X103369000Y-144240000D01*
X103409000Y-142160000D02*
X103409000Y-140304000D01*
X103409000Y-146096000D02*
X103409000Y-144240000D01*
X103449000Y-142160000D02*
X103449000Y-140284000D01*
X103449000Y-146116000D02*
X103449000Y-144240000D01*
X103489000Y-142160000D02*
X103489000Y-140266000D01*
X103489000Y-146134000D02*
X103489000Y-144240000D01*
X103529000Y-142160000D02*
X103529000Y-140248000D01*
X103529000Y-146152000D02*
X103529000Y-144240000D01*
X103569000Y-142160000D02*
X103569000Y-140230000D01*
X103569000Y-146170000D02*
X103569000Y-144240000D01*
X103609000Y-142160000D02*
X103609000Y-140214000D01*
X103609000Y-146186000D02*
X103609000Y-144240000D01*
X103649000Y-142160000D02*
X103649000Y-140198000D01*
X103649000Y-146202000D02*
X103649000Y-144240000D01*
X103689000Y-142160000D02*
X103689000Y-140182000D01*
X103689000Y-146218000D02*
X103689000Y-144240000D01*
X103729000Y-142160000D02*
X103729000Y-140167000D01*
X103729000Y-146233000D02*
X103729000Y-144240000D01*
X103769000Y-142160000D02*
X103769000Y-140153000D01*
X103769000Y-146247000D02*
X103769000Y-144240000D01*
X103809000Y-142160000D02*
X103809000Y-140139000D01*
X103809000Y-146261000D02*
X103809000Y-144240000D01*
X103849000Y-142160000D02*
X103849000Y-140126000D01*
X103849000Y-146274000D02*
X103849000Y-144240000D01*
X103889000Y-142160000D02*
X103889000Y-140114000D01*
X103889000Y-146286000D02*
X103889000Y-144240000D01*
X103929000Y-142160000D02*
X103929000Y-140102000D01*
X103929000Y-146298000D02*
X103929000Y-144240000D01*
X103969000Y-142160000D02*
X103969000Y-140090000D01*
X103969000Y-146310000D02*
X103969000Y-144240000D01*
X104009000Y-142160000D02*
X104009000Y-140079000D01*
X104009000Y-146321000D02*
X104009000Y-144240000D01*
X104049000Y-142160000D02*
X104049000Y-140069000D01*
X104049000Y-146331000D02*
X104049000Y-144240000D01*
X104089000Y-142160000D02*
X104089000Y-140059000D01*
X104089000Y-146341000D02*
X104089000Y-144240000D01*
X104129000Y-142160000D02*
X104129000Y-140050000D01*
X104129000Y-146350000D02*
X104129000Y-144240000D01*
X104170000Y-142160000D02*
X104170000Y-140041000D01*
X104170000Y-146359000D02*
X104170000Y-144240000D01*
X104210000Y-142160000D02*
X104210000Y-140033000D01*
X104210000Y-146367000D02*
X104210000Y-144240000D01*
X104250000Y-142160000D02*
X104250000Y-140025000D01*
X104250000Y-146375000D02*
X104250000Y-144240000D01*
X104290000Y-142160000D02*
X104290000Y-140018000D01*
X104290000Y-146382000D02*
X104290000Y-144240000D01*
X104330000Y-142160000D02*
X104330000Y-140011000D01*
X104330000Y-146389000D02*
X104330000Y-144240000D01*
X104370000Y-142160000D02*
X104370000Y-140005000D01*
X104370000Y-146395000D02*
X104370000Y-144240000D01*
X104410000Y-142160000D02*
X104410000Y-139999000D01*
X104410000Y-146401000D02*
X104410000Y-144240000D01*
X104450000Y-142160000D02*
X104450000Y-139994000D01*
X104450000Y-146406000D02*
X104450000Y-144240000D01*
X104490000Y-142160000D02*
X104490000Y-139989000D01*
X104490000Y-146411000D02*
X104490000Y-144240000D01*
X104530000Y-142160000D02*
X104530000Y-139985000D01*
X104530000Y-146415000D02*
X104530000Y-144240000D01*
X104570000Y-142160000D02*
X104570000Y-139982000D01*
X104570000Y-146418000D02*
X104570000Y-144240000D01*
X104610000Y-142160000D02*
X104610000Y-139978000D01*
X104610000Y-146422000D02*
X104610000Y-144240000D01*
X104650000Y-146424000D02*
X104650000Y-139976000D01*
X104690000Y-146427000D02*
X104690000Y-139973000D01*
X104730000Y-146428000D02*
X104730000Y-139972000D01*
X104770000Y-146430000D02*
X104770000Y-139970000D01*
X104810000Y-146430000D02*
X104810000Y-139970000D01*
X104850000Y-146430000D02*
X104850000Y-139970000D01*
X108035241Y-145354000D02*
X108035241Y-144724000D01*
X108350241Y-145039000D02*
X107720241Y-145039000D01*
X108120000Y-143200000D02*
G75*
G02*
X101580000Y-143200000I-3270000J0D01*
G01*
X101580000Y-143200000D02*
G75*
G02*
X108120000Y-143200000I3270000J0D01*
G01*
X71830000Y-134330000D02*
X71830000Y-140870000D01*
X71830000Y-140870000D02*
X74570000Y-140870000D01*
X73200000Y-133560000D02*
X73200000Y-134330000D01*
X73200000Y-141640000D02*
X73200000Y-140870000D01*
X74570000Y-134330000D02*
X71830000Y-134330000D01*
X74570000Y-140870000D02*
X74570000Y-134330000D01*
X129760000Y-138618349D02*
X126783000Y-138618349D01*
X129760000Y-138658349D02*
X126790000Y-138658349D01*
X129760000Y-138698349D02*
X126798000Y-138698349D01*
X129760000Y-138738349D02*
X126806000Y-138738349D01*
X129760000Y-138778349D02*
X126815000Y-138778349D01*
X129760000Y-138818349D02*
X126824000Y-138818349D01*
X129760000Y-138858349D02*
X126833000Y-138858349D01*
X129760000Y-138898349D02*
X126843000Y-138898349D01*
X129760000Y-138938349D02*
X126853000Y-138938349D01*
X129760000Y-138978349D02*
X126864000Y-138978349D01*
X129760000Y-139018349D02*
X126875000Y-139018349D01*
X129760000Y-139058349D02*
X126886000Y-139058349D01*
X129760000Y-139098349D02*
X126898000Y-139098349D01*
X129760000Y-139138349D02*
X126911000Y-139138349D01*
X129760000Y-139178349D02*
X126923000Y-139178349D01*
X129760000Y-139218349D02*
X126937000Y-139218349D01*
X129760000Y-139258349D02*
X126950000Y-139258349D01*
X129760000Y-139298349D02*
X126965000Y-139298349D01*
X129760000Y-139338349D02*
X126979000Y-139338349D01*
X129760000Y-139378349D02*
X126995000Y-139378349D01*
X129760000Y-139418349D02*
X127010000Y-139418349D01*
X129760000Y-139458349D02*
X127026000Y-139458349D01*
X129760000Y-139498349D02*
X127043000Y-139498349D01*
X129760000Y-139538349D02*
X127060000Y-139538349D01*
X129760000Y-139578349D02*
X127078000Y-139578349D01*
X129760000Y-139618349D02*
X127096000Y-139618349D01*
X129760000Y-139658349D02*
X127114000Y-139658349D01*
X129760000Y-139698349D02*
X127134000Y-139698349D01*
X129760000Y-139738349D02*
X127153000Y-139738349D01*
X129760000Y-139778349D02*
X127173000Y-139778349D01*
X129760000Y-139818349D02*
X127194000Y-139818349D01*
X129760000Y-139858349D02*
X127216000Y-139858349D01*
X129760000Y-139898349D02*
X127238000Y-139898349D01*
X129760000Y-139938349D02*
X127260000Y-139938349D01*
X129760000Y-139978349D02*
X127283000Y-139978349D01*
X129760000Y-140018349D02*
X127307000Y-140018349D01*
X129760000Y-140058349D02*
X127331000Y-140058349D01*
X129760000Y-140098349D02*
X127356000Y-140098349D01*
X129760000Y-140138349D02*
X127382000Y-140138349D01*
X129760000Y-140178349D02*
X127408000Y-140178349D01*
X129760000Y-140218349D02*
X127435000Y-140218349D01*
X129760000Y-140258349D02*
X127462000Y-140258349D01*
X129760000Y-140298349D02*
X127491000Y-140298349D01*
X129760000Y-140338349D02*
X127520000Y-140338349D01*
X129760000Y-140378349D02*
X127550000Y-140378349D01*
X129760000Y-140418349D02*
X127580000Y-140418349D01*
X129760000Y-140458349D02*
X127611000Y-140458349D01*
X129760000Y-140498349D02*
X127644000Y-140498349D01*
X129760000Y-140538349D02*
X127676000Y-140538349D01*
X129760000Y-140578349D02*
X127710000Y-140578349D01*
X129760000Y-140618349D02*
X127745000Y-140618349D01*
X129760000Y-140658349D02*
X127781000Y-140658349D01*
X131333000Y-141978349D02*
X130267000Y-141978349D01*
X131568000Y-141938349D02*
X130032000Y-141938349D01*
X131748000Y-141898349D02*
X129852000Y-141898349D01*
X131898000Y-141858349D02*
X129702000Y-141858349D01*
X132029000Y-141818349D02*
X129571000Y-141818349D01*
X132146000Y-141778349D02*
X129454000Y-141778349D01*
X132253000Y-141738349D02*
X129347000Y-141738349D01*
X132352000Y-141698349D02*
X129248000Y-141698349D01*
X132445000Y-141658349D02*
X129155000Y-141658349D01*
X132531000Y-141618349D02*
X129069000Y-141618349D01*
X132613000Y-141578349D02*
X128987000Y-141578349D01*
X132690000Y-141538349D02*
X128910000Y-141538349D01*
X132764000Y-141498349D02*
X128836000Y-141498349D01*
X132834000Y-141458349D02*
X128766000Y-141458349D01*
X132902000Y-141418349D02*
X128698000Y-141418349D01*
X132966000Y-141378349D02*
X128634000Y-141378349D01*
X133028000Y-141338349D02*
X128572000Y-141338349D01*
X133087000Y-141298349D02*
X128513000Y-141298349D01*
X133115000Y-133487651D02*
X133115000Y-134287651D01*
X133145000Y-141258349D02*
X128455000Y-141258349D01*
X133200000Y-141218349D02*
X128400000Y-141218349D01*
X133254000Y-141178349D02*
X128346000Y-141178349D01*
X133305000Y-141138349D02*
X128295000Y-141138349D01*
X133356000Y-141098349D02*
X128244000Y-141098349D01*
X133404000Y-141058349D02*
X128196000Y-141058349D01*
X133451000Y-141018349D02*
X128149000Y-141018349D01*
X133497000Y-140978349D02*
X128103000Y-140978349D01*
X133515000Y-133887651D02*
X132715000Y-133887651D01*
X133541000Y-140938349D02*
X128059000Y-140938349D01*
X133584000Y-140898349D02*
X128016000Y-140898349D01*
X133626000Y-140858349D02*
X127974000Y-140858349D01*
X133667000Y-140818349D02*
X127933000Y-140818349D01*
X133707000Y-140778349D02*
X127893000Y-140778349D01*
X133745000Y-140738349D02*
X127855000Y-140738349D01*
X133783000Y-140698349D02*
X127817000Y-140698349D01*
X133819000Y-140658349D02*
X131840000Y-140658349D01*
X133855000Y-140618349D02*
X131840000Y-140618349D01*
X133890000Y-140578349D02*
X131840000Y-140578349D01*
X133924000Y-140538349D02*
X131840000Y-140538349D01*
X133956000Y-140498349D02*
X131840000Y-140498349D01*
X133989000Y-140458349D02*
X131840000Y-140458349D01*
X134020000Y-140418349D02*
X131840000Y-140418349D01*
X134050000Y-140378349D02*
X131840000Y-140378349D01*
X134080000Y-140338349D02*
X131840000Y-140338349D01*
X134109000Y-140298349D02*
X131840000Y-140298349D01*
X134138000Y-140258349D02*
X131840000Y-140258349D01*
X134165000Y-140218349D02*
X131840000Y-140218349D01*
X134192000Y-140178349D02*
X131840000Y-140178349D01*
X134218000Y-140138349D02*
X131840000Y-140138349D01*
X134244000Y-140098349D02*
X131840000Y-140098349D01*
X134269000Y-140058349D02*
X131840000Y-140058349D01*
X134293000Y-140018349D02*
X131840000Y-140018349D01*
X134317000Y-139978349D02*
X131840000Y-139978349D01*
X134340000Y-139938349D02*
X131840000Y-139938349D01*
X134362000Y-139898349D02*
X131840000Y-139898349D01*
X134384000Y-139858349D02*
X131840000Y-139858349D01*
X134406000Y-139818349D02*
X131840000Y-139818349D01*
X134427000Y-139778349D02*
X131840000Y-139778349D01*
X134447000Y-139738349D02*
X131840000Y-139738349D01*
X134466000Y-139698349D02*
X131840000Y-139698349D01*
X134486000Y-139658349D02*
X131840000Y-139658349D01*
X134504000Y-139618349D02*
X131840000Y-139618349D01*
X134522000Y-139578349D02*
X131840000Y-139578349D01*
X134540000Y-139538349D02*
X131840000Y-139538349D01*
X134557000Y-139498349D02*
X131840000Y-139498349D01*
X134574000Y-139458349D02*
X131840000Y-139458349D01*
X134590000Y-139418349D02*
X131840000Y-139418349D01*
X134605000Y-139378349D02*
X131840000Y-139378349D01*
X134621000Y-139338349D02*
X131840000Y-139338349D01*
X134635000Y-139298349D02*
X131840000Y-139298349D01*
X134650000Y-139258349D02*
X131840000Y-139258349D01*
X134663000Y-139218349D02*
X131840000Y-139218349D01*
X134677000Y-139178349D02*
X131840000Y-139178349D01*
X134689000Y-139138349D02*
X131840000Y-139138349D01*
X134702000Y-139098349D02*
X131840000Y-139098349D01*
X134714000Y-139058349D02*
X131840000Y-139058349D01*
X134725000Y-139018349D02*
X131840000Y-139018349D01*
X134736000Y-138978349D02*
X131840000Y-138978349D01*
X134747000Y-138938349D02*
X131840000Y-138938349D01*
X134757000Y-138898349D02*
X131840000Y-138898349D01*
X134767000Y-138858349D02*
X131840000Y-138858349D01*
X134776000Y-138818349D02*
X131840000Y-138818349D01*
X134785000Y-138778349D02*
X131840000Y-138778349D01*
X134794000Y-138738349D02*
X131840000Y-138738349D01*
X134802000Y-138698349D02*
X131840000Y-138698349D01*
X134810000Y-138658349D02*
X131840000Y-138658349D01*
X134817000Y-138618349D02*
X131840000Y-138618349D01*
X134824000Y-138577349D02*
X126776000Y-138577349D01*
X134830000Y-138537349D02*
X126770000Y-138537349D01*
X134837000Y-138497349D02*
X126763000Y-138497349D01*
X134842000Y-138457349D02*
X126758000Y-138457349D01*
X134848000Y-138417349D02*
X126752000Y-138417349D01*
X134852000Y-138377349D02*
X126748000Y-138377349D01*
X134857000Y-138337349D02*
X126743000Y-138337349D01*
X134861000Y-138297349D02*
X126739000Y-138297349D01*
X134865000Y-138257349D02*
X126735000Y-138257349D01*
X134868000Y-138217349D02*
X126732000Y-138217349D01*
X134871000Y-138177349D02*
X126729000Y-138177349D01*
X134874000Y-138137349D02*
X126726000Y-138137349D01*
X134876000Y-138097349D02*
X126724000Y-138097349D01*
X134877000Y-138057349D02*
X126723000Y-138057349D01*
X134879000Y-138017349D02*
X126721000Y-138017349D01*
X134880000Y-137897349D02*
X126720000Y-137897349D01*
X134880000Y-137937349D02*
X126720000Y-137937349D01*
X134880000Y-137977349D02*
X126720000Y-137977349D01*
X134920000Y-137897349D02*
G75*
G02*
X126680000Y-137897349I-4120000J0D01*
G01*
X126680000Y-137897349D02*
G75*
G02*
X134920000Y-137897349I4120000J0D01*
G01*
X134370000Y-88565000D02*
X134370000Y-89815000D01*
X134370000Y-91815000D02*
X134370000Y-93065000D01*
X134370000Y-93065000D02*
X154810000Y-93065000D01*
X154810000Y-88565000D02*
X134370000Y-88565000D01*
X154810000Y-93065000D02*
X154810000Y-88565000D01*
X134370000Y-89815000D02*
G75*
G02*
X134370000Y-91815000I0J-1000000D01*
G01*
X109630000Y-135730000D02*
X109630000Y-142270000D01*
X109630000Y-142270000D02*
X112370000Y-142270000D01*
X111000000Y-134960000D02*
X111000000Y-135730000D01*
X111000000Y-143040000D02*
X111000000Y-142270000D01*
X112370000Y-135730000D02*
X109630000Y-135730000D01*
X112370000Y-142270000D02*
X112370000Y-135730000D01*
X78740000Y-137945000D02*
X78740000Y-145685000D01*
X78740000Y-145685000D02*
X83240000Y-145685000D01*
X79990000Y-137945000D02*
X78740000Y-137945000D01*
X83240000Y-137945000D02*
X81990000Y-137945000D01*
X83240000Y-145685000D02*
X83240000Y-137945000D01*
X81990000Y-137945000D02*
G75*
G02*
X79990000Y-137945000I-1000000J0D01*
G01*
X184651000Y-149400000D02*
G75*
G02*
X182149000Y-149400000I-1251000J0D01*
G01*
X182149000Y-149400000D02*
G75*
G02*
X184651000Y-149400000I1251000J0D01*
G01*
X149380000Y-145680000D02*
X149380000Y-149720000D01*
X149380000Y-149720000D02*
X152220000Y-149720000D01*
X150800000Y-144990000D02*
X150800000Y-145680000D01*
X150800000Y-150410000D02*
X150800000Y-149720000D01*
X152220000Y-145680000D02*
X149380000Y-145680000D01*
X152220000Y-149720000D02*
X152220000Y-145680000D01*
X106580000Y-88805000D02*
X106580000Y-92845000D01*
X106580000Y-92845000D02*
X109420000Y-92845000D01*
X108000000Y-88115000D02*
X108000000Y-88805000D01*
X108000000Y-93535000D02*
X108000000Y-92845000D01*
X109420000Y-88805000D02*
X106580000Y-88805000D01*
X109420000Y-92845000D02*
X109420000Y-88805000D01*
X100530000Y-139320000D02*
X104130000Y-139320000D01*
X100518125Y-139311741D02*
G75*
G02*
X101510000Y-135020000I1811875J1841741D01*
G01*
X103110000Y-135020000D02*
G75*
G02*
X104138445Y-139297684I-780000J-2450000D01*
G01*
X167830000Y-143130000D02*
X167830000Y-149670000D01*
X167830000Y-149670000D02*
X170570000Y-149670000D01*
X169200000Y-142360000D02*
X169200000Y-143130000D01*
X169200000Y-150440000D02*
X169200000Y-149670000D01*
X170570000Y-143130000D02*
X167830000Y-143130000D01*
X170570000Y-149670000D02*
X170570000Y-143130000D01*
X161120000Y-137400000D02*
X161120000Y-133800000D01*
X156820000Y-134820000D02*
G75*
G02*
X161097684Y-133791555I2450000J-780000D01*
G01*
X161111741Y-137411875D02*
G75*
G02*
X156820000Y-136420000I-1841741J1811875D01*
G01*
X75170000Y-88465000D02*
X75170000Y-89715000D01*
X75170000Y-91715000D02*
X75170000Y-92965000D01*
X75170000Y-92965000D02*
X93070000Y-92965000D01*
X93070000Y-88465000D02*
X75170000Y-88465000D01*
X93070000Y-92965000D02*
X93070000Y-88465000D01*
X75170000Y-89715000D02*
G75*
G02*
X75170000Y-91715000I0J-1000000D01*
G01*
X163960000Y-136600000D02*
X164730000Y-136600000D01*
X164730000Y-135230000D02*
X164730000Y-137970000D01*
X164730000Y-137970000D02*
X171270000Y-137970000D01*
X171270000Y-135230000D02*
X164730000Y-135230000D01*
X171270000Y-137970000D02*
X171270000Y-135230000D01*
X172040000Y-136600000D02*
X171270000Y-136600000D01*
X157665000Y-88435000D02*
X157665000Y-92935000D01*
X157665000Y-92935000D02*
X178105000Y-92935000D01*
X178105000Y-88435000D02*
X157665000Y-88435000D01*
X178105000Y-89685000D02*
X178105000Y-88435000D01*
X178105000Y-92935000D02*
X178105000Y-91685000D01*
X178105000Y-91685000D02*
G75*
G02*
X178105000Y-89685000I0J1000000D01*
G01*
X153380000Y-145680000D02*
X153380000Y-149720000D01*
X153380000Y-149720000D02*
X156220000Y-149720000D01*
X154800000Y-144990000D02*
X154800000Y-145680000D01*
X154800000Y-150410000D02*
X154800000Y-149720000D01*
X156220000Y-145680000D02*
X153380000Y-145680000D01*
X156220000Y-149720000D02*
X156220000Y-145680000D01*
X140160000Y-103200000D02*
X140930000Y-103200000D01*
X140930000Y-101830000D02*
X140930000Y-104570000D01*
X140930000Y-104570000D02*
X147470000Y-104570000D01*
X147470000Y-101830000D02*
X140930000Y-101830000D01*
X147470000Y-104570000D02*
X147470000Y-101830000D01*
X148240000Y-103200000D02*
X147470000Y-103200000D01*
X99525225Y-130075000D02*
X100025225Y-130075000D01*
X99775225Y-129825000D02*
X99775225Y-130325000D01*
X102330000Y-128970000D02*
X102330000Y-130510000D01*
X102330000Y-132590000D02*
X102330000Y-134130000D01*
X102370000Y-128970000D02*
X102370000Y-130510000D01*
X102370000Y-132590000D02*
X102370000Y-134130000D01*
X102410000Y-128971000D02*
X102410000Y-130510000D01*
X102410000Y-132590000D02*
X102410000Y-134129000D01*
X102450000Y-128972000D02*
X102450000Y-130510000D01*
X102450000Y-132590000D02*
X102450000Y-134128000D01*
X102490000Y-128974000D02*
X102490000Y-130510000D01*
X102490000Y-132590000D02*
X102490000Y-134126000D01*
X102530000Y-128977000D02*
X102530000Y-130510000D01*
X102530000Y-132590000D02*
X102530000Y-134123000D01*
X102570000Y-128981000D02*
X102570000Y-130510000D01*
X102570000Y-132590000D02*
X102570000Y-134119000D01*
X102610000Y-128985000D02*
X102610000Y-130510000D01*
X102610000Y-132590000D02*
X102610000Y-134115000D01*
X102650000Y-128989000D02*
X102650000Y-130510000D01*
X102650000Y-132590000D02*
X102650000Y-134111000D01*
X102690000Y-128994000D02*
X102690000Y-130510000D01*
X102690000Y-132590000D02*
X102690000Y-134106000D01*
X102730000Y-129000000D02*
X102730000Y-130510000D01*
X102730000Y-132590000D02*
X102730000Y-134100000D01*
X102770000Y-129007000D02*
X102770000Y-130510000D01*
X102770000Y-132590000D02*
X102770000Y-134093000D01*
X102810000Y-129014000D02*
X102810000Y-130510000D01*
X102810000Y-132590000D02*
X102810000Y-134086000D01*
X102850000Y-129022000D02*
X102850000Y-130510000D01*
X102850000Y-132590000D02*
X102850000Y-134078000D01*
X102890000Y-129030000D02*
X102890000Y-130510000D01*
X102890000Y-132590000D02*
X102890000Y-134070000D01*
X102930000Y-129039000D02*
X102930000Y-130510000D01*
X102930000Y-132590000D02*
X102930000Y-134061000D01*
X102970000Y-129049000D02*
X102970000Y-130510000D01*
X102970000Y-132590000D02*
X102970000Y-134051000D01*
X103010000Y-129059000D02*
X103010000Y-130510000D01*
X103010000Y-132590000D02*
X103010000Y-134041000D01*
X103051000Y-129070000D02*
X103051000Y-130510000D01*
X103051000Y-132590000D02*
X103051000Y-134030000D01*
X103091000Y-129082000D02*
X103091000Y-130510000D01*
X103091000Y-132590000D02*
X103091000Y-134018000D01*
X103131000Y-129095000D02*
X103131000Y-130510000D01*
X103131000Y-132590000D02*
X103131000Y-134005000D01*
X103171000Y-129108000D02*
X103171000Y-130510000D01*
X103171000Y-132590000D02*
X103171000Y-133992000D01*
X103211000Y-129122000D02*
X103211000Y-130510000D01*
X103211000Y-132590000D02*
X103211000Y-133978000D01*
X103251000Y-129136000D02*
X103251000Y-130510000D01*
X103251000Y-132590000D02*
X103251000Y-133964000D01*
X103291000Y-129152000D02*
X103291000Y-130510000D01*
X103291000Y-132590000D02*
X103291000Y-133948000D01*
X103331000Y-129168000D02*
X103331000Y-130510000D01*
X103331000Y-132590000D02*
X103331000Y-133932000D01*
X103371000Y-129185000D02*
X103371000Y-130510000D01*
X103371000Y-132590000D02*
X103371000Y-133915000D01*
X103411000Y-129202000D02*
X103411000Y-130510000D01*
X103411000Y-132590000D02*
X103411000Y-133898000D01*
X103451000Y-129221000D02*
X103451000Y-130510000D01*
X103451000Y-132590000D02*
X103451000Y-133879000D01*
X103491000Y-129240000D02*
X103491000Y-130510000D01*
X103491000Y-132590000D02*
X103491000Y-133860000D01*
X103531000Y-129260000D02*
X103531000Y-130510000D01*
X103531000Y-132590000D02*
X103531000Y-133840000D01*
X103571000Y-129282000D02*
X103571000Y-130510000D01*
X103571000Y-132590000D02*
X103571000Y-133818000D01*
X103611000Y-129303000D02*
X103611000Y-130510000D01*
X103611000Y-132590000D02*
X103611000Y-133797000D01*
X103651000Y-129326000D02*
X103651000Y-130510000D01*
X103651000Y-132590000D02*
X103651000Y-133774000D01*
X103691000Y-129350000D02*
X103691000Y-130510000D01*
X103691000Y-132590000D02*
X103691000Y-133750000D01*
X103731000Y-129375000D02*
X103731000Y-130510000D01*
X103731000Y-132590000D02*
X103731000Y-133725000D01*
X103771000Y-129401000D02*
X103771000Y-130510000D01*
X103771000Y-132590000D02*
X103771000Y-133699000D01*
X103811000Y-129428000D02*
X103811000Y-130510000D01*
X103811000Y-132590000D02*
X103811000Y-133672000D01*
X103851000Y-129455000D02*
X103851000Y-130510000D01*
X103851000Y-132590000D02*
X103851000Y-133645000D01*
X103891000Y-129485000D02*
X103891000Y-130510000D01*
X103891000Y-132590000D02*
X103891000Y-133615000D01*
X103931000Y-129515000D02*
X103931000Y-130510000D01*
X103931000Y-132590000D02*
X103931000Y-133585000D01*
X103971000Y-129546000D02*
X103971000Y-130510000D01*
X103971000Y-132590000D02*
X103971000Y-133554000D01*
X104011000Y-129579000D02*
X104011000Y-130510000D01*
X104011000Y-132590000D02*
X104011000Y-133521000D01*
X104051000Y-129613000D02*
X104051000Y-130510000D01*
X104051000Y-132590000D02*
X104051000Y-133487000D01*
X104091000Y-129649000D02*
X104091000Y-130510000D01*
X104091000Y-132590000D02*
X104091000Y-133451000D01*
X104131000Y-129686000D02*
X104131000Y-130510000D01*
X104131000Y-132590000D02*
X104131000Y-133414000D01*
X104171000Y-129724000D02*
X104171000Y-130510000D01*
X104171000Y-132590000D02*
X104171000Y-133376000D01*
X104211000Y-129765000D02*
X104211000Y-130510000D01*
X104211000Y-132590000D02*
X104211000Y-133335000D01*
X104251000Y-129807000D02*
X104251000Y-130510000D01*
X104251000Y-132590000D02*
X104251000Y-133293000D01*
X104291000Y-129851000D02*
X104291000Y-130510000D01*
X104291000Y-132590000D02*
X104291000Y-133249000D01*
X104331000Y-129897000D02*
X104331000Y-130510000D01*
X104331000Y-132590000D02*
X104331000Y-133203000D01*
X104371000Y-129945000D02*
X104371000Y-133155000D01*
X104411000Y-129996000D02*
X104411000Y-133104000D01*
X104451000Y-130050000D02*
X104451000Y-133050000D01*
X104491000Y-130107000D02*
X104491000Y-132993000D01*
X104531000Y-130167000D02*
X104531000Y-132933000D01*
X104571000Y-130231000D02*
X104571000Y-132869000D01*
X104611000Y-130299000D02*
X104611000Y-132801000D01*
X104651000Y-130372000D02*
X104651000Y-132728000D01*
X104691000Y-130452000D02*
X104691000Y-132648000D01*
X104731000Y-130539000D02*
X104731000Y-132561000D01*
X104771000Y-130635000D02*
X104771000Y-132465000D01*
X104811000Y-130745000D02*
X104811000Y-132355000D01*
X104851000Y-130873000D02*
X104851000Y-132227000D01*
X104891000Y-131032000D02*
X104891000Y-132068000D01*
X104931000Y-131266000D02*
X104931000Y-131834000D01*
X104950000Y-131550000D02*
G75*
G02*
X99710000Y-131550000I-2620000J0D01*
G01*
X99710000Y-131550000D02*
G75*
G02*
X104950000Y-131550000I2620000J0D01*
G01*
X137960000Y-137000000D02*
X138730000Y-137000000D01*
X138730000Y-135630000D02*
X138730000Y-138370000D01*
X138730000Y-138370000D02*
X145270000Y-138370000D01*
X145270000Y-135630000D02*
X138730000Y-135630000D01*
X145270000Y-138370000D02*
X145270000Y-135630000D01*
X146040000Y-137000000D02*
X145270000Y-137000000D01*
X95960000Y-86900000D02*
X96730000Y-86900000D01*
X96730000Y-85530000D02*
X96730000Y-88270000D01*
X96730000Y-88270000D02*
X103270000Y-88270000D01*
X103270000Y-85530000D02*
X96730000Y-85530000D01*
X103270000Y-88270000D02*
X103270000Y-85530000D01*
X104040000Y-86900000D02*
X103270000Y-86900000D01*
X105310000Y-132730000D02*
X105310000Y-136770000D01*
X105310000Y-136770000D02*
X108150000Y-136770000D01*
X106730000Y-132040000D02*
X106730000Y-132730000D01*
X106730000Y-137460000D02*
X106730000Y-136770000D01*
X108150000Y-132730000D02*
X105310000Y-132730000D01*
X108150000Y-136770000D02*
X108150000Y-132730000D01*
X148550000Y-131790000D02*
X148750000Y-131790000D01*
X148550000Y-133210000D02*
X148550000Y-131790000D01*
X148550000Y-138210000D02*
X148550000Y-136790000D01*
X148550000Y-138210000D02*
X148750000Y-138210000D01*
X148750000Y-131690000D02*
X149440000Y-131690000D01*
X148750000Y-131790000D02*
X148750000Y-131690000D01*
X148750000Y-133210000D02*
X148550000Y-133210000D01*
X148750000Y-136790000D02*
X148550000Y-136790000D01*
X148750000Y-136790000D02*
X148750000Y-133210000D01*
X148750000Y-138210000D02*
X148750000Y-138310000D01*
X148750000Y-138310000D02*
X149000000Y-138310000D01*
X150480000Y-131690000D02*
X154460000Y-131690000D01*
X154460000Y-138310000D02*
X150920000Y-138310000D01*
X155770000Y-133000000D02*
X155770000Y-134490000D01*
X155770000Y-135510000D02*
X155770000Y-137000000D01*
X154460000Y-131690000D02*
G75*
G02*
X155770000Y-133000000I0J-1310000D01*
G01*
X155770000Y-137000000D02*
G75*
G02*
X154460000Y-138310000I-1310000J0D01*
G01*
X171230000Y-143130000D02*
X171230000Y-149670000D01*
X171230000Y-149670000D02*
X173970000Y-149670000D01*
X172600000Y-142360000D02*
X172600000Y-143130000D01*
X172600000Y-150440000D02*
X172600000Y-149670000D01*
X173970000Y-143130000D02*
X171230000Y-143130000D01*
X173970000Y-149670000D02*
X173970000Y-143130000D01*
X201735000Y-138345000D02*
X201735000Y-146085000D01*
X201735000Y-146085000D02*
X206235000Y-146085000D01*
X202985000Y-138345000D02*
X201735000Y-138345000D01*
X206235000Y-138345000D02*
X204985000Y-138345000D01*
X206235000Y-146085000D02*
X206235000Y-138345000D01*
X204985000Y-138345000D02*
G75*
G02*
X202985000Y-138345000I-1000000J0D01*
G01*
X137130000Y-143480000D02*
X137130000Y-148920000D01*
X137130000Y-148920000D02*
X140070000Y-148920000D01*
X138600000Y-142460000D02*
X138600000Y-143480000D01*
X138600000Y-149940000D02*
X138600000Y-148920000D01*
X140070000Y-143480000D02*
X137130000Y-143480000D01*
X140070000Y-144260000D02*
X137130000Y-144260000D01*
X140070000Y-144380000D02*
X137130000Y-144380000D01*
X140070000Y-144500000D02*
X137130000Y-144500000D01*
X140070000Y-148920000D02*
X140070000Y-143480000D01*
X140930000Y-140180000D02*
X145571000Y-140180000D01*
X140930000Y-143449000D02*
X142440000Y-143449000D01*
X140930000Y-147150000D02*
X142440000Y-147150000D01*
X140930000Y-150420000D02*
X140930000Y-140180000D01*
X140930000Y-150420000D02*
X145571000Y-150420000D01*
X142440000Y-150420000D02*
X142440000Y-140180000D01*
X145571000Y-150420000D02*
X145571000Y-140180000D01*
X110030000Y-88585000D02*
X110030000Y-89835000D01*
X110030000Y-91835000D02*
X110030000Y-93085000D01*
X110030000Y-93085000D02*
X130470000Y-93085000D01*
X130470000Y-88585000D02*
X110030000Y-88585000D01*
X130470000Y-93085000D02*
X130470000Y-88585000D01*
X110030000Y-89835000D02*
G75*
G02*
X110030000Y-91835000I0J-1000000D01*
G01*
X159735000Y-142070000D02*
X159735000Y-152350000D01*
X159735000Y-152350000D02*
X164235000Y-152350000D01*
X160985000Y-142070000D02*
X159735000Y-142070000D01*
X164235000Y-142070000D02*
X162985000Y-142070000D01*
X164235000Y-152350000D02*
X164235000Y-142070000D01*
X162985000Y-142070000D02*
G75*
G02*
X160985000Y-142070000I-1000000J0D01*
G01*
X71780000Y-88680000D02*
X71780000Y-92720000D01*
X71780000Y-92720000D02*
X74620000Y-92720000D01*
X73200000Y-87990000D02*
X73200000Y-88680000D01*
X73200000Y-93410000D02*
X73200000Y-92720000D01*
X74620000Y-88680000D02*
X71780000Y-88680000D01*
X74620000Y-92720000D02*
X74620000Y-88680000D01*
X189030000Y-136930000D02*
X189030000Y-143470000D01*
X189030000Y-143470000D02*
X191770000Y-143470000D01*
X190400000Y-136160000D02*
X190400000Y-136930000D01*
X190400000Y-144240000D02*
X190400000Y-143470000D01*
X191770000Y-136930000D02*
X189030000Y-136930000D01*
X191770000Y-143470000D02*
X191770000Y-136930000D01*
%LPC*%
D13*
X90600000Y-148795000D03*
D14*
X95600000Y-148795000D03*
D15*
X68150000Y-148600000D03*
D16*
X147600000Y-151480000D03*
D17*
X147600000Y-141320000D03*
D16*
X197000000Y-145280000D03*
D17*
X197000000Y-135120000D03*
D18*
X130800000Y-150100000D03*
X130800000Y-145100000D03*
D16*
X97900000Y-139350000D03*
D17*
X97900000Y-131850000D03*
D16*
X176400000Y-145280000D03*
D17*
X176400000Y-135120000D03*
D15*
X68150000Y-85800000D03*
D19*
X99380000Y-142400000D03*
D20*
X89220000Y-142400000D03*
D16*
X84720000Y-136200000D03*
D17*
X94880000Y-136200000D03*
D16*
X165750000Y-140200000D03*
D17*
X158250000Y-140200000D03*
D21*
X114375000Y-136475000D03*
D22*
X114375000Y-139015000D03*
X114375000Y-141555000D03*
X121995000Y-141555000D03*
X121995000Y-139015000D03*
X121995000Y-136475000D03*
D23*
X85000000Y-149600000D03*
D24*
X82460000Y-149600000D03*
X79920000Y-149600000D03*
X77380000Y-149600000D03*
D16*
X132400000Y-87075000D03*
D17*
X132400000Y-94575000D03*
D16*
X211000000Y-145280000D03*
D17*
X211000000Y-135120000D03*
D21*
X179575000Y-139675000D03*
D22*
X179575000Y-142215000D03*
X179575000Y-144755000D03*
X187195000Y-144755000D03*
X187195000Y-142215000D03*
X187195000Y-139675000D03*
D25*
X102300000Y-149800000D03*
X108100000Y-149800000D03*
D26*
X117000000Y-149800000D03*
X122800000Y-149800000D03*
D15*
X220150000Y-148600000D03*
D27*
X213140000Y-86875000D03*
D28*
X210600000Y-86875000D03*
X208060000Y-86875000D03*
X205520000Y-86875000D03*
X202980000Y-86875000D03*
X200440000Y-86875000D03*
X197900000Y-86875000D03*
X195360000Y-86875000D03*
X195360000Y-94495000D03*
X197900000Y-94495000D03*
X200440000Y-94495000D03*
X202980000Y-94495000D03*
X205520000Y-94495000D03*
X208060000Y-94495000D03*
X210600000Y-94495000D03*
X213140000Y-94495000D03*
D16*
X114320000Y-144800000D03*
D17*
X124480000Y-144800000D03*
D16*
X136920000Y-133000000D03*
D17*
X147080000Y-133000000D03*
D16*
X139120000Y-100200000D03*
D17*
X149280000Y-100200000D03*
D29*
X106100000Y-143200000D03*
D16*
X103600000Y-143200000D03*
X73200000Y-142680000D03*
D17*
X73200000Y-132520000D03*
D29*
X130800000Y-136147349D03*
D16*
X130800000Y-139647349D03*
D27*
X135700000Y-94625000D03*
D28*
X138240000Y-94625000D03*
X140780000Y-94625000D03*
X143320000Y-94625000D03*
X145860000Y-94625000D03*
X148400000Y-94625000D03*
X150940000Y-94625000D03*
X153480000Y-94625000D03*
X153480000Y-87005000D03*
X150940000Y-87005000D03*
X148400000Y-87005000D03*
X145860000Y-87005000D03*
X143320000Y-87005000D03*
X140780000Y-87005000D03*
X138240000Y-87005000D03*
X135700000Y-87005000D03*
D16*
X111000000Y-144080000D03*
D17*
X111000000Y-133920000D03*
D21*
X77180000Y-139275000D03*
D22*
X77180000Y-141815000D03*
X77180000Y-144355000D03*
X84800000Y-144355000D03*
X84800000Y-141815000D03*
X84800000Y-139275000D03*
D30*
X183400000Y-149400000D03*
D16*
X150800000Y-151450000D03*
D17*
X150800000Y-143950000D03*
D16*
X108000000Y-87075000D03*
D17*
X108000000Y-94575000D03*
D31*
X101060000Y-137870000D03*
D32*
X102330000Y-135800000D03*
X103600000Y-137870000D03*
D16*
X169200000Y-141320000D03*
D17*
X169200000Y-151480000D03*
D33*
X159670000Y-136870000D03*
D34*
X157600000Y-135600000D03*
X159670000Y-134330000D03*
D27*
X76500000Y-94525000D03*
D28*
X79040000Y-94525000D03*
X81580000Y-94525000D03*
X84120000Y-94525000D03*
X86660000Y-94525000D03*
X89200000Y-94525000D03*
X91740000Y-94525000D03*
X91740000Y-86905000D03*
X89200000Y-86905000D03*
X86660000Y-86905000D03*
X84120000Y-86905000D03*
X81580000Y-86905000D03*
X79040000Y-86905000D03*
X76500000Y-86905000D03*
D15*
X220150000Y-85800000D03*
D16*
X173080000Y-136600000D03*
D17*
X162920000Y-136600000D03*
D27*
X176775000Y-86875000D03*
D28*
X174235000Y-86875000D03*
X171695000Y-86875000D03*
X169155000Y-86875000D03*
X166615000Y-86875000D03*
X164075000Y-86875000D03*
X161535000Y-86875000D03*
X158995000Y-86875000D03*
X158995000Y-94495000D03*
X161535000Y-94495000D03*
X164075000Y-94495000D03*
X166615000Y-94495000D03*
X169155000Y-94495000D03*
X171695000Y-94495000D03*
X174235000Y-94495000D03*
X176775000Y-94495000D03*
D16*
X154800000Y-151450000D03*
D17*
X154800000Y-143950000D03*
D16*
X139120000Y-103200000D03*
D17*
X149280000Y-103200000D03*
D29*
X101330000Y-131550000D03*
D16*
X103330000Y-131550000D03*
X147080000Y-137000000D03*
D17*
X136920000Y-137000000D03*
D16*
X105080000Y-86900000D03*
D17*
X94920000Y-86900000D03*
D16*
X106730000Y-138500000D03*
D17*
X106730000Y-131000000D03*
D35*
X149960000Y-137500000D03*
D36*
X154960000Y-135000000D03*
X149960000Y-132500000D03*
D16*
X172600000Y-141320000D03*
D17*
X172600000Y-151480000D03*
D21*
X200175000Y-139675000D03*
D22*
X200175000Y-142215000D03*
X200175000Y-144755000D03*
X207795000Y-144755000D03*
X207795000Y-142215000D03*
X207795000Y-139675000D03*
D19*
X138600000Y-141120000D03*
D20*
X138600000Y-151280000D03*
D37*
X144200000Y-147840000D03*
D38*
X144200000Y-145300000D03*
X144200000Y-142760000D03*
D27*
X111360000Y-94645000D03*
D28*
X113900000Y-94645000D03*
X116440000Y-94645000D03*
X118980000Y-94645000D03*
X121520000Y-94645000D03*
X124060000Y-94645000D03*
X126600000Y-94645000D03*
X129140000Y-94645000D03*
X129140000Y-87025000D03*
X126600000Y-87025000D03*
X124060000Y-87025000D03*
X121520000Y-87025000D03*
X118980000Y-87025000D03*
X116440000Y-87025000D03*
X113900000Y-87025000D03*
X111360000Y-87025000D03*
D21*
X158175000Y-143400000D03*
D22*
X158175000Y-145940000D03*
X158175000Y-148480000D03*
X158175000Y-151020000D03*
X165795000Y-151020000D03*
X165795000Y-148480000D03*
X165795000Y-145940000D03*
X165795000Y-143400000D03*
D16*
X73200000Y-86950000D03*
D17*
X73200000Y-94450000D03*
D16*
X190400000Y-145280000D03*
D17*
X190400000Y-135120000D03*
D39*
X145403200Y-110600000D03*
D40*
X142863200Y-110600000D03*
D41*
X200256865Y-130249104D03*
X193810234Y-126106106D03*
X190626856Y-119135482D03*
X191717433Y-111550356D03*
X196735713Y-105758952D03*
X204088428Y-103600000D03*
X211441143Y-105758952D03*
X216459423Y-111550356D03*
X217550000Y-119135482D03*
X214366622Y-126106106D03*
X207919991Y-130249104D03*
D39*
X145403200Y-123800000D03*
D40*
X142863200Y-123800000D03*
D41*
X80339865Y-130249104D03*
X73893234Y-126106106D03*
X70709856Y-119135482D03*
X71800433Y-111550356D03*
X76818713Y-105758952D03*
X84171428Y-103600000D03*
X91524143Y-105758952D03*
X96542423Y-111550356D03*
X97633000Y-119135482D03*
X94449622Y-126106106D03*
X88002991Y-130249104D03*
X116540243Y-130242998D03*
X110093612Y-126100000D03*
X106910234Y-119129376D03*
X108000811Y-111544250D03*
X113019091Y-105752846D03*
X120371806Y-103593894D03*
X127724521Y-105752846D03*
X132742801Y-111544250D03*
X133833378Y-119129376D03*
X130650000Y-126100000D03*
X124203369Y-130242998D03*
X164056865Y-130249104D03*
X157610234Y-126106106D03*
X154426856Y-119135482D03*
X155517433Y-111550356D03*
X160535713Y-105758952D03*
X167888428Y-103600000D03*
X175241143Y-105758952D03*
X180259423Y-111550356D03*
X181350000Y-119135482D03*
X178166622Y-126106106D03*
X171719991Y-130249104D03*
%LPD*%
M02*
