G04 #@! TF.GenerationSoftware,KiCad,Pcbnew,8.0.6*
G04 #@! TF.CreationDate,2025-12-06T11:12:07+01:00*
G04 #@! TF.ProjectId,lpt_nixie_clock,6c70745f-6e69-4786-9965-5f636c6f636b,rev?*
G04 #@! TF.SameCoordinates,Original*
G04 #@! TF.FileFunction,Legend,Bot*
G04 #@! TF.FilePolarity,Positive*
%FSLAX46Y46*%
G04 Gerber Fmt 4.6, Leading zero omitted, Abs format (unit mm)*
G04 Created by KiCad (PCBNEW 8.0.6) date 2025-12-06 11:12:07*
%MOMM*%
%LPD*%
G01*
G04 APERTURE LIST*
G04 Aperture macros list*
%AMRoundRect*
0 Rectangle with rounded corners*
0 $1 Rounding radius*
0 $2 $3 $4 $5 $6 $7 $8 $9 X,Y pos of 4 corners*
0 Add a 4 corners polygon primitive as box body*
4,1,4,$2,$3,$4,$5,$6,$7,$8,$9,$2,$3,0*
0 Add four circle primitives for the rounded corners*
1,1,$1+$1,$2,$3*
1,1,$1+$1,$4,$5*
1,1,$1+$1,$6,$7*
1,1,$1+$1,$8,$9*
0 Add four rect primitives between the rounded corners*
20,1,$1+$1,$2,$3,$4,$5,0*
20,1,$1+$1,$4,$5,$6,$7,0*
20,1,$1+$1,$6,$7,$8,$9,0*
20,1,$1+$1,$8,$9,$2,$3,0*%
G04 Aperture macros list end*
%ADD10C,0.000000*%
%ADD11C,0.120000*%
%ADD12C,0.300000*%
%ADD13C,0.150000*%
%ADD14C,0.100000*%
%ADD15C,0.250000*%
%ADD16R,2.800000X2.800000*%
%ADD17C,2.800000*%
%ADD18C,3.200000*%
%ADD19C,1.600000*%
%ADD20O,1.600000X1.600000*%
%ADD21C,2.600000*%
%ADD22R,2.200000X2.200000*%
%ADD23O,2.200000X2.200000*%
%ADD24R,2.400000X1.600000*%
%ADD25O,2.400000X1.600000*%
%ADD26RoundRect,0.250000X0.620000X0.845000X-0.620000X0.845000X-0.620000X-0.845000X0.620000X-0.845000X0*%
%ADD27O,1.740000X2.190000*%
%ADD28RoundRect,0.575000X-0.575000X-0.575000X0.575000X-0.575000X0.575000X0.575000X-0.575000X0.575000X0*%
%ADD29C,2.300000*%
%ADD30R,1.600000X2.400000*%
%ADD31O,1.600000X2.400000*%
%ADD32R,1.600000X1.600000*%
%ADD33C,2.000000*%
%ADD34R,1.100000X1.800000*%
%ADD35RoundRect,0.275000X-0.275000X-0.625000X0.275000X-0.625000X0.275000X0.625000X-0.275000X0.625000X0*%
%ADD36R,1.800000X1.100000*%
%ADD37RoundRect,0.275000X0.625000X-0.275000X0.625000X0.275000X-0.625000X0.275000X-0.625000X-0.275000X0*%
%ADD38R,1.560000X1.560000*%
%ADD39C,1.560000*%
%ADD40R,2.000000X1.905000*%
%ADD41O,2.000000X1.905000*%
%ADD42R,1.800000X1.800000*%
%ADD43C,1.800000*%
%ADD44C,5.500000*%
G04 APERTURE END LIST*
D10*
G36*
X144517645Y-135970744D02*
G01*
X144519571Y-135974788D01*
X144521282Y-135978518D01*
X144522790Y-135981993D01*
X144524109Y-135985272D01*
X144525250Y-135988415D01*
X144526226Y-135991481D01*
X144527050Y-135994529D01*
X144527734Y-135997617D01*
X144528291Y-136000806D01*
X144528733Y-136004153D01*
X144529073Y-136007719D01*
X144529323Y-136011563D01*
X144529496Y-136015743D01*
X144529603Y-136020318D01*
X144529675Y-136030893D01*
X144529575Y-136041047D01*
X144529439Y-136045513D01*
X144529238Y-136049629D01*
X144528964Y-136053440D01*
X144528611Y-136056991D01*
X144528171Y-136060326D01*
X144527637Y-136063490D01*
X144527004Y-136066526D01*
X144526264Y-136069479D01*
X144525410Y-136072393D01*
X144524436Y-136075313D01*
X144523334Y-136078283D01*
X144522099Y-136081348D01*
X144519197Y-136087937D01*
X144516353Y-136093719D01*
X144513214Y-136099414D01*
X144509796Y-136105008D01*
X144506112Y-136110487D01*
X144502179Y-136115835D01*
X144498010Y-136121041D01*
X144493621Y-136126088D01*
X144489026Y-136130963D01*
X144484240Y-136135651D01*
X144479278Y-136140139D01*
X144474154Y-136144412D01*
X144468883Y-136148456D01*
X144463481Y-136152256D01*
X144457962Y-136155799D01*
X144452340Y-136159070D01*
X144446631Y-136162056D01*
X144421019Y-136174473D01*
X139675100Y-136174473D01*
X139649488Y-136162056D01*
X139643779Y-136159070D01*
X139638157Y-136155799D01*
X139632638Y-136152256D01*
X139627236Y-136148456D01*
X139621965Y-136144412D01*
X139616841Y-136140139D01*
X139611879Y-136135651D01*
X139607093Y-136130963D01*
X139602498Y-136126088D01*
X139598109Y-136121041D01*
X139593940Y-136115835D01*
X139590006Y-136110487D01*
X139586323Y-136105008D01*
X139582905Y-136099414D01*
X139579766Y-136093719D01*
X139576921Y-136087937D01*
X139575397Y-136084551D01*
X139574020Y-136081347D01*
X139572784Y-136078281D01*
X139571683Y-136075307D01*
X139570708Y-136072381D01*
X139569855Y-136069458D01*
X139569115Y-136066493D01*
X139568481Y-136063441D01*
X139567948Y-136060257D01*
X139567508Y-136056896D01*
X139567155Y-136053314D01*
X139566881Y-136049465D01*
X139566679Y-136045305D01*
X139566544Y-136040788D01*
X139566468Y-136035869D01*
X139566444Y-136030505D01*
X139566506Y-136019282D01*
X139566613Y-136014518D01*
X139566796Y-136010211D01*
X139567074Y-136006278D01*
X139567467Y-136002640D01*
X139567995Y-135999214D01*
X139568675Y-135995919D01*
X139569529Y-135992675D01*
X139570575Y-135989399D01*
X139571832Y-135986011D01*
X139573320Y-135982428D01*
X139575058Y-135978571D01*
X139577066Y-135974357D01*
X139581966Y-135964536D01*
X139679012Y-135798060D01*
X140065096Y-135798060D01*
X142050000Y-135800000D01*
X144034904Y-135798836D01*
X144027349Y-135785126D01*
X144006770Y-135748825D01*
X143939054Y-135630420D01*
X142946408Y-133898915D01*
X142048060Y-132335052D01*
X142043031Y-132343096D01*
X142029445Y-132366157D01*
X141980344Y-132450886D01*
X141908250Y-132576362D01*
X141820659Y-132729704D01*
X140363510Y-135274961D01*
X140065096Y-135798060D01*
X139679012Y-135798060D01*
X141942508Y-131915176D01*
X141945865Y-131911568D01*
X141949383Y-131908093D01*
X141953053Y-131904755D01*
X141956869Y-131901554D01*
X141964903Y-131895575D01*
X141973425Y-131890170D01*
X141982373Y-131885357D01*
X141991683Y-131881151D01*
X142001295Y-131877568D01*
X142011146Y-131874624D01*
X142021174Y-131872334D01*
X142031318Y-131870716D01*
X142041515Y-131869784D01*
X142051703Y-131869555D01*
X142061822Y-131870044D01*
X142071807Y-131871268D01*
X142081599Y-131873241D01*
X142086402Y-131874515D01*
X142091134Y-131875982D01*
X142095601Y-131877544D01*
X142100113Y-131879311D01*
X142104651Y-131881271D01*
X142109196Y-131883409D01*
X142113731Y-131885714D01*
X142118235Y-131888171D01*
X142122690Y-131890769D01*
X142127077Y-131893493D01*
X142131378Y-131896331D01*
X142135574Y-131899269D01*
X142139646Y-131902295D01*
X142143576Y-131905395D01*
X142147344Y-131908557D01*
X142150931Y-131911767D01*
X142154320Y-131915012D01*
X142157491Y-131918280D01*
X144417526Y-135798836D01*
X144517645Y-135970744D01*
G37*
G36*
X141975202Y-133374889D02*
G01*
X142026134Y-133375671D01*
X142042324Y-133376301D01*
X142053201Y-133377108D01*
X142059422Y-133378106D01*
X142060991Y-133378681D01*
X142061641Y-133379309D01*
X142140805Y-133657933D01*
X142307668Y-134245837D01*
X142425783Y-134663143D01*
X142443712Y-134727966D01*
X142446981Y-134742548D01*
X142423406Y-134733514D01*
X142360250Y-134708399D01*
X142153611Y-134625356D01*
X141946631Y-134542360D01*
X141883433Y-134517361D01*
X141859853Y-134508551D01*
X141859877Y-134509278D01*
X141860231Y-134511128D01*
X141861866Y-134517967D01*
X141864627Y-134528599D01*
X141868390Y-134542554D01*
X141878406Y-134578565D01*
X141890897Y-134622251D01*
X142052328Y-135183768D01*
X142060089Y-135210155D01*
X142117909Y-135210155D01*
X142140592Y-135210283D01*
X142159092Y-135210592D01*
X142171552Y-135210974D01*
X142174938Y-135211158D01*
X142176118Y-135211320D01*
X142172310Y-135222713D01*
X142161954Y-135252696D01*
X142127999Y-135350243D01*
X142053492Y-135564450D01*
X142042881Y-135594009D01*
X142033798Y-135618147D01*
X142030125Y-135627399D01*
X142027189Y-135634355D01*
X142025108Y-135638700D01*
X142024425Y-135639795D01*
X142024000Y-135640121D01*
X141978828Y-135575188D01*
X141883233Y-135433530D01*
X141788365Y-135291362D01*
X141745376Y-135224901D01*
X141745447Y-135224756D01*
X141745658Y-135224611D01*
X141746486Y-135224322D01*
X141747832Y-135224039D01*
X141749669Y-135223762D01*
X141751970Y-135223494D01*
X141754708Y-135223237D01*
X141761383Y-135222767D01*
X141769478Y-135222370D01*
X141778773Y-135222064D01*
X141789051Y-135221867D01*
X141800092Y-135221797D01*
X141854808Y-135221797D01*
X141852091Y-135210931D01*
X141570751Y-134167450D01*
X141563136Y-134139965D01*
X141556975Y-134117245D01*
X141552852Y-134101584D01*
X141551348Y-134095272D01*
X141574826Y-134104161D01*
X141638758Y-134129421D01*
X141848987Y-134213628D01*
X142059992Y-134297740D01*
X142124785Y-134323206D01*
X142149342Y-134332374D01*
X142149184Y-134331378D01*
X142148297Y-134328739D01*
X142144479Y-134318864D01*
X142138169Y-134303424D01*
X142129648Y-134283091D01*
X142107105Y-134230436D01*
X142079104Y-134166286D01*
X141881196Y-133716141D01*
X141789129Y-133506397D01*
X141743048Y-133402593D01*
X141730242Y-133374653D01*
X141895165Y-133374653D01*
X141975202Y-133374889D01*
G37*
D11*
X144435714Y-137634667D02*
X144435714Y-136734667D01*
X144435714Y-136734667D02*
X144221428Y-136734667D01*
X144221428Y-136734667D02*
X144092857Y-136777524D01*
X144092857Y-136777524D02*
X144007142Y-136863238D01*
X144007142Y-136863238D02*
X143964285Y-136948952D01*
X143964285Y-136948952D02*
X143921428Y-137120381D01*
X143921428Y-137120381D02*
X143921428Y-137248952D01*
X143921428Y-137248952D02*
X143964285Y-137420381D01*
X143964285Y-137420381D02*
X144007142Y-137506095D01*
X144007142Y-137506095D02*
X144092857Y-137591810D01*
X144092857Y-137591810D02*
X144221428Y-137634667D01*
X144221428Y-137634667D02*
X144435714Y-137634667D01*
X143150000Y-137634667D02*
X143150000Y-137163238D01*
X143150000Y-137163238D02*
X143192857Y-137077524D01*
X143192857Y-137077524D02*
X143278571Y-137034667D01*
X143278571Y-137034667D02*
X143450000Y-137034667D01*
X143450000Y-137034667D02*
X143535714Y-137077524D01*
X143150000Y-137591810D02*
X143235714Y-137634667D01*
X143235714Y-137634667D02*
X143450000Y-137634667D01*
X143450000Y-137634667D02*
X143535714Y-137591810D01*
X143535714Y-137591810D02*
X143578571Y-137506095D01*
X143578571Y-137506095D02*
X143578571Y-137420381D01*
X143578571Y-137420381D02*
X143535714Y-137334667D01*
X143535714Y-137334667D02*
X143450000Y-137291810D01*
X143450000Y-137291810D02*
X143235714Y-137291810D01*
X143235714Y-137291810D02*
X143150000Y-137248952D01*
X142721428Y-137034667D02*
X142721428Y-137634667D01*
X142721428Y-137120381D02*
X142678571Y-137077524D01*
X142678571Y-137077524D02*
X142592856Y-137034667D01*
X142592856Y-137034667D02*
X142464285Y-137034667D01*
X142464285Y-137034667D02*
X142378571Y-137077524D01*
X142378571Y-137077524D02*
X142335714Y-137163238D01*
X142335714Y-137163238D02*
X142335714Y-137634667D01*
X141521428Y-137034667D02*
X141521428Y-137763238D01*
X141521428Y-137763238D02*
X141564285Y-137848952D01*
X141564285Y-137848952D02*
X141607142Y-137891810D01*
X141607142Y-137891810D02*
X141692856Y-137934667D01*
X141692856Y-137934667D02*
X141821428Y-137934667D01*
X141821428Y-137934667D02*
X141907142Y-137891810D01*
X141521428Y-137591810D02*
X141607142Y-137634667D01*
X141607142Y-137634667D02*
X141778570Y-137634667D01*
X141778570Y-137634667D02*
X141864285Y-137591810D01*
X141864285Y-137591810D02*
X141907142Y-137548952D01*
X141907142Y-137548952D02*
X141949999Y-137463238D01*
X141949999Y-137463238D02*
X141949999Y-137206095D01*
X141949999Y-137206095D02*
X141907142Y-137120381D01*
X141907142Y-137120381D02*
X141864285Y-137077524D01*
X141864285Y-137077524D02*
X141778570Y-137034667D01*
X141778570Y-137034667D02*
X141607142Y-137034667D01*
X141607142Y-137034667D02*
X141521428Y-137077524D01*
X140749999Y-137591810D02*
X140835713Y-137634667D01*
X140835713Y-137634667D02*
X141007142Y-137634667D01*
X141007142Y-137634667D02*
X141092856Y-137591810D01*
X141092856Y-137591810D02*
X141135713Y-137506095D01*
X141135713Y-137506095D02*
X141135713Y-137163238D01*
X141135713Y-137163238D02*
X141092856Y-137077524D01*
X141092856Y-137077524D02*
X141007142Y-137034667D01*
X141007142Y-137034667D02*
X140835713Y-137034667D01*
X140835713Y-137034667D02*
X140749999Y-137077524D01*
X140749999Y-137077524D02*
X140707142Y-137163238D01*
X140707142Y-137163238D02*
X140707142Y-137248952D01*
X140707142Y-137248952D02*
X141135713Y-137334667D01*
X140321427Y-137634667D02*
X140321427Y-137034667D01*
X140321427Y-137206095D02*
X140278570Y-137120381D01*
X140278570Y-137120381D02*
X140235713Y-137077524D01*
X140235713Y-137077524D02*
X140149998Y-137034667D01*
X140149998Y-137034667D02*
X140064284Y-137034667D01*
X139764284Y-137548952D02*
X139721427Y-137591810D01*
X139721427Y-137591810D02*
X139764284Y-137634667D01*
X139764284Y-137634667D02*
X139807141Y-137591810D01*
X139807141Y-137591810D02*
X139764284Y-137548952D01*
X139764284Y-137548952D02*
X139764284Y-137634667D01*
X139764284Y-137291810D02*
X139807141Y-136777524D01*
X139807141Y-136777524D02*
X139764284Y-136734667D01*
X139764284Y-136734667D02*
X139721427Y-136777524D01*
X139721427Y-136777524D02*
X139764284Y-137291810D01*
X139764284Y-137291810D02*
X139764284Y-136734667D01*
X146385714Y-139083617D02*
X146385714Y-138183617D01*
X146385714Y-138612188D02*
X145871428Y-138612188D01*
X145871428Y-139083617D02*
X145871428Y-138183617D01*
X145442857Y-139083617D02*
X145442857Y-138483617D01*
X145442857Y-138183617D02*
X145485714Y-138226474D01*
X145485714Y-138226474D02*
X145442857Y-138269331D01*
X145442857Y-138269331D02*
X145400000Y-138226474D01*
X145400000Y-138226474D02*
X145442857Y-138183617D01*
X145442857Y-138183617D02*
X145442857Y-138269331D01*
X144628572Y-138483617D02*
X144628572Y-139212188D01*
X144628572Y-139212188D02*
X144671429Y-139297902D01*
X144671429Y-139297902D02*
X144714286Y-139340760D01*
X144714286Y-139340760D02*
X144800000Y-139383617D01*
X144800000Y-139383617D02*
X144928572Y-139383617D01*
X144928572Y-139383617D02*
X145014286Y-139340760D01*
X144628572Y-139040760D02*
X144714286Y-139083617D01*
X144714286Y-139083617D02*
X144885714Y-139083617D01*
X144885714Y-139083617D02*
X144971429Y-139040760D01*
X144971429Y-139040760D02*
X145014286Y-138997902D01*
X145014286Y-138997902D02*
X145057143Y-138912188D01*
X145057143Y-138912188D02*
X145057143Y-138655045D01*
X145057143Y-138655045D02*
X145014286Y-138569331D01*
X145014286Y-138569331D02*
X144971429Y-138526474D01*
X144971429Y-138526474D02*
X144885714Y-138483617D01*
X144885714Y-138483617D02*
X144714286Y-138483617D01*
X144714286Y-138483617D02*
X144628572Y-138526474D01*
X144200000Y-139083617D02*
X144200000Y-138183617D01*
X143814286Y-139083617D02*
X143814286Y-138612188D01*
X143814286Y-138612188D02*
X143857143Y-138526474D01*
X143857143Y-138526474D02*
X143942857Y-138483617D01*
X143942857Y-138483617D02*
X144071428Y-138483617D01*
X144071428Y-138483617D02*
X144157143Y-138526474D01*
X144157143Y-138526474D02*
X144200000Y-138569331D01*
X142785714Y-138483617D02*
X142571428Y-139083617D01*
X142571428Y-139083617D02*
X142357143Y-138483617D01*
X141885714Y-139083617D02*
X141971429Y-139040760D01*
X141971429Y-139040760D02*
X142014286Y-138997902D01*
X142014286Y-138997902D02*
X142057143Y-138912188D01*
X142057143Y-138912188D02*
X142057143Y-138655045D01*
X142057143Y-138655045D02*
X142014286Y-138569331D01*
X142014286Y-138569331D02*
X141971429Y-138526474D01*
X141971429Y-138526474D02*
X141885714Y-138483617D01*
X141885714Y-138483617D02*
X141757143Y-138483617D01*
X141757143Y-138483617D02*
X141671429Y-138526474D01*
X141671429Y-138526474D02*
X141628572Y-138569331D01*
X141628572Y-138569331D02*
X141585714Y-138655045D01*
X141585714Y-138655045D02*
X141585714Y-138912188D01*
X141585714Y-138912188D02*
X141628572Y-138997902D01*
X141628572Y-138997902D02*
X141671429Y-139040760D01*
X141671429Y-139040760D02*
X141757143Y-139083617D01*
X141757143Y-139083617D02*
X141885714Y-139083617D01*
X141071428Y-139083617D02*
X141157143Y-139040760D01*
X141157143Y-139040760D02*
X141200000Y-138955045D01*
X141200000Y-138955045D02*
X141200000Y-138183617D01*
X140857142Y-138483617D02*
X140514285Y-138483617D01*
X140728571Y-138183617D02*
X140728571Y-138955045D01*
X140728571Y-138955045D02*
X140685714Y-139040760D01*
X140685714Y-139040760D02*
X140599999Y-139083617D01*
X140599999Y-139083617D02*
X140514285Y-139083617D01*
X139828571Y-139083617D02*
X139828571Y-138612188D01*
X139828571Y-138612188D02*
X139871428Y-138526474D01*
X139871428Y-138526474D02*
X139957142Y-138483617D01*
X139957142Y-138483617D02*
X140128571Y-138483617D01*
X140128571Y-138483617D02*
X140214285Y-138526474D01*
X139828571Y-139040760D02*
X139914285Y-139083617D01*
X139914285Y-139083617D02*
X140128571Y-139083617D01*
X140128571Y-139083617D02*
X140214285Y-139040760D01*
X140214285Y-139040760D02*
X140257142Y-138955045D01*
X140257142Y-138955045D02*
X140257142Y-138869331D01*
X140257142Y-138869331D02*
X140214285Y-138783617D01*
X140214285Y-138783617D02*
X140128571Y-138740760D01*
X140128571Y-138740760D02*
X139914285Y-138740760D01*
X139914285Y-138740760D02*
X139828571Y-138697902D01*
X139014285Y-138483617D02*
X139014285Y-139212188D01*
X139014285Y-139212188D02*
X139057142Y-139297902D01*
X139057142Y-139297902D02*
X139099999Y-139340760D01*
X139099999Y-139340760D02*
X139185713Y-139383617D01*
X139185713Y-139383617D02*
X139314285Y-139383617D01*
X139314285Y-139383617D02*
X139399999Y-139340760D01*
X139014285Y-139040760D02*
X139099999Y-139083617D01*
X139099999Y-139083617D02*
X139271427Y-139083617D01*
X139271427Y-139083617D02*
X139357142Y-139040760D01*
X139357142Y-139040760D02*
X139399999Y-138997902D01*
X139399999Y-138997902D02*
X139442856Y-138912188D01*
X139442856Y-138912188D02*
X139442856Y-138655045D01*
X139442856Y-138655045D02*
X139399999Y-138569331D01*
X139399999Y-138569331D02*
X139357142Y-138526474D01*
X139357142Y-138526474D02*
X139271427Y-138483617D01*
X139271427Y-138483617D02*
X139099999Y-138483617D01*
X139099999Y-138483617D02*
X139014285Y-138526474D01*
X138242856Y-139040760D02*
X138328570Y-139083617D01*
X138328570Y-139083617D02*
X138499999Y-139083617D01*
X138499999Y-139083617D02*
X138585713Y-139040760D01*
X138585713Y-139040760D02*
X138628570Y-138955045D01*
X138628570Y-138955045D02*
X138628570Y-138612188D01*
X138628570Y-138612188D02*
X138585713Y-138526474D01*
X138585713Y-138526474D02*
X138499999Y-138483617D01*
X138499999Y-138483617D02*
X138328570Y-138483617D01*
X138328570Y-138483617D02*
X138242856Y-138526474D01*
X138242856Y-138526474D02*
X138199999Y-138612188D01*
X138199999Y-138612188D02*
X138199999Y-138697902D01*
X138199999Y-138697902D02*
X138628570Y-138783617D01*
X137814284Y-138997902D02*
X137771427Y-139040760D01*
X137771427Y-139040760D02*
X137814284Y-139083617D01*
X137814284Y-139083617D02*
X137857141Y-139040760D01*
X137857141Y-139040760D02*
X137814284Y-138997902D01*
X137814284Y-138997902D02*
X137814284Y-139083617D01*
X137814284Y-138740760D02*
X137857141Y-138226474D01*
X137857141Y-138226474D02*
X137814284Y-138183617D01*
X137814284Y-138183617D02*
X137771427Y-138226474D01*
X137771427Y-138226474D02*
X137814284Y-138740760D01*
X137814284Y-138740760D02*
X137814284Y-138183617D01*
D12*
X211316917Y-148866215D02*
X212174060Y-148866215D01*
X212174060Y-148866215D02*
X212174060Y-147066215D01*
X210716917Y-148866215D02*
X210716917Y-147066215D01*
X210716917Y-147066215D02*
X210031203Y-147066215D01*
X210031203Y-147066215D02*
X209859774Y-147151929D01*
X209859774Y-147151929D02*
X209774060Y-147237643D01*
X209774060Y-147237643D02*
X209688346Y-147409072D01*
X209688346Y-147409072D02*
X209688346Y-147666215D01*
X209688346Y-147666215D02*
X209774060Y-147837643D01*
X209774060Y-147837643D02*
X209859774Y-147923358D01*
X209859774Y-147923358D02*
X210031203Y-148009072D01*
X210031203Y-148009072D02*
X210716917Y-148009072D01*
X209174060Y-147066215D02*
X208145489Y-147066215D01*
X208659774Y-148866215D02*
X208659774Y-147066215D01*
X206174059Y-148866215D02*
X206174059Y-147066215D01*
X206174059Y-147066215D02*
X205145488Y-148866215D01*
X205145488Y-148866215D02*
X205145488Y-147066215D01*
X204288345Y-148866215D02*
X204288345Y-147666215D01*
X204288345Y-147066215D02*
X204374059Y-147151929D01*
X204374059Y-147151929D02*
X204288345Y-147237643D01*
X204288345Y-147237643D02*
X204202631Y-147151929D01*
X204202631Y-147151929D02*
X204288345Y-147066215D01*
X204288345Y-147066215D02*
X204288345Y-147237643D01*
X203602631Y-148866215D02*
X202659774Y-147666215D01*
X203602631Y-147666215D02*
X202659774Y-148866215D01*
X201974059Y-148866215D02*
X201974059Y-147666215D01*
X201974059Y-147066215D02*
X202059773Y-147151929D01*
X202059773Y-147151929D02*
X201974059Y-147237643D01*
X201974059Y-147237643D02*
X201888345Y-147151929D01*
X201888345Y-147151929D02*
X201974059Y-147066215D01*
X201974059Y-147066215D02*
X201974059Y-147237643D01*
X200431202Y-148780501D02*
X200602630Y-148866215D01*
X200602630Y-148866215D02*
X200945488Y-148866215D01*
X200945488Y-148866215D02*
X201116916Y-148780501D01*
X201116916Y-148780501D02*
X201202630Y-148609072D01*
X201202630Y-148609072D02*
X201202630Y-147923358D01*
X201202630Y-147923358D02*
X201116916Y-147751929D01*
X201116916Y-147751929D02*
X200945488Y-147666215D01*
X200945488Y-147666215D02*
X200602630Y-147666215D01*
X200602630Y-147666215D02*
X200431202Y-147751929D01*
X200431202Y-147751929D02*
X200345488Y-147923358D01*
X200345488Y-147923358D02*
X200345488Y-148094786D01*
X200345488Y-148094786D02*
X201202630Y-148266215D01*
X197174059Y-148694786D02*
X197259773Y-148780501D01*
X197259773Y-148780501D02*
X197516916Y-148866215D01*
X197516916Y-148866215D02*
X197688344Y-148866215D01*
X197688344Y-148866215D02*
X197945487Y-148780501D01*
X197945487Y-148780501D02*
X198116916Y-148609072D01*
X198116916Y-148609072D02*
X198202630Y-148437643D01*
X198202630Y-148437643D02*
X198288344Y-148094786D01*
X198288344Y-148094786D02*
X198288344Y-147837643D01*
X198288344Y-147837643D02*
X198202630Y-147494786D01*
X198202630Y-147494786D02*
X198116916Y-147323358D01*
X198116916Y-147323358D02*
X197945487Y-147151929D01*
X197945487Y-147151929D02*
X197688344Y-147066215D01*
X197688344Y-147066215D02*
X197516916Y-147066215D01*
X197516916Y-147066215D02*
X197259773Y-147151929D01*
X197259773Y-147151929D02*
X197174059Y-147237643D01*
X196145487Y-148866215D02*
X196316916Y-148780501D01*
X196316916Y-148780501D02*
X196402630Y-148609072D01*
X196402630Y-148609072D02*
X196402630Y-147066215D01*
X195202630Y-148866215D02*
X195374059Y-148780501D01*
X195374059Y-148780501D02*
X195459773Y-148694786D01*
X195459773Y-148694786D02*
X195545487Y-148523358D01*
X195545487Y-148523358D02*
X195545487Y-148009072D01*
X195545487Y-148009072D02*
X195459773Y-147837643D01*
X195459773Y-147837643D02*
X195374059Y-147751929D01*
X195374059Y-147751929D02*
X195202630Y-147666215D01*
X195202630Y-147666215D02*
X194945487Y-147666215D01*
X194945487Y-147666215D02*
X194774059Y-147751929D01*
X194774059Y-147751929D02*
X194688345Y-147837643D01*
X194688345Y-147837643D02*
X194602630Y-148009072D01*
X194602630Y-148009072D02*
X194602630Y-148523358D01*
X194602630Y-148523358D02*
X194688345Y-148694786D01*
X194688345Y-148694786D02*
X194774059Y-148780501D01*
X194774059Y-148780501D02*
X194945487Y-148866215D01*
X194945487Y-148866215D02*
X195202630Y-148866215D01*
X193059774Y-148780501D02*
X193231202Y-148866215D01*
X193231202Y-148866215D02*
X193574059Y-148866215D01*
X193574059Y-148866215D02*
X193745488Y-148780501D01*
X193745488Y-148780501D02*
X193831202Y-148694786D01*
X193831202Y-148694786D02*
X193916916Y-148523358D01*
X193916916Y-148523358D02*
X193916916Y-148009072D01*
X193916916Y-148009072D02*
X193831202Y-147837643D01*
X193831202Y-147837643D02*
X193745488Y-147751929D01*
X193745488Y-147751929D02*
X193574059Y-147666215D01*
X193574059Y-147666215D02*
X193231202Y-147666215D01*
X193231202Y-147666215D02*
X193059774Y-147751929D01*
X192288345Y-148866215D02*
X192288345Y-147066215D01*
X192116917Y-148180501D02*
X191602631Y-148866215D01*
X191602631Y-147666215D02*
X192288345Y-148351929D01*
X211316917Y-151764114D02*
X212174060Y-151764114D01*
X212174060Y-151764114D02*
X212174060Y-149964114D01*
X210031203Y-151678400D02*
X210202631Y-151764114D01*
X210202631Y-151764114D02*
X210545489Y-151764114D01*
X210545489Y-151764114D02*
X210716917Y-151678400D01*
X210716917Y-151678400D02*
X210802631Y-151506971D01*
X210802631Y-151506971D02*
X210802631Y-150821257D01*
X210802631Y-150821257D02*
X210716917Y-150649828D01*
X210716917Y-150649828D02*
X210545489Y-150564114D01*
X210545489Y-150564114D02*
X210202631Y-150564114D01*
X210202631Y-150564114D02*
X210031203Y-150649828D01*
X210031203Y-150649828D02*
X209945489Y-150821257D01*
X209945489Y-150821257D02*
X209945489Y-150992685D01*
X209945489Y-150992685D02*
X210802631Y-151164114D01*
X209431203Y-150564114D02*
X208745489Y-150564114D01*
X209174060Y-151764114D02*
X209174060Y-150221257D01*
X209174060Y-150221257D02*
X209088346Y-150049828D01*
X209088346Y-150049828D02*
X208916917Y-149964114D01*
X208916917Y-149964114D02*
X208745489Y-149964114D01*
X207374061Y-150564114D02*
X207374061Y-151764114D01*
X208145489Y-150564114D02*
X208145489Y-151506971D01*
X208145489Y-151506971D02*
X208059775Y-151678400D01*
X208059775Y-151678400D02*
X207888346Y-151764114D01*
X207888346Y-151764114D02*
X207631203Y-151764114D01*
X207631203Y-151764114D02*
X207459775Y-151678400D01*
X207459775Y-151678400D02*
X207374061Y-151592685D01*
X205745490Y-151678400D02*
X205916918Y-151764114D01*
X205916918Y-151764114D02*
X206259775Y-151764114D01*
X206259775Y-151764114D02*
X206431204Y-151678400D01*
X206431204Y-151678400D02*
X206516918Y-151592685D01*
X206516918Y-151592685D02*
X206602632Y-151421257D01*
X206602632Y-151421257D02*
X206602632Y-150906971D01*
X206602632Y-150906971D02*
X206516918Y-150735542D01*
X206516918Y-150735542D02*
X206431204Y-150649828D01*
X206431204Y-150649828D02*
X206259775Y-150564114D01*
X206259775Y-150564114D02*
X205916918Y-150564114D01*
X205916918Y-150564114D02*
X205745490Y-150649828D01*
X204974061Y-150564114D02*
X204974061Y-152106971D01*
X204974061Y-152106971D02*
X205059775Y-152278400D01*
X205059775Y-152278400D02*
X205231204Y-152364114D01*
X205231204Y-152364114D02*
X205316918Y-152364114D01*
X204974061Y-149964114D02*
X205059775Y-150049828D01*
X205059775Y-150049828D02*
X204974061Y-150135542D01*
X204974061Y-150135542D02*
X204888347Y-150049828D01*
X204888347Y-150049828D02*
X204974061Y-149964114D01*
X204974061Y-149964114D02*
X204974061Y-150135542D01*
X203345490Y-150564114D02*
X203345490Y-151764114D01*
X204116918Y-150564114D02*
X204116918Y-151506971D01*
X204116918Y-151506971D02*
X204031204Y-151678400D01*
X204031204Y-151678400D02*
X203859775Y-151764114D01*
X203859775Y-151764114D02*
X203602632Y-151764114D01*
X203602632Y-151764114D02*
X203431204Y-151678400D01*
X203431204Y-151678400D02*
X203345490Y-151592685D01*
X202574061Y-151678400D02*
X202402633Y-151764114D01*
X202402633Y-151764114D02*
X202059776Y-151764114D01*
X202059776Y-151764114D02*
X201888347Y-151678400D01*
X201888347Y-151678400D02*
X201802633Y-151506971D01*
X201802633Y-151506971D02*
X201802633Y-151421257D01*
X201802633Y-151421257D02*
X201888347Y-151249828D01*
X201888347Y-151249828D02*
X202059776Y-151164114D01*
X202059776Y-151164114D02*
X202316919Y-151164114D01*
X202316919Y-151164114D02*
X202488347Y-151078400D01*
X202488347Y-151078400D02*
X202574061Y-150906971D01*
X202574061Y-150906971D02*
X202574061Y-150821257D01*
X202574061Y-150821257D02*
X202488347Y-150649828D01*
X202488347Y-150649828D02*
X202316919Y-150564114D01*
X202316919Y-150564114D02*
X202059776Y-150564114D01*
X202059776Y-150564114D02*
X201888347Y-150649828D01*
X201202633Y-150564114D02*
X200259776Y-150564114D01*
X200259776Y-150564114D02*
X201202633Y-151764114D01*
X201202633Y-151764114D02*
X200259776Y-151764114D01*
X199488347Y-151678400D02*
X199488347Y-151764114D01*
X199488347Y-151764114D02*
X199574061Y-151935542D01*
X199574061Y-151935542D02*
X199659775Y-152021257D01*
X197431203Y-150135542D02*
X197345489Y-150049828D01*
X197345489Y-150049828D02*
X197174061Y-149964114D01*
X197174061Y-149964114D02*
X196745489Y-149964114D01*
X196745489Y-149964114D02*
X196574061Y-150049828D01*
X196574061Y-150049828D02*
X196488346Y-150135542D01*
X196488346Y-150135542D02*
X196402632Y-150306971D01*
X196402632Y-150306971D02*
X196402632Y-150478400D01*
X196402632Y-150478400D02*
X196488346Y-150735542D01*
X196488346Y-150735542D02*
X197516918Y-151764114D01*
X197516918Y-151764114D02*
X196402632Y-151764114D01*
X195288346Y-149964114D02*
X195116917Y-149964114D01*
X195116917Y-149964114D02*
X194945489Y-150049828D01*
X194945489Y-150049828D02*
X194859775Y-150135542D01*
X194859775Y-150135542D02*
X194774060Y-150306971D01*
X194774060Y-150306971D02*
X194688346Y-150649828D01*
X194688346Y-150649828D02*
X194688346Y-151078400D01*
X194688346Y-151078400D02*
X194774060Y-151421257D01*
X194774060Y-151421257D02*
X194859775Y-151592685D01*
X194859775Y-151592685D02*
X194945489Y-151678400D01*
X194945489Y-151678400D02*
X195116917Y-151764114D01*
X195116917Y-151764114D02*
X195288346Y-151764114D01*
X195288346Y-151764114D02*
X195459775Y-151678400D01*
X195459775Y-151678400D02*
X195545489Y-151592685D01*
X195545489Y-151592685D02*
X195631203Y-151421257D01*
X195631203Y-151421257D02*
X195716917Y-151078400D01*
X195716917Y-151078400D02*
X195716917Y-150649828D01*
X195716917Y-150649828D02*
X195631203Y-150306971D01*
X195631203Y-150306971D02*
X195545489Y-150135542D01*
X195545489Y-150135542D02*
X195459775Y-150049828D01*
X195459775Y-150049828D02*
X195288346Y-149964114D01*
X194002631Y-150135542D02*
X193916917Y-150049828D01*
X193916917Y-150049828D02*
X193745489Y-149964114D01*
X193745489Y-149964114D02*
X193316917Y-149964114D01*
X193316917Y-149964114D02*
X193145489Y-150049828D01*
X193145489Y-150049828D02*
X193059774Y-150135542D01*
X193059774Y-150135542D02*
X192974060Y-150306971D01*
X192974060Y-150306971D02*
X192974060Y-150478400D01*
X192974060Y-150478400D02*
X193059774Y-150735542D01*
X193059774Y-150735542D02*
X194088346Y-151764114D01*
X194088346Y-151764114D02*
X192974060Y-151764114D01*
X191345488Y-149964114D02*
X192202631Y-149964114D01*
X192202631Y-149964114D02*
X192288345Y-150821257D01*
X192288345Y-150821257D02*
X192202631Y-150735542D01*
X192202631Y-150735542D02*
X192031203Y-150649828D01*
X192031203Y-150649828D02*
X191602631Y-150649828D01*
X191602631Y-150649828D02*
X191431203Y-150735542D01*
X191431203Y-150735542D02*
X191345488Y-150821257D01*
X191345488Y-150821257D02*
X191259774Y-150992685D01*
X191259774Y-150992685D02*
X191259774Y-151421257D01*
X191259774Y-151421257D02*
X191345488Y-151592685D01*
X191345488Y-151592685D02*
X191431203Y-151678400D01*
X191431203Y-151678400D02*
X191602631Y-151764114D01*
X191602631Y-151764114D02*
X192031203Y-151764114D01*
X192031203Y-151764114D02*
X192202631Y-151678400D01*
X192202631Y-151678400D02*
X192288345Y-151592685D01*
D13*
X140514285Y-111154819D02*
X140514285Y-110154819D01*
X140514285Y-110154819D02*
X139942857Y-111154819D01*
X139942857Y-111154819D02*
X139942857Y-110154819D01*
X139466666Y-110631009D02*
X139133333Y-110631009D01*
X138990476Y-111154819D02*
X139466666Y-111154819D01*
X139466666Y-111154819D02*
X139466666Y-110154819D01*
X139466666Y-110154819D02*
X138990476Y-110154819D01*
X138038095Y-111154819D02*
X138609523Y-111154819D01*
X138323809Y-111154819D02*
X138323809Y-110154819D01*
X138323809Y-110154819D02*
X138419047Y-110297676D01*
X138419047Y-110297676D02*
X138514285Y-110392914D01*
X138514285Y-110392914D02*
X138609523Y-110440533D01*
D14*
X216226523Y-132957419D02*
X215893190Y-133957419D01*
X215893190Y-133957419D02*
X215559857Y-132957419D01*
X214702714Y-133957419D02*
X215274142Y-133957419D01*
X214988428Y-133957419D02*
X214988428Y-132957419D01*
X214988428Y-132957419D02*
X215083666Y-133100276D01*
X215083666Y-133100276D02*
X215178904Y-133195514D01*
X215178904Y-133195514D02*
X215274142Y-133243133D01*
D13*
X140514285Y-124254819D02*
X140514285Y-123254819D01*
X140514285Y-123254819D02*
X139942857Y-124254819D01*
X139942857Y-124254819D02*
X139942857Y-123254819D01*
X139466666Y-123731009D02*
X139133333Y-123731009D01*
X138990476Y-124254819D02*
X139466666Y-124254819D01*
X139466666Y-124254819D02*
X139466666Y-123254819D01*
X139466666Y-123254819D02*
X138990476Y-123254819D01*
X138609523Y-123350057D02*
X138561904Y-123302438D01*
X138561904Y-123302438D02*
X138466666Y-123254819D01*
X138466666Y-123254819D02*
X138228571Y-123254819D01*
X138228571Y-123254819D02*
X138133333Y-123302438D01*
X138133333Y-123302438D02*
X138085714Y-123350057D01*
X138085714Y-123350057D02*
X138038095Y-123445295D01*
X138038095Y-123445295D02*
X138038095Y-123540533D01*
X138038095Y-123540533D02*
X138085714Y-123683390D01*
X138085714Y-123683390D02*
X138657142Y-124254819D01*
X138657142Y-124254819D02*
X138038095Y-124254819D01*
D14*
X96309523Y-132957419D02*
X95976190Y-133957419D01*
X95976190Y-133957419D02*
X95642857Y-132957419D01*
X94880952Y-133290752D02*
X94880952Y-133957419D01*
X95119047Y-132909800D02*
X95357142Y-133624085D01*
X95357142Y-133624085D02*
X94738095Y-133624085D01*
X132509901Y-132951313D02*
X132176568Y-133951313D01*
X132176568Y-133951313D02*
X131843235Y-132951313D01*
X131605139Y-132951313D02*
X130986092Y-132951313D01*
X130986092Y-132951313D02*
X131319425Y-133332265D01*
X131319425Y-133332265D02*
X131176568Y-133332265D01*
X131176568Y-133332265D02*
X131081330Y-133379884D01*
X131081330Y-133379884D02*
X131033711Y-133427503D01*
X131033711Y-133427503D02*
X130986092Y-133522741D01*
X130986092Y-133522741D02*
X130986092Y-133760836D01*
X130986092Y-133760836D02*
X131033711Y-133856074D01*
X131033711Y-133856074D02*
X131081330Y-133903694D01*
X131081330Y-133903694D02*
X131176568Y-133951313D01*
X131176568Y-133951313D02*
X131462282Y-133951313D01*
X131462282Y-133951313D02*
X131557520Y-133903694D01*
X131557520Y-133903694D02*
X131605139Y-133856074D01*
X180026523Y-132957419D02*
X179693190Y-133957419D01*
X179693190Y-133957419D02*
X179359857Y-132957419D01*
X179074142Y-133052657D02*
X179026523Y-133005038D01*
X179026523Y-133005038D02*
X178931285Y-132957419D01*
X178931285Y-132957419D02*
X178693190Y-132957419D01*
X178693190Y-132957419D02*
X178597952Y-133005038D01*
X178597952Y-133005038D02*
X178550333Y-133052657D01*
X178550333Y-133052657D02*
X178502714Y-133147895D01*
X178502714Y-133147895D02*
X178502714Y-133243133D01*
X178502714Y-133243133D02*
X178550333Y-133385990D01*
X178550333Y-133385990D02*
X179121761Y-133957419D01*
X179121761Y-133957419D02*
X178502714Y-133957419D01*
D11*
X146693200Y-112145000D02*
X146693200Y-109055000D01*
X141143200Y-110600462D02*
G75*
G02*
X146693200Y-109055170I2990000J462D01*
G01*
X146693200Y-112144830D02*
G75*
G02*
X141143200Y-110599538I-2560000J1544830D01*
G01*
X146633200Y-110600000D02*
G75*
G02*
X141633200Y-110600000I-2500000J0D01*
G01*
X141633200Y-110600000D02*
G75*
G02*
X146633200Y-110600000I2500000J0D01*
G01*
D15*
X221688428Y-117200000D02*
G75*
G02*
X186488428Y-117200000I-17600000J0D01*
G01*
X186488428Y-117200000D02*
G75*
G02*
X221688428Y-117200000I17600000J0D01*
G01*
D11*
X146693200Y-125345000D02*
X146693200Y-122255000D01*
X141143200Y-123800462D02*
G75*
G02*
X146693200Y-122255170I2990000J462D01*
G01*
X146693200Y-125344830D02*
G75*
G02*
X141143200Y-123799538I-2560000J1544830D01*
G01*
X146633200Y-123800000D02*
G75*
G02*
X141633200Y-123800000I-2500000J0D01*
G01*
X141633200Y-123800000D02*
G75*
G02*
X146633200Y-123800000I2500000J0D01*
G01*
D15*
X101771428Y-117200000D02*
G75*
G02*
X66571428Y-117200000I-17600000J0D01*
G01*
X66571428Y-117200000D02*
G75*
G02*
X101771428Y-117200000I17600000J0D01*
G01*
X137971806Y-117193894D02*
G75*
G02*
X102771806Y-117193894I-17600000J0D01*
G01*
X102771806Y-117193894D02*
G75*
G02*
X137971806Y-117193894I17600000J0D01*
G01*
X185488428Y-117200000D02*
G75*
G02*
X150288428Y-117200000I-17600000J0D01*
G01*
X150288428Y-117200000D02*
G75*
G02*
X185488428Y-117200000I17600000J0D01*
G01*
%LPC*%
D16*
X90600000Y-148795000D03*
D17*
X95600000Y-148795000D03*
D18*
X68150000Y-148600000D03*
D19*
X147600000Y-151480000D03*
D20*
X147600000Y-141320000D03*
D19*
X197000000Y-145280000D03*
D20*
X197000000Y-135120000D03*
D21*
X130800000Y-150100000D03*
X130800000Y-145100000D03*
D19*
X97900000Y-139350000D03*
D20*
X97900000Y-131850000D03*
D19*
X176400000Y-145280000D03*
D20*
X176400000Y-135120000D03*
D18*
X68150000Y-85800000D03*
D22*
X99380000Y-142400000D03*
D23*
X89220000Y-142400000D03*
D19*
X84720000Y-136200000D03*
D20*
X94880000Y-136200000D03*
D19*
X165750000Y-140200000D03*
D20*
X158250000Y-140200000D03*
D24*
X114375000Y-136475000D03*
D25*
X114375000Y-139015000D03*
X114375000Y-141555000D03*
X121995000Y-141555000D03*
X121995000Y-139015000D03*
X121995000Y-136475000D03*
D26*
X85000000Y-149600000D03*
D27*
X82460000Y-149600000D03*
X79920000Y-149600000D03*
X77380000Y-149600000D03*
D19*
X132400000Y-87075000D03*
D20*
X132400000Y-94575000D03*
D19*
X211000000Y-145280000D03*
D20*
X211000000Y-135120000D03*
D24*
X179575000Y-139675000D03*
D25*
X179575000Y-142215000D03*
X179575000Y-144755000D03*
X187195000Y-144755000D03*
X187195000Y-142215000D03*
X187195000Y-139675000D03*
D28*
X102300000Y-149800000D03*
X108100000Y-149800000D03*
D29*
X117000000Y-149800000D03*
X122800000Y-149800000D03*
D18*
X220150000Y-148600000D03*
D30*
X213140000Y-86875000D03*
D31*
X210600000Y-86875000D03*
X208060000Y-86875000D03*
X205520000Y-86875000D03*
X202980000Y-86875000D03*
X200440000Y-86875000D03*
X197900000Y-86875000D03*
X195360000Y-86875000D03*
X195360000Y-94495000D03*
X197900000Y-94495000D03*
X200440000Y-94495000D03*
X202980000Y-94495000D03*
X205520000Y-94495000D03*
X208060000Y-94495000D03*
X210600000Y-94495000D03*
X213140000Y-94495000D03*
D19*
X114320000Y-144800000D03*
D20*
X124480000Y-144800000D03*
D19*
X136920000Y-133000000D03*
D20*
X147080000Y-133000000D03*
D19*
X139120000Y-100200000D03*
D20*
X149280000Y-100200000D03*
D32*
X106100000Y-143200000D03*
D19*
X103600000Y-143200000D03*
X73200000Y-142680000D03*
D20*
X73200000Y-132520000D03*
D32*
X130800000Y-136147349D03*
D19*
X130800000Y-139647349D03*
D30*
X135700000Y-94625000D03*
D31*
X138240000Y-94625000D03*
X140780000Y-94625000D03*
X143320000Y-94625000D03*
X145860000Y-94625000D03*
X148400000Y-94625000D03*
X150940000Y-94625000D03*
X153480000Y-94625000D03*
X153480000Y-87005000D03*
X150940000Y-87005000D03*
X148400000Y-87005000D03*
X145860000Y-87005000D03*
X143320000Y-87005000D03*
X140780000Y-87005000D03*
X138240000Y-87005000D03*
X135700000Y-87005000D03*
D19*
X111000000Y-144080000D03*
D20*
X111000000Y-133920000D03*
D24*
X77180000Y-139275000D03*
D25*
X77180000Y-141815000D03*
X77180000Y-144355000D03*
X84800000Y-144355000D03*
X84800000Y-141815000D03*
X84800000Y-139275000D03*
D33*
X183400000Y-149400000D03*
D19*
X150800000Y-151450000D03*
D20*
X150800000Y-143950000D03*
D19*
X108000000Y-87075000D03*
D20*
X108000000Y-94575000D03*
D34*
X101060000Y-137870000D03*
D35*
X102330000Y-135800000D03*
X103600000Y-137870000D03*
D19*
X169200000Y-141320000D03*
D20*
X169200000Y-151480000D03*
D36*
X159670000Y-136870000D03*
D37*
X157600000Y-135600000D03*
X159670000Y-134330000D03*
D30*
X76500000Y-94525000D03*
D31*
X79040000Y-94525000D03*
X81580000Y-94525000D03*
X84120000Y-94525000D03*
X86660000Y-94525000D03*
X89200000Y-94525000D03*
X91740000Y-94525000D03*
X91740000Y-86905000D03*
X89200000Y-86905000D03*
X86660000Y-86905000D03*
X84120000Y-86905000D03*
X81580000Y-86905000D03*
X79040000Y-86905000D03*
X76500000Y-86905000D03*
D18*
X220150000Y-85800000D03*
D19*
X173080000Y-136600000D03*
D20*
X162920000Y-136600000D03*
D30*
X176775000Y-86875000D03*
D31*
X174235000Y-86875000D03*
X171695000Y-86875000D03*
X169155000Y-86875000D03*
X166615000Y-86875000D03*
X164075000Y-86875000D03*
X161535000Y-86875000D03*
X158995000Y-86875000D03*
X158995000Y-94495000D03*
X161535000Y-94495000D03*
X164075000Y-94495000D03*
X166615000Y-94495000D03*
X169155000Y-94495000D03*
X171695000Y-94495000D03*
X174235000Y-94495000D03*
X176775000Y-94495000D03*
D19*
X154800000Y-151450000D03*
D20*
X154800000Y-143950000D03*
D19*
X139120000Y-103200000D03*
D20*
X149280000Y-103200000D03*
D32*
X101330000Y-131550000D03*
D19*
X103330000Y-131550000D03*
X147080000Y-137000000D03*
D20*
X136920000Y-137000000D03*
D19*
X105080000Y-86900000D03*
D20*
X94920000Y-86900000D03*
D19*
X106730000Y-138500000D03*
D20*
X106730000Y-131000000D03*
D38*
X149960000Y-137500000D03*
D39*
X154960000Y-135000000D03*
X149960000Y-132500000D03*
D19*
X172600000Y-141320000D03*
D20*
X172600000Y-151480000D03*
D24*
X200175000Y-139675000D03*
D25*
X200175000Y-142215000D03*
X200175000Y-144755000D03*
X207795000Y-144755000D03*
X207795000Y-142215000D03*
X207795000Y-139675000D03*
D22*
X138600000Y-141120000D03*
D23*
X138600000Y-151280000D03*
D40*
X144200000Y-147840000D03*
D41*
X144200000Y-145300000D03*
X144200000Y-142760000D03*
D30*
X111360000Y-94645000D03*
D31*
X113900000Y-94645000D03*
X116440000Y-94645000D03*
X118980000Y-94645000D03*
X121520000Y-94645000D03*
X124060000Y-94645000D03*
X126600000Y-94645000D03*
X129140000Y-94645000D03*
X129140000Y-87025000D03*
X126600000Y-87025000D03*
X124060000Y-87025000D03*
X121520000Y-87025000D03*
X118980000Y-87025000D03*
X116440000Y-87025000D03*
X113900000Y-87025000D03*
X111360000Y-87025000D03*
D24*
X158175000Y-143400000D03*
D25*
X158175000Y-145940000D03*
X158175000Y-148480000D03*
X158175000Y-151020000D03*
X165795000Y-151020000D03*
X165795000Y-148480000D03*
X165795000Y-145940000D03*
X165795000Y-143400000D03*
D19*
X73200000Y-86950000D03*
D20*
X73200000Y-94450000D03*
D19*
X190400000Y-145280000D03*
D20*
X190400000Y-135120000D03*
D42*
X145403200Y-110600000D03*
D43*
X142863200Y-110600000D03*
D44*
X200256865Y-130249104D03*
X193810234Y-126106106D03*
X190626856Y-119135482D03*
X191717433Y-111550356D03*
X196735713Y-105758952D03*
X204088428Y-103600000D03*
X211441143Y-105758952D03*
X216459423Y-111550356D03*
X217550000Y-119135482D03*
X214366622Y-126106106D03*
X207919991Y-130249104D03*
D42*
X145403200Y-123800000D03*
D43*
X142863200Y-123800000D03*
D44*
X80339865Y-130249104D03*
X73893234Y-126106106D03*
X70709856Y-119135482D03*
X71800433Y-111550356D03*
X76818713Y-105758952D03*
X84171428Y-103600000D03*
X91524143Y-105758952D03*
X96542423Y-111550356D03*
X97633000Y-119135482D03*
X94449622Y-126106106D03*
X88002991Y-130249104D03*
X116540243Y-130242998D03*
X110093612Y-126100000D03*
X106910234Y-119129376D03*
X108000811Y-111544250D03*
X113019091Y-105752846D03*
X120371806Y-103593894D03*
X127724521Y-105752846D03*
X132742801Y-111544250D03*
X133833378Y-119129376D03*
X130650000Y-126100000D03*
X124203369Y-130242998D03*
X164056865Y-130249104D03*
X157610234Y-126106106D03*
X154426856Y-119135482D03*
X155517433Y-111550356D03*
X160535713Y-105758952D03*
X167888428Y-103600000D03*
X175241143Y-105758952D03*
X180259423Y-111550356D03*
X181350000Y-119135482D03*
X178166622Y-126106106D03*
X171719991Y-130249104D03*
%LPD*%
M02*
