%TF.GenerationSoftware,KiCad,Pcbnew,8.0.6*%
%TF.CreationDate,2025-12-06T11:12:12+01:00*%
%TF.ProjectId,lpt_nixie_clock,6c70745f-6e69-4786-9965-5f636c6f636b,rev?*%
%TF.SameCoordinates,Original*%
%TF.FileFunction,Drillmap*%
%TF.FilePolarity,Positive*%
%FSLAX45Y45*%
G04 Gerber Fmt 4.5, Leading zero omitted, Abs format (unit mm)*
G04 Created by KiCad (PCBNEW 8.0.6) date 2025-12-06 11:12:12*
%MOMM*%
%LPD*%
G01*
G04 APERTURE LIST*
%ADD10C,0.050000*%
%ADD11C,0.200000*%
%ADD12C,0.100000*%
%ADD13C,0.110000*%
%ADD14C,0.119000*%
%ADD15C,0.130000*%
%ADD16C,0.300000*%
G04 APERTURE END LIST*
D10*
X6355000Y-8120000D02*
X22475000Y-8120000D01*
X22475000Y-15320000D01*
X6355000Y-15320000D01*
X6355000Y-8120000D01*
X20286382Y-12099764D02*
G75*
G02*
X20531270Y-12099775I122461J379764D01*
G01*
X20531343Y-12100000D02*
G75*
G02*
X20286382Y-12099764I-122500J-20000D01*
G01*
X8294682Y-12099764D02*
G75*
G02*
X8539570Y-12099775I122461J379764D01*
G01*
X8539643Y-12100000D02*
G75*
G02*
X8294682Y-12099764I-122500J-20000D01*
G01*
X11914719Y-12099153D02*
G75*
G02*
X12159608Y-12099164I122461J379764D01*
G01*
X12159681Y-12099389D02*
G75*
G02*
X11914719Y-12099153I-122500J-20000D01*
G01*
X16666382Y-12099764D02*
G75*
G02*
X16911270Y-12099775I122461J379764D01*
G01*
X16911343Y-12100000D02*
G75*
G02*
X16666382Y-12099764I-122500J-20000D01*
G01*
D11*
D12*
X8653749Y-12595000D02*
X8683749Y-12625000D01*
X8683749Y-12595000D02*
X8653749Y-12625000D01*
X9985000Y-9745000D02*
X10015000Y-9775000D01*
X10015000Y-9745000D02*
X9985000Y-9775000D01*
X10155000Y-9245000D02*
X10185000Y-9275000D01*
X10185000Y-9245000D02*
X10155000Y-9275000D01*
X10315000Y-9655000D02*
X10345000Y-9685000D01*
X10345000Y-9655000D02*
X10315000Y-9685000D01*
X11245000Y-8905000D02*
X11275000Y-8935000D01*
X11275000Y-8905000D02*
X11245000Y-8935000D01*
X12391000Y-9885000D02*
X12421000Y-9915000D01*
X12421000Y-9885000D02*
X12391000Y-9915000D01*
X16135000Y-9846157D02*
X16165000Y-9876157D01*
X16165000Y-9846157D02*
X16135000Y-9876157D01*
X16275000Y-14445000D02*
X16305000Y-14475000D01*
X16305000Y-14445000D02*
X16275000Y-14475000D01*
X16353838Y-10876162D02*
X16383838Y-10906162D01*
X16383838Y-10876162D02*
X16353838Y-10906162D01*
X16455000Y-11135000D02*
X16485000Y-11165000D01*
X16485000Y-11135000D02*
X16455000Y-11165000D01*
X16685000Y-12675000D02*
X16715000Y-12705000D01*
X16715000Y-12675000D02*
X16685000Y-12705000D01*
X16765000Y-8855000D02*
X16795000Y-8885000D01*
X16795000Y-8855000D02*
X16765000Y-8885000D01*
X16865000Y-12675000D02*
X16895000Y-12705000D01*
X16895000Y-12675000D02*
X16865000Y-12705000D01*
X17270000Y-12600000D02*
X17300000Y-12630000D01*
X17300000Y-12600000D02*
X17270000Y-12630000D01*
X17304680Y-12315000D02*
X17334680Y-12345000D01*
X17334680Y-12315000D02*
X17304680Y-12345000D01*
X18435320Y-13025000D02*
X18465320Y-13055000D01*
X18465320Y-13025000D02*
X18435320Y-13055000D01*
X18675000Y-12595611D02*
X18705000Y-12625611D01*
X18705000Y-12595611D02*
X18675000Y-12625611D01*
X20715000Y-11145000D02*
X20745000Y-11175000D01*
X20745000Y-11145000D02*
X20715000Y-11175000D01*
X20791000Y-9040320D02*
X20821000Y-9070320D01*
X20821000Y-9040320D02*
X20791000Y-9070320D01*
X20805000Y-10985000D02*
X20835000Y-11015000D01*
X20835000Y-10985000D02*
X20805000Y-11015000D01*
X10143500Y-13747000D02*
G75*
G02*
X10068500Y-13747000I-37500J0D01*
G01*
X10068500Y-13747000D02*
G75*
G02*
X10143500Y-13747000I37500J0D01*
G01*
X10270500Y-13620000D02*
G75*
G02*
X10195500Y-13620000I-37500J0D01*
G01*
X10195500Y-13620000D02*
G75*
G02*
X10270500Y-13620000I37500J0D01*
G01*
X10397500Y-13747000D02*
G75*
G02*
X10322500Y-13747000I-37500J0D01*
G01*
X10322500Y-13747000D02*
G75*
G02*
X10397500Y-13747000I37500J0D01*
G01*
X15837500Y-13560000D02*
G75*
G02*
X15762500Y-13560000I-37500J0D01*
G01*
X15762500Y-13560000D02*
G75*
G02*
X15837500Y-13560000I37500J0D01*
G01*
X15964500Y-13433000D02*
G75*
G02*
X15889500Y-13433000I-37500J0D01*
G01*
X15889500Y-13433000D02*
G75*
G02*
X15964500Y-13433000I37500J0D01*
G01*
X15964500Y-13687000D02*
G75*
G02*
X15889500Y-13687000I-37500J0D01*
G01*
X15889500Y-13687000D02*
G75*
G02*
X15964500Y-13687000I37500J0D01*
G01*
X7320000Y-8655000D02*
X7320000Y-8735000D01*
X7280000Y-8695000D02*
X7360000Y-8695000D01*
X7320000Y-9405000D02*
X7320000Y-9485000D01*
X7280000Y-9445000D02*
X7360000Y-9445000D01*
X7320000Y-13212000D02*
X7320000Y-13292000D01*
X7280000Y-13252000D02*
X7360000Y-13252000D01*
X7320000Y-14228000D02*
X7320000Y-14308000D01*
X7280000Y-14268000D02*
X7360000Y-14268000D01*
X7650000Y-8650500D02*
X7650000Y-8730500D01*
X7610000Y-8690500D02*
X7690000Y-8690500D01*
X7650000Y-9412500D02*
X7650000Y-9492500D01*
X7610000Y-9452500D02*
X7690000Y-9452500D01*
X7718000Y-13887500D02*
X7718000Y-13967500D01*
X7678000Y-13927500D02*
X7758000Y-13927500D01*
X7718000Y-14141500D02*
X7718000Y-14221500D01*
X7678000Y-14181500D02*
X7758000Y-14181500D01*
X7718000Y-14395500D02*
X7718000Y-14475500D01*
X7678000Y-14435500D02*
X7758000Y-14435500D01*
X7904000Y-8650500D02*
X7904000Y-8730500D01*
X7864000Y-8690500D02*
X7944000Y-8690500D01*
X7904000Y-9412500D02*
X7904000Y-9492500D01*
X7864000Y-9452500D02*
X7944000Y-9452500D01*
X8158000Y-8650500D02*
X8158000Y-8730500D01*
X8118000Y-8690500D02*
X8198000Y-8690500D01*
X8158000Y-9412500D02*
X8158000Y-9492500D01*
X8118000Y-9452500D02*
X8198000Y-9452500D01*
X8412000Y-8650500D02*
X8412000Y-8730500D01*
X8372000Y-8690500D02*
X8452000Y-8690500D01*
X8412000Y-9412500D02*
X8412000Y-9492500D01*
X8372000Y-9452500D02*
X8452000Y-9452500D01*
X8472000Y-13580000D02*
X8472000Y-13660000D01*
X8432000Y-13620000D02*
X8512000Y-13620000D01*
X8480000Y-13887500D02*
X8480000Y-13967500D01*
X8440000Y-13927500D02*
X8520000Y-13927500D01*
X8480000Y-14141500D02*
X8480000Y-14221500D01*
X8440000Y-14181500D02*
X8520000Y-14181500D01*
X8480000Y-14395500D02*
X8480000Y-14475500D01*
X8440000Y-14435500D02*
X8520000Y-14435500D01*
X8666000Y-8650500D02*
X8666000Y-8730500D01*
X8626000Y-8690500D02*
X8706000Y-8690500D01*
X8666000Y-9412500D02*
X8666000Y-9492500D01*
X8626000Y-9452500D02*
X8706000Y-9452500D01*
X8920000Y-8650500D02*
X8920000Y-8730500D01*
X8880000Y-8690500D02*
X8960000Y-8690500D01*
X8920000Y-9412500D02*
X8920000Y-9492500D01*
X8880000Y-9452500D02*
X8960000Y-9452500D01*
X9174000Y-8650500D02*
X9174000Y-8730500D01*
X9134000Y-8690500D02*
X9214000Y-8690500D01*
X9174000Y-9412500D02*
X9174000Y-9492500D01*
X9134000Y-9452500D02*
X9214000Y-9452500D01*
X9488000Y-13580000D02*
X9488000Y-13660000D01*
X9448000Y-13620000D02*
X9528000Y-13620000D01*
X9492000Y-8650000D02*
X9492000Y-8730000D01*
X9452000Y-8690000D02*
X9532000Y-8690000D01*
X9790000Y-13145000D02*
X9790000Y-13225000D01*
X9750000Y-13185000D02*
X9830000Y-13185000D01*
X9790000Y-13895000D02*
X9790000Y-13975000D01*
X9750000Y-13935000D02*
X9830000Y-13935000D01*
X10133000Y-13115000D02*
X10133000Y-13195000D01*
X10093000Y-13155000D02*
X10173000Y-13155000D01*
X10333000Y-13115000D02*
X10333000Y-13195000D01*
X10293000Y-13155000D02*
X10373000Y-13155000D01*
X10360000Y-14280000D02*
X10360000Y-14360000D01*
X10320000Y-14320000D02*
X10400000Y-14320000D01*
X10508000Y-8650000D02*
X10508000Y-8730000D01*
X10468000Y-8690000D02*
X10548000Y-8690000D01*
X10610000Y-14280000D02*
X10610000Y-14360000D01*
X10570000Y-14320000D02*
X10650000Y-14320000D01*
X10673000Y-13060000D02*
X10673000Y-13140000D01*
X10633000Y-13100000D02*
X10713000Y-13100000D01*
X10673000Y-13810000D02*
X10673000Y-13890000D01*
X10633000Y-13850000D02*
X10713000Y-13850000D01*
X10800000Y-8667500D02*
X10800000Y-8747500D01*
X10760000Y-8707500D02*
X10840000Y-8707500D01*
X10800000Y-9417500D02*
X10800000Y-9497500D01*
X10760000Y-9457500D02*
X10840000Y-9457500D01*
X11100000Y-13352000D02*
X11100000Y-13432000D01*
X11060000Y-13392000D02*
X11140000Y-13392000D01*
X11100000Y-14368000D02*
X11100000Y-14448000D01*
X11060000Y-14408000D02*
X11140000Y-14408000D01*
X11136000Y-8662500D02*
X11136000Y-8742500D01*
X11096000Y-8702500D02*
X11176000Y-8702500D01*
X11136000Y-9424500D02*
X11136000Y-9504500D01*
X11096000Y-9464500D02*
X11176000Y-9464500D01*
X11390000Y-8662500D02*
X11390000Y-8742500D01*
X11350000Y-8702500D02*
X11430000Y-8702500D01*
X11390000Y-9424500D02*
X11390000Y-9504500D01*
X11350000Y-9464500D02*
X11430000Y-9464500D01*
X11432000Y-14440000D02*
X11432000Y-14520000D01*
X11392000Y-14480000D02*
X11472000Y-14480000D01*
X11437500Y-13607500D02*
X11437500Y-13687500D01*
X11397500Y-13647500D02*
X11477500Y-13647500D01*
X11437500Y-13861500D02*
X11437500Y-13941500D01*
X11397500Y-13901500D02*
X11477500Y-13901500D01*
X11437500Y-14115500D02*
X11437500Y-14195500D01*
X11397500Y-14155500D02*
X11477500Y-14155500D01*
X11644000Y-8662500D02*
X11644000Y-8742500D01*
X11604000Y-8702500D02*
X11684000Y-8702500D01*
X11644000Y-9424500D02*
X11644000Y-9504500D01*
X11604000Y-9464500D02*
X11684000Y-9464500D01*
X11898000Y-8662500D02*
X11898000Y-8742500D01*
X11858000Y-8702500D02*
X11938000Y-8702500D01*
X11898000Y-9424500D02*
X11898000Y-9504500D01*
X11858000Y-9464500D02*
X11938000Y-9464500D01*
X12152000Y-8662500D02*
X12152000Y-8742500D01*
X12112000Y-8702500D02*
X12192000Y-8702500D01*
X12152000Y-9424500D02*
X12152000Y-9504500D01*
X12112000Y-9464500D02*
X12192000Y-9464500D01*
X12199500Y-13607500D02*
X12199500Y-13687500D01*
X12159500Y-13647500D02*
X12239500Y-13647500D01*
X12199500Y-13861500D02*
X12199500Y-13941500D01*
X12159500Y-13901500D02*
X12239500Y-13901500D01*
X12199500Y-14115500D02*
X12199500Y-14195500D01*
X12159500Y-14155500D02*
X12239500Y-14155500D01*
X12406000Y-8662500D02*
X12406000Y-8742500D01*
X12366000Y-8702500D02*
X12446000Y-8702500D01*
X12406000Y-9424500D02*
X12406000Y-9504500D01*
X12366000Y-9464500D02*
X12446000Y-9464500D01*
X12448000Y-14440000D02*
X12448000Y-14520000D01*
X12408000Y-14480000D02*
X12488000Y-14480000D01*
X12660000Y-8662500D02*
X12660000Y-8742500D01*
X12620000Y-8702500D02*
X12700000Y-8702500D01*
X12660000Y-9424500D02*
X12660000Y-9504500D01*
X12620000Y-9464500D02*
X12700000Y-9464500D01*
X12914000Y-8662500D02*
X12914000Y-8742500D01*
X12874000Y-8702500D02*
X12954000Y-8702500D01*
X12914000Y-9424500D02*
X12914000Y-9504500D01*
X12874000Y-9464500D02*
X12954000Y-9464500D01*
X13080000Y-13574735D02*
X13080000Y-13654735D01*
X13040000Y-13614735D02*
X13120000Y-13614735D01*
X13080000Y-13924735D02*
X13080000Y-14004735D01*
X13040000Y-13964735D02*
X13120000Y-13964735D01*
X13240000Y-8667500D02*
X13240000Y-8747500D01*
X13200000Y-8707500D02*
X13280000Y-8707500D01*
X13240000Y-9417500D02*
X13240000Y-9497500D01*
X13200000Y-9457500D02*
X13280000Y-9457500D01*
X13570000Y-8660500D02*
X13570000Y-8740500D01*
X13530000Y-8700500D02*
X13610000Y-8700500D01*
X13570000Y-9422500D02*
X13570000Y-9502500D01*
X13530000Y-9462500D02*
X13610000Y-9462500D01*
X13692000Y-13260000D02*
X13692000Y-13340000D01*
X13652000Y-13300000D02*
X13732000Y-13300000D01*
X13692000Y-13660000D02*
X13692000Y-13740000D01*
X13652000Y-13700000D02*
X13732000Y-13700000D01*
X13824000Y-8660500D02*
X13824000Y-8740500D01*
X13784000Y-8700500D02*
X13864000Y-8700500D01*
X13824000Y-9422500D02*
X13824000Y-9502500D01*
X13784000Y-9462500D02*
X13864000Y-9462500D01*
X13912000Y-9980000D02*
X13912000Y-10060000D01*
X13872000Y-10020000D02*
X13952000Y-10020000D01*
X13912000Y-10280000D02*
X13912000Y-10360000D01*
X13872000Y-10320000D02*
X13952000Y-10320000D01*
X14078000Y-8660500D02*
X14078000Y-8740500D01*
X14038000Y-8700500D02*
X14118000Y-8700500D01*
X14078000Y-9422500D02*
X14078000Y-9502500D01*
X14038000Y-9462500D02*
X14118000Y-9462500D01*
X14332000Y-8660500D02*
X14332000Y-8740500D01*
X14292000Y-8700500D02*
X14372000Y-8700500D01*
X14332000Y-9422500D02*
X14332000Y-9502500D01*
X14292000Y-9462500D02*
X14372000Y-9462500D01*
X14586000Y-8660500D02*
X14586000Y-8740500D01*
X14546000Y-8700500D02*
X14626000Y-8700500D01*
X14586000Y-9422500D02*
X14586000Y-9502500D01*
X14546000Y-9462500D02*
X14626000Y-9462500D01*
X14708000Y-13260000D02*
X14708000Y-13340000D01*
X14668000Y-13300000D02*
X14748000Y-13300000D01*
X14708000Y-13660000D02*
X14708000Y-13740000D01*
X14668000Y-13700000D02*
X14748000Y-13700000D01*
X14760000Y-14092000D02*
X14760000Y-14172000D01*
X14720000Y-14132000D02*
X14800000Y-14132000D01*
X14760000Y-15108000D02*
X14760000Y-15188000D01*
X14720000Y-15148000D02*
X14800000Y-15148000D01*
X14840000Y-8660500D02*
X14840000Y-8740500D01*
X14800000Y-8700500D02*
X14880000Y-8700500D01*
X14840000Y-9422500D02*
X14840000Y-9502500D01*
X14800000Y-9462500D02*
X14880000Y-9462500D01*
X14928000Y-9980000D02*
X14928000Y-10060000D01*
X14888000Y-10020000D02*
X14968000Y-10020000D01*
X14928000Y-10280000D02*
X14928000Y-10360000D01*
X14888000Y-10320000D02*
X14968000Y-10320000D01*
X15080000Y-14355000D02*
X15080000Y-14435000D01*
X15040000Y-14395000D02*
X15120000Y-14395000D01*
X15080000Y-15105000D02*
X15080000Y-15185000D01*
X15040000Y-15145000D02*
X15120000Y-15145000D01*
X15094000Y-8660500D02*
X15094000Y-8740500D01*
X15054000Y-8700500D02*
X15134000Y-8700500D01*
X15094000Y-9422500D02*
X15094000Y-9502500D01*
X15054000Y-9462500D02*
X15134000Y-9462500D01*
X15348000Y-8660500D02*
X15348000Y-8740500D01*
X15308000Y-8700500D02*
X15388000Y-8700500D01*
X15348000Y-9422500D02*
X15348000Y-9502500D01*
X15308000Y-9462500D02*
X15388000Y-9462500D01*
X15480000Y-14355000D02*
X15480000Y-14435000D01*
X15440000Y-14395000D02*
X15520000Y-14395000D01*
X15480000Y-15105000D02*
X15480000Y-15185000D01*
X15440000Y-15145000D02*
X15520000Y-15145000D01*
X15817500Y-14300000D02*
X15817500Y-14380000D01*
X15777500Y-14340000D02*
X15857500Y-14340000D01*
X15817500Y-14554000D02*
X15817500Y-14634000D01*
X15777500Y-14594000D02*
X15857500Y-14594000D01*
X15817500Y-14808000D02*
X15817500Y-14888000D01*
X15777500Y-14848000D02*
X15857500Y-14848000D01*
X15817500Y-15062000D02*
X15817500Y-15142000D01*
X15777500Y-15102000D02*
X15857500Y-15102000D01*
X15825000Y-13980000D02*
X15825000Y-14060000D01*
X15785000Y-14020000D02*
X15865000Y-14020000D01*
X15899500Y-8647500D02*
X15899500Y-8727500D01*
X15859500Y-8687500D02*
X15939500Y-8687500D01*
X15899500Y-9409500D02*
X15899500Y-9489500D01*
X15859500Y-9449500D02*
X15939500Y-9449500D01*
X16153500Y-8647500D02*
X16153500Y-8727500D01*
X16113500Y-8687500D02*
X16193500Y-8687500D01*
X16153500Y-9409500D02*
X16153500Y-9489500D01*
X16113500Y-9449500D02*
X16193500Y-9449500D01*
X16292000Y-13620000D02*
X16292000Y-13700000D01*
X16252000Y-13660000D02*
X16332000Y-13660000D01*
X16407500Y-8647500D02*
X16407500Y-8727500D01*
X16367500Y-8687500D02*
X16447500Y-8687500D01*
X16407500Y-9409500D02*
X16407500Y-9489500D01*
X16367500Y-9449500D02*
X16447500Y-9449500D01*
X16575000Y-13980000D02*
X16575000Y-14060000D01*
X16535000Y-14020000D02*
X16615000Y-14020000D01*
X16579500Y-14300000D02*
X16579500Y-14380000D01*
X16539500Y-14340000D02*
X16619500Y-14340000D01*
X16579500Y-14554000D02*
X16579500Y-14634000D01*
X16539500Y-14594000D02*
X16619500Y-14594000D01*
X16579500Y-14808000D02*
X16579500Y-14888000D01*
X16539500Y-14848000D02*
X16619500Y-14848000D01*
X16579500Y-15062000D02*
X16579500Y-15142000D01*
X16539500Y-15102000D02*
X16619500Y-15102000D01*
X16661500Y-8647500D02*
X16661500Y-8727500D01*
X16621500Y-8687500D02*
X16701500Y-8687500D01*
X16661500Y-9409500D02*
X16661500Y-9489500D01*
X16621500Y-9449500D02*
X16701500Y-9449500D01*
X16915500Y-8647500D02*
X16915500Y-8727500D01*
X16875500Y-8687500D02*
X16955500Y-8687500D01*
X16915500Y-9409500D02*
X16915500Y-9489500D01*
X16875500Y-9449500D02*
X16955500Y-9449500D01*
X16920000Y-14092000D02*
X16920000Y-14172000D01*
X16880000Y-14132000D02*
X16960000Y-14132000D01*
X16920000Y-15108000D02*
X16920000Y-15188000D01*
X16880000Y-15148000D02*
X16960000Y-15148000D01*
X17169500Y-8647500D02*
X17169500Y-8727500D01*
X17129500Y-8687500D02*
X17209500Y-8687500D01*
X17169500Y-9409500D02*
X17169500Y-9489500D01*
X17129500Y-9449500D02*
X17209500Y-9449500D01*
X17260000Y-14092000D02*
X17260000Y-14172000D01*
X17220000Y-14132000D02*
X17300000Y-14132000D01*
X17260000Y-15108000D02*
X17260000Y-15188000D01*
X17220000Y-15148000D02*
X17300000Y-15148000D01*
X17308000Y-13620000D02*
X17308000Y-13700000D01*
X17268000Y-13660000D02*
X17348000Y-13660000D01*
X17423500Y-8647500D02*
X17423500Y-8727500D01*
X17383500Y-8687500D02*
X17463500Y-8687500D01*
X17423500Y-9409500D02*
X17423500Y-9489500D01*
X17383500Y-9449500D02*
X17463500Y-9449500D01*
X17640000Y-13472000D02*
X17640000Y-13552000D01*
X17600000Y-13512000D02*
X17680000Y-13512000D01*
X17640000Y-14488000D02*
X17640000Y-14568000D01*
X17600000Y-14528000D02*
X17680000Y-14528000D01*
X17677500Y-8647500D02*
X17677500Y-8727500D01*
X17637500Y-8687500D02*
X17717500Y-8687500D01*
X17677500Y-9409500D02*
X17677500Y-9489500D01*
X17637500Y-9449500D02*
X17717500Y-9449500D01*
X17957500Y-13927500D02*
X17957500Y-14007500D01*
X17917500Y-13967500D02*
X17997500Y-13967500D01*
X17957500Y-14181500D02*
X17957500Y-14261500D01*
X17917500Y-14221500D02*
X17997500Y-14221500D01*
X17957500Y-14435500D02*
X17957500Y-14515500D01*
X17917500Y-14475500D02*
X17997500Y-14475500D01*
X18719500Y-13927500D02*
X18719500Y-14007500D01*
X18679500Y-13967500D02*
X18759500Y-13967500D01*
X18719500Y-14181500D02*
X18719500Y-14261500D01*
X18679500Y-14221500D02*
X18759500Y-14221500D01*
X18719500Y-14435500D02*
X18719500Y-14515500D01*
X18679500Y-14475500D02*
X18759500Y-14475500D01*
X19040000Y-13472000D02*
X19040000Y-13552000D01*
X19000000Y-13512000D02*
X19080000Y-13512000D01*
X19040000Y-14488000D02*
X19040000Y-14568000D01*
X19000000Y-14528000D02*
X19080000Y-14528000D01*
X19536000Y-8647500D02*
X19536000Y-8727500D01*
X19496000Y-8687500D02*
X19576000Y-8687500D01*
X19536000Y-9409500D02*
X19536000Y-9489500D01*
X19496000Y-9449500D02*
X19576000Y-9449500D01*
X19700000Y-13472000D02*
X19700000Y-13552000D01*
X19660000Y-13512000D02*
X19740000Y-13512000D01*
X19700000Y-14488000D02*
X19700000Y-14568000D01*
X19660000Y-14528000D02*
X19740000Y-14528000D01*
X19790000Y-8647500D02*
X19790000Y-8727500D01*
X19750000Y-8687500D02*
X19830000Y-8687500D01*
X19790000Y-9409500D02*
X19790000Y-9489500D01*
X19750000Y-9449500D02*
X19830000Y-9449500D01*
X20017500Y-13927500D02*
X20017500Y-14007500D01*
X19977500Y-13967500D02*
X20057500Y-13967500D01*
X20017500Y-14181500D02*
X20017500Y-14261500D01*
X19977500Y-14221500D02*
X20057500Y-14221500D01*
X20017500Y-14435500D02*
X20017500Y-14515500D01*
X19977500Y-14475500D02*
X20057500Y-14475500D01*
X20044000Y-8647500D02*
X20044000Y-8727500D01*
X20004000Y-8687500D02*
X20084000Y-8687500D01*
X20044000Y-9409500D02*
X20044000Y-9489500D01*
X20004000Y-9449500D02*
X20084000Y-9449500D01*
X20298000Y-8647500D02*
X20298000Y-8727500D01*
X20258000Y-8687500D02*
X20338000Y-8687500D01*
X20298000Y-9409500D02*
X20298000Y-9489500D01*
X20258000Y-9449500D02*
X20338000Y-9449500D01*
X20552000Y-8647500D02*
X20552000Y-8727500D01*
X20512000Y-8687500D02*
X20592000Y-8687500D01*
X20552000Y-9409500D02*
X20552000Y-9489500D01*
X20512000Y-9449500D02*
X20592000Y-9449500D01*
X20779500Y-13927500D02*
X20779500Y-14007500D01*
X20739500Y-13967500D02*
X20819500Y-13967500D01*
X20779500Y-14181500D02*
X20779500Y-14261500D01*
X20739500Y-14221500D02*
X20819500Y-14221500D01*
X20779500Y-14435500D02*
X20779500Y-14515500D01*
X20739500Y-14475500D02*
X20819500Y-14475500D01*
X20806000Y-8647500D02*
X20806000Y-8727500D01*
X20766000Y-8687500D02*
X20846000Y-8687500D01*
X20806000Y-9409500D02*
X20806000Y-9489500D01*
X20766000Y-9449500D02*
X20846000Y-9449500D01*
X21060000Y-8647500D02*
X21060000Y-8727500D01*
X21020000Y-8687500D02*
X21100000Y-8687500D01*
X21060000Y-9409500D02*
X21060000Y-9489500D01*
X21020000Y-9449500D02*
X21100000Y-9449500D01*
X21100000Y-13472000D02*
X21100000Y-13552000D01*
X21060000Y-13512000D02*
X21140000Y-13512000D01*
X21100000Y-14488000D02*
X21100000Y-14568000D01*
X21060000Y-14528000D02*
X21140000Y-14528000D01*
X21314000Y-8647500D02*
X21314000Y-8727500D01*
X21274000Y-8687500D02*
X21354000Y-8687500D01*
X21314000Y-9409500D02*
X21314000Y-9489500D01*
X21274000Y-9449500D02*
X21354000Y-9449500D01*
X14318140Y-11091820D02*
X14318140Y-11028180D01*
X14254500Y-11028180D01*
X14254500Y-11091820D01*
X14318140Y-11091820D01*
X14318140Y-12411820D02*
X14318140Y-12348180D01*
X14254500Y-12348180D01*
X14254500Y-12411820D01*
X14318140Y-12411820D01*
X14572140Y-11091820D02*
X14572140Y-11028180D01*
X14508500Y-11028180D01*
X14508500Y-11091820D01*
X14572140Y-11091820D01*
X14572140Y-12411820D02*
X14572140Y-12348180D01*
X14508500Y-12348180D01*
X14508500Y-12411820D01*
X14572140Y-12411820D01*
X14996000Y-13300000D02*
X15046000Y-13250000D01*
X14996000Y-13200000D01*
X14946000Y-13250000D01*
X14996000Y-13300000D01*
X14996000Y-13800000D02*
X15046000Y-13750000D01*
X14996000Y-13700000D01*
X14946000Y-13750000D01*
X14996000Y-13800000D01*
X15496000Y-13550000D02*
X15546000Y-13500000D01*
X15496000Y-13450000D01*
X15446000Y-13500000D01*
X15496000Y-13550000D01*
X18340000Y-14990000D02*
X18390000Y-14940000D01*
X18340000Y-14890000D01*
X18290000Y-14940000D01*
X18340000Y-14990000D01*
D13*
X8867000Y-14185000D02*
X8977000Y-14295000D01*
X8977000Y-14185000D02*
X8867000Y-14295000D01*
X8977000Y-14240000D02*
G75*
G02*
X8867000Y-14240000I-55000J0D01*
G01*
X8867000Y-14240000D02*
G75*
G02*
X8977000Y-14240000I55000J0D01*
G01*
X9883000Y-14185000D02*
X9993000Y-14295000D01*
X9993000Y-14185000D02*
X9883000Y-14295000D01*
X9993000Y-14240000D02*
G75*
G02*
X9883000Y-14240000I-55000J0D01*
G01*
X9883000Y-14240000D02*
G75*
G02*
X9993000Y-14240000I55000J0D01*
G01*
X13805000Y-14057000D02*
X13915000Y-14167000D01*
X13915000Y-14057000D02*
X13805000Y-14167000D01*
X13915000Y-14112000D02*
G75*
G02*
X13805000Y-14112000I-55000J0D01*
G01*
X13805000Y-14112000D02*
G75*
G02*
X13915000Y-14112000I55000J0D01*
G01*
X13805000Y-15073000D02*
X13915000Y-15183000D01*
X13915000Y-15073000D02*
X13805000Y-15183000D01*
X13915000Y-15128000D02*
G75*
G02*
X13805000Y-15128000I-55000J0D01*
G01*
X13805000Y-15128000D02*
G75*
G02*
X13915000Y-15128000I55000J0D01*
G01*
X14365000Y-14221000D02*
X14475000Y-14331000D01*
X14475000Y-14221000D02*
X14365000Y-14331000D01*
X14475000Y-14276000D02*
G75*
G02*
X14365000Y-14276000I-55000J0D01*
G01*
X14365000Y-14276000D02*
G75*
G02*
X14475000Y-14276000I55000J0D01*
G01*
X14365000Y-14475000D02*
X14475000Y-14585000D01*
X14475000Y-14475000D02*
X14365000Y-14585000D01*
X14475000Y-14530000D02*
G75*
G02*
X14365000Y-14530000I-55000J0D01*
G01*
X14365000Y-14530000D02*
G75*
G02*
X14475000Y-14530000I55000J0D01*
G01*
X14365000Y-14729000D02*
X14475000Y-14839000D01*
X14475000Y-14729000D02*
X14365000Y-14839000D01*
X14475000Y-14784000D02*
G75*
G02*
X14365000Y-14784000I-55000J0D01*
G01*
X14365000Y-14784000D02*
G75*
G02*
X14475000Y-14784000I55000J0D01*
G01*
D14*
X7678500Y-14900500D02*
X7797500Y-15019500D01*
X7797500Y-14900500D02*
X7678500Y-15019500D01*
X7738000Y-14900500D02*
X7738000Y-15019500D01*
X7678500Y-14960000D02*
X7797500Y-14960000D01*
X7932500Y-14900500D02*
X8051500Y-15019500D01*
X8051500Y-14900500D02*
X7932500Y-15019500D01*
X7992000Y-14900500D02*
X7992000Y-15019500D01*
X7932500Y-14960000D02*
X8051500Y-14960000D01*
X8186500Y-14900500D02*
X8305500Y-15019500D01*
X8305500Y-14900500D02*
X8186500Y-15019500D01*
X8246000Y-14900500D02*
X8246000Y-15019500D01*
X8186500Y-14960000D02*
X8305500Y-14960000D01*
X8440500Y-14900500D02*
X8559500Y-15019500D01*
X8559500Y-14900500D02*
X8440500Y-15019500D01*
X8500000Y-14900500D02*
X8500000Y-15019500D01*
X8440500Y-14960000D02*
X8559500Y-14960000D01*
D15*
X8995000Y-14814500D02*
X9125000Y-14944500D01*
X9125000Y-14814500D02*
X8995000Y-14944500D01*
X9105962Y-14925462D02*
X9105962Y-14833538D01*
X9014038Y-14833538D01*
X9014038Y-14925462D01*
X9105962Y-14925462D01*
X9495000Y-14814500D02*
X9625000Y-14944500D01*
X9625000Y-14814500D02*
X9495000Y-14944500D01*
X9605962Y-14925462D02*
X9605962Y-14833538D01*
X9514038Y-14833538D01*
X9514038Y-14925462D01*
X9605962Y-14925462D01*
X10165000Y-14915000D02*
X10295000Y-15045000D01*
X10295000Y-14915000D02*
X10165000Y-15045000D01*
X10275962Y-15025962D02*
X10275962Y-14934038D01*
X10184038Y-14934038D01*
X10184038Y-15025962D01*
X10275962Y-15025962D01*
X10745000Y-14915000D02*
X10875000Y-15045000D01*
X10875000Y-14915000D02*
X10745000Y-15045000D01*
X10855962Y-15025962D02*
X10855962Y-14934038D01*
X10764038Y-14934038D01*
X10764038Y-15025962D01*
X10855962Y-15025962D01*
X11635000Y-14915000D02*
X11765000Y-15045000D01*
X11765000Y-14915000D02*
X11635000Y-15045000D01*
X11745962Y-15025962D02*
X11745962Y-14934038D01*
X11654038Y-14934038D01*
X11654038Y-15025962D01*
X11745962Y-15025962D01*
X12215000Y-14915000D02*
X12345000Y-15045000D01*
X12345000Y-14915000D02*
X12215000Y-15045000D01*
X12325962Y-15025962D02*
X12325962Y-14934038D01*
X12234038Y-14934038D01*
X12234038Y-15025962D01*
X12325962Y-15025962D01*
X13015000Y-14445000D02*
X13145000Y-14575000D01*
X13145000Y-14445000D02*
X13015000Y-14575000D01*
X13125962Y-14555962D02*
X13125962Y-14464038D01*
X13034038Y-14464038D01*
X13034038Y-14555962D01*
X13125962Y-14555962D01*
X13015000Y-14945000D02*
X13145000Y-15075000D01*
X13145000Y-14945000D02*
X13015000Y-15075000D01*
X13125962Y-15055962D02*
X13125962Y-14964038D01*
X13034038Y-14964038D01*
X13034038Y-15055962D01*
X13125962Y-15055962D01*
D16*
X6920986Y-11763548D02*
X7220986Y-12063548D01*
X7220986Y-11763548D02*
X6920986Y-12063548D01*
X7070986Y-12063548D02*
X7220986Y-11913548D01*
X7070986Y-11763548D01*
X6920986Y-11913548D01*
X7070986Y-12063548D01*
X7030043Y-11005036D02*
X7330043Y-11305036D01*
X7330043Y-11005036D02*
X7030043Y-11305036D01*
X7180043Y-11305036D02*
X7330043Y-11155036D01*
X7180043Y-11005036D01*
X7030043Y-11155036D01*
X7180043Y-11305036D01*
X7239323Y-12460611D02*
X7539323Y-12760611D01*
X7539323Y-12460611D02*
X7239323Y-12760611D01*
X7389323Y-12760611D02*
X7539323Y-12610611D01*
X7389323Y-12460611D01*
X7239323Y-12610611D01*
X7389323Y-12760611D01*
X7531871Y-10425895D02*
X7831871Y-10725895D01*
X7831871Y-10425895D02*
X7531871Y-10725895D01*
X7681871Y-10725895D02*
X7831871Y-10575895D01*
X7681871Y-10425895D01*
X7531871Y-10575895D01*
X7681871Y-10725895D01*
X7883986Y-12874910D02*
X8183986Y-13174910D01*
X8183986Y-12874910D02*
X7883986Y-13174910D01*
X8033986Y-13174910D02*
X8183986Y-13024910D01*
X8033986Y-12874910D01*
X7883986Y-13024910D01*
X8033986Y-13174910D01*
X8267143Y-10210000D02*
X8567143Y-10510000D01*
X8567143Y-10210000D02*
X8267143Y-10510000D01*
X8417143Y-10510000D02*
X8567143Y-10360000D01*
X8417143Y-10210000D01*
X8267143Y-10360000D01*
X8417143Y-10510000D01*
X8650299Y-12874910D02*
X8950299Y-13174910D01*
X8950299Y-12874910D02*
X8650299Y-13174910D01*
X8800299Y-13174910D02*
X8950299Y-13024910D01*
X8800299Y-12874910D01*
X8650299Y-13024910D01*
X8800299Y-13174910D01*
X9002414Y-10425895D02*
X9302414Y-10725895D01*
X9302414Y-10425895D02*
X9002414Y-10725895D01*
X9152414Y-10725895D02*
X9302414Y-10575895D01*
X9152414Y-10425895D01*
X9002414Y-10575895D01*
X9152414Y-10725895D01*
X9294962Y-12460611D02*
X9594962Y-12760611D01*
X9594962Y-12460611D02*
X9294962Y-12760611D01*
X9444962Y-12760611D02*
X9594962Y-12610611D01*
X9444962Y-12460611D01*
X9294962Y-12610611D01*
X9444962Y-12760611D01*
X9504242Y-11005036D02*
X9804242Y-11305036D01*
X9804242Y-11005036D02*
X9504242Y-11305036D01*
X9654242Y-11305036D02*
X9804242Y-11155036D01*
X9654242Y-11005036D01*
X9504242Y-11155036D01*
X9654242Y-11305036D01*
X9613300Y-11763548D02*
X9913300Y-12063548D01*
X9913300Y-11763548D02*
X9613300Y-12063548D01*
X9763300Y-12063548D02*
X9913300Y-11913548D01*
X9763300Y-11763548D01*
X9613300Y-11913548D01*
X9763300Y-12063548D01*
X10541023Y-11762938D02*
X10841023Y-12062938D01*
X10841023Y-11762938D02*
X10541023Y-12062938D01*
X10691023Y-12062938D02*
X10841023Y-11912938D01*
X10691023Y-11762938D01*
X10541023Y-11912938D01*
X10691023Y-12062938D01*
X10650081Y-11004425D02*
X10950081Y-11304425D01*
X10950081Y-11004425D02*
X10650081Y-11304425D01*
X10800081Y-11304425D02*
X10950081Y-11154425D01*
X10800081Y-11004425D01*
X10650081Y-11154425D01*
X10800081Y-11304425D01*
X10859361Y-12460000D02*
X11159361Y-12760000D01*
X11159361Y-12460000D02*
X10859361Y-12760000D01*
X11009361Y-12760000D02*
X11159361Y-12610000D01*
X11009361Y-12460000D01*
X10859361Y-12610000D01*
X11009361Y-12760000D01*
X11151909Y-10425285D02*
X11451909Y-10725285D01*
X11451909Y-10425285D02*
X11151909Y-10725285D01*
X11301909Y-10725285D02*
X11451909Y-10575285D01*
X11301909Y-10425285D01*
X11151909Y-10575285D01*
X11301909Y-10725285D01*
X11504024Y-12874300D02*
X11804024Y-13174300D01*
X11804024Y-12874300D02*
X11504024Y-13174300D01*
X11654024Y-13174300D02*
X11804024Y-13024300D01*
X11654024Y-12874300D01*
X11504024Y-13024300D01*
X11654024Y-13174300D01*
X11887181Y-10209389D02*
X12187181Y-10509389D01*
X12187181Y-10209389D02*
X11887181Y-10509389D01*
X12037181Y-10509389D02*
X12187181Y-10359389D01*
X12037181Y-10209389D01*
X11887181Y-10359389D01*
X12037181Y-10509389D01*
X12270337Y-12874300D02*
X12570337Y-13174300D01*
X12570337Y-12874300D02*
X12270337Y-13174300D01*
X12420337Y-13174300D02*
X12570337Y-13024300D01*
X12420337Y-12874300D01*
X12270337Y-13024300D01*
X12420337Y-13174300D01*
X12622452Y-10425285D02*
X12922452Y-10725285D01*
X12922452Y-10425285D02*
X12622452Y-10725285D01*
X12772452Y-10725285D02*
X12922452Y-10575285D01*
X12772452Y-10425285D01*
X12622452Y-10575285D01*
X12772452Y-10725285D01*
X12915000Y-12460000D02*
X13215000Y-12760000D01*
X13215000Y-12460000D02*
X12915000Y-12760000D01*
X13065000Y-12760000D02*
X13215000Y-12610000D01*
X13065000Y-12460000D01*
X12915000Y-12610000D01*
X13065000Y-12760000D01*
X13124280Y-11004425D02*
X13424280Y-11304425D01*
X13424280Y-11004425D02*
X13124280Y-11304425D01*
X13274280Y-11304425D02*
X13424280Y-11154425D01*
X13274280Y-11004425D01*
X13124280Y-11154425D01*
X13274280Y-11304425D01*
X13233338Y-11762938D02*
X13533338Y-12062938D01*
X13533338Y-11762938D02*
X13233338Y-12062938D01*
X13383338Y-12062938D02*
X13533338Y-11912938D01*
X13383338Y-11762938D01*
X13233338Y-11912938D01*
X13383338Y-12062938D01*
X15292686Y-11763548D02*
X15592686Y-12063548D01*
X15592686Y-11763548D02*
X15292686Y-12063548D01*
X15442686Y-12063548D02*
X15592686Y-11913548D01*
X15442686Y-11763548D01*
X15292686Y-11913548D01*
X15442686Y-12063548D01*
X15401743Y-11005036D02*
X15701743Y-11305036D01*
X15701743Y-11005036D02*
X15401743Y-11305036D01*
X15551743Y-11305036D02*
X15701743Y-11155036D01*
X15551743Y-11005036D01*
X15401743Y-11155036D01*
X15551743Y-11305036D01*
X15611023Y-12460611D02*
X15911023Y-12760611D01*
X15911023Y-12460611D02*
X15611023Y-12760611D01*
X15761023Y-12760611D02*
X15911023Y-12610611D01*
X15761023Y-12460611D01*
X15611023Y-12610611D01*
X15761023Y-12760611D01*
X15903571Y-10425895D02*
X16203571Y-10725895D01*
X16203571Y-10425895D02*
X15903571Y-10725895D01*
X16053571Y-10725895D02*
X16203571Y-10575895D01*
X16053571Y-10425895D01*
X15903571Y-10575895D01*
X16053571Y-10725895D01*
X16255686Y-12874910D02*
X16555686Y-13174910D01*
X16555686Y-12874910D02*
X16255686Y-13174910D01*
X16405686Y-13174910D02*
X16555686Y-13024910D01*
X16405686Y-12874910D01*
X16255686Y-13024910D01*
X16405686Y-13174910D01*
X16638843Y-10210000D02*
X16938843Y-10510000D01*
X16938843Y-10210000D02*
X16638843Y-10510000D01*
X16788843Y-10510000D02*
X16938843Y-10360000D01*
X16788843Y-10210000D01*
X16638843Y-10360000D01*
X16788843Y-10510000D01*
X17021999Y-12874910D02*
X17321999Y-13174910D01*
X17321999Y-12874910D02*
X17021999Y-13174910D01*
X17171999Y-13174910D02*
X17321999Y-13024910D01*
X17171999Y-12874910D01*
X17021999Y-13024910D01*
X17171999Y-13174910D01*
X17374114Y-10425895D02*
X17674114Y-10725895D01*
X17674114Y-10425895D02*
X17374114Y-10725895D01*
X17524114Y-10725895D02*
X17674114Y-10575895D01*
X17524114Y-10425895D01*
X17374114Y-10575895D01*
X17524114Y-10725895D01*
X17666662Y-12460611D02*
X17966662Y-12760611D01*
X17966662Y-12460611D02*
X17666662Y-12760611D01*
X17816662Y-12760611D02*
X17966662Y-12610611D01*
X17816662Y-12460611D01*
X17666662Y-12610611D01*
X17816662Y-12760611D01*
X17875942Y-11005036D02*
X18175942Y-11305036D01*
X18175942Y-11005036D02*
X17875942Y-11305036D01*
X18025942Y-11305036D02*
X18175942Y-11155036D01*
X18025942Y-11005036D01*
X17875942Y-11155036D01*
X18025942Y-11305036D01*
X17985000Y-11763548D02*
X18285000Y-12063548D01*
X18285000Y-11763548D02*
X17985000Y-12063548D01*
X18135000Y-12063548D02*
X18285000Y-11913548D01*
X18135000Y-11763548D01*
X17985000Y-11913548D01*
X18135000Y-12063548D01*
X18912686Y-11763548D02*
X19212686Y-12063548D01*
X19212686Y-11763548D02*
X18912686Y-12063548D01*
X19062686Y-12063548D02*
X19212686Y-11913548D01*
X19062686Y-11763548D01*
X18912686Y-11913548D01*
X19062686Y-12063548D01*
X19021743Y-11005036D02*
X19321743Y-11305036D01*
X19321743Y-11005036D02*
X19021743Y-11305036D01*
X19171743Y-11305036D02*
X19321743Y-11155036D01*
X19171743Y-11005036D01*
X19021743Y-11155036D01*
X19171743Y-11305036D01*
X19231023Y-12460611D02*
X19531023Y-12760611D01*
X19531023Y-12460611D02*
X19231023Y-12760611D01*
X19381023Y-12760611D02*
X19531023Y-12610611D01*
X19381023Y-12460611D01*
X19231023Y-12610611D01*
X19381023Y-12760611D01*
X19523571Y-10425895D02*
X19823571Y-10725895D01*
X19823571Y-10425895D02*
X19523571Y-10725895D01*
X19673571Y-10725895D02*
X19823571Y-10575895D01*
X19673571Y-10425895D01*
X19523571Y-10575895D01*
X19673571Y-10725895D01*
X19875687Y-12874910D02*
X20175687Y-13174910D01*
X20175687Y-12874910D02*
X19875687Y-13174910D01*
X20025687Y-13174910D02*
X20175687Y-13024910D01*
X20025687Y-12874910D01*
X19875687Y-13024910D01*
X20025687Y-13174910D01*
X20258843Y-10210000D02*
X20558843Y-10510000D01*
X20558843Y-10210000D02*
X20258843Y-10510000D01*
X20408843Y-10510000D02*
X20558843Y-10360000D01*
X20408843Y-10210000D01*
X20258843Y-10360000D01*
X20408843Y-10510000D01*
X20641999Y-12874910D02*
X20941999Y-13174910D01*
X20941999Y-12874910D02*
X20641999Y-13174910D01*
X20791999Y-13174910D02*
X20941999Y-13024910D01*
X20791999Y-12874910D01*
X20641999Y-13024910D01*
X20791999Y-13174910D01*
X20994114Y-10425895D02*
X21294114Y-10725895D01*
X21294114Y-10425895D02*
X20994114Y-10725895D01*
X21144114Y-10725895D02*
X21294114Y-10575895D01*
X21144114Y-10425895D01*
X20994114Y-10575895D01*
X21144114Y-10725895D01*
X21286662Y-12460611D02*
X21586662Y-12760611D01*
X21586662Y-12460611D02*
X21286662Y-12760611D01*
X21436662Y-12760611D02*
X21586662Y-12610611D01*
X21436662Y-12460611D01*
X21286662Y-12610611D01*
X21436662Y-12760611D01*
X21495942Y-11005036D02*
X21795942Y-11305036D01*
X21795942Y-11005036D02*
X21495942Y-11305036D01*
X21645942Y-11305036D02*
X21795942Y-11155036D01*
X21645942Y-11005036D01*
X21495942Y-11155036D01*
X21645942Y-11305036D01*
X21605000Y-11763548D02*
X21905000Y-12063548D01*
X21905000Y-11763548D02*
X21605000Y-12063548D01*
X21755000Y-12063548D02*
X21905000Y-11913548D01*
X21755000Y-11763548D01*
X21605000Y-11913548D01*
X21755000Y-12063548D01*
D11*
X6613277Y-15633984D02*
X6613277Y-15433984D01*
X6613277Y-15433984D02*
X6660896Y-15433984D01*
X6660896Y-15433984D02*
X6689467Y-15443508D01*
X6689467Y-15443508D02*
X6708515Y-15462555D01*
X6708515Y-15462555D02*
X6718039Y-15481603D01*
X6718039Y-15481603D02*
X6727562Y-15519698D01*
X6727562Y-15519698D02*
X6727562Y-15548269D01*
X6727562Y-15548269D02*
X6718039Y-15586365D01*
X6718039Y-15586365D02*
X6708515Y-15605412D01*
X6708515Y-15605412D02*
X6689467Y-15624460D01*
X6689467Y-15624460D02*
X6660896Y-15633984D01*
X6660896Y-15633984D02*
X6613277Y-15633984D01*
X6813277Y-15633984D02*
X6813277Y-15500650D01*
X6813277Y-15538746D02*
X6822801Y-15519698D01*
X6822801Y-15519698D02*
X6832324Y-15510174D01*
X6832324Y-15510174D02*
X6851372Y-15500650D01*
X6851372Y-15500650D02*
X6870420Y-15500650D01*
X6937086Y-15633984D02*
X6937086Y-15500650D01*
X6937086Y-15433984D02*
X6927562Y-15443508D01*
X6927562Y-15443508D02*
X6937086Y-15453031D01*
X6937086Y-15453031D02*
X6946610Y-15443508D01*
X6946610Y-15443508D02*
X6937086Y-15433984D01*
X6937086Y-15433984D02*
X6937086Y-15453031D01*
X7060896Y-15633984D02*
X7041848Y-15624460D01*
X7041848Y-15624460D02*
X7032324Y-15605412D01*
X7032324Y-15605412D02*
X7032324Y-15433984D01*
X7165658Y-15633984D02*
X7146610Y-15624460D01*
X7146610Y-15624460D02*
X7137086Y-15605412D01*
X7137086Y-15605412D02*
X7137086Y-15433984D01*
X7394229Y-15633984D02*
X7394229Y-15433984D01*
X7394229Y-15433984D02*
X7460896Y-15576841D01*
X7460896Y-15576841D02*
X7527562Y-15433984D01*
X7527562Y-15433984D02*
X7527562Y-15633984D01*
X7708515Y-15633984D02*
X7708515Y-15529222D01*
X7708515Y-15529222D02*
X7698991Y-15510174D01*
X7698991Y-15510174D02*
X7679943Y-15500650D01*
X7679943Y-15500650D02*
X7641848Y-15500650D01*
X7641848Y-15500650D02*
X7622801Y-15510174D01*
X7708515Y-15624460D02*
X7689467Y-15633984D01*
X7689467Y-15633984D02*
X7641848Y-15633984D01*
X7641848Y-15633984D02*
X7622801Y-15624460D01*
X7622801Y-15624460D02*
X7613277Y-15605412D01*
X7613277Y-15605412D02*
X7613277Y-15586365D01*
X7613277Y-15586365D02*
X7622801Y-15567317D01*
X7622801Y-15567317D02*
X7641848Y-15557793D01*
X7641848Y-15557793D02*
X7689467Y-15557793D01*
X7689467Y-15557793D02*
X7708515Y-15548269D01*
X7803753Y-15500650D02*
X7803753Y-15700650D01*
X7803753Y-15510174D02*
X7822801Y-15500650D01*
X7822801Y-15500650D02*
X7860896Y-15500650D01*
X7860896Y-15500650D02*
X7879943Y-15510174D01*
X7879943Y-15510174D02*
X7889467Y-15519698D01*
X7889467Y-15519698D02*
X7898991Y-15538746D01*
X7898991Y-15538746D02*
X7898991Y-15595888D01*
X7898991Y-15595888D02*
X7889467Y-15614936D01*
X7889467Y-15614936D02*
X7879943Y-15624460D01*
X7879943Y-15624460D02*
X7860896Y-15633984D01*
X7860896Y-15633984D02*
X7822801Y-15633984D01*
X7822801Y-15633984D02*
X7803753Y-15624460D01*
X7984705Y-15614936D02*
X7994229Y-15624460D01*
X7994229Y-15624460D02*
X7984705Y-15633984D01*
X7984705Y-15633984D02*
X7975182Y-15624460D01*
X7975182Y-15624460D02*
X7984705Y-15614936D01*
X7984705Y-15614936D02*
X7984705Y-15633984D01*
X7984705Y-15510174D02*
X7994229Y-15519698D01*
X7994229Y-15519698D02*
X7984705Y-15529222D01*
X7984705Y-15529222D02*
X7975182Y-15519698D01*
X7975182Y-15519698D02*
X7984705Y-15510174D01*
X7984705Y-15510174D02*
X7984705Y-15529222D01*
D12*
X6322500Y-15947500D02*
X6352500Y-15977500D01*
X6352500Y-15947500D02*
X6322500Y-15977500D01*
D11*
X6651372Y-15853984D02*
X6670420Y-15853984D01*
X6670420Y-15853984D02*
X6689467Y-15863508D01*
X6689467Y-15863508D02*
X6698991Y-15873031D01*
X6698991Y-15873031D02*
X6708515Y-15892079D01*
X6708515Y-15892079D02*
X6718039Y-15930174D01*
X6718039Y-15930174D02*
X6718039Y-15977793D01*
X6718039Y-15977793D02*
X6708515Y-16015888D01*
X6708515Y-16015888D02*
X6698991Y-16034936D01*
X6698991Y-16034936D02*
X6689467Y-16044460D01*
X6689467Y-16044460D02*
X6670420Y-16053984D01*
X6670420Y-16053984D02*
X6651372Y-16053984D01*
X6651372Y-16053984D02*
X6632324Y-16044460D01*
X6632324Y-16044460D02*
X6622801Y-16034936D01*
X6622801Y-16034936D02*
X6613277Y-16015888D01*
X6613277Y-16015888D02*
X6603753Y-15977793D01*
X6603753Y-15977793D02*
X6603753Y-15930174D01*
X6603753Y-15930174D02*
X6613277Y-15892079D01*
X6613277Y-15892079D02*
X6622801Y-15873031D01*
X6622801Y-15873031D02*
X6632324Y-15863508D01*
X6632324Y-15863508D02*
X6651372Y-15853984D01*
X6803753Y-16034936D02*
X6813277Y-16044460D01*
X6813277Y-16044460D02*
X6803753Y-16053984D01*
X6803753Y-16053984D02*
X6794229Y-16044460D01*
X6794229Y-16044460D02*
X6803753Y-16034936D01*
X6803753Y-16034936D02*
X6803753Y-16053984D01*
X6879943Y-15853984D02*
X7003753Y-15853984D01*
X7003753Y-15853984D02*
X6937086Y-15930174D01*
X6937086Y-15930174D02*
X6965658Y-15930174D01*
X6965658Y-15930174D02*
X6984705Y-15939698D01*
X6984705Y-15939698D02*
X6994229Y-15949222D01*
X6994229Y-15949222D02*
X7003753Y-15968269D01*
X7003753Y-15968269D02*
X7003753Y-16015888D01*
X7003753Y-16015888D02*
X6994229Y-16034936D01*
X6994229Y-16034936D02*
X6984705Y-16044460D01*
X6984705Y-16044460D02*
X6965658Y-16053984D01*
X6965658Y-16053984D02*
X6908515Y-16053984D01*
X6908515Y-16053984D02*
X6889467Y-16044460D01*
X6889467Y-16044460D02*
X6879943Y-16034936D01*
X7127562Y-15853984D02*
X7146610Y-15853984D01*
X7146610Y-15853984D02*
X7165658Y-15863508D01*
X7165658Y-15863508D02*
X7175182Y-15873031D01*
X7175182Y-15873031D02*
X7184705Y-15892079D01*
X7184705Y-15892079D02*
X7194229Y-15930174D01*
X7194229Y-15930174D02*
X7194229Y-15977793D01*
X7194229Y-15977793D02*
X7184705Y-16015888D01*
X7184705Y-16015888D02*
X7175182Y-16034936D01*
X7175182Y-16034936D02*
X7165658Y-16044460D01*
X7165658Y-16044460D02*
X7146610Y-16053984D01*
X7146610Y-16053984D02*
X7127562Y-16053984D01*
X7127562Y-16053984D02*
X7108515Y-16044460D01*
X7108515Y-16044460D02*
X7098991Y-16034936D01*
X7098991Y-16034936D02*
X7089467Y-16015888D01*
X7089467Y-16015888D02*
X7079943Y-15977793D01*
X7079943Y-15977793D02*
X7079943Y-15930174D01*
X7079943Y-15930174D02*
X7089467Y-15892079D01*
X7089467Y-15892079D02*
X7098991Y-15873031D01*
X7098991Y-15873031D02*
X7108515Y-15863508D01*
X7108515Y-15863508D02*
X7127562Y-15853984D01*
X7318039Y-15853984D02*
X7337086Y-15853984D01*
X7337086Y-15853984D02*
X7356134Y-15863508D01*
X7356134Y-15863508D02*
X7365658Y-15873031D01*
X7365658Y-15873031D02*
X7375182Y-15892079D01*
X7375182Y-15892079D02*
X7384705Y-15930174D01*
X7384705Y-15930174D02*
X7384705Y-15977793D01*
X7384705Y-15977793D02*
X7375182Y-16015888D01*
X7375182Y-16015888D02*
X7365658Y-16034936D01*
X7365658Y-16034936D02*
X7356134Y-16044460D01*
X7356134Y-16044460D02*
X7337086Y-16053984D01*
X7337086Y-16053984D02*
X7318039Y-16053984D01*
X7318039Y-16053984D02*
X7298991Y-16044460D01*
X7298991Y-16044460D02*
X7289467Y-16034936D01*
X7289467Y-16034936D02*
X7279943Y-16015888D01*
X7279943Y-16015888D02*
X7270420Y-15977793D01*
X7270420Y-15977793D02*
X7270420Y-15930174D01*
X7270420Y-15930174D02*
X7279943Y-15892079D01*
X7279943Y-15892079D02*
X7289467Y-15873031D01*
X7289467Y-15873031D02*
X7298991Y-15863508D01*
X7298991Y-15863508D02*
X7318039Y-15853984D01*
X7470420Y-16053984D02*
X7470420Y-15920650D01*
X7470420Y-15939698D02*
X7479943Y-15930174D01*
X7479943Y-15930174D02*
X7498991Y-15920650D01*
X7498991Y-15920650D02*
X7527563Y-15920650D01*
X7527563Y-15920650D02*
X7546610Y-15930174D01*
X7546610Y-15930174D02*
X7556134Y-15949222D01*
X7556134Y-15949222D02*
X7556134Y-16053984D01*
X7556134Y-15949222D02*
X7565658Y-15930174D01*
X7565658Y-15930174D02*
X7584705Y-15920650D01*
X7584705Y-15920650D02*
X7613277Y-15920650D01*
X7613277Y-15920650D02*
X7632324Y-15930174D01*
X7632324Y-15930174D02*
X7641848Y-15949222D01*
X7641848Y-15949222D02*
X7641848Y-16053984D01*
X7737086Y-16053984D02*
X7737086Y-15920650D01*
X7737086Y-15939698D02*
X7746610Y-15930174D01*
X7746610Y-15930174D02*
X7765658Y-15920650D01*
X7765658Y-15920650D02*
X7794229Y-15920650D01*
X7794229Y-15920650D02*
X7813277Y-15930174D01*
X7813277Y-15930174D02*
X7822801Y-15949222D01*
X7822801Y-15949222D02*
X7822801Y-16053984D01*
X7822801Y-15949222D02*
X7832324Y-15930174D01*
X7832324Y-15930174D02*
X7851372Y-15920650D01*
X7851372Y-15920650D02*
X7879943Y-15920650D01*
X7879943Y-15920650D02*
X7898991Y-15930174D01*
X7898991Y-15930174D02*
X7908515Y-15949222D01*
X7908515Y-15949222D02*
X7908515Y-16053984D01*
X8298991Y-15844460D02*
X8127563Y-16101603D01*
X8556134Y-15853984D02*
X8575182Y-15853984D01*
X8575182Y-15853984D02*
X8594229Y-15863508D01*
X8594229Y-15863508D02*
X8603753Y-15873031D01*
X8603753Y-15873031D02*
X8613277Y-15892079D01*
X8613277Y-15892079D02*
X8622801Y-15930174D01*
X8622801Y-15930174D02*
X8622801Y-15977793D01*
X8622801Y-15977793D02*
X8613277Y-16015888D01*
X8613277Y-16015888D02*
X8603753Y-16034936D01*
X8603753Y-16034936D02*
X8594229Y-16044460D01*
X8594229Y-16044460D02*
X8575182Y-16053984D01*
X8575182Y-16053984D02*
X8556134Y-16053984D01*
X8556134Y-16053984D02*
X8537087Y-16044460D01*
X8537087Y-16044460D02*
X8527563Y-16034936D01*
X8527563Y-16034936D02*
X8518039Y-16015888D01*
X8518039Y-16015888D02*
X8508515Y-15977793D01*
X8508515Y-15977793D02*
X8508515Y-15930174D01*
X8508515Y-15930174D02*
X8518039Y-15892079D01*
X8518039Y-15892079D02*
X8527563Y-15873031D01*
X8527563Y-15873031D02*
X8537087Y-15863508D01*
X8537087Y-15863508D02*
X8556134Y-15853984D01*
X8708515Y-16034936D02*
X8718039Y-16044460D01*
X8718039Y-16044460D02*
X8708515Y-16053984D01*
X8708515Y-16053984D02*
X8698991Y-16044460D01*
X8698991Y-16044460D02*
X8708515Y-16034936D01*
X8708515Y-16034936D02*
X8708515Y-16053984D01*
X8841848Y-15853984D02*
X8860896Y-15853984D01*
X8860896Y-15853984D02*
X8879944Y-15863508D01*
X8879944Y-15863508D02*
X8889468Y-15873031D01*
X8889468Y-15873031D02*
X8898991Y-15892079D01*
X8898991Y-15892079D02*
X8908515Y-15930174D01*
X8908515Y-15930174D02*
X8908515Y-15977793D01*
X8908515Y-15977793D02*
X8898991Y-16015888D01*
X8898991Y-16015888D02*
X8889468Y-16034936D01*
X8889468Y-16034936D02*
X8879944Y-16044460D01*
X8879944Y-16044460D02*
X8860896Y-16053984D01*
X8860896Y-16053984D02*
X8841848Y-16053984D01*
X8841848Y-16053984D02*
X8822801Y-16044460D01*
X8822801Y-16044460D02*
X8813277Y-16034936D01*
X8813277Y-16034936D02*
X8803753Y-16015888D01*
X8803753Y-16015888D02*
X8794229Y-15977793D01*
X8794229Y-15977793D02*
X8794229Y-15930174D01*
X8794229Y-15930174D02*
X8803753Y-15892079D01*
X8803753Y-15892079D02*
X8813277Y-15873031D01*
X8813277Y-15873031D02*
X8822801Y-15863508D01*
X8822801Y-15863508D02*
X8841848Y-15853984D01*
X9098991Y-16053984D02*
X8984706Y-16053984D01*
X9041848Y-16053984D02*
X9041848Y-15853984D01*
X9041848Y-15853984D02*
X9022801Y-15882555D01*
X9022801Y-15882555D02*
X9003753Y-15901603D01*
X9003753Y-15901603D02*
X8984706Y-15911127D01*
X9289468Y-16053984D02*
X9175182Y-16053984D01*
X9232325Y-16053984D02*
X9232325Y-15853984D01*
X9232325Y-15853984D02*
X9213277Y-15882555D01*
X9213277Y-15882555D02*
X9194229Y-15901603D01*
X9194229Y-15901603D02*
X9175182Y-15911127D01*
X9403753Y-15939698D02*
X9384706Y-15930174D01*
X9384706Y-15930174D02*
X9375182Y-15920650D01*
X9375182Y-15920650D02*
X9365658Y-15901603D01*
X9365658Y-15901603D02*
X9365658Y-15892079D01*
X9365658Y-15892079D02*
X9375182Y-15873031D01*
X9375182Y-15873031D02*
X9384706Y-15863508D01*
X9384706Y-15863508D02*
X9403753Y-15853984D01*
X9403753Y-15853984D02*
X9441849Y-15853984D01*
X9441849Y-15853984D02*
X9460896Y-15863508D01*
X9460896Y-15863508D02*
X9470420Y-15873031D01*
X9470420Y-15873031D02*
X9479944Y-15892079D01*
X9479944Y-15892079D02*
X9479944Y-15901603D01*
X9479944Y-15901603D02*
X9470420Y-15920650D01*
X9470420Y-15920650D02*
X9460896Y-15930174D01*
X9460896Y-15930174D02*
X9441849Y-15939698D01*
X9441849Y-15939698D02*
X9403753Y-15939698D01*
X9403753Y-15939698D02*
X9384706Y-15949222D01*
X9384706Y-15949222D02*
X9375182Y-15958746D01*
X9375182Y-15958746D02*
X9365658Y-15977793D01*
X9365658Y-15977793D02*
X9365658Y-16015888D01*
X9365658Y-16015888D02*
X9375182Y-16034936D01*
X9375182Y-16034936D02*
X9384706Y-16044460D01*
X9384706Y-16044460D02*
X9403753Y-16053984D01*
X9403753Y-16053984D02*
X9441849Y-16053984D01*
X9441849Y-16053984D02*
X9460896Y-16044460D01*
X9460896Y-16044460D02*
X9470420Y-16034936D01*
X9470420Y-16034936D02*
X9479944Y-16015888D01*
X9479944Y-16015888D02*
X9479944Y-15977793D01*
X9479944Y-15977793D02*
X9470420Y-15958746D01*
X9470420Y-15958746D02*
X9460896Y-15949222D01*
X9460896Y-15949222D02*
X9441849Y-15939698D01*
X9556134Y-15853984D02*
X9556134Y-15892079D01*
X9632325Y-15853984D02*
X9632325Y-15892079D01*
X9927563Y-16130174D02*
X9918039Y-16120650D01*
X9918039Y-16120650D02*
X9898991Y-16092079D01*
X9898991Y-16092079D02*
X9889468Y-16073031D01*
X9889468Y-16073031D02*
X9879944Y-16044460D01*
X9879944Y-16044460D02*
X9870420Y-15996841D01*
X9870420Y-15996841D02*
X9870420Y-15958746D01*
X9870420Y-15958746D02*
X9879944Y-15911127D01*
X9879944Y-15911127D02*
X9889468Y-15882555D01*
X9889468Y-15882555D02*
X9898991Y-15863508D01*
X9898991Y-15863508D02*
X9918039Y-15834936D01*
X9918039Y-15834936D02*
X9927563Y-15825412D01*
X9994230Y-15873031D02*
X10003753Y-15863508D01*
X10003753Y-15863508D02*
X10022801Y-15853984D01*
X10022801Y-15853984D02*
X10070420Y-15853984D01*
X10070420Y-15853984D02*
X10089468Y-15863508D01*
X10089468Y-15863508D02*
X10098991Y-15873031D01*
X10098991Y-15873031D02*
X10108515Y-15892079D01*
X10108515Y-15892079D02*
X10108515Y-15911127D01*
X10108515Y-15911127D02*
X10098991Y-15939698D01*
X10098991Y-15939698D02*
X9984706Y-16053984D01*
X9984706Y-16053984D02*
X10108515Y-16053984D01*
X10232325Y-15853984D02*
X10251372Y-15853984D01*
X10251372Y-15853984D02*
X10270420Y-15863508D01*
X10270420Y-15863508D02*
X10279944Y-15873031D01*
X10279944Y-15873031D02*
X10289468Y-15892079D01*
X10289468Y-15892079D02*
X10298991Y-15930174D01*
X10298991Y-15930174D02*
X10298991Y-15977793D01*
X10298991Y-15977793D02*
X10289468Y-16015888D01*
X10289468Y-16015888D02*
X10279944Y-16034936D01*
X10279944Y-16034936D02*
X10270420Y-16044460D01*
X10270420Y-16044460D02*
X10251372Y-16053984D01*
X10251372Y-16053984D02*
X10232325Y-16053984D01*
X10232325Y-16053984D02*
X10213277Y-16044460D01*
X10213277Y-16044460D02*
X10203753Y-16034936D01*
X10203753Y-16034936D02*
X10194230Y-16015888D01*
X10194230Y-16015888D02*
X10184706Y-15977793D01*
X10184706Y-15977793D02*
X10184706Y-15930174D01*
X10184706Y-15930174D02*
X10194230Y-15892079D01*
X10194230Y-15892079D02*
X10203753Y-15873031D01*
X10203753Y-15873031D02*
X10213277Y-15863508D01*
X10213277Y-15863508D02*
X10232325Y-15853984D01*
X10537087Y-16053984D02*
X10537087Y-15853984D01*
X10622801Y-16053984D02*
X10622801Y-15949222D01*
X10622801Y-15949222D02*
X10613277Y-15930174D01*
X10613277Y-15930174D02*
X10594230Y-15920650D01*
X10594230Y-15920650D02*
X10565658Y-15920650D01*
X10565658Y-15920650D02*
X10546611Y-15930174D01*
X10546611Y-15930174D02*
X10537087Y-15939698D01*
X10746611Y-16053984D02*
X10727563Y-16044460D01*
X10727563Y-16044460D02*
X10718039Y-16034936D01*
X10718039Y-16034936D02*
X10708515Y-16015888D01*
X10708515Y-16015888D02*
X10708515Y-15958746D01*
X10708515Y-15958746D02*
X10718039Y-15939698D01*
X10718039Y-15939698D02*
X10727563Y-15930174D01*
X10727563Y-15930174D02*
X10746611Y-15920650D01*
X10746611Y-15920650D02*
X10775182Y-15920650D01*
X10775182Y-15920650D02*
X10794230Y-15930174D01*
X10794230Y-15930174D02*
X10803753Y-15939698D01*
X10803753Y-15939698D02*
X10813277Y-15958746D01*
X10813277Y-15958746D02*
X10813277Y-16015888D01*
X10813277Y-16015888D02*
X10803753Y-16034936D01*
X10803753Y-16034936D02*
X10794230Y-16044460D01*
X10794230Y-16044460D02*
X10775182Y-16053984D01*
X10775182Y-16053984D02*
X10746611Y-16053984D01*
X10927563Y-16053984D02*
X10908515Y-16044460D01*
X10908515Y-16044460D02*
X10898992Y-16025412D01*
X10898992Y-16025412D02*
X10898992Y-15853984D01*
X11079944Y-16044460D02*
X11060896Y-16053984D01*
X11060896Y-16053984D02*
X11022801Y-16053984D01*
X11022801Y-16053984D02*
X11003753Y-16044460D01*
X11003753Y-16044460D02*
X10994230Y-16025412D01*
X10994230Y-16025412D02*
X10994230Y-15949222D01*
X10994230Y-15949222D02*
X11003753Y-15930174D01*
X11003753Y-15930174D02*
X11022801Y-15920650D01*
X11022801Y-15920650D02*
X11060896Y-15920650D01*
X11060896Y-15920650D02*
X11079944Y-15930174D01*
X11079944Y-15930174D02*
X11089468Y-15949222D01*
X11089468Y-15949222D02*
X11089468Y-15968269D01*
X11089468Y-15968269D02*
X10994230Y-15987317D01*
X11165658Y-16044460D02*
X11184706Y-16053984D01*
X11184706Y-16053984D02*
X11222801Y-16053984D01*
X11222801Y-16053984D02*
X11241849Y-16044460D01*
X11241849Y-16044460D02*
X11251372Y-16025412D01*
X11251372Y-16025412D02*
X11251372Y-16015888D01*
X11251372Y-16015888D02*
X11241849Y-15996841D01*
X11241849Y-15996841D02*
X11222801Y-15987317D01*
X11222801Y-15987317D02*
X11194230Y-15987317D01*
X11194230Y-15987317D02*
X11175182Y-15977793D01*
X11175182Y-15977793D02*
X11165658Y-15958746D01*
X11165658Y-15958746D02*
X11165658Y-15949222D01*
X11165658Y-15949222D02*
X11175182Y-15930174D01*
X11175182Y-15930174D02*
X11194230Y-15920650D01*
X11194230Y-15920650D02*
X11222801Y-15920650D01*
X11222801Y-15920650D02*
X11241849Y-15930174D01*
X11318039Y-16130174D02*
X11327563Y-16120650D01*
X11327563Y-16120650D02*
X11346611Y-16092079D01*
X11346611Y-16092079D02*
X11356134Y-16073031D01*
X11356134Y-16073031D02*
X11365658Y-16044460D01*
X11365658Y-16044460D02*
X11375182Y-15996841D01*
X11375182Y-15996841D02*
X11375182Y-15958746D01*
X11375182Y-15958746D02*
X11365658Y-15911127D01*
X11365658Y-15911127D02*
X11356134Y-15882555D01*
X11356134Y-15882555D02*
X11346611Y-15863508D01*
X11346611Y-15863508D02*
X11327563Y-15834936D01*
X11327563Y-15834936D02*
X11318039Y-15825412D01*
D12*
X6352500Y-16226500D02*
G75*
G02*
X6277500Y-16226500I-37500J0D01*
G01*
X6277500Y-16226500D02*
G75*
G02*
X6352500Y-16226500I37500J0D01*
G01*
D11*
X6651372Y-16117984D02*
X6670420Y-16117984D01*
X6670420Y-16117984D02*
X6689467Y-16127508D01*
X6689467Y-16127508D02*
X6698991Y-16137031D01*
X6698991Y-16137031D02*
X6708515Y-16156079D01*
X6708515Y-16156079D02*
X6718039Y-16194174D01*
X6718039Y-16194174D02*
X6718039Y-16241793D01*
X6718039Y-16241793D02*
X6708515Y-16279888D01*
X6708515Y-16279888D02*
X6698991Y-16298936D01*
X6698991Y-16298936D02*
X6689467Y-16308460D01*
X6689467Y-16308460D02*
X6670420Y-16317984D01*
X6670420Y-16317984D02*
X6651372Y-16317984D01*
X6651372Y-16317984D02*
X6632324Y-16308460D01*
X6632324Y-16308460D02*
X6622801Y-16298936D01*
X6622801Y-16298936D02*
X6613277Y-16279888D01*
X6613277Y-16279888D02*
X6603753Y-16241793D01*
X6603753Y-16241793D02*
X6603753Y-16194174D01*
X6603753Y-16194174D02*
X6613277Y-16156079D01*
X6613277Y-16156079D02*
X6622801Y-16137031D01*
X6622801Y-16137031D02*
X6632324Y-16127508D01*
X6632324Y-16127508D02*
X6651372Y-16117984D01*
X6803753Y-16298936D02*
X6813277Y-16308460D01*
X6813277Y-16308460D02*
X6803753Y-16317984D01*
X6803753Y-16317984D02*
X6794229Y-16308460D01*
X6794229Y-16308460D02*
X6803753Y-16298936D01*
X6803753Y-16298936D02*
X6803753Y-16317984D01*
X6879943Y-16117984D02*
X7013277Y-16117984D01*
X7013277Y-16117984D02*
X6927562Y-16317984D01*
X7184705Y-16117984D02*
X7089467Y-16117984D01*
X7089467Y-16117984D02*
X7079943Y-16213222D01*
X7079943Y-16213222D02*
X7089467Y-16203698D01*
X7089467Y-16203698D02*
X7108515Y-16194174D01*
X7108515Y-16194174D02*
X7156134Y-16194174D01*
X7156134Y-16194174D02*
X7175182Y-16203698D01*
X7175182Y-16203698D02*
X7184705Y-16213222D01*
X7184705Y-16213222D02*
X7194229Y-16232269D01*
X7194229Y-16232269D02*
X7194229Y-16279888D01*
X7194229Y-16279888D02*
X7184705Y-16298936D01*
X7184705Y-16298936D02*
X7175182Y-16308460D01*
X7175182Y-16308460D02*
X7156134Y-16317984D01*
X7156134Y-16317984D02*
X7108515Y-16317984D01*
X7108515Y-16317984D02*
X7089467Y-16308460D01*
X7089467Y-16308460D02*
X7079943Y-16298936D01*
X7318039Y-16117984D02*
X7337086Y-16117984D01*
X7337086Y-16117984D02*
X7356134Y-16127508D01*
X7356134Y-16127508D02*
X7365658Y-16137031D01*
X7365658Y-16137031D02*
X7375182Y-16156079D01*
X7375182Y-16156079D02*
X7384705Y-16194174D01*
X7384705Y-16194174D02*
X7384705Y-16241793D01*
X7384705Y-16241793D02*
X7375182Y-16279888D01*
X7375182Y-16279888D02*
X7365658Y-16298936D01*
X7365658Y-16298936D02*
X7356134Y-16308460D01*
X7356134Y-16308460D02*
X7337086Y-16317984D01*
X7337086Y-16317984D02*
X7318039Y-16317984D01*
X7318039Y-16317984D02*
X7298991Y-16308460D01*
X7298991Y-16308460D02*
X7289467Y-16298936D01*
X7289467Y-16298936D02*
X7279943Y-16279888D01*
X7279943Y-16279888D02*
X7270420Y-16241793D01*
X7270420Y-16241793D02*
X7270420Y-16194174D01*
X7270420Y-16194174D02*
X7279943Y-16156079D01*
X7279943Y-16156079D02*
X7289467Y-16137031D01*
X7289467Y-16137031D02*
X7298991Y-16127508D01*
X7298991Y-16127508D02*
X7318039Y-16117984D01*
X7470420Y-16317984D02*
X7470420Y-16184650D01*
X7470420Y-16203698D02*
X7479943Y-16194174D01*
X7479943Y-16194174D02*
X7498991Y-16184650D01*
X7498991Y-16184650D02*
X7527563Y-16184650D01*
X7527563Y-16184650D02*
X7546610Y-16194174D01*
X7546610Y-16194174D02*
X7556134Y-16213222D01*
X7556134Y-16213222D02*
X7556134Y-16317984D01*
X7556134Y-16213222D02*
X7565658Y-16194174D01*
X7565658Y-16194174D02*
X7584705Y-16184650D01*
X7584705Y-16184650D02*
X7613277Y-16184650D01*
X7613277Y-16184650D02*
X7632324Y-16194174D01*
X7632324Y-16194174D02*
X7641848Y-16213222D01*
X7641848Y-16213222D02*
X7641848Y-16317984D01*
X7737086Y-16317984D02*
X7737086Y-16184650D01*
X7737086Y-16203698D02*
X7746610Y-16194174D01*
X7746610Y-16194174D02*
X7765658Y-16184650D01*
X7765658Y-16184650D02*
X7794229Y-16184650D01*
X7794229Y-16184650D02*
X7813277Y-16194174D01*
X7813277Y-16194174D02*
X7822801Y-16213222D01*
X7822801Y-16213222D02*
X7822801Y-16317984D01*
X7822801Y-16213222D02*
X7832324Y-16194174D01*
X7832324Y-16194174D02*
X7851372Y-16184650D01*
X7851372Y-16184650D02*
X7879943Y-16184650D01*
X7879943Y-16184650D02*
X7898991Y-16194174D01*
X7898991Y-16194174D02*
X7908515Y-16213222D01*
X7908515Y-16213222D02*
X7908515Y-16317984D01*
X8298991Y-16108460D02*
X8127563Y-16365603D01*
X8556134Y-16117984D02*
X8575182Y-16117984D01*
X8575182Y-16117984D02*
X8594229Y-16127508D01*
X8594229Y-16127508D02*
X8603753Y-16137031D01*
X8603753Y-16137031D02*
X8613277Y-16156079D01*
X8613277Y-16156079D02*
X8622801Y-16194174D01*
X8622801Y-16194174D02*
X8622801Y-16241793D01*
X8622801Y-16241793D02*
X8613277Y-16279888D01*
X8613277Y-16279888D02*
X8603753Y-16298936D01*
X8603753Y-16298936D02*
X8594229Y-16308460D01*
X8594229Y-16308460D02*
X8575182Y-16317984D01*
X8575182Y-16317984D02*
X8556134Y-16317984D01*
X8556134Y-16317984D02*
X8537087Y-16308460D01*
X8537087Y-16308460D02*
X8527563Y-16298936D01*
X8527563Y-16298936D02*
X8518039Y-16279888D01*
X8518039Y-16279888D02*
X8508515Y-16241793D01*
X8508515Y-16241793D02*
X8508515Y-16194174D01*
X8508515Y-16194174D02*
X8518039Y-16156079D01*
X8518039Y-16156079D02*
X8527563Y-16137031D01*
X8527563Y-16137031D02*
X8537087Y-16127508D01*
X8537087Y-16127508D02*
X8556134Y-16117984D01*
X8708515Y-16298936D02*
X8718039Y-16308460D01*
X8718039Y-16308460D02*
X8708515Y-16317984D01*
X8708515Y-16317984D02*
X8698991Y-16308460D01*
X8698991Y-16308460D02*
X8708515Y-16298936D01*
X8708515Y-16298936D02*
X8708515Y-16317984D01*
X8841848Y-16117984D02*
X8860896Y-16117984D01*
X8860896Y-16117984D02*
X8879944Y-16127508D01*
X8879944Y-16127508D02*
X8889468Y-16137031D01*
X8889468Y-16137031D02*
X8898991Y-16156079D01*
X8898991Y-16156079D02*
X8908515Y-16194174D01*
X8908515Y-16194174D02*
X8908515Y-16241793D01*
X8908515Y-16241793D02*
X8898991Y-16279888D01*
X8898991Y-16279888D02*
X8889468Y-16298936D01*
X8889468Y-16298936D02*
X8879944Y-16308460D01*
X8879944Y-16308460D02*
X8860896Y-16317984D01*
X8860896Y-16317984D02*
X8841848Y-16317984D01*
X8841848Y-16317984D02*
X8822801Y-16308460D01*
X8822801Y-16308460D02*
X8813277Y-16298936D01*
X8813277Y-16298936D02*
X8803753Y-16279888D01*
X8803753Y-16279888D02*
X8794229Y-16241793D01*
X8794229Y-16241793D02*
X8794229Y-16194174D01*
X8794229Y-16194174D02*
X8803753Y-16156079D01*
X8803753Y-16156079D02*
X8813277Y-16137031D01*
X8813277Y-16137031D02*
X8822801Y-16127508D01*
X8822801Y-16127508D02*
X8841848Y-16117984D01*
X8984706Y-16137031D02*
X8994229Y-16127508D01*
X8994229Y-16127508D02*
X9013277Y-16117984D01*
X9013277Y-16117984D02*
X9060896Y-16117984D01*
X9060896Y-16117984D02*
X9079944Y-16127508D01*
X9079944Y-16127508D02*
X9089468Y-16137031D01*
X9089468Y-16137031D02*
X9098991Y-16156079D01*
X9098991Y-16156079D02*
X9098991Y-16175127D01*
X9098991Y-16175127D02*
X9089468Y-16203698D01*
X9089468Y-16203698D02*
X8975182Y-16317984D01*
X8975182Y-16317984D02*
X9098991Y-16317984D01*
X9194229Y-16317984D02*
X9232325Y-16317984D01*
X9232325Y-16317984D02*
X9251372Y-16308460D01*
X9251372Y-16308460D02*
X9260896Y-16298936D01*
X9260896Y-16298936D02*
X9279944Y-16270365D01*
X9279944Y-16270365D02*
X9289468Y-16232269D01*
X9289468Y-16232269D02*
X9289468Y-16156079D01*
X9289468Y-16156079D02*
X9279944Y-16137031D01*
X9279944Y-16137031D02*
X9270420Y-16127508D01*
X9270420Y-16127508D02*
X9251372Y-16117984D01*
X9251372Y-16117984D02*
X9213277Y-16117984D01*
X9213277Y-16117984D02*
X9194229Y-16127508D01*
X9194229Y-16127508D02*
X9184706Y-16137031D01*
X9184706Y-16137031D02*
X9175182Y-16156079D01*
X9175182Y-16156079D02*
X9175182Y-16203698D01*
X9175182Y-16203698D02*
X9184706Y-16222746D01*
X9184706Y-16222746D02*
X9194229Y-16232269D01*
X9194229Y-16232269D02*
X9213277Y-16241793D01*
X9213277Y-16241793D02*
X9251372Y-16241793D01*
X9251372Y-16241793D02*
X9270420Y-16232269D01*
X9270420Y-16232269D02*
X9279944Y-16222746D01*
X9279944Y-16222746D02*
X9289468Y-16203698D01*
X9470420Y-16117984D02*
X9375182Y-16117984D01*
X9375182Y-16117984D02*
X9365658Y-16213222D01*
X9365658Y-16213222D02*
X9375182Y-16203698D01*
X9375182Y-16203698D02*
X9394229Y-16194174D01*
X9394229Y-16194174D02*
X9441849Y-16194174D01*
X9441849Y-16194174D02*
X9460896Y-16203698D01*
X9460896Y-16203698D02*
X9470420Y-16213222D01*
X9470420Y-16213222D02*
X9479944Y-16232269D01*
X9479944Y-16232269D02*
X9479944Y-16279888D01*
X9479944Y-16279888D02*
X9470420Y-16298936D01*
X9470420Y-16298936D02*
X9460896Y-16308460D01*
X9460896Y-16308460D02*
X9441849Y-16317984D01*
X9441849Y-16317984D02*
X9394229Y-16317984D01*
X9394229Y-16317984D02*
X9375182Y-16308460D01*
X9375182Y-16308460D02*
X9365658Y-16298936D01*
X9556134Y-16117984D02*
X9556134Y-16156079D01*
X9632325Y-16117984D02*
X9632325Y-16156079D01*
X9927563Y-16394174D02*
X9918039Y-16384650D01*
X9918039Y-16384650D02*
X9898991Y-16356079D01*
X9898991Y-16356079D02*
X9889468Y-16337031D01*
X9889468Y-16337031D02*
X9879944Y-16308460D01*
X9879944Y-16308460D02*
X9870420Y-16260841D01*
X9870420Y-16260841D02*
X9870420Y-16222746D01*
X9870420Y-16222746D02*
X9879944Y-16175127D01*
X9879944Y-16175127D02*
X9889468Y-16146555D01*
X9889468Y-16146555D02*
X9898991Y-16127508D01*
X9898991Y-16127508D02*
X9918039Y-16098936D01*
X9918039Y-16098936D02*
X9927563Y-16089412D01*
X10089468Y-16117984D02*
X10051372Y-16117984D01*
X10051372Y-16117984D02*
X10032325Y-16127508D01*
X10032325Y-16127508D02*
X10022801Y-16137031D01*
X10022801Y-16137031D02*
X10003753Y-16165603D01*
X10003753Y-16165603D02*
X9994230Y-16203698D01*
X9994230Y-16203698D02*
X9994230Y-16279888D01*
X9994230Y-16279888D02*
X10003753Y-16298936D01*
X10003753Y-16298936D02*
X10013277Y-16308460D01*
X10013277Y-16308460D02*
X10032325Y-16317984D01*
X10032325Y-16317984D02*
X10070420Y-16317984D01*
X10070420Y-16317984D02*
X10089468Y-16308460D01*
X10089468Y-16308460D02*
X10098991Y-16298936D01*
X10098991Y-16298936D02*
X10108515Y-16279888D01*
X10108515Y-16279888D02*
X10108515Y-16232269D01*
X10108515Y-16232269D02*
X10098991Y-16213222D01*
X10098991Y-16213222D02*
X10089468Y-16203698D01*
X10089468Y-16203698D02*
X10070420Y-16194174D01*
X10070420Y-16194174D02*
X10032325Y-16194174D01*
X10032325Y-16194174D02*
X10013277Y-16203698D01*
X10013277Y-16203698D02*
X10003753Y-16213222D01*
X10003753Y-16213222D02*
X9994230Y-16232269D01*
X10346611Y-16317984D02*
X10346611Y-16117984D01*
X10432325Y-16317984D02*
X10432325Y-16213222D01*
X10432325Y-16213222D02*
X10422801Y-16194174D01*
X10422801Y-16194174D02*
X10403753Y-16184650D01*
X10403753Y-16184650D02*
X10375182Y-16184650D01*
X10375182Y-16184650D02*
X10356134Y-16194174D01*
X10356134Y-16194174D02*
X10346611Y-16203698D01*
X10556134Y-16317984D02*
X10537087Y-16308460D01*
X10537087Y-16308460D02*
X10527563Y-16298936D01*
X10527563Y-16298936D02*
X10518039Y-16279888D01*
X10518039Y-16279888D02*
X10518039Y-16222746D01*
X10518039Y-16222746D02*
X10527563Y-16203698D01*
X10527563Y-16203698D02*
X10537087Y-16194174D01*
X10537087Y-16194174D02*
X10556134Y-16184650D01*
X10556134Y-16184650D02*
X10584706Y-16184650D01*
X10584706Y-16184650D02*
X10603753Y-16194174D01*
X10603753Y-16194174D02*
X10613277Y-16203698D01*
X10613277Y-16203698D02*
X10622801Y-16222746D01*
X10622801Y-16222746D02*
X10622801Y-16279888D01*
X10622801Y-16279888D02*
X10613277Y-16298936D01*
X10613277Y-16298936D02*
X10603753Y-16308460D01*
X10603753Y-16308460D02*
X10584706Y-16317984D01*
X10584706Y-16317984D02*
X10556134Y-16317984D01*
X10737087Y-16317984D02*
X10718039Y-16308460D01*
X10718039Y-16308460D02*
X10708515Y-16289412D01*
X10708515Y-16289412D02*
X10708515Y-16117984D01*
X10889468Y-16308460D02*
X10870420Y-16317984D01*
X10870420Y-16317984D02*
X10832325Y-16317984D01*
X10832325Y-16317984D02*
X10813277Y-16308460D01*
X10813277Y-16308460D02*
X10803753Y-16289412D01*
X10803753Y-16289412D02*
X10803753Y-16213222D01*
X10803753Y-16213222D02*
X10813277Y-16194174D01*
X10813277Y-16194174D02*
X10832325Y-16184650D01*
X10832325Y-16184650D02*
X10870420Y-16184650D01*
X10870420Y-16184650D02*
X10889468Y-16194174D01*
X10889468Y-16194174D02*
X10898992Y-16213222D01*
X10898992Y-16213222D02*
X10898992Y-16232269D01*
X10898992Y-16232269D02*
X10803753Y-16251317D01*
X10975182Y-16308460D02*
X10994230Y-16317984D01*
X10994230Y-16317984D02*
X11032325Y-16317984D01*
X11032325Y-16317984D02*
X11051373Y-16308460D01*
X11051373Y-16308460D02*
X11060896Y-16289412D01*
X11060896Y-16289412D02*
X11060896Y-16279888D01*
X11060896Y-16279888D02*
X11051373Y-16260841D01*
X11051373Y-16260841D02*
X11032325Y-16251317D01*
X11032325Y-16251317D02*
X11003753Y-16251317D01*
X11003753Y-16251317D02*
X10984706Y-16241793D01*
X10984706Y-16241793D02*
X10975182Y-16222746D01*
X10975182Y-16222746D02*
X10975182Y-16213222D01*
X10975182Y-16213222D02*
X10984706Y-16194174D01*
X10984706Y-16194174D02*
X11003753Y-16184650D01*
X11003753Y-16184650D02*
X11032325Y-16184650D01*
X11032325Y-16184650D02*
X11051373Y-16194174D01*
X11127563Y-16394174D02*
X11137087Y-16384650D01*
X11137087Y-16384650D02*
X11156134Y-16356079D01*
X11156134Y-16356079D02*
X11165658Y-16337031D01*
X11165658Y-16337031D02*
X11175182Y-16308460D01*
X11175182Y-16308460D02*
X11184706Y-16260841D01*
X11184706Y-16260841D02*
X11184706Y-16222746D01*
X11184706Y-16222746D02*
X11175182Y-16175127D01*
X11175182Y-16175127D02*
X11165658Y-16146555D01*
X11165658Y-16146555D02*
X11156134Y-16127508D01*
X11156134Y-16127508D02*
X11137087Y-16098936D01*
X11137087Y-16098936D02*
X11127563Y-16089412D01*
D12*
X6312500Y-16450500D02*
X6312500Y-16530500D01*
X6272500Y-16490500D02*
X6352500Y-16490500D01*
D11*
X6651372Y-16381984D02*
X6670420Y-16381984D01*
X6670420Y-16381984D02*
X6689467Y-16391508D01*
X6689467Y-16391508D02*
X6698991Y-16401031D01*
X6698991Y-16401031D02*
X6708515Y-16420079D01*
X6708515Y-16420079D02*
X6718039Y-16458174D01*
X6718039Y-16458174D02*
X6718039Y-16505793D01*
X6718039Y-16505793D02*
X6708515Y-16543888D01*
X6708515Y-16543888D02*
X6698991Y-16562936D01*
X6698991Y-16562936D02*
X6689467Y-16572460D01*
X6689467Y-16572460D02*
X6670420Y-16581984D01*
X6670420Y-16581984D02*
X6651372Y-16581984D01*
X6651372Y-16581984D02*
X6632324Y-16572460D01*
X6632324Y-16572460D02*
X6622801Y-16562936D01*
X6622801Y-16562936D02*
X6613277Y-16543888D01*
X6613277Y-16543888D02*
X6603753Y-16505793D01*
X6603753Y-16505793D02*
X6603753Y-16458174D01*
X6603753Y-16458174D02*
X6613277Y-16420079D01*
X6613277Y-16420079D02*
X6622801Y-16401031D01*
X6622801Y-16401031D02*
X6632324Y-16391508D01*
X6632324Y-16391508D02*
X6651372Y-16381984D01*
X6803753Y-16562936D02*
X6813277Y-16572460D01*
X6813277Y-16572460D02*
X6803753Y-16581984D01*
X6803753Y-16581984D02*
X6794229Y-16572460D01*
X6794229Y-16572460D02*
X6803753Y-16562936D01*
X6803753Y-16562936D02*
X6803753Y-16581984D01*
X6927562Y-16467698D02*
X6908515Y-16458174D01*
X6908515Y-16458174D02*
X6898991Y-16448650D01*
X6898991Y-16448650D02*
X6889467Y-16429603D01*
X6889467Y-16429603D02*
X6889467Y-16420079D01*
X6889467Y-16420079D02*
X6898991Y-16401031D01*
X6898991Y-16401031D02*
X6908515Y-16391508D01*
X6908515Y-16391508D02*
X6927562Y-16381984D01*
X6927562Y-16381984D02*
X6965658Y-16381984D01*
X6965658Y-16381984D02*
X6984705Y-16391508D01*
X6984705Y-16391508D02*
X6994229Y-16401031D01*
X6994229Y-16401031D02*
X7003753Y-16420079D01*
X7003753Y-16420079D02*
X7003753Y-16429603D01*
X7003753Y-16429603D02*
X6994229Y-16448650D01*
X6994229Y-16448650D02*
X6984705Y-16458174D01*
X6984705Y-16458174D02*
X6965658Y-16467698D01*
X6965658Y-16467698D02*
X6927562Y-16467698D01*
X6927562Y-16467698D02*
X6908515Y-16477222D01*
X6908515Y-16477222D02*
X6898991Y-16486746D01*
X6898991Y-16486746D02*
X6889467Y-16505793D01*
X6889467Y-16505793D02*
X6889467Y-16543888D01*
X6889467Y-16543888D02*
X6898991Y-16562936D01*
X6898991Y-16562936D02*
X6908515Y-16572460D01*
X6908515Y-16572460D02*
X6927562Y-16581984D01*
X6927562Y-16581984D02*
X6965658Y-16581984D01*
X6965658Y-16581984D02*
X6984705Y-16572460D01*
X6984705Y-16572460D02*
X6994229Y-16562936D01*
X6994229Y-16562936D02*
X7003753Y-16543888D01*
X7003753Y-16543888D02*
X7003753Y-16505793D01*
X7003753Y-16505793D02*
X6994229Y-16486746D01*
X6994229Y-16486746D02*
X6984705Y-16477222D01*
X6984705Y-16477222D02*
X6965658Y-16467698D01*
X7127562Y-16381984D02*
X7146610Y-16381984D01*
X7146610Y-16381984D02*
X7165658Y-16391508D01*
X7165658Y-16391508D02*
X7175182Y-16401031D01*
X7175182Y-16401031D02*
X7184705Y-16420079D01*
X7184705Y-16420079D02*
X7194229Y-16458174D01*
X7194229Y-16458174D02*
X7194229Y-16505793D01*
X7194229Y-16505793D02*
X7184705Y-16543888D01*
X7184705Y-16543888D02*
X7175182Y-16562936D01*
X7175182Y-16562936D02*
X7165658Y-16572460D01*
X7165658Y-16572460D02*
X7146610Y-16581984D01*
X7146610Y-16581984D02*
X7127562Y-16581984D01*
X7127562Y-16581984D02*
X7108515Y-16572460D01*
X7108515Y-16572460D02*
X7098991Y-16562936D01*
X7098991Y-16562936D02*
X7089467Y-16543888D01*
X7089467Y-16543888D02*
X7079943Y-16505793D01*
X7079943Y-16505793D02*
X7079943Y-16458174D01*
X7079943Y-16458174D02*
X7089467Y-16420079D01*
X7089467Y-16420079D02*
X7098991Y-16401031D01*
X7098991Y-16401031D02*
X7108515Y-16391508D01*
X7108515Y-16391508D02*
X7127562Y-16381984D01*
X7318039Y-16381984D02*
X7337086Y-16381984D01*
X7337086Y-16381984D02*
X7356134Y-16391508D01*
X7356134Y-16391508D02*
X7365658Y-16401031D01*
X7365658Y-16401031D02*
X7375182Y-16420079D01*
X7375182Y-16420079D02*
X7384705Y-16458174D01*
X7384705Y-16458174D02*
X7384705Y-16505793D01*
X7384705Y-16505793D02*
X7375182Y-16543888D01*
X7375182Y-16543888D02*
X7365658Y-16562936D01*
X7365658Y-16562936D02*
X7356134Y-16572460D01*
X7356134Y-16572460D02*
X7337086Y-16581984D01*
X7337086Y-16581984D02*
X7318039Y-16581984D01*
X7318039Y-16581984D02*
X7298991Y-16572460D01*
X7298991Y-16572460D02*
X7289467Y-16562936D01*
X7289467Y-16562936D02*
X7279943Y-16543888D01*
X7279943Y-16543888D02*
X7270420Y-16505793D01*
X7270420Y-16505793D02*
X7270420Y-16458174D01*
X7270420Y-16458174D02*
X7279943Y-16420079D01*
X7279943Y-16420079D02*
X7289467Y-16401031D01*
X7289467Y-16401031D02*
X7298991Y-16391508D01*
X7298991Y-16391508D02*
X7318039Y-16381984D01*
X7470420Y-16581984D02*
X7470420Y-16448650D01*
X7470420Y-16467698D02*
X7479943Y-16458174D01*
X7479943Y-16458174D02*
X7498991Y-16448650D01*
X7498991Y-16448650D02*
X7527563Y-16448650D01*
X7527563Y-16448650D02*
X7546610Y-16458174D01*
X7546610Y-16458174D02*
X7556134Y-16477222D01*
X7556134Y-16477222D02*
X7556134Y-16581984D01*
X7556134Y-16477222D02*
X7565658Y-16458174D01*
X7565658Y-16458174D02*
X7584705Y-16448650D01*
X7584705Y-16448650D02*
X7613277Y-16448650D01*
X7613277Y-16448650D02*
X7632324Y-16458174D01*
X7632324Y-16458174D02*
X7641848Y-16477222D01*
X7641848Y-16477222D02*
X7641848Y-16581984D01*
X7737086Y-16581984D02*
X7737086Y-16448650D01*
X7737086Y-16467698D02*
X7746610Y-16458174D01*
X7746610Y-16458174D02*
X7765658Y-16448650D01*
X7765658Y-16448650D02*
X7794229Y-16448650D01*
X7794229Y-16448650D02*
X7813277Y-16458174D01*
X7813277Y-16458174D02*
X7822801Y-16477222D01*
X7822801Y-16477222D02*
X7822801Y-16581984D01*
X7822801Y-16477222D02*
X7832324Y-16458174D01*
X7832324Y-16458174D02*
X7851372Y-16448650D01*
X7851372Y-16448650D02*
X7879943Y-16448650D01*
X7879943Y-16448650D02*
X7898991Y-16458174D01*
X7898991Y-16458174D02*
X7908515Y-16477222D01*
X7908515Y-16477222D02*
X7908515Y-16581984D01*
X8298991Y-16372460D02*
X8127563Y-16629603D01*
X8556134Y-16381984D02*
X8575182Y-16381984D01*
X8575182Y-16381984D02*
X8594229Y-16391508D01*
X8594229Y-16391508D02*
X8603753Y-16401031D01*
X8603753Y-16401031D02*
X8613277Y-16420079D01*
X8613277Y-16420079D02*
X8622801Y-16458174D01*
X8622801Y-16458174D02*
X8622801Y-16505793D01*
X8622801Y-16505793D02*
X8613277Y-16543888D01*
X8613277Y-16543888D02*
X8603753Y-16562936D01*
X8603753Y-16562936D02*
X8594229Y-16572460D01*
X8594229Y-16572460D02*
X8575182Y-16581984D01*
X8575182Y-16581984D02*
X8556134Y-16581984D01*
X8556134Y-16581984D02*
X8537087Y-16572460D01*
X8537087Y-16572460D02*
X8527563Y-16562936D01*
X8527563Y-16562936D02*
X8518039Y-16543888D01*
X8518039Y-16543888D02*
X8508515Y-16505793D01*
X8508515Y-16505793D02*
X8508515Y-16458174D01*
X8508515Y-16458174D02*
X8518039Y-16420079D01*
X8518039Y-16420079D02*
X8527563Y-16401031D01*
X8527563Y-16401031D02*
X8537087Y-16391508D01*
X8537087Y-16391508D02*
X8556134Y-16381984D01*
X8708515Y-16562936D02*
X8718039Y-16572460D01*
X8718039Y-16572460D02*
X8708515Y-16581984D01*
X8708515Y-16581984D02*
X8698991Y-16572460D01*
X8698991Y-16572460D02*
X8708515Y-16562936D01*
X8708515Y-16562936D02*
X8708515Y-16581984D01*
X8841848Y-16381984D02*
X8860896Y-16381984D01*
X8860896Y-16381984D02*
X8879944Y-16391508D01*
X8879944Y-16391508D02*
X8889468Y-16401031D01*
X8889468Y-16401031D02*
X8898991Y-16420079D01*
X8898991Y-16420079D02*
X8908515Y-16458174D01*
X8908515Y-16458174D02*
X8908515Y-16505793D01*
X8908515Y-16505793D02*
X8898991Y-16543888D01*
X8898991Y-16543888D02*
X8889468Y-16562936D01*
X8889468Y-16562936D02*
X8879944Y-16572460D01*
X8879944Y-16572460D02*
X8860896Y-16581984D01*
X8860896Y-16581984D02*
X8841848Y-16581984D01*
X8841848Y-16581984D02*
X8822801Y-16572460D01*
X8822801Y-16572460D02*
X8813277Y-16562936D01*
X8813277Y-16562936D02*
X8803753Y-16543888D01*
X8803753Y-16543888D02*
X8794229Y-16505793D01*
X8794229Y-16505793D02*
X8794229Y-16458174D01*
X8794229Y-16458174D02*
X8803753Y-16420079D01*
X8803753Y-16420079D02*
X8813277Y-16401031D01*
X8813277Y-16401031D02*
X8822801Y-16391508D01*
X8822801Y-16391508D02*
X8841848Y-16381984D01*
X8975182Y-16381984D02*
X9098991Y-16381984D01*
X9098991Y-16381984D02*
X9032325Y-16458174D01*
X9032325Y-16458174D02*
X9060896Y-16458174D01*
X9060896Y-16458174D02*
X9079944Y-16467698D01*
X9079944Y-16467698D02*
X9089468Y-16477222D01*
X9089468Y-16477222D02*
X9098991Y-16496269D01*
X9098991Y-16496269D02*
X9098991Y-16543888D01*
X9098991Y-16543888D02*
X9089468Y-16562936D01*
X9089468Y-16562936D02*
X9079944Y-16572460D01*
X9079944Y-16572460D02*
X9060896Y-16581984D01*
X9060896Y-16581984D02*
X9003753Y-16581984D01*
X9003753Y-16581984D02*
X8984706Y-16572460D01*
X8984706Y-16572460D02*
X8975182Y-16562936D01*
X9289468Y-16581984D02*
X9175182Y-16581984D01*
X9232325Y-16581984D02*
X9232325Y-16381984D01*
X9232325Y-16381984D02*
X9213277Y-16410555D01*
X9213277Y-16410555D02*
X9194229Y-16429603D01*
X9194229Y-16429603D02*
X9175182Y-16439127D01*
X9470420Y-16381984D02*
X9375182Y-16381984D01*
X9375182Y-16381984D02*
X9365658Y-16477222D01*
X9365658Y-16477222D02*
X9375182Y-16467698D01*
X9375182Y-16467698D02*
X9394229Y-16458174D01*
X9394229Y-16458174D02*
X9441849Y-16458174D01*
X9441849Y-16458174D02*
X9460896Y-16467698D01*
X9460896Y-16467698D02*
X9470420Y-16477222D01*
X9470420Y-16477222D02*
X9479944Y-16496269D01*
X9479944Y-16496269D02*
X9479944Y-16543888D01*
X9479944Y-16543888D02*
X9470420Y-16562936D01*
X9470420Y-16562936D02*
X9460896Y-16572460D01*
X9460896Y-16572460D02*
X9441849Y-16581984D01*
X9441849Y-16581984D02*
X9394229Y-16581984D01*
X9394229Y-16581984D02*
X9375182Y-16572460D01*
X9375182Y-16572460D02*
X9365658Y-16562936D01*
X9556134Y-16381984D02*
X9556134Y-16420079D01*
X9632325Y-16381984D02*
X9632325Y-16420079D01*
X9927563Y-16658174D02*
X9918039Y-16648650D01*
X9918039Y-16648650D02*
X9898991Y-16620079D01*
X9898991Y-16620079D02*
X9889468Y-16601031D01*
X9889468Y-16601031D02*
X9879944Y-16572460D01*
X9879944Y-16572460D02*
X9870420Y-16524841D01*
X9870420Y-16524841D02*
X9870420Y-16486746D01*
X9870420Y-16486746D02*
X9879944Y-16439127D01*
X9879944Y-16439127D02*
X9889468Y-16410555D01*
X9889468Y-16410555D02*
X9898991Y-16391508D01*
X9898991Y-16391508D02*
X9918039Y-16362936D01*
X9918039Y-16362936D02*
X9927563Y-16353412D01*
X10108515Y-16581984D02*
X9994230Y-16581984D01*
X10051372Y-16581984D02*
X10051372Y-16381984D01*
X10051372Y-16381984D02*
X10032325Y-16410555D01*
X10032325Y-16410555D02*
X10013277Y-16429603D01*
X10013277Y-16429603D02*
X9994230Y-16439127D01*
X10279944Y-16381984D02*
X10241849Y-16381984D01*
X10241849Y-16381984D02*
X10222801Y-16391508D01*
X10222801Y-16391508D02*
X10213277Y-16401031D01*
X10213277Y-16401031D02*
X10194230Y-16429603D01*
X10194230Y-16429603D02*
X10184706Y-16467698D01*
X10184706Y-16467698D02*
X10184706Y-16543888D01*
X10184706Y-16543888D02*
X10194230Y-16562936D01*
X10194230Y-16562936D02*
X10203753Y-16572460D01*
X10203753Y-16572460D02*
X10222801Y-16581984D01*
X10222801Y-16581984D02*
X10260896Y-16581984D01*
X10260896Y-16581984D02*
X10279944Y-16572460D01*
X10279944Y-16572460D02*
X10289468Y-16562936D01*
X10289468Y-16562936D02*
X10298991Y-16543888D01*
X10298991Y-16543888D02*
X10298991Y-16496269D01*
X10298991Y-16496269D02*
X10289468Y-16477222D01*
X10289468Y-16477222D02*
X10279944Y-16467698D01*
X10279944Y-16467698D02*
X10260896Y-16458174D01*
X10260896Y-16458174D02*
X10222801Y-16458174D01*
X10222801Y-16458174D02*
X10203753Y-16467698D01*
X10203753Y-16467698D02*
X10194230Y-16477222D01*
X10194230Y-16477222D02*
X10184706Y-16496269D01*
X10470420Y-16381984D02*
X10432325Y-16381984D01*
X10432325Y-16381984D02*
X10413277Y-16391508D01*
X10413277Y-16391508D02*
X10403753Y-16401031D01*
X10403753Y-16401031D02*
X10384706Y-16429603D01*
X10384706Y-16429603D02*
X10375182Y-16467698D01*
X10375182Y-16467698D02*
X10375182Y-16543888D01*
X10375182Y-16543888D02*
X10384706Y-16562936D01*
X10384706Y-16562936D02*
X10394230Y-16572460D01*
X10394230Y-16572460D02*
X10413277Y-16581984D01*
X10413277Y-16581984D02*
X10451372Y-16581984D01*
X10451372Y-16581984D02*
X10470420Y-16572460D01*
X10470420Y-16572460D02*
X10479944Y-16562936D01*
X10479944Y-16562936D02*
X10489468Y-16543888D01*
X10489468Y-16543888D02*
X10489468Y-16496269D01*
X10489468Y-16496269D02*
X10479944Y-16477222D01*
X10479944Y-16477222D02*
X10470420Y-16467698D01*
X10470420Y-16467698D02*
X10451372Y-16458174D01*
X10451372Y-16458174D02*
X10413277Y-16458174D01*
X10413277Y-16458174D02*
X10394230Y-16467698D01*
X10394230Y-16467698D02*
X10384706Y-16477222D01*
X10384706Y-16477222D02*
X10375182Y-16496269D01*
X10727563Y-16581984D02*
X10727563Y-16381984D01*
X10813277Y-16581984D02*
X10813277Y-16477222D01*
X10813277Y-16477222D02*
X10803753Y-16458174D01*
X10803753Y-16458174D02*
X10784706Y-16448650D01*
X10784706Y-16448650D02*
X10756134Y-16448650D01*
X10756134Y-16448650D02*
X10737087Y-16458174D01*
X10737087Y-16458174D02*
X10727563Y-16467698D01*
X10937087Y-16581984D02*
X10918039Y-16572460D01*
X10918039Y-16572460D02*
X10908515Y-16562936D01*
X10908515Y-16562936D02*
X10898992Y-16543888D01*
X10898992Y-16543888D02*
X10898992Y-16486746D01*
X10898992Y-16486746D02*
X10908515Y-16467698D01*
X10908515Y-16467698D02*
X10918039Y-16458174D01*
X10918039Y-16458174D02*
X10937087Y-16448650D01*
X10937087Y-16448650D02*
X10965658Y-16448650D01*
X10965658Y-16448650D02*
X10984706Y-16458174D01*
X10984706Y-16458174D02*
X10994230Y-16467698D01*
X10994230Y-16467698D02*
X11003753Y-16486746D01*
X11003753Y-16486746D02*
X11003753Y-16543888D01*
X11003753Y-16543888D02*
X10994230Y-16562936D01*
X10994230Y-16562936D02*
X10984706Y-16572460D01*
X10984706Y-16572460D02*
X10965658Y-16581984D01*
X10965658Y-16581984D02*
X10937087Y-16581984D01*
X11118039Y-16581984D02*
X11098992Y-16572460D01*
X11098992Y-16572460D02*
X11089468Y-16553412D01*
X11089468Y-16553412D02*
X11089468Y-16381984D01*
X11270420Y-16572460D02*
X11251372Y-16581984D01*
X11251372Y-16581984D02*
X11213277Y-16581984D01*
X11213277Y-16581984D02*
X11194230Y-16572460D01*
X11194230Y-16572460D02*
X11184706Y-16553412D01*
X11184706Y-16553412D02*
X11184706Y-16477222D01*
X11184706Y-16477222D02*
X11194230Y-16458174D01*
X11194230Y-16458174D02*
X11213277Y-16448650D01*
X11213277Y-16448650D02*
X11251372Y-16448650D01*
X11251372Y-16448650D02*
X11270420Y-16458174D01*
X11270420Y-16458174D02*
X11279944Y-16477222D01*
X11279944Y-16477222D02*
X11279944Y-16496269D01*
X11279944Y-16496269D02*
X11184706Y-16515317D01*
X11356134Y-16572460D02*
X11375182Y-16581984D01*
X11375182Y-16581984D02*
X11413277Y-16581984D01*
X11413277Y-16581984D02*
X11432325Y-16572460D01*
X11432325Y-16572460D02*
X11441849Y-16553412D01*
X11441849Y-16553412D02*
X11441849Y-16543888D01*
X11441849Y-16543888D02*
X11432325Y-16524841D01*
X11432325Y-16524841D02*
X11413277Y-16515317D01*
X11413277Y-16515317D02*
X11384706Y-16515317D01*
X11384706Y-16515317D02*
X11365658Y-16505793D01*
X11365658Y-16505793D02*
X11356134Y-16486746D01*
X11356134Y-16486746D02*
X11356134Y-16477222D01*
X11356134Y-16477222D02*
X11365658Y-16458174D01*
X11365658Y-16458174D02*
X11384706Y-16448650D01*
X11384706Y-16448650D02*
X11413277Y-16448650D01*
X11413277Y-16448650D02*
X11432325Y-16458174D01*
X11508515Y-16658174D02*
X11518039Y-16648650D01*
X11518039Y-16648650D02*
X11537087Y-16620079D01*
X11537087Y-16620079D02*
X11546611Y-16601031D01*
X11546611Y-16601031D02*
X11556134Y-16572460D01*
X11556134Y-16572460D02*
X11565658Y-16524841D01*
X11565658Y-16524841D02*
X11565658Y-16486746D01*
X11565658Y-16486746D02*
X11556134Y-16439127D01*
X11556134Y-16439127D02*
X11546611Y-16410555D01*
X11546611Y-16410555D02*
X11537087Y-16391508D01*
X11537087Y-16391508D02*
X11518039Y-16362936D01*
X11518039Y-16362936D02*
X11508515Y-16353412D01*
D12*
X6339320Y-16786320D02*
X6339320Y-16722680D01*
X6275680Y-16722680D01*
X6275680Y-16786320D01*
X6339320Y-16786320D01*
D11*
X6651372Y-16645984D02*
X6670420Y-16645984D01*
X6670420Y-16645984D02*
X6689467Y-16655508D01*
X6689467Y-16655508D02*
X6698991Y-16665031D01*
X6698991Y-16665031D02*
X6708515Y-16684079D01*
X6708515Y-16684079D02*
X6718039Y-16722174D01*
X6718039Y-16722174D02*
X6718039Y-16769793D01*
X6718039Y-16769793D02*
X6708515Y-16807889D01*
X6708515Y-16807889D02*
X6698991Y-16826936D01*
X6698991Y-16826936D02*
X6689467Y-16836460D01*
X6689467Y-16836460D02*
X6670420Y-16845984D01*
X6670420Y-16845984D02*
X6651372Y-16845984D01*
X6651372Y-16845984D02*
X6632324Y-16836460D01*
X6632324Y-16836460D02*
X6622801Y-16826936D01*
X6622801Y-16826936D02*
X6613277Y-16807889D01*
X6613277Y-16807889D02*
X6603753Y-16769793D01*
X6603753Y-16769793D02*
X6603753Y-16722174D01*
X6603753Y-16722174D02*
X6613277Y-16684079D01*
X6613277Y-16684079D02*
X6622801Y-16665031D01*
X6622801Y-16665031D02*
X6632324Y-16655508D01*
X6632324Y-16655508D02*
X6651372Y-16645984D01*
X6803753Y-16826936D02*
X6813277Y-16836460D01*
X6813277Y-16836460D02*
X6803753Y-16845984D01*
X6803753Y-16845984D02*
X6794229Y-16836460D01*
X6794229Y-16836460D02*
X6803753Y-16826936D01*
X6803753Y-16826936D02*
X6803753Y-16845984D01*
X6908515Y-16845984D02*
X6946610Y-16845984D01*
X6946610Y-16845984D02*
X6965658Y-16836460D01*
X6965658Y-16836460D02*
X6975182Y-16826936D01*
X6975182Y-16826936D02*
X6994229Y-16798365D01*
X6994229Y-16798365D02*
X7003753Y-16760269D01*
X7003753Y-16760269D02*
X7003753Y-16684079D01*
X7003753Y-16684079D02*
X6994229Y-16665031D01*
X6994229Y-16665031D02*
X6984705Y-16655508D01*
X6984705Y-16655508D02*
X6965658Y-16645984D01*
X6965658Y-16645984D02*
X6927562Y-16645984D01*
X6927562Y-16645984D02*
X6908515Y-16655508D01*
X6908515Y-16655508D02*
X6898991Y-16665031D01*
X6898991Y-16665031D02*
X6889467Y-16684079D01*
X6889467Y-16684079D02*
X6889467Y-16731698D01*
X6889467Y-16731698D02*
X6898991Y-16750746D01*
X6898991Y-16750746D02*
X6908515Y-16760269D01*
X6908515Y-16760269D02*
X6927562Y-16769793D01*
X6927562Y-16769793D02*
X6965658Y-16769793D01*
X6965658Y-16769793D02*
X6984705Y-16760269D01*
X6984705Y-16760269D02*
X6994229Y-16750746D01*
X6994229Y-16750746D02*
X7003753Y-16731698D01*
X7127562Y-16645984D02*
X7146610Y-16645984D01*
X7146610Y-16645984D02*
X7165658Y-16655508D01*
X7165658Y-16655508D02*
X7175182Y-16665031D01*
X7175182Y-16665031D02*
X7184705Y-16684079D01*
X7184705Y-16684079D02*
X7194229Y-16722174D01*
X7194229Y-16722174D02*
X7194229Y-16769793D01*
X7194229Y-16769793D02*
X7184705Y-16807889D01*
X7184705Y-16807889D02*
X7175182Y-16826936D01*
X7175182Y-16826936D02*
X7165658Y-16836460D01*
X7165658Y-16836460D02*
X7146610Y-16845984D01*
X7146610Y-16845984D02*
X7127562Y-16845984D01*
X7127562Y-16845984D02*
X7108515Y-16836460D01*
X7108515Y-16836460D02*
X7098991Y-16826936D01*
X7098991Y-16826936D02*
X7089467Y-16807889D01*
X7089467Y-16807889D02*
X7079943Y-16769793D01*
X7079943Y-16769793D02*
X7079943Y-16722174D01*
X7079943Y-16722174D02*
X7089467Y-16684079D01*
X7089467Y-16684079D02*
X7098991Y-16665031D01*
X7098991Y-16665031D02*
X7108515Y-16655508D01*
X7108515Y-16655508D02*
X7127562Y-16645984D01*
X7318039Y-16645984D02*
X7337086Y-16645984D01*
X7337086Y-16645984D02*
X7356134Y-16655508D01*
X7356134Y-16655508D02*
X7365658Y-16665031D01*
X7365658Y-16665031D02*
X7375182Y-16684079D01*
X7375182Y-16684079D02*
X7384705Y-16722174D01*
X7384705Y-16722174D02*
X7384705Y-16769793D01*
X7384705Y-16769793D02*
X7375182Y-16807889D01*
X7375182Y-16807889D02*
X7365658Y-16826936D01*
X7365658Y-16826936D02*
X7356134Y-16836460D01*
X7356134Y-16836460D02*
X7337086Y-16845984D01*
X7337086Y-16845984D02*
X7318039Y-16845984D01*
X7318039Y-16845984D02*
X7298991Y-16836460D01*
X7298991Y-16836460D02*
X7289467Y-16826936D01*
X7289467Y-16826936D02*
X7279943Y-16807889D01*
X7279943Y-16807889D02*
X7270420Y-16769793D01*
X7270420Y-16769793D02*
X7270420Y-16722174D01*
X7270420Y-16722174D02*
X7279943Y-16684079D01*
X7279943Y-16684079D02*
X7289467Y-16665031D01*
X7289467Y-16665031D02*
X7298991Y-16655508D01*
X7298991Y-16655508D02*
X7318039Y-16645984D01*
X7470420Y-16845984D02*
X7470420Y-16712650D01*
X7470420Y-16731698D02*
X7479943Y-16722174D01*
X7479943Y-16722174D02*
X7498991Y-16712650D01*
X7498991Y-16712650D02*
X7527563Y-16712650D01*
X7527563Y-16712650D02*
X7546610Y-16722174D01*
X7546610Y-16722174D02*
X7556134Y-16741222D01*
X7556134Y-16741222D02*
X7556134Y-16845984D01*
X7556134Y-16741222D02*
X7565658Y-16722174D01*
X7565658Y-16722174D02*
X7584705Y-16712650D01*
X7584705Y-16712650D02*
X7613277Y-16712650D01*
X7613277Y-16712650D02*
X7632324Y-16722174D01*
X7632324Y-16722174D02*
X7641848Y-16741222D01*
X7641848Y-16741222D02*
X7641848Y-16845984D01*
X7737086Y-16845984D02*
X7737086Y-16712650D01*
X7737086Y-16731698D02*
X7746610Y-16722174D01*
X7746610Y-16722174D02*
X7765658Y-16712650D01*
X7765658Y-16712650D02*
X7794229Y-16712650D01*
X7794229Y-16712650D02*
X7813277Y-16722174D01*
X7813277Y-16722174D02*
X7822801Y-16741222D01*
X7822801Y-16741222D02*
X7822801Y-16845984D01*
X7822801Y-16741222D02*
X7832324Y-16722174D01*
X7832324Y-16722174D02*
X7851372Y-16712650D01*
X7851372Y-16712650D02*
X7879943Y-16712650D01*
X7879943Y-16712650D02*
X7898991Y-16722174D01*
X7898991Y-16722174D02*
X7908515Y-16741222D01*
X7908515Y-16741222D02*
X7908515Y-16845984D01*
X8298991Y-16636460D02*
X8127563Y-16893603D01*
X8556134Y-16645984D02*
X8575182Y-16645984D01*
X8575182Y-16645984D02*
X8594229Y-16655508D01*
X8594229Y-16655508D02*
X8603753Y-16665031D01*
X8603753Y-16665031D02*
X8613277Y-16684079D01*
X8613277Y-16684079D02*
X8622801Y-16722174D01*
X8622801Y-16722174D02*
X8622801Y-16769793D01*
X8622801Y-16769793D02*
X8613277Y-16807889D01*
X8613277Y-16807889D02*
X8603753Y-16826936D01*
X8603753Y-16826936D02*
X8594229Y-16836460D01*
X8594229Y-16836460D02*
X8575182Y-16845984D01*
X8575182Y-16845984D02*
X8556134Y-16845984D01*
X8556134Y-16845984D02*
X8537087Y-16836460D01*
X8537087Y-16836460D02*
X8527563Y-16826936D01*
X8527563Y-16826936D02*
X8518039Y-16807889D01*
X8518039Y-16807889D02*
X8508515Y-16769793D01*
X8508515Y-16769793D02*
X8508515Y-16722174D01*
X8508515Y-16722174D02*
X8518039Y-16684079D01*
X8518039Y-16684079D02*
X8527563Y-16665031D01*
X8527563Y-16665031D02*
X8537087Y-16655508D01*
X8537087Y-16655508D02*
X8556134Y-16645984D01*
X8708515Y-16826936D02*
X8718039Y-16836460D01*
X8718039Y-16836460D02*
X8708515Y-16845984D01*
X8708515Y-16845984D02*
X8698991Y-16836460D01*
X8698991Y-16836460D02*
X8708515Y-16826936D01*
X8708515Y-16826936D02*
X8708515Y-16845984D01*
X8841848Y-16645984D02*
X8860896Y-16645984D01*
X8860896Y-16645984D02*
X8879944Y-16655508D01*
X8879944Y-16655508D02*
X8889468Y-16665031D01*
X8889468Y-16665031D02*
X8898991Y-16684079D01*
X8898991Y-16684079D02*
X8908515Y-16722174D01*
X8908515Y-16722174D02*
X8908515Y-16769793D01*
X8908515Y-16769793D02*
X8898991Y-16807889D01*
X8898991Y-16807889D02*
X8889468Y-16826936D01*
X8889468Y-16826936D02*
X8879944Y-16836460D01*
X8879944Y-16836460D02*
X8860896Y-16845984D01*
X8860896Y-16845984D02*
X8841848Y-16845984D01*
X8841848Y-16845984D02*
X8822801Y-16836460D01*
X8822801Y-16836460D02*
X8813277Y-16826936D01*
X8813277Y-16826936D02*
X8803753Y-16807889D01*
X8803753Y-16807889D02*
X8794229Y-16769793D01*
X8794229Y-16769793D02*
X8794229Y-16722174D01*
X8794229Y-16722174D02*
X8803753Y-16684079D01*
X8803753Y-16684079D02*
X8813277Y-16665031D01*
X8813277Y-16665031D02*
X8822801Y-16655508D01*
X8822801Y-16655508D02*
X8841848Y-16645984D01*
X8975182Y-16645984D02*
X9098991Y-16645984D01*
X9098991Y-16645984D02*
X9032325Y-16722174D01*
X9032325Y-16722174D02*
X9060896Y-16722174D01*
X9060896Y-16722174D02*
X9079944Y-16731698D01*
X9079944Y-16731698D02*
X9089468Y-16741222D01*
X9089468Y-16741222D02*
X9098991Y-16760269D01*
X9098991Y-16760269D02*
X9098991Y-16807889D01*
X9098991Y-16807889D02*
X9089468Y-16826936D01*
X9089468Y-16826936D02*
X9079944Y-16836460D01*
X9079944Y-16836460D02*
X9060896Y-16845984D01*
X9060896Y-16845984D02*
X9003753Y-16845984D01*
X9003753Y-16845984D02*
X8984706Y-16836460D01*
X8984706Y-16836460D02*
X8975182Y-16826936D01*
X9279944Y-16645984D02*
X9184706Y-16645984D01*
X9184706Y-16645984D02*
X9175182Y-16741222D01*
X9175182Y-16741222D02*
X9184706Y-16731698D01*
X9184706Y-16731698D02*
X9203753Y-16722174D01*
X9203753Y-16722174D02*
X9251372Y-16722174D01*
X9251372Y-16722174D02*
X9270420Y-16731698D01*
X9270420Y-16731698D02*
X9279944Y-16741222D01*
X9279944Y-16741222D02*
X9289468Y-16760269D01*
X9289468Y-16760269D02*
X9289468Y-16807889D01*
X9289468Y-16807889D02*
X9279944Y-16826936D01*
X9279944Y-16826936D02*
X9270420Y-16836460D01*
X9270420Y-16836460D02*
X9251372Y-16845984D01*
X9251372Y-16845984D02*
X9203753Y-16845984D01*
X9203753Y-16845984D02*
X9184706Y-16836460D01*
X9184706Y-16836460D02*
X9175182Y-16826936D01*
X9460896Y-16712650D02*
X9460896Y-16845984D01*
X9413277Y-16636460D02*
X9365658Y-16779317D01*
X9365658Y-16779317D02*
X9489468Y-16779317D01*
X9556134Y-16645984D02*
X9556134Y-16684079D01*
X9632325Y-16645984D02*
X9632325Y-16684079D01*
X9927563Y-16922174D02*
X9918039Y-16912650D01*
X9918039Y-16912650D02*
X9898991Y-16884079D01*
X9898991Y-16884079D02*
X9889468Y-16865031D01*
X9889468Y-16865031D02*
X9879944Y-16836460D01*
X9879944Y-16836460D02*
X9870420Y-16788841D01*
X9870420Y-16788841D02*
X9870420Y-16750746D01*
X9870420Y-16750746D02*
X9879944Y-16703127D01*
X9879944Y-16703127D02*
X9889468Y-16674555D01*
X9889468Y-16674555D02*
X9898991Y-16655508D01*
X9898991Y-16655508D02*
X9918039Y-16626936D01*
X9918039Y-16626936D02*
X9927563Y-16617412D01*
X10089468Y-16712650D02*
X10089468Y-16845984D01*
X10041849Y-16636460D02*
X9994230Y-16779317D01*
X9994230Y-16779317D02*
X10118039Y-16779317D01*
X10346611Y-16845984D02*
X10346611Y-16645984D01*
X10432325Y-16845984D02*
X10432325Y-16741222D01*
X10432325Y-16741222D02*
X10422801Y-16722174D01*
X10422801Y-16722174D02*
X10403753Y-16712650D01*
X10403753Y-16712650D02*
X10375182Y-16712650D01*
X10375182Y-16712650D02*
X10356134Y-16722174D01*
X10356134Y-16722174D02*
X10346611Y-16731698D01*
X10556134Y-16845984D02*
X10537087Y-16836460D01*
X10537087Y-16836460D02*
X10527563Y-16826936D01*
X10527563Y-16826936D02*
X10518039Y-16807889D01*
X10518039Y-16807889D02*
X10518039Y-16750746D01*
X10518039Y-16750746D02*
X10527563Y-16731698D01*
X10527563Y-16731698D02*
X10537087Y-16722174D01*
X10537087Y-16722174D02*
X10556134Y-16712650D01*
X10556134Y-16712650D02*
X10584706Y-16712650D01*
X10584706Y-16712650D02*
X10603753Y-16722174D01*
X10603753Y-16722174D02*
X10613277Y-16731698D01*
X10613277Y-16731698D02*
X10622801Y-16750746D01*
X10622801Y-16750746D02*
X10622801Y-16807889D01*
X10622801Y-16807889D02*
X10613277Y-16826936D01*
X10613277Y-16826936D02*
X10603753Y-16836460D01*
X10603753Y-16836460D02*
X10584706Y-16845984D01*
X10584706Y-16845984D02*
X10556134Y-16845984D01*
X10737087Y-16845984D02*
X10718039Y-16836460D01*
X10718039Y-16836460D02*
X10708515Y-16817412D01*
X10708515Y-16817412D02*
X10708515Y-16645984D01*
X10889468Y-16836460D02*
X10870420Y-16845984D01*
X10870420Y-16845984D02*
X10832325Y-16845984D01*
X10832325Y-16845984D02*
X10813277Y-16836460D01*
X10813277Y-16836460D02*
X10803753Y-16817412D01*
X10803753Y-16817412D02*
X10803753Y-16741222D01*
X10803753Y-16741222D02*
X10813277Y-16722174D01*
X10813277Y-16722174D02*
X10832325Y-16712650D01*
X10832325Y-16712650D02*
X10870420Y-16712650D01*
X10870420Y-16712650D02*
X10889468Y-16722174D01*
X10889468Y-16722174D02*
X10898992Y-16741222D01*
X10898992Y-16741222D02*
X10898992Y-16760269D01*
X10898992Y-16760269D02*
X10803753Y-16779317D01*
X10975182Y-16836460D02*
X10994230Y-16845984D01*
X10994230Y-16845984D02*
X11032325Y-16845984D01*
X11032325Y-16845984D02*
X11051373Y-16836460D01*
X11051373Y-16836460D02*
X11060896Y-16817412D01*
X11060896Y-16817412D02*
X11060896Y-16807889D01*
X11060896Y-16807889D02*
X11051373Y-16788841D01*
X11051373Y-16788841D02*
X11032325Y-16779317D01*
X11032325Y-16779317D02*
X11003753Y-16779317D01*
X11003753Y-16779317D02*
X10984706Y-16769793D01*
X10984706Y-16769793D02*
X10975182Y-16750746D01*
X10975182Y-16750746D02*
X10975182Y-16741222D01*
X10975182Y-16741222D02*
X10984706Y-16722174D01*
X10984706Y-16722174D02*
X11003753Y-16712650D01*
X11003753Y-16712650D02*
X11032325Y-16712650D01*
X11032325Y-16712650D02*
X11051373Y-16722174D01*
X11127563Y-16922174D02*
X11137087Y-16912650D01*
X11137087Y-16912650D02*
X11156134Y-16884079D01*
X11156134Y-16884079D02*
X11165658Y-16865031D01*
X11165658Y-16865031D02*
X11175182Y-16836460D01*
X11175182Y-16836460D02*
X11184706Y-16788841D01*
X11184706Y-16788841D02*
X11184706Y-16750746D01*
X11184706Y-16750746D02*
X11175182Y-16703127D01*
X11175182Y-16703127D02*
X11165658Y-16674555D01*
X11165658Y-16674555D02*
X11156134Y-16655508D01*
X11156134Y-16655508D02*
X11137087Y-16626936D01*
X11137087Y-16626936D02*
X11127563Y-16617412D01*
D12*
X6302500Y-17068500D02*
X6352500Y-17018500D01*
X6302500Y-16968500D01*
X6252500Y-17018500D01*
X6302500Y-17068500D01*
D11*
X6718039Y-17109984D02*
X6603753Y-17109984D01*
X6660896Y-17109984D02*
X6660896Y-16909984D01*
X6660896Y-16909984D02*
X6641848Y-16938555D01*
X6641848Y-16938555D02*
X6622801Y-16957603D01*
X6622801Y-16957603D02*
X6603753Y-16967127D01*
X6803753Y-17090936D02*
X6813277Y-17100460D01*
X6813277Y-17100460D02*
X6803753Y-17109984D01*
X6803753Y-17109984D02*
X6794229Y-17100460D01*
X6794229Y-17100460D02*
X6803753Y-17090936D01*
X6803753Y-17090936D02*
X6803753Y-17109984D01*
X6937086Y-16909984D02*
X6956134Y-16909984D01*
X6956134Y-16909984D02*
X6975182Y-16919508D01*
X6975182Y-16919508D02*
X6984705Y-16929031D01*
X6984705Y-16929031D02*
X6994229Y-16948079D01*
X6994229Y-16948079D02*
X7003753Y-16986174D01*
X7003753Y-16986174D02*
X7003753Y-17033793D01*
X7003753Y-17033793D02*
X6994229Y-17071889D01*
X6994229Y-17071889D02*
X6984705Y-17090936D01*
X6984705Y-17090936D02*
X6975182Y-17100460D01*
X6975182Y-17100460D02*
X6956134Y-17109984D01*
X6956134Y-17109984D02*
X6937086Y-17109984D01*
X6937086Y-17109984D02*
X6918039Y-17100460D01*
X6918039Y-17100460D02*
X6908515Y-17090936D01*
X6908515Y-17090936D02*
X6898991Y-17071889D01*
X6898991Y-17071889D02*
X6889467Y-17033793D01*
X6889467Y-17033793D02*
X6889467Y-16986174D01*
X6889467Y-16986174D02*
X6898991Y-16948079D01*
X6898991Y-16948079D02*
X6908515Y-16929031D01*
X6908515Y-16929031D02*
X6918039Y-16919508D01*
X6918039Y-16919508D02*
X6937086Y-16909984D01*
X7127562Y-16909984D02*
X7146610Y-16909984D01*
X7146610Y-16909984D02*
X7165658Y-16919508D01*
X7165658Y-16919508D02*
X7175182Y-16929031D01*
X7175182Y-16929031D02*
X7184705Y-16948079D01*
X7184705Y-16948079D02*
X7194229Y-16986174D01*
X7194229Y-16986174D02*
X7194229Y-17033793D01*
X7194229Y-17033793D02*
X7184705Y-17071889D01*
X7184705Y-17071889D02*
X7175182Y-17090936D01*
X7175182Y-17090936D02*
X7165658Y-17100460D01*
X7165658Y-17100460D02*
X7146610Y-17109984D01*
X7146610Y-17109984D02*
X7127562Y-17109984D01*
X7127562Y-17109984D02*
X7108515Y-17100460D01*
X7108515Y-17100460D02*
X7098991Y-17090936D01*
X7098991Y-17090936D02*
X7089467Y-17071889D01*
X7089467Y-17071889D02*
X7079943Y-17033793D01*
X7079943Y-17033793D02*
X7079943Y-16986174D01*
X7079943Y-16986174D02*
X7089467Y-16948079D01*
X7089467Y-16948079D02*
X7098991Y-16929031D01*
X7098991Y-16929031D02*
X7108515Y-16919508D01*
X7108515Y-16919508D02*
X7127562Y-16909984D01*
X7318039Y-16909984D02*
X7337086Y-16909984D01*
X7337086Y-16909984D02*
X7356134Y-16919508D01*
X7356134Y-16919508D02*
X7365658Y-16929031D01*
X7365658Y-16929031D02*
X7375182Y-16948079D01*
X7375182Y-16948079D02*
X7384705Y-16986174D01*
X7384705Y-16986174D02*
X7384705Y-17033793D01*
X7384705Y-17033793D02*
X7375182Y-17071889D01*
X7375182Y-17071889D02*
X7365658Y-17090936D01*
X7365658Y-17090936D02*
X7356134Y-17100460D01*
X7356134Y-17100460D02*
X7337086Y-17109984D01*
X7337086Y-17109984D02*
X7318039Y-17109984D01*
X7318039Y-17109984D02*
X7298991Y-17100460D01*
X7298991Y-17100460D02*
X7289467Y-17090936D01*
X7289467Y-17090936D02*
X7279943Y-17071889D01*
X7279943Y-17071889D02*
X7270420Y-17033793D01*
X7270420Y-17033793D02*
X7270420Y-16986174D01*
X7270420Y-16986174D02*
X7279943Y-16948079D01*
X7279943Y-16948079D02*
X7289467Y-16929031D01*
X7289467Y-16929031D02*
X7298991Y-16919508D01*
X7298991Y-16919508D02*
X7318039Y-16909984D01*
X7470420Y-17109984D02*
X7470420Y-16976650D01*
X7470420Y-16995698D02*
X7479943Y-16986174D01*
X7479943Y-16986174D02*
X7498991Y-16976650D01*
X7498991Y-16976650D02*
X7527563Y-16976650D01*
X7527563Y-16976650D02*
X7546610Y-16986174D01*
X7546610Y-16986174D02*
X7556134Y-17005222D01*
X7556134Y-17005222D02*
X7556134Y-17109984D01*
X7556134Y-17005222D02*
X7565658Y-16986174D01*
X7565658Y-16986174D02*
X7584705Y-16976650D01*
X7584705Y-16976650D02*
X7613277Y-16976650D01*
X7613277Y-16976650D02*
X7632324Y-16986174D01*
X7632324Y-16986174D02*
X7641848Y-17005222D01*
X7641848Y-17005222D02*
X7641848Y-17109984D01*
X7737086Y-17109984D02*
X7737086Y-16976650D01*
X7737086Y-16995698D02*
X7746610Y-16986174D01*
X7746610Y-16986174D02*
X7765658Y-16976650D01*
X7765658Y-16976650D02*
X7794229Y-16976650D01*
X7794229Y-16976650D02*
X7813277Y-16986174D01*
X7813277Y-16986174D02*
X7822801Y-17005222D01*
X7822801Y-17005222D02*
X7822801Y-17109984D01*
X7822801Y-17005222D02*
X7832324Y-16986174D01*
X7832324Y-16986174D02*
X7851372Y-16976650D01*
X7851372Y-16976650D02*
X7879943Y-16976650D01*
X7879943Y-16976650D02*
X7898991Y-16986174D01*
X7898991Y-16986174D02*
X7908515Y-17005222D01*
X7908515Y-17005222D02*
X7908515Y-17109984D01*
X8298991Y-16900460D02*
X8127563Y-17157603D01*
X8556134Y-16909984D02*
X8575182Y-16909984D01*
X8575182Y-16909984D02*
X8594229Y-16919508D01*
X8594229Y-16919508D02*
X8603753Y-16929031D01*
X8603753Y-16929031D02*
X8613277Y-16948079D01*
X8613277Y-16948079D02*
X8622801Y-16986174D01*
X8622801Y-16986174D02*
X8622801Y-17033793D01*
X8622801Y-17033793D02*
X8613277Y-17071889D01*
X8613277Y-17071889D02*
X8603753Y-17090936D01*
X8603753Y-17090936D02*
X8594229Y-17100460D01*
X8594229Y-17100460D02*
X8575182Y-17109984D01*
X8575182Y-17109984D02*
X8556134Y-17109984D01*
X8556134Y-17109984D02*
X8537087Y-17100460D01*
X8537087Y-17100460D02*
X8527563Y-17090936D01*
X8527563Y-17090936D02*
X8518039Y-17071889D01*
X8518039Y-17071889D02*
X8508515Y-17033793D01*
X8508515Y-17033793D02*
X8508515Y-16986174D01*
X8508515Y-16986174D02*
X8518039Y-16948079D01*
X8518039Y-16948079D02*
X8527563Y-16929031D01*
X8527563Y-16929031D02*
X8537087Y-16919508D01*
X8537087Y-16919508D02*
X8556134Y-16909984D01*
X8708515Y-17090936D02*
X8718039Y-17100460D01*
X8718039Y-17100460D02*
X8708515Y-17109984D01*
X8708515Y-17109984D02*
X8698991Y-17100460D01*
X8698991Y-17100460D02*
X8708515Y-17090936D01*
X8708515Y-17090936D02*
X8708515Y-17109984D01*
X8841848Y-16909984D02*
X8860896Y-16909984D01*
X8860896Y-16909984D02*
X8879944Y-16919508D01*
X8879944Y-16919508D02*
X8889468Y-16929031D01*
X8889468Y-16929031D02*
X8898991Y-16948079D01*
X8898991Y-16948079D02*
X8908515Y-16986174D01*
X8908515Y-16986174D02*
X8908515Y-17033793D01*
X8908515Y-17033793D02*
X8898991Y-17071889D01*
X8898991Y-17071889D02*
X8889468Y-17090936D01*
X8889468Y-17090936D02*
X8879944Y-17100460D01*
X8879944Y-17100460D02*
X8860896Y-17109984D01*
X8860896Y-17109984D02*
X8841848Y-17109984D01*
X8841848Y-17109984D02*
X8822801Y-17100460D01*
X8822801Y-17100460D02*
X8813277Y-17090936D01*
X8813277Y-17090936D02*
X8803753Y-17071889D01*
X8803753Y-17071889D02*
X8794229Y-17033793D01*
X8794229Y-17033793D02*
X8794229Y-16986174D01*
X8794229Y-16986174D02*
X8803753Y-16948079D01*
X8803753Y-16948079D02*
X8813277Y-16929031D01*
X8813277Y-16929031D02*
X8822801Y-16919508D01*
X8822801Y-16919508D02*
X8841848Y-16909984D01*
X8975182Y-16909984D02*
X9098991Y-16909984D01*
X9098991Y-16909984D02*
X9032325Y-16986174D01*
X9032325Y-16986174D02*
X9060896Y-16986174D01*
X9060896Y-16986174D02*
X9079944Y-16995698D01*
X9079944Y-16995698D02*
X9089468Y-17005222D01*
X9089468Y-17005222D02*
X9098991Y-17024270D01*
X9098991Y-17024270D02*
X9098991Y-17071889D01*
X9098991Y-17071889D02*
X9089468Y-17090936D01*
X9089468Y-17090936D02*
X9079944Y-17100460D01*
X9079944Y-17100460D02*
X9060896Y-17109984D01*
X9060896Y-17109984D02*
X9003753Y-17109984D01*
X9003753Y-17109984D02*
X8984706Y-17100460D01*
X8984706Y-17100460D02*
X8975182Y-17090936D01*
X9194229Y-17109984D02*
X9232325Y-17109984D01*
X9232325Y-17109984D02*
X9251372Y-17100460D01*
X9251372Y-17100460D02*
X9260896Y-17090936D01*
X9260896Y-17090936D02*
X9279944Y-17062365D01*
X9279944Y-17062365D02*
X9289468Y-17024270D01*
X9289468Y-17024270D02*
X9289468Y-16948079D01*
X9289468Y-16948079D02*
X9279944Y-16929031D01*
X9279944Y-16929031D02*
X9270420Y-16919508D01*
X9270420Y-16919508D02*
X9251372Y-16909984D01*
X9251372Y-16909984D02*
X9213277Y-16909984D01*
X9213277Y-16909984D02*
X9194229Y-16919508D01*
X9194229Y-16919508D02*
X9184706Y-16929031D01*
X9184706Y-16929031D02*
X9175182Y-16948079D01*
X9175182Y-16948079D02*
X9175182Y-16995698D01*
X9175182Y-16995698D02*
X9184706Y-17014746D01*
X9184706Y-17014746D02*
X9194229Y-17024270D01*
X9194229Y-17024270D02*
X9213277Y-17033793D01*
X9213277Y-17033793D02*
X9251372Y-17033793D01*
X9251372Y-17033793D02*
X9270420Y-17024270D01*
X9270420Y-17024270D02*
X9279944Y-17014746D01*
X9279944Y-17014746D02*
X9289468Y-16995698D01*
X9460896Y-16976650D02*
X9460896Y-17109984D01*
X9413277Y-16900460D02*
X9365658Y-17043317D01*
X9365658Y-17043317D02*
X9489468Y-17043317D01*
X9556134Y-16909984D02*
X9556134Y-16948079D01*
X9632325Y-16909984D02*
X9632325Y-16948079D01*
X9927563Y-17186174D02*
X9918039Y-17176650D01*
X9918039Y-17176650D02*
X9898991Y-17148079D01*
X9898991Y-17148079D02*
X9889468Y-17129031D01*
X9889468Y-17129031D02*
X9879944Y-17100460D01*
X9879944Y-17100460D02*
X9870420Y-17052841D01*
X9870420Y-17052841D02*
X9870420Y-17014746D01*
X9870420Y-17014746D02*
X9879944Y-16967127D01*
X9879944Y-16967127D02*
X9889468Y-16938555D01*
X9889468Y-16938555D02*
X9898991Y-16919508D01*
X9898991Y-16919508D02*
X9918039Y-16890936D01*
X9918039Y-16890936D02*
X9927563Y-16881412D01*
X10089468Y-16976650D02*
X10089468Y-17109984D01*
X10041849Y-16900460D02*
X9994230Y-17043317D01*
X9994230Y-17043317D02*
X10118039Y-17043317D01*
X10346611Y-17109984D02*
X10346611Y-16909984D01*
X10432325Y-17109984D02*
X10432325Y-17005222D01*
X10432325Y-17005222D02*
X10422801Y-16986174D01*
X10422801Y-16986174D02*
X10403753Y-16976650D01*
X10403753Y-16976650D02*
X10375182Y-16976650D01*
X10375182Y-16976650D02*
X10356134Y-16986174D01*
X10356134Y-16986174D02*
X10346611Y-16995698D01*
X10556134Y-17109984D02*
X10537087Y-17100460D01*
X10537087Y-17100460D02*
X10527563Y-17090936D01*
X10527563Y-17090936D02*
X10518039Y-17071889D01*
X10518039Y-17071889D02*
X10518039Y-17014746D01*
X10518039Y-17014746D02*
X10527563Y-16995698D01*
X10527563Y-16995698D02*
X10537087Y-16986174D01*
X10537087Y-16986174D02*
X10556134Y-16976650D01*
X10556134Y-16976650D02*
X10584706Y-16976650D01*
X10584706Y-16976650D02*
X10603753Y-16986174D01*
X10603753Y-16986174D02*
X10613277Y-16995698D01*
X10613277Y-16995698D02*
X10622801Y-17014746D01*
X10622801Y-17014746D02*
X10622801Y-17071889D01*
X10622801Y-17071889D02*
X10613277Y-17090936D01*
X10613277Y-17090936D02*
X10603753Y-17100460D01*
X10603753Y-17100460D02*
X10584706Y-17109984D01*
X10584706Y-17109984D02*
X10556134Y-17109984D01*
X10737087Y-17109984D02*
X10718039Y-17100460D01*
X10718039Y-17100460D02*
X10708515Y-17081412D01*
X10708515Y-17081412D02*
X10708515Y-16909984D01*
X10889468Y-17100460D02*
X10870420Y-17109984D01*
X10870420Y-17109984D02*
X10832325Y-17109984D01*
X10832325Y-17109984D02*
X10813277Y-17100460D01*
X10813277Y-17100460D02*
X10803753Y-17081412D01*
X10803753Y-17081412D02*
X10803753Y-17005222D01*
X10803753Y-17005222D02*
X10813277Y-16986174D01*
X10813277Y-16986174D02*
X10832325Y-16976650D01*
X10832325Y-16976650D02*
X10870420Y-16976650D01*
X10870420Y-16976650D02*
X10889468Y-16986174D01*
X10889468Y-16986174D02*
X10898992Y-17005222D01*
X10898992Y-17005222D02*
X10898992Y-17024270D01*
X10898992Y-17024270D02*
X10803753Y-17043317D01*
X10975182Y-17100460D02*
X10994230Y-17109984D01*
X10994230Y-17109984D02*
X11032325Y-17109984D01*
X11032325Y-17109984D02*
X11051373Y-17100460D01*
X11051373Y-17100460D02*
X11060896Y-17081412D01*
X11060896Y-17081412D02*
X11060896Y-17071889D01*
X11060896Y-17071889D02*
X11051373Y-17052841D01*
X11051373Y-17052841D02*
X11032325Y-17043317D01*
X11032325Y-17043317D02*
X11003753Y-17043317D01*
X11003753Y-17043317D02*
X10984706Y-17033793D01*
X10984706Y-17033793D02*
X10975182Y-17014746D01*
X10975182Y-17014746D02*
X10975182Y-17005222D01*
X10975182Y-17005222D02*
X10984706Y-16986174D01*
X10984706Y-16986174D02*
X11003753Y-16976650D01*
X11003753Y-16976650D02*
X11032325Y-16976650D01*
X11032325Y-16976650D02*
X11051373Y-16986174D01*
X11127563Y-17186174D02*
X11137087Y-17176650D01*
X11137087Y-17176650D02*
X11156134Y-17148079D01*
X11156134Y-17148079D02*
X11165658Y-17129031D01*
X11165658Y-17129031D02*
X11175182Y-17100460D01*
X11175182Y-17100460D02*
X11184706Y-17052841D01*
X11184706Y-17052841D02*
X11184706Y-17014746D01*
X11184706Y-17014746D02*
X11175182Y-16967127D01*
X11175182Y-16967127D02*
X11165658Y-16938555D01*
X11165658Y-16938555D02*
X11156134Y-16919508D01*
X11156134Y-16919508D02*
X11137087Y-16890936D01*
X11137087Y-16890936D02*
X11127563Y-16881412D01*
D13*
X6242500Y-17227500D02*
X6352500Y-17337500D01*
X6352500Y-17227500D02*
X6242500Y-17337500D01*
X6352500Y-17282500D02*
G75*
G02*
X6242500Y-17282500I-55000J0D01*
G01*
X6242500Y-17282500D02*
G75*
G02*
X6352500Y-17282500I55000J0D01*
G01*
D11*
X6718039Y-17373984D02*
X6603753Y-17373984D01*
X6660896Y-17373984D02*
X6660896Y-17173984D01*
X6660896Y-17173984D02*
X6641848Y-17202555D01*
X6641848Y-17202555D02*
X6622801Y-17221603D01*
X6622801Y-17221603D02*
X6603753Y-17231127D01*
X6803753Y-17354936D02*
X6813277Y-17364460D01*
X6813277Y-17364460D02*
X6803753Y-17373984D01*
X6803753Y-17373984D02*
X6794229Y-17364460D01*
X6794229Y-17364460D02*
X6803753Y-17354936D01*
X6803753Y-17354936D02*
X6803753Y-17373984D01*
X7003753Y-17373984D02*
X6889467Y-17373984D01*
X6946610Y-17373984D02*
X6946610Y-17173984D01*
X6946610Y-17173984D02*
X6927562Y-17202555D01*
X6927562Y-17202555D02*
X6908515Y-17221603D01*
X6908515Y-17221603D02*
X6889467Y-17231127D01*
X7127562Y-17173984D02*
X7146610Y-17173984D01*
X7146610Y-17173984D02*
X7165658Y-17183508D01*
X7165658Y-17183508D02*
X7175182Y-17193031D01*
X7175182Y-17193031D02*
X7184705Y-17212079D01*
X7184705Y-17212079D02*
X7194229Y-17250174D01*
X7194229Y-17250174D02*
X7194229Y-17297793D01*
X7194229Y-17297793D02*
X7184705Y-17335889D01*
X7184705Y-17335889D02*
X7175182Y-17354936D01*
X7175182Y-17354936D02*
X7165658Y-17364460D01*
X7165658Y-17364460D02*
X7146610Y-17373984D01*
X7146610Y-17373984D02*
X7127562Y-17373984D01*
X7127562Y-17373984D02*
X7108515Y-17364460D01*
X7108515Y-17364460D02*
X7098991Y-17354936D01*
X7098991Y-17354936D02*
X7089467Y-17335889D01*
X7089467Y-17335889D02*
X7079943Y-17297793D01*
X7079943Y-17297793D02*
X7079943Y-17250174D01*
X7079943Y-17250174D02*
X7089467Y-17212079D01*
X7089467Y-17212079D02*
X7098991Y-17193031D01*
X7098991Y-17193031D02*
X7108515Y-17183508D01*
X7108515Y-17183508D02*
X7127562Y-17173984D01*
X7318039Y-17173984D02*
X7337086Y-17173984D01*
X7337086Y-17173984D02*
X7356134Y-17183508D01*
X7356134Y-17183508D02*
X7365658Y-17193031D01*
X7365658Y-17193031D02*
X7375182Y-17212079D01*
X7375182Y-17212079D02*
X7384705Y-17250174D01*
X7384705Y-17250174D02*
X7384705Y-17297793D01*
X7384705Y-17297793D02*
X7375182Y-17335889D01*
X7375182Y-17335889D02*
X7365658Y-17354936D01*
X7365658Y-17354936D02*
X7356134Y-17364460D01*
X7356134Y-17364460D02*
X7337086Y-17373984D01*
X7337086Y-17373984D02*
X7318039Y-17373984D01*
X7318039Y-17373984D02*
X7298991Y-17364460D01*
X7298991Y-17364460D02*
X7289467Y-17354936D01*
X7289467Y-17354936D02*
X7279943Y-17335889D01*
X7279943Y-17335889D02*
X7270420Y-17297793D01*
X7270420Y-17297793D02*
X7270420Y-17250174D01*
X7270420Y-17250174D02*
X7279943Y-17212079D01*
X7279943Y-17212079D02*
X7289467Y-17193031D01*
X7289467Y-17193031D02*
X7298991Y-17183508D01*
X7298991Y-17183508D02*
X7318039Y-17173984D01*
X7470420Y-17373984D02*
X7470420Y-17240650D01*
X7470420Y-17259698D02*
X7479943Y-17250174D01*
X7479943Y-17250174D02*
X7498991Y-17240650D01*
X7498991Y-17240650D02*
X7527563Y-17240650D01*
X7527563Y-17240650D02*
X7546610Y-17250174D01*
X7546610Y-17250174D02*
X7556134Y-17269222D01*
X7556134Y-17269222D02*
X7556134Y-17373984D01*
X7556134Y-17269222D02*
X7565658Y-17250174D01*
X7565658Y-17250174D02*
X7584705Y-17240650D01*
X7584705Y-17240650D02*
X7613277Y-17240650D01*
X7613277Y-17240650D02*
X7632324Y-17250174D01*
X7632324Y-17250174D02*
X7641848Y-17269222D01*
X7641848Y-17269222D02*
X7641848Y-17373984D01*
X7737086Y-17373984D02*
X7737086Y-17240650D01*
X7737086Y-17259698D02*
X7746610Y-17250174D01*
X7746610Y-17250174D02*
X7765658Y-17240650D01*
X7765658Y-17240650D02*
X7794229Y-17240650D01*
X7794229Y-17240650D02*
X7813277Y-17250174D01*
X7813277Y-17250174D02*
X7822801Y-17269222D01*
X7822801Y-17269222D02*
X7822801Y-17373984D01*
X7822801Y-17269222D02*
X7832324Y-17250174D01*
X7832324Y-17250174D02*
X7851372Y-17240650D01*
X7851372Y-17240650D02*
X7879943Y-17240650D01*
X7879943Y-17240650D02*
X7898991Y-17250174D01*
X7898991Y-17250174D02*
X7908515Y-17269222D01*
X7908515Y-17269222D02*
X7908515Y-17373984D01*
X8298991Y-17164460D02*
X8127563Y-17421603D01*
X8556134Y-17173984D02*
X8575182Y-17173984D01*
X8575182Y-17173984D02*
X8594229Y-17183508D01*
X8594229Y-17183508D02*
X8603753Y-17193031D01*
X8603753Y-17193031D02*
X8613277Y-17212079D01*
X8613277Y-17212079D02*
X8622801Y-17250174D01*
X8622801Y-17250174D02*
X8622801Y-17297793D01*
X8622801Y-17297793D02*
X8613277Y-17335889D01*
X8613277Y-17335889D02*
X8603753Y-17354936D01*
X8603753Y-17354936D02*
X8594229Y-17364460D01*
X8594229Y-17364460D02*
X8575182Y-17373984D01*
X8575182Y-17373984D02*
X8556134Y-17373984D01*
X8556134Y-17373984D02*
X8537087Y-17364460D01*
X8537087Y-17364460D02*
X8527563Y-17354936D01*
X8527563Y-17354936D02*
X8518039Y-17335889D01*
X8518039Y-17335889D02*
X8508515Y-17297793D01*
X8508515Y-17297793D02*
X8508515Y-17250174D01*
X8508515Y-17250174D02*
X8518039Y-17212079D01*
X8518039Y-17212079D02*
X8527563Y-17193031D01*
X8527563Y-17193031D02*
X8537087Y-17183508D01*
X8537087Y-17183508D02*
X8556134Y-17173984D01*
X8708515Y-17354936D02*
X8718039Y-17364460D01*
X8718039Y-17364460D02*
X8708515Y-17373984D01*
X8708515Y-17373984D02*
X8698991Y-17364460D01*
X8698991Y-17364460D02*
X8708515Y-17354936D01*
X8708515Y-17354936D02*
X8708515Y-17373984D01*
X8841848Y-17173984D02*
X8860896Y-17173984D01*
X8860896Y-17173984D02*
X8879944Y-17183508D01*
X8879944Y-17183508D02*
X8889468Y-17193031D01*
X8889468Y-17193031D02*
X8898991Y-17212079D01*
X8898991Y-17212079D02*
X8908515Y-17250174D01*
X8908515Y-17250174D02*
X8908515Y-17297793D01*
X8908515Y-17297793D02*
X8898991Y-17335889D01*
X8898991Y-17335889D02*
X8889468Y-17354936D01*
X8889468Y-17354936D02*
X8879944Y-17364460D01*
X8879944Y-17364460D02*
X8860896Y-17373984D01*
X8860896Y-17373984D02*
X8841848Y-17373984D01*
X8841848Y-17373984D02*
X8822801Y-17364460D01*
X8822801Y-17364460D02*
X8813277Y-17354936D01*
X8813277Y-17354936D02*
X8803753Y-17335889D01*
X8803753Y-17335889D02*
X8794229Y-17297793D01*
X8794229Y-17297793D02*
X8794229Y-17250174D01*
X8794229Y-17250174D02*
X8803753Y-17212079D01*
X8803753Y-17212079D02*
X8813277Y-17193031D01*
X8813277Y-17193031D02*
X8822801Y-17183508D01*
X8822801Y-17183508D02*
X8841848Y-17173984D01*
X9079944Y-17240650D02*
X9079944Y-17373984D01*
X9032325Y-17164460D02*
X8984706Y-17307317D01*
X8984706Y-17307317D02*
X9108515Y-17307317D01*
X9165658Y-17173984D02*
X9289468Y-17173984D01*
X9289468Y-17173984D02*
X9222801Y-17250174D01*
X9222801Y-17250174D02*
X9251372Y-17250174D01*
X9251372Y-17250174D02*
X9270420Y-17259698D01*
X9270420Y-17259698D02*
X9279944Y-17269222D01*
X9279944Y-17269222D02*
X9289468Y-17288270D01*
X9289468Y-17288270D02*
X9289468Y-17335889D01*
X9289468Y-17335889D02*
X9279944Y-17354936D01*
X9279944Y-17354936D02*
X9270420Y-17364460D01*
X9270420Y-17364460D02*
X9251372Y-17373984D01*
X9251372Y-17373984D02*
X9194229Y-17373984D01*
X9194229Y-17373984D02*
X9175182Y-17364460D01*
X9175182Y-17364460D02*
X9165658Y-17354936D01*
X9356134Y-17173984D02*
X9479944Y-17173984D01*
X9479944Y-17173984D02*
X9413277Y-17250174D01*
X9413277Y-17250174D02*
X9441849Y-17250174D01*
X9441849Y-17250174D02*
X9460896Y-17259698D01*
X9460896Y-17259698D02*
X9470420Y-17269222D01*
X9470420Y-17269222D02*
X9479944Y-17288270D01*
X9479944Y-17288270D02*
X9479944Y-17335889D01*
X9479944Y-17335889D02*
X9470420Y-17354936D01*
X9470420Y-17354936D02*
X9460896Y-17364460D01*
X9460896Y-17364460D02*
X9441849Y-17373984D01*
X9441849Y-17373984D02*
X9384706Y-17373984D01*
X9384706Y-17373984D02*
X9365658Y-17364460D01*
X9365658Y-17364460D02*
X9356134Y-17354936D01*
X9556134Y-17173984D02*
X9556134Y-17212079D01*
X9632325Y-17173984D02*
X9632325Y-17212079D01*
X9927563Y-17450174D02*
X9918039Y-17440650D01*
X9918039Y-17440650D02*
X9898991Y-17412079D01*
X9898991Y-17412079D02*
X9889468Y-17393031D01*
X9889468Y-17393031D02*
X9879944Y-17364460D01*
X9879944Y-17364460D02*
X9870420Y-17316841D01*
X9870420Y-17316841D02*
X9870420Y-17278746D01*
X9870420Y-17278746D02*
X9879944Y-17231127D01*
X9879944Y-17231127D02*
X9889468Y-17202555D01*
X9889468Y-17202555D02*
X9898991Y-17183508D01*
X9898991Y-17183508D02*
X9918039Y-17154936D01*
X9918039Y-17154936D02*
X9927563Y-17145412D01*
X9984706Y-17173984D02*
X10118039Y-17173984D01*
X10118039Y-17173984D02*
X10032325Y-17373984D01*
X10346611Y-17373984D02*
X10346611Y-17173984D01*
X10432325Y-17373984D02*
X10432325Y-17269222D01*
X10432325Y-17269222D02*
X10422801Y-17250174D01*
X10422801Y-17250174D02*
X10403753Y-17240650D01*
X10403753Y-17240650D02*
X10375182Y-17240650D01*
X10375182Y-17240650D02*
X10356134Y-17250174D01*
X10356134Y-17250174D02*
X10346611Y-17259698D01*
X10556134Y-17373984D02*
X10537087Y-17364460D01*
X10537087Y-17364460D02*
X10527563Y-17354936D01*
X10527563Y-17354936D02*
X10518039Y-17335889D01*
X10518039Y-17335889D02*
X10518039Y-17278746D01*
X10518039Y-17278746D02*
X10527563Y-17259698D01*
X10527563Y-17259698D02*
X10537087Y-17250174D01*
X10537087Y-17250174D02*
X10556134Y-17240650D01*
X10556134Y-17240650D02*
X10584706Y-17240650D01*
X10584706Y-17240650D02*
X10603753Y-17250174D01*
X10603753Y-17250174D02*
X10613277Y-17259698D01*
X10613277Y-17259698D02*
X10622801Y-17278746D01*
X10622801Y-17278746D02*
X10622801Y-17335889D01*
X10622801Y-17335889D02*
X10613277Y-17354936D01*
X10613277Y-17354936D02*
X10603753Y-17364460D01*
X10603753Y-17364460D02*
X10584706Y-17373984D01*
X10584706Y-17373984D02*
X10556134Y-17373984D01*
X10737087Y-17373984D02*
X10718039Y-17364460D01*
X10718039Y-17364460D02*
X10708515Y-17345412D01*
X10708515Y-17345412D02*
X10708515Y-17173984D01*
X10889468Y-17364460D02*
X10870420Y-17373984D01*
X10870420Y-17373984D02*
X10832325Y-17373984D01*
X10832325Y-17373984D02*
X10813277Y-17364460D01*
X10813277Y-17364460D02*
X10803753Y-17345412D01*
X10803753Y-17345412D02*
X10803753Y-17269222D01*
X10803753Y-17269222D02*
X10813277Y-17250174D01*
X10813277Y-17250174D02*
X10832325Y-17240650D01*
X10832325Y-17240650D02*
X10870420Y-17240650D01*
X10870420Y-17240650D02*
X10889468Y-17250174D01*
X10889468Y-17250174D02*
X10898992Y-17269222D01*
X10898992Y-17269222D02*
X10898992Y-17288270D01*
X10898992Y-17288270D02*
X10803753Y-17307317D01*
X10975182Y-17364460D02*
X10994230Y-17373984D01*
X10994230Y-17373984D02*
X11032325Y-17373984D01*
X11032325Y-17373984D02*
X11051373Y-17364460D01*
X11051373Y-17364460D02*
X11060896Y-17345412D01*
X11060896Y-17345412D02*
X11060896Y-17335889D01*
X11060896Y-17335889D02*
X11051373Y-17316841D01*
X11051373Y-17316841D02*
X11032325Y-17307317D01*
X11032325Y-17307317D02*
X11003753Y-17307317D01*
X11003753Y-17307317D02*
X10984706Y-17297793D01*
X10984706Y-17297793D02*
X10975182Y-17278746D01*
X10975182Y-17278746D02*
X10975182Y-17269222D01*
X10975182Y-17269222D02*
X10984706Y-17250174D01*
X10984706Y-17250174D02*
X11003753Y-17240650D01*
X11003753Y-17240650D02*
X11032325Y-17240650D01*
X11032325Y-17240650D02*
X11051373Y-17250174D01*
X11127563Y-17450174D02*
X11137087Y-17440650D01*
X11137087Y-17440650D02*
X11156134Y-17412079D01*
X11156134Y-17412079D02*
X11165658Y-17393031D01*
X11165658Y-17393031D02*
X11175182Y-17364460D01*
X11175182Y-17364460D02*
X11184706Y-17316841D01*
X11184706Y-17316841D02*
X11184706Y-17278746D01*
X11184706Y-17278746D02*
X11175182Y-17231127D01*
X11175182Y-17231127D02*
X11165658Y-17202555D01*
X11165658Y-17202555D02*
X11156134Y-17183508D01*
X11156134Y-17183508D02*
X11137087Y-17154936D01*
X11137087Y-17154936D02*
X11127563Y-17145412D01*
D14*
X6233500Y-17487000D02*
X6352500Y-17606000D01*
X6352500Y-17487000D02*
X6233500Y-17606000D01*
X6293000Y-17487000D02*
X6293000Y-17606000D01*
X6233500Y-17546500D02*
X6352500Y-17546500D01*
D11*
X6718039Y-17637984D02*
X6603753Y-17637984D01*
X6660896Y-17637984D02*
X6660896Y-17437984D01*
X6660896Y-17437984D02*
X6641848Y-17466555D01*
X6641848Y-17466555D02*
X6622801Y-17485603D01*
X6622801Y-17485603D02*
X6603753Y-17495127D01*
X6803753Y-17618936D02*
X6813277Y-17628460D01*
X6813277Y-17628460D02*
X6803753Y-17637984D01*
X6803753Y-17637984D02*
X6794229Y-17628460D01*
X6794229Y-17628460D02*
X6803753Y-17618936D01*
X6803753Y-17618936D02*
X6803753Y-17637984D01*
X7003753Y-17637984D02*
X6889467Y-17637984D01*
X6946610Y-17637984D02*
X6946610Y-17437984D01*
X6946610Y-17437984D02*
X6927562Y-17466555D01*
X6927562Y-17466555D02*
X6908515Y-17485603D01*
X6908515Y-17485603D02*
X6889467Y-17495127D01*
X7098991Y-17637984D02*
X7137086Y-17637984D01*
X7137086Y-17637984D02*
X7156134Y-17628460D01*
X7156134Y-17628460D02*
X7165658Y-17618936D01*
X7165658Y-17618936D02*
X7184705Y-17590365D01*
X7184705Y-17590365D02*
X7194229Y-17552270D01*
X7194229Y-17552270D02*
X7194229Y-17476079D01*
X7194229Y-17476079D02*
X7184705Y-17457031D01*
X7184705Y-17457031D02*
X7175182Y-17447508D01*
X7175182Y-17447508D02*
X7156134Y-17437984D01*
X7156134Y-17437984D02*
X7118039Y-17437984D01*
X7118039Y-17437984D02*
X7098991Y-17447508D01*
X7098991Y-17447508D02*
X7089467Y-17457031D01*
X7089467Y-17457031D02*
X7079943Y-17476079D01*
X7079943Y-17476079D02*
X7079943Y-17523698D01*
X7079943Y-17523698D02*
X7089467Y-17542746D01*
X7089467Y-17542746D02*
X7098991Y-17552270D01*
X7098991Y-17552270D02*
X7118039Y-17561793D01*
X7118039Y-17561793D02*
X7156134Y-17561793D01*
X7156134Y-17561793D02*
X7175182Y-17552270D01*
X7175182Y-17552270D02*
X7184705Y-17542746D01*
X7184705Y-17542746D02*
X7194229Y-17523698D01*
X7318039Y-17437984D02*
X7337086Y-17437984D01*
X7337086Y-17437984D02*
X7356134Y-17447508D01*
X7356134Y-17447508D02*
X7365658Y-17457031D01*
X7365658Y-17457031D02*
X7375182Y-17476079D01*
X7375182Y-17476079D02*
X7384705Y-17514174D01*
X7384705Y-17514174D02*
X7384705Y-17561793D01*
X7384705Y-17561793D02*
X7375182Y-17599889D01*
X7375182Y-17599889D02*
X7365658Y-17618936D01*
X7365658Y-17618936D02*
X7356134Y-17628460D01*
X7356134Y-17628460D02*
X7337086Y-17637984D01*
X7337086Y-17637984D02*
X7318039Y-17637984D01*
X7318039Y-17637984D02*
X7298991Y-17628460D01*
X7298991Y-17628460D02*
X7289467Y-17618936D01*
X7289467Y-17618936D02*
X7279943Y-17599889D01*
X7279943Y-17599889D02*
X7270420Y-17561793D01*
X7270420Y-17561793D02*
X7270420Y-17514174D01*
X7270420Y-17514174D02*
X7279943Y-17476079D01*
X7279943Y-17476079D02*
X7289467Y-17457031D01*
X7289467Y-17457031D02*
X7298991Y-17447508D01*
X7298991Y-17447508D02*
X7318039Y-17437984D01*
X7470420Y-17637984D02*
X7470420Y-17504650D01*
X7470420Y-17523698D02*
X7479943Y-17514174D01*
X7479943Y-17514174D02*
X7498991Y-17504650D01*
X7498991Y-17504650D02*
X7527563Y-17504650D01*
X7527563Y-17504650D02*
X7546610Y-17514174D01*
X7546610Y-17514174D02*
X7556134Y-17533222D01*
X7556134Y-17533222D02*
X7556134Y-17637984D01*
X7556134Y-17533222D02*
X7565658Y-17514174D01*
X7565658Y-17514174D02*
X7584705Y-17504650D01*
X7584705Y-17504650D02*
X7613277Y-17504650D01*
X7613277Y-17504650D02*
X7632324Y-17514174D01*
X7632324Y-17514174D02*
X7641848Y-17533222D01*
X7641848Y-17533222D02*
X7641848Y-17637984D01*
X7737086Y-17637984D02*
X7737086Y-17504650D01*
X7737086Y-17523698D02*
X7746610Y-17514174D01*
X7746610Y-17514174D02*
X7765658Y-17504650D01*
X7765658Y-17504650D02*
X7794229Y-17504650D01*
X7794229Y-17504650D02*
X7813277Y-17514174D01*
X7813277Y-17514174D02*
X7822801Y-17533222D01*
X7822801Y-17533222D02*
X7822801Y-17637984D01*
X7822801Y-17533222D02*
X7832324Y-17514174D01*
X7832324Y-17514174D02*
X7851372Y-17504650D01*
X7851372Y-17504650D02*
X7879943Y-17504650D01*
X7879943Y-17504650D02*
X7898991Y-17514174D01*
X7898991Y-17514174D02*
X7908515Y-17533222D01*
X7908515Y-17533222D02*
X7908515Y-17637984D01*
X8298991Y-17428460D02*
X8127563Y-17685603D01*
X8556134Y-17437984D02*
X8575182Y-17437984D01*
X8575182Y-17437984D02*
X8594229Y-17447508D01*
X8594229Y-17447508D02*
X8603753Y-17457031D01*
X8603753Y-17457031D02*
X8613277Y-17476079D01*
X8613277Y-17476079D02*
X8622801Y-17514174D01*
X8622801Y-17514174D02*
X8622801Y-17561793D01*
X8622801Y-17561793D02*
X8613277Y-17599889D01*
X8613277Y-17599889D02*
X8603753Y-17618936D01*
X8603753Y-17618936D02*
X8594229Y-17628460D01*
X8594229Y-17628460D02*
X8575182Y-17637984D01*
X8575182Y-17637984D02*
X8556134Y-17637984D01*
X8556134Y-17637984D02*
X8537087Y-17628460D01*
X8537087Y-17628460D02*
X8527563Y-17618936D01*
X8527563Y-17618936D02*
X8518039Y-17599889D01*
X8518039Y-17599889D02*
X8508515Y-17561793D01*
X8508515Y-17561793D02*
X8508515Y-17514174D01*
X8508515Y-17514174D02*
X8518039Y-17476079D01*
X8518039Y-17476079D02*
X8527563Y-17457031D01*
X8527563Y-17457031D02*
X8537087Y-17447508D01*
X8537087Y-17447508D02*
X8556134Y-17437984D01*
X8708515Y-17618936D02*
X8718039Y-17628460D01*
X8718039Y-17628460D02*
X8708515Y-17637984D01*
X8708515Y-17637984D02*
X8698991Y-17628460D01*
X8698991Y-17628460D02*
X8708515Y-17618936D01*
X8708515Y-17618936D02*
X8708515Y-17637984D01*
X8841848Y-17437984D02*
X8860896Y-17437984D01*
X8860896Y-17437984D02*
X8879944Y-17447508D01*
X8879944Y-17447508D02*
X8889468Y-17457031D01*
X8889468Y-17457031D02*
X8898991Y-17476079D01*
X8898991Y-17476079D02*
X8908515Y-17514174D01*
X8908515Y-17514174D02*
X8908515Y-17561793D01*
X8908515Y-17561793D02*
X8898991Y-17599889D01*
X8898991Y-17599889D02*
X8889468Y-17618936D01*
X8889468Y-17618936D02*
X8879944Y-17628460D01*
X8879944Y-17628460D02*
X8860896Y-17637984D01*
X8860896Y-17637984D02*
X8841848Y-17637984D01*
X8841848Y-17637984D02*
X8822801Y-17628460D01*
X8822801Y-17628460D02*
X8813277Y-17618936D01*
X8813277Y-17618936D02*
X8803753Y-17599889D01*
X8803753Y-17599889D02*
X8794229Y-17561793D01*
X8794229Y-17561793D02*
X8794229Y-17514174D01*
X8794229Y-17514174D02*
X8803753Y-17476079D01*
X8803753Y-17476079D02*
X8813277Y-17457031D01*
X8813277Y-17457031D02*
X8822801Y-17447508D01*
X8822801Y-17447508D02*
X8841848Y-17437984D01*
X9079944Y-17504650D02*
X9079944Y-17637984D01*
X9032325Y-17428460D02*
X8984706Y-17571317D01*
X8984706Y-17571317D02*
X9108515Y-17571317D01*
X9270420Y-17437984D02*
X9232325Y-17437984D01*
X9232325Y-17437984D02*
X9213277Y-17447508D01*
X9213277Y-17447508D02*
X9203753Y-17457031D01*
X9203753Y-17457031D02*
X9184706Y-17485603D01*
X9184706Y-17485603D02*
X9175182Y-17523698D01*
X9175182Y-17523698D02*
X9175182Y-17599889D01*
X9175182Y-17599889D02*
X9184706Y-17618936D01*
X9184706Y-17618936D02*
X9194229Y-17628460D01*
X9194229Y-17628460D02*
X9213277Y-17637984D01*
X9213277Y-17637984D02*
X9251372Y-17637984D01*
X9251372Y-17637984D02*
X9270420Y-17628460D01*
X9270420Y-17628460D02*
X9279944Y-17618936D01*
X9279944Y-17618936D02*
X9289468Y-17599889D01*
X9289468Y-17599889D02*
X9289468Y-17552270D01*
X9289468Y-17552270D02*
X9279944Y-17533222D01*
X9279944Y-17533222D02*
X9270420Y-17523698D01*
X9270420Y-17523698D02*
X9251372Y-17514174D01*
X9251372Y-17514174D02*
X9213277Y-17514174D01*
X9213277Y-17514174D02*
X9194229Y-17523698D01*
X9194229Y-17523698D02*
X9184706Y-17533222D01*
X9184706Y-17533222D02*
X9175182Y-17552270D01*
X9384706Y-17637984D02*
X9422801Y-17637984D01*
X9422801Y-17637984D02*
X9441849Y-17628460D01*
X9441849Y-17628460D02*
X9451372Y-17618936D01*
X9451372Y-17618936D02*
X9470420Y-17590365D01*
X9470420Y-17590365D02*
X9479944Y-17552270D01*
X9479944Y-17552270D02*
X9479944Y-17476079D01*
X9479944Y-17476079D02*
X9470420Y-17457031D01*
X9470420Y-17457031D02*
X9460896Y-17447508D01*
X9460896Y-17447508D02*
X9441849Y-17437984D01*
X9441849Y-17437984D02*
X9403753Y-17437984D01*
X9403753Y-17437984D02*
X9384706Y-17447508D01*
X9384706Y-17447508D02*
X9375182Y-17457031D01*
X9375182Y-17457031D02*
X9365658Y-17476079D01*
X9365658Y-17476079D02*
X9365658Y-17523698D01*
X9365658Y-17523698D02*
X9375182Y-17542746D01*
X9375182Y-17542746D02*
X9384706Y-17552270D01*
X9384706Y-17552270D02*
X9403753Y-17561793D01*
X9403753Y-17561793D02*
X9441849Y-17561793D01*
X9441849Y-17561793D02*
X9460896Y-17552270D01*
X9460896Y-17552270D02*
X9470420Y-17542746D01*
X9470420Y-17542746D02*
X9479944Y-17523698D01*
X9556134Y-17437984D02*
X9556134Y-17476079D01*
X9632325Y-17437984D02*
X9632325Y-17476079D01*
X9927563Y-17714174D02*
X9918039Y-17704650D01*
X9918039Y-17704650D02*
X9898991Y-17676079D01*
X9898991Y-17676079D02*
X9889468Y-17657031D01*
X9889468Y-17657031D02*
X9879944Y-17628460D01*
X9879944Y-17628460D02*
X9870420Y-17580841D01*
X9870420Y-17580841D02*
X9870420Y-17542746D01*
X9870420Y-17542746D02*
X9879944Y-17495127D01*
X9879944Y-17495127D02*
X9889468Y-17466555D01*
X9889468Y-17466555D02*
X9898991Y-17447508D01*
X9898991Y-17447508D02*
X9918039Y-17418936D01*
X9918039Y-17418936D02*
X9927563Y-17409412D01*
X10089468Y-17504650D02*
X10089468Y-17637984D01*
X10041849Y-17428460D02*
X9994230Y-17571317D01*
X9994230Y-17571317D02*
X10118039Y-17571317D01*
X10346611Y-17637984D02*
X10346611Y-17437984D01*
X10432325Y-17637984D02*
X10432325Y-17533222D01*
X10432325Y-17533222D02*
X10422801Y-17514174D01*
X10422801Y-17514174D02*
X10403753Y-17504650D01*
X10403753Y-17504650D02*
X10375182Y-17504650D01*
X10375182Y-17504650D02*
X10356134Y-17514174D01*
X10356134Y-17514174D02*
X10346611Y-17523698D01*
X10556134Y-17637984D02*
X10537087Y-17628460D01*
X10537087Y-17628460D02*
X10527563Y-17618936D01*
X10527563Y-17618936D02*
X10518039Y-17599889D01*
X10518039Y-17599889D02*
X10518039Y-17542746D01*
X10518039Y-17542746D02*
X10527563Y-17523698D01*
X10527563Y-17523698D02*
X10537087Y-17514174D01*
X10537087Y-17514174D02*
X10556134Y-17504650D01*
X10556134Y-17504650D02*
X10584706Y-17504650D01*
X10584706Y-17504650D02*
X10603753Y-17514174D01*
X10603753Y-17514174D02*
X10613277Y-17523698D01*
X10613277Y-17523698D02*
X10622801Y-17542746D01*
X10622801Y-17542746D02*
X10622801Y-17599889D01*
X10622801Y-17599889D02*
X10613277Y-17618936D01*
X10613277Y-17618936D02*
X10603753Y-17628460D01*
X10603753Y-17628460D02*
X10584706Y-17637984D01*
X10584706Y-17637984D02*
X10556134Y-17637984D01*
X10737087Y-17637984D02*
X10718039Y-17628460D01*
X10718039Y-17628460D02*
X10708515Y-17609412D01*
X10708515Y-17609412D02*
X10708515Y-17437984D01*
X10889468Y-17628460D02*
X10870420Y-17637984D01*
X10870420Y-17637984D02*
X10832325Y-17637984D01*
X10832325Y-17637984D02*
X10813277Y-17628460D01*
X10813277Y-17628460D02*
X10803753Y-17609412D01*
X10803753Y-17609412D02*
X10803753Y-17533222D01*
X10803753Y-17533222D02*
X10813277Y-17514174D01*
X10813277Y-17514174D02*
X10832325Y-17504650D01*
X10832325Y-17504650D02*
X10870420Y-17504650D01*
X10870420Y-17504650D02*
X10889468Y-17514174D01*
X10889468Y-17514174D02*
X10898992Y-17533222D01*
X10898992Y-17533222D02*
X10898992Y-17552270D01*
X10898992Y-17552270D02*
X10803753Y-17571317D01*
X10975182Y-17628460D02*
X10994230Y-17637984D01*
X10994230Y-17637984D02*
X11032325Y-17637984D01*
X11032325Y-17637984D02*
X11051373Y-17628460D01*
X11051373Y-17628460D02*
X11060896Y-17609412D01*
X11060896Y-17609412D02*
X11060896Y-17599889D01*
X11060896Y-17599889D02*
X11051373Y-17580841D01*
X11051373Y-17580841D02*
X11032325Y-17571317D01*
X11032325Y-17571317D02*
X11003753Y-17571317D01*
X11003753Y-17571317D02*
X10984706Y-17561793D01*
X10984706Y-17561793D02*
X10975182Y-17542746D01*
X10975182Y-17542746D02*
X10975182Y-17533222D01*
X10975182Y-17533222D02*
X10984706Y-17514174D01*
X10984706Y-17514174D02*
X11003753Y-17504650D01*
X11003753Y-17504650D02*
X11032325Y-17504650D01*
X11032325Y-17504650D02*
X11051373Y-17514174D01*
X11127563Y-17714174D02*
X11137087Y-17704650D01*
X11137087Y-17704650D02*
X11156134Y-17676079D01*
X11156134Y-17676079D02*
X11165658Y-17657031D01*
X11165658Y-17657031D02*
X11175182Y-17628460D01*
X11175182Y-17628460D02*
X11184706Y-17580841D01*
X11184706Y-17580841D02*
X11184706Y-17542746D01*
X11184706Y-17542746D02*
X11175182Y-17495127D01*
X11175182Y-17495127D02*
X11165658Y-17466555D01*
X11165658Y-17466555D02*
X11156134Y-17447508D01*
X11156134Y-17447508D02*
X11137087Y-17418936D01*
X11137087Y-17418936D02*
X11127563Y-17409412D01*
D15*
X6222500Y-17745500D02*
X6352500Y-17875500D01*
X6352500Y-17745500D02*
X6222500Y-17875500D01*
X6333462Y-17856462D02*
X6333462Y-17764538D01*
X6241538Y-17764538D01*
X6241538Y-17856462D01*
X6333462Y-17856462D01*
D11*
X6718039Y-17901984D02*
X6603753Y-17901984D01*
X6660896Y-17901984D02*
X6660896Y-17701984D01*
X6660896Y-17701984D02*
X6641848Y-17730555D01*
X6641848Y-17730555D02*
X6622801Y-17749603D01*
X6622801Y-17749603D02*
X6603753Y-17759127D01*
X6803753Y-17882936D02*
X6813277Y-17892460D01*
X6813277Y-17892460D02*
X6803753Y-17901984D01*
X6803753Y-17901984D02*
X6794229Y-17892460D01*
X6794229Y-17892460D02*
X6803753Y-17882936D01*
X6803753Y-17882936D02*
X6803753Y-17901984D01*
X6879943Y-17701984D02*
X7003753Y-17701984D01*
X7003753Y-17701984D02*
X6937086Y-17778174D01*
X6937086Y-17778174D02*
X6965658Y-17778174D01*
X6965658Y-17778174D02*
X6984705Y-17787698D01*
X6984705Y-17787698D02*
X6994229Y-17797222D01*
X6994229Y-17797222D02*
X7003753Y-17816270D01*
X7003753Y-17816270D02*
X7003753Y-17863889D01*
X7003753Y-17863889D02*
X6994229Y-17882936D01*
X6994229Y-17882936D02*
X6984705Y-17892460D01*
X6984705Y-17892460D02*
X6965658Y-17901984D01*
X6965658Y-17901984D02*
X6908515Y-17901984D01*
X6908515Y-17901984D02*
X6889467Y-17892460D01*
X6889467Y-17892460D02*
X6879943Y-17882936D01*
X7127562Y-17701984D02*
X7146610Y-17701984D01*
X7146610Y-17701984D02*
X7165658Y-17711508D01*
X7165658Y-17711508D02*
X7175182Y-17721031D01*
X7175182Y-17721031D02*
X7184705Y-17740079D01*
X7184705Y-17740079D02*
X7194229Y-17778174D01*
X7194229Y-17778174D02*
X7194229Y-17825793D01*
X7194229Y-17825793D02*
X7184705Y-17863889D01*
X7184705Y-17863889D02*
X7175182Y-17882936D01*
X7175182Y-17882936D02*
X7165658Y-17892460D01*
X7165658Y-17892460D02*
X7146610Y-17901984D01*
X7146610Y-17901984D02*
X7127562Y-17901984D01*
X7127562Y-17901984D02*
X7108515Y-17892460D01*
X7108515Y-17892460D02*
X7098991Y-17882936D01*
X7098991Y-17882936D02*
X7089467Y-17863889D01*
X7089467Y-17863889D02*
X7079943Y-17825793D01*
X7079943Y-17825793D02*
X7079943Y-17778174D01*
X7079943Y-17778174D02*
X7089467Y-17740079D01*
X7089467Y-17740079D02*
X7098991Y-17721031D01*
X7098991Y-17721031D02*
X7108515Y-17711508D01*
X7108515Y-17711508D02*
X7127562Y-17701984D01*
X7318039Y-17701984D02*
X7337086Y-17701984D01*
X7337086Y-17701984D02*
X7356134Y-17711508D01*
X7356134Y-17711508D02*
X7365658Y-17721031D01*
X7365658Y-17721031D02*
X7375182Y-17740079D01*
X7375182Y-17740079D02*
X7384705Y-17778174D01*
X7384705Y-17778174D02*
X7384705Y-17825793D01*
X7384705Y-17825793D02*
X7375182Y-17863889D01*
X7375182Y-17863889D02*
X7365658Y-17882936D01*
X7365658Y-17882936D02*
X7356134Y-17892460D01*
X7356134Y-17892460D02*
X7337086Y-17901984D01*
X7337086Y-17901984D02*
X7318039Y-17901984D01*
X7318039Y-17901984D02*
X7298991Y-17892460D01*
X7298991Y-17892460D02*
X7289467Y-17882936D01*
X7289467Y-17882936D02*
X7279943Y-17863889D01*
X7279943Y-17863889D02*
X7270420Y-17825793D01*
X7270420Y-17825793D02*
X7270420Y-17778174D01*
X7270420Y-17778174D02*
X7279943Y-17740079D01*
X7279943Y-17740079D02*
X7289467Y-17721031D01*
X7289467Y-17721031D02*
X7298991Y-17711508D01*
X7298991Y-17711508D02*
X7318039Y-17701984D01*
X7470420Y-17901984D02*
X7470420Y-17768650D01*
X7470420Y-17787698D02*
X7479943Y-17778174D01*
X7479943Y-17778174D02*
X7498991Y-17768650D01*
X7498991Y-17768650D02*
X7527563Y-17768650D01*
X7527563Y-17768650D02*
X7546610Y-17778174D01*
X7546610Y-17778174D02*
X7556134Y-17797222D01*
X7556134Y-17797222D02*
X7556134Y-17901984D01*
X7556134Y-17797222D02*
X7565658Y-17778174D01*
X7565658Y-17778174D02*
X7584705Y-17768650D01*
X7584705Y-17768650D02*
X7613277Y-17768650D01*
X7613277Y-17768650D02*
X7632324Y-17778174D01*
X7632324Y-17778174D02*
X7641848Y-17797222D01*
X7641848Y-17797222D02*
X7641848Y-17901984D01*
X7737086Y-17901984D02*
X7737086Y-17768650D01*
X7737086Y-17787698D02*
X7746610Y-17778174D01*
X7746610Y-17778174D02*
X7765658Y-17768650D01*
X7765658Y-17768650D02*
X7794229Y-17768650D01*
X7794229Y-17768650D02*
X7813277Y-17778174D01*
X7813277Y-17778174D02*
X7822801Y-17797222D01*
X7822801Y-17797222D02*
X7822801Y-17901984D01*
X7822801Y-17797222D02*
X7832324Y-17778174D01*
X7832324Y-17778174D02*
X7851372Y-17768650D01*
X7851372Y-17768650D02*
X7879943Y-17768650D01*
X7879943Y-17768650D02*
X7898991Y-17778174D01*
X7898991Y-17778174D02*
X7908515Y-17797222D01*
X7908515Y-17797222D02*
X7908515Y-17901984D01*
X8298991Y-17692460D02*
X8127563Y-17949603D01*
X8556134Y-17701984D02*
X8575182Y-17701984D01*
X8575182Y-17701984D02*
X8594229Y-17711508D01*
X8594229Y-17711508D02*
X8603753Y-17721031D01*
X8603753Y-17721031D02*
X8613277Y-17740079D01*
X8613277Y-17740079D02*
X8622801Y-17778174D01*
X8622801Y-17778174D02*
X8622801Y-17825793D01*
X8622801Y-17825793D02*
X8613277Y-17863889D01*
X8613277Y-17863889D02*
X8603753Y-17882936D01*
X8603753Y-17882936D02*
X8594229Y-17892460D01*
X8594229Y-17892460D02*
X8575182Y-17901984D01*
X8575182Y-17901984D02*
X8556134Y-17901984D01*
X8556134Y-17901984D02*
X8537087Y-17892460D01*
X8537087Y-17892460D02*
X8527563Y-17882936D01*
X8527563Y-17882936D02*
X8518039Y-17863889D01*
X8518039Y-17863889D02*
X8508515Y-17825793D01*
X8508515Y-17825793D02*
X8508515Y-17778174D01*
X8508515Y-17778174D02*
X8518039Y-17740079D01*
X8518039Y-17740079D02*
X8527563Y-17721031D01*
X8527563Y-17721031D02*
X8537087Y-17711508D01*
X8537087Y-17711508D02*
X8556134Y-17701984D01*
X8708515Y-17882936D02*
X8718039Y-17892460D01*
X8718039Y-17892460D02*
X8708515Y-17901984D01*
X8708515Y-17901984D02*
X8698991Y-17892460D01*
X8698991Y-17892460D02*
X8708515Y-17882936D01*
X8708515Y-17882936D02*
X8708515Y-17901984D01*
X8841848Y-17701984D02*
X8860896Y-17701984D01*
X8860896Y-17701984D02*
X8879944Y-17711508D01*
X8879944Y-17711508D02*
X8889468Y-17721031D01*
X8889468Y-17721031D02*
X8898991Y-17740079D01*
X8898991Y-17740079D02*
X8908515Y-17778174D01*
X8908515Y-17778174D02*
X8908515Y-17825793D01*
X8908515Y-17825793D02*
X8898991Y-17863889D01*
X8898991Y-17863889D02*
X8889468Y-17882936D01*
X8889468Y-17882936D02*
X8879944Y-17892460D01*
X8879944Y-17892460D02*
X8860896Y-17901984D01*
X8860896Y-17901984D02*
X8841848Y-17901984D01*
X8841848Y-17901984D02*
X8822801Y-17892460D01*
X8822801Y-17892460D02*
X8813277Y-17882936D01*
X8813277Y-17882936D02*
X8803753Y-17863889D01*
X8803753Y-17863889D02*
X8794229Y-17825793D01*
X8794229Y-17825793D02*
X8794229Y-17778174D01*
X8794229Y-17778174D02*
X8803753Y-17740079D01*
X8803753Y-17740079D02*
X8813277Y-17721031D01*
X8813277Y-17721031D02*
X8822801Y-17711508D01*
X8822801Y-17711508D02*
X8841848Y-17701984D01*
X9089468Y-17701984D02*
X8994229Y-17701984D01*
X8994229Y-17701984D02*
X8984706Y-17797222D01*
X8984706Y-17797222D02*
X8994229Y-17787698D01*
X8994229Y-17787698D02*
X9013277Y-17778174D01*
X9013277Y-17778174D02*
X9060896Y-17778174D01*
X9060896Y-17778174D02*
X9079944Y-17787698D01*
X9079944Y-17787698D02*
X9089468Y-17797222D01*
X9089468Y-17797222D02*
X9098991Y-17816270D01*
X9098991Y-17816270D02*
X9098991Y-17863889D01*
X9098991Y-17863889D02*
X9089468Y-17882936D01*
X9089468Y-17882936D02*
X9079944Y-17892460D01*
X9079944Y-17892460D02*
X9060896Y-17901984D01*
X9060896Y-17901984D02*
X9013277Y-17901984D01*
X9013277Y-17901984D02*
X8994229Y-17892460D01*
X8994229Y-17892460D02*
X8984706Y-17882936D01*
X9289468Y-17901984D02*
X9175182Y-17901984D01*
X9232325Y-17901984D02*
X9232325Y-17701984D01*
X9232325Y-17701984D02*
X9213277Y-17730555D01*
X9213277Y-17730555D02*
X9194229Y-17749603D01*
X9194229Y-17749603D02*
X9175182Y-17759127D01*
X9365658Y-17721031D02*
X9375182Y-17711508D01*
X9375182Y-17711508D02*
X9394229Y-17701984D01*
X9394229Y-17701984D02*
X9441849Y-17701984D01*
X9441849Y-17701984D02*
X9460896Y-17711508D01*
X9460896Y-17711508D02*
X9470420Y-17721031D01*
X9470420Y-17721031D02*
X9479944Y-17740079D01*
X9479944Y-17740079D02*
X9479944Y-17759127D01*
X9479944Y-17759127D02*
X9470420Y-17787698D01*
X9470420Y-17787698D02*
X9356134Y-17901984D01*
X9356134Y-17901984D02*
X9479944Y-17901984D01*
X9556134Y-17701984D02*
X9556134Y-17740079D01*
X9632325Y-17701984D02*
X9632325Y-17740079D01*
X9927563Y-17978174D02*
X9918039Y-17968650D01*
X9918039Y-17968650D02*
X9898991Y-17940079D01*
X9898991Y-17940079D02*
X9889468Y-17921031D01*
X9889468Y-17921031D02*
X9879944Y-17892460D01*
X9879944Y-17892460D02*
X9870420Y-17844841D01*
X9870420Y-17844841D02*
X9870420Y-17806746D01*
X9870420Y-17806746D02*
X9879944Y-17759127D01*
X9879944Y-17759127D02*
X9889468Y-17730555D01*
X9889468Y-17730555D02*
X9898991Y-17711508D01*
X9898991Y-17711508D02*
X9918039Y-17682936D01*
X9918039Y-17682936D02*
X9927563Y-17673412D01*
X10032325Y-17787698D02*
X10013277Y-17778174D01*
X10013277Y-17778174D02*
X10003753Y-17768650D01*
X10003753Y-17768650D02*
X9994230Y-17749603D01*
X9994230Y-17749603D02*
X9994230Y-17740079D01*
X9994230Y-17740079D02*
X10003753Y-17721031D01*
X10003753Y-17721031D02*
X10013277Y-17711508D01*
X10013277Y-17711508D02*
X10032325Y-17701984D01*
X10032325Y-17701984D02*
X10070420Y-17701984D01*
X10070420Y-17701984D02*
X10089468Y-17711508D01*
X10089468Y-17711508D02*
X10098991Y-17721031D01*
X10098991Y-17721031D02*
X10108515Y-17740079D01*
X10108515Y-17740079D02*
X10108515Y-17749603D01*
X10108515Y-17749603D02*
X10098991Y-17768650D01*
X10098991Y-17768650D02*
X10089468Y-17778174D01*
X10089468Y-17778174D02*
X10070420Y-17787698D01*
X10070420Y-17787698D02*
X10032325Y-17787698D01*
X10032325Y-17787698D02*
X10013277Y-17797222D01*
X10013277Y-17797222D02*
X10003753Y-17806746D01*
X10003753Y-17806746D02*
X9994230Y-17825793D01*
X9994230Y-17825793D02*
X9994230Y-17863889D01*
X9994230Y-17863889D02*
X10003753Y-17882936D01*
X10003753Y-17882936D02*
X10013277Y-17892460D01*
X10013277Y-17892460D02*
X10032325Y-17901984D01*
X10032325Y-17901984D02*
X10070420Y-17901984D01*
X10070420Y-17901984D02*
X10089468Y-17892460D01*
X10089468Y-17892460D02*
X10098991Y-17882936D01*
X10098991Y-17882936D02*
X10108515Y-17863889D01*
X10108515Y-17863889D02*
X10108515Y-17825793D01*
X10108515Y-17825793D02*
X10098991Y-17806746D01*
X10098991Y-17806746D02*
X10089468Y-17797222D01*
X10089468Y-17797222D02*
X10070420Y-17787698D01*
X10346611Y-17901984D02*
X10346611Y-17701984D01*
X10432325Y-17901984D02*
X10432325Y-17797222D01*
X10432325Y-17797222D02*
X10422801Y-17778174D01*
X10422801Y-17778174D02*
X10403753Y-17768650D01*
X10403753Y-17768650D02*
X10375182Y-17768650D01*
X10375182Y-17768650D02*
X10356134Y-17778174D01*
X10356134Y-17778174D02*
X10346611Y-17787698D01*
X10556134Y-17901984D02*
X10537087Y-17892460D01*
X10537087Y-17892460D02*
X10527563Y-17882936D01*
X10527563Y-17882936D02*
X10518039Y-17863889D01*
X10518039Y-17863889D02*
X10518039Y-17806746D01*
X10518039Y-17806746D02*
X10527563Y-17787698D01*
X10527563Y-17787698D02*
X10537087Y-17778174D01*
X10537087Y-17778174D02*
X10556134Y-17768650D01*
X10556134Y-17768650D02*
X10584706Y-17768650D01*
X10584706Y-17768650D02*
X10603753Y-17778174D01*
X10603753Y-17778174D02*
X10613277Y-17787698D01*
X10613277Y-17787698D02*
X10622801Y-17806746D01*
X10622801Y-17806746D02*
X10622801Y-17863889D01*
X10622801Y-17863889D02*
X10613277Y-17882936D01*
X10613277Y-17882936D02*
X10603753Y-17892460D01*
X10603753Y-17892460D02*
X10584706Y-17901984D01*
X10584706Y-17901984D02*
X10556134Y-17901984D01*
X10737087Y-17901984D02*
X10718039Y-17892460D01*
X10718039Y-17892460D02*
X10708515Y-17873412D01*
X10708515Y-17873412D02*
X10708515Y-17701984D01*
X10889468Y-17892460D02*
X10870420Y-17901984D01*
X10870420Y-17901984D02*
X10832325Y-17901984D01*
X10832325Y-17901984D02*
X10813277Y-17892460D01*
X10813277Y-17892460D02*
X10803753Y-17873412D01*
X10803753Y-17873412D02*
X10803753Y-17797222D01*
X10803753Y-17797222D02*
X10813277Y-17778174D01*
X10813277Y-17778174D02*
X10832325Y-17768650D01*
X10832325Y-17768650D02*
X10870420Y-17768650D01*
X10870420Y-17768650D02*
X10889468Y-17778174D01*
X10889468Y-17778174D02*
X10898992Y-17797222D01*
X10898992Y-17797222D02*
X10898992Y-17816270D01*
X10898992Y-17816270D02*
X10803753Y-17835317D01*
X10975182Y-17892460D02*
X10994230Y-17901984D01*
X10994230Y-17901984D02*
X11032325Y-17901984D01*
X11032325Y-17901984D02*
X11051373Y-17892460D01*
X11051373Y-17892460D02*
X11060896Y-17873412D01*
X11060896Y-17873412D02*
X11060896Y-17863889D01*
X11060896Y-17863889D02*
X11051373Y-17844841D01*
X11051373Y-17844841D02*
X11032325Y-17835317D01*
X11032325Y-17835317D02*
X11003753Y-17835317D01*
X11003753Y-17835317D02*
X10984706Y-17825793D01*
X10984706Y-17825793D02*
X10975182Y-17806746D01*
X10975182Y-17806746D02*
X10975182Y-17797222D01*
X10975182Y-17797222D02*
X10984706Y-17778174D01*
X10984706Y-17778174D02*
X11003753Y-17768650D01*
X11003753Y-17768650D02*
X11032325Y-17768650D01*
X11032325Y-17768650D02*
X11051373Y-17778174D01*
X11127563Y-17978174D02*
X11137087Y-17968650D01*
X11137087Y-17968650D02*
X11156134Y-17940079D01*
X11156134Y-17940079D02*
X11165658Y-17921031D01*
X11165658Y-17921031D02*
X11175182Y-17892460D01*
X11175182Y-17892460D02*
X11184706Y-17844841D01*
X11184706Y-17844841D02*
X11184706Y-17806746D01*
X11184706Y-17806746D02*
X11175182Y-17759127D01*
X11175182Y-17759127D02*
X11165658Y-17730555D01*
X11165658Y-17730555D02*
X11156134Y-17711508D01*
X11156134Y-17711508D02*
X11137087Y-17682936D01*
X11137087Y-17682936D02*
X11127563Y-17673412D01*
X6152500Y-17974500D02*
X6352500Y-18174500D01*
X6352500Y-17974500D02*
X6152500Y-18174500D01*
X6252500Y-18174500D02*
X6352500Y-18074500D01*
X6252500Y-17974500D01*
X6152500Y-18074500D01*
X6252500Y-18174500D01*
X6594229Y-17965984D02*
X6718039Y-17965984D01*
X6718039Y-17965984D02*
X6651372Y-18042174D01*
X6651372Y-18042174D02*
X6679943Y-18042174D01*
X6679943Y-18042174D02*
X6698991Y-18051698D01*
X6698991Y-18051698D02*
X6708515Y-18061222D01*
X6708515Y-18061222D02*
X6718039Y-18080270D01*
X6718039Y-18080270D02*
X6718039Y-18127889D01*
X6718039Y-18127889D02*
X6708515Y-18146936D01*
X6708515Y-18146936D02*
X6698991Y-18156460D01*
X6698991Y-18156460D02*
X6679943Y-18165984D01*
X6679943Y-18165984D02*
X6622801Y-18165984D01*
X6622801Y-18165984D02*
X6603753Y-18156460D01*
X6603753Y-18156460D02*
X6594229Y-18146936D01*
X6803753Y-18146936D02*
X6813277Y-18156460D01*
X6813277Y-18156460D02*
X6803753Y-18165984D01*
X6803753Y-18165984D02*
X6794229Y-18156460D01*
X6794229Y-18156460D02*
X6803753Y-18146936D01*
X6803753Y-18146936D02*
X6803753Y-18165984D01*
X6937086Y-17965984D02*
X6956134Y-17965984D01*
X6956134Y-17965984D02*
X6975182Y-17975508D01*
X6975182Y-17975508D02*
X6984705Y-17985031D01*
X6984705Y-17985031D02*
X6994229Y-18004079D01*
X6994229Y-18004079D02*
X7003753Y-18042174D01*
X7003753Y-18042174D02*
X7003753Y-18089793D01*
X7003753Y-18089793D02*
X6994229Y-18127889D01*
X6994229Y-18127889D02*
X6984705Y-18146936D01*
X6984705Y-18146936D02*
X6975182Y-18156460D01*
X6975182Y-18156460D02*
X6956134Y-18165984D01*
X6956134Y-18165984D02*
X6937086Y-18165984D01*
X6937086Y-18165984D02*
X6918039Y-18156460D01*
X6918039Y-18156460D02*
X6908515Y-18146936D01*
X6908515Y-18146936D02*
X6898991Y-18127889D01*
X6898991Y-18127889D02*
X6889467Y-18089793D01*
X6889467Y-18089793D02*
X6889467Y-18042174D01*
X6889467Y-18042174D02*
X6898991Y-18004079D01*
X6898991Y-18004079D02*
X6908515Y-17985031D01*
X6908515Y-17985031D02*
X6918039Y-17975508D01*
X6918039Y-17975508D02*
X6937086Y-17965984D01*
X7127562Y-17965984D02*
X7146610Y-17965984D01*
X7146610Y-17965984D02*
X7165658Y-17975508D01*
X7165658Y-17975508D02*
X7175182Y-17985031D01*
X7175182Y-17985031D02*
X7184705Y-18004079D01*
X7184705Y-18004079D02*
X7194229Y-18042174D01*
X7194229Y-18042174D02*
X7194229Y-18089793D01*
X7194229Y-18089793D02*
X7184705Y-18127889D01*
X7184705Y-18127889D02*
X7175182Y-18146936D01*
X7175182Y-18146936D02*
X7165658Y-18156460D01*
X7165658Y-18156460D02*
X7146610Y-18165984D01*
X7146610Y-18165984D02*
X7127562Y-18165984D01*
X7127562Y-18165984D02*
X7108515Y-18156460D01*
X7108515Y-18156460D02*
X7098991Y-18146936D01*
X7098991Y-18146936D02*
X7089467Y-18127889D01*
X7089467Y-18127889D02*
X7079943Y-18089793D01*
X7079943Y-18089793D02*
X7079943Y-18042174D01*
X7079943Y-18042174D02*
X7089467Y-18004079D01*
X7089467Y-18004079D02*
X7098991Y-17985031D01*
X7098991Y-17985031D02*
X7108515Y-17975508D01*
X7108515Y-17975508D02*
X7127562Y-17965984D01*
X7318039Y-17965984D02*
X7337086Y-17965984D01*
X7337086Y-17965984D02*
X7356134Y-17975508D01*
X7356134Y-17975508D02*
X7365658Y-17985031D01*
X7365658Y-17985031D02*
X7375182Y-18004079D01*
X7375182Y-18004079D02*
X7384705Y-18042174D01*
X7384705Y-18042174D02*
X7384705Y-18089793D01*
X7384705Y-18089793D02*
X7375182Y-18127889D01*
X7375182Y-18127889D02*
X7365658Y-18146936D01*
X7365658Y-18146936D02*
X7356134Y-18156460D01*
X7356134Y-18156460D02*
X7337086Y-18165984D01*
X7337086Y-18165984D02*
X7318039Y-18165984D01*
X7318039Y-18165984D02*
X7298991Y-18156460D01*
X7298991Y-18156460D02*
X7289467Y-18146936D01*
X7289467Y-18146936D02*
X7279943Y-18127889D01*
X7279943Y-18127889D02*
X7270420Y-18089793D01*
X7270420Y-18089793D02*
X7270420Y-18042174D01*
X7270420Y-18042174D02*
X7279943Y-18004079D01*
X7279943Y-18004079D02*
X7289467Y-17985031D01*
X7289467Y-17985031D02*
X7298991Y-17975508D01*
X7298991Y-17975508D02*
X7318039Y-17965984D01*
X7470420Y-18165984D02*
X7470420Y-18032650D01*
X7470420Y-18051698D02*
X7479943Y-18042174D01*
X7479943Y-18042174D02*
X7498991Y-18032650D01*
X7498991Y-18032650D02*
X7527563Y-18032650D01*
X7527563Y-18032650D02*
X7546610Y-18042174D01*
X7546610Y-18042174D02*
X7556134Y-18061222D01*
X7556134Y-18061222D02*
X7556134Y-18165984D01*
X7556134Y-18061222D02*
X7565658Y-18042174D01*
X7565658Y-18042174D02*
X7584705Y-18032650D01*
X7584705Y-18032650D02*
X7613277Y-18032650D01*
X7613277Y-18032650D02*
X7632324Y-18042174D01*
X7632324Y-18042174D02*
X7641848Y-18061222D01*
X7641848Y-18061222D02*
X7641848Y-18165984D01*
X7737086Y-18165984D02*
X7737086Y-18032650D01*
X7737086Y-18051698D02*
X7746610Y-18042174D01*
X7746610Y-18042174D02*
X7765658Y-18032650D01*
X7765658Y-18032650D02*
X7794229Y-18032650D01*
X7794229Y-18032650D02*
X7813277Y-18042174D01*
X7813277Y-18042174D02*
X7822801Y-18061222D01*
X7822801Y-18061222D02*
X7822801Y-18165984D01*
X7822801Y-18061222D02*
X7832324Y-18042174D01*
X7832324Y-18042174D02*
X7851372Y-18032650D01*
X7851372Y-18032650D02*
X7879943Y-18032650D01*
X7879943Y-18032650D02*
X7898991Y-18042174D01*
X7898991Y-18042174D02*
X7908515Y-18061222D01*
X7908515Y-18061222D02*
X7908515Y-18165984D01*
X8298991Y-17956460D02*
X8127563Y-18213603D01*
X8556134Y-17965984D02*
X8575182Y-17965984D01*
X8575182Y-17965984D02*
X8594229Y-17975508D01*
X8594229Y-17975508D02*
X8603753Y-17985031D01*
X8603753Y-17985031D02*
X8613277Y-18004079D01*
X8613277Y-18004079D02*
X8622801Y-18042174D01*
X8622801Y-18042174D02*
X8622801Y-18089793D01*
X8622801Y-18089793D02*
X8613277Y-18127889D01*
X8613277Y-18127889D02*
X8603753Y-18146936D01*
X8603753Y-18146936D02*
X8594229Y-18156460D01*
X8594229Y-18156460D02*
X8575182Y-18165984D01*
X8575182Y-18165984D02*
X8556134Y-18165984D01*
X8556134Y-18165984D02*
X8537087Y-18156460D01*
X8537087Y-18156460D02*
X8527563Y-18146936D01*
X8527563Y-18146936D02*
X8518039Y-18127889D01*
X8518039Y-18127889D02*
X8508515Y-18089793D01*
X8508515Y-18089793D02*
X8508515Y-18042174D01*
X8508515Y-18042174D02*
X8518039Y-18004079D01*
X8518039Y-18004079D02*
X8527563Y-17985031D01*
X8527563Y-17985031D02*
X8537087Y-17975508D01*
X8537087Y-17975508D02*
X8556134Y-17965984D01*
X8708515Y-18146936D02*
X8718039Y-18156460D01*
X8718039Y-18156460D02*
X8708515Y-18165984D01*
X8708515Y-18165984D02*
X8698991Y-18156460D01*
X8698991Y-18156460D02*
X8708515Y-18146936D01*
X8708515Y-18146936D02*
X8708515Y-18165984D01*
X8908515Y-18165984D02*
X8794229Y-18165984D01*
X8851372Y-18165984D02*
X8851372Y-17965984D01*
X8851372Y-17965984D02*
X8832325Y-17994555D01*
X8832325Y-17994555D02*
X8813277Y-18013603D01*
X8813277Y-18013603D02*
X8794229Y-18023127D01*
X9098991Y-18165984D02*
X8984706Y-18165984D01*
X9041848Y-18165984D02*
X9041848Y-17965984D01*
X9041848Y-17965984D02*
X9022801Y-17994555D01*
X9022801Y-17994555D02*
X9003753Y-18013603D01*
X9003753Y-18013603D02*
X8984706Y-18023127D01*
X9213277Y-18051698D02*
X9194229Y-18042174D01*
X9194229Y-18042174D02*
X9184706Y-18032650D01*
X9184706Y-18032650D02*
X9175182Y-18013603D01*
X9175182Y-18013603D02*
X9175182Y-18004079D01*
X9175182Y-18004079D02*
X9184706Y-17985031D01*
X9184706Y-17985031D02*
X9194229Y-17975508D01*
X9194229Y-17975508D02*
X9213277Y-17965984D01*
X9213277Y-17965984D02*
X9251372Y-17965984D01*
X9251372Y-17965984D02*
X9270420Y-17975508D01*
X9270420Y-17975508D02*
X9279944Y-17985031D01*
X9279944Y-17985031D02*
X9289468Y-18004079D01*
X9289468Y-18004079D02*
X9289468Y-18013603D01*
X9289468Y-18013603D02*
X9279944Y-18032650D01*
X9279944Y-18032650D02*
X9270420Y-18042174D01*
X9270420Y-18042174D02*
X9251372Y-18051698D01*
X9251372Y-18051698D02*
X9213277Y-18051698D01*
X9213277Y-18051698D02*
X9194229Y-18061222D01*
X9194229Y-18061222D02*
X9184706Y-18070746D01*
X9184706Y-18070746D02*
X9175182Y-18089793D01*
X9175182Y-18089793D02*
X9175182Y-18127889D01*
X9175182Y-18127889D02*
X9184706Y-18146936D01*
X9184706Y-18146936D02*
X9194229Y-18156460D01*
X9194229Y-18156460D02*
X9213277Y-18165984D01*
X9213277Y-18165984D02*
X9251372Y-18165984D01*
X9251372Y-18165984D02*
X9270420Y-18156460D01*
X9270420Y-18156460D02*
X9279944Y-18146936D01*
X9279944Y-18146936D02*
X9289468Y-18127889D01*
X9289468Y-18127889D02*
X9289468Y-18089793D01*
X9289468Y-18089793D02*
X9279944Y-18070746D01*
X9279944Y-18070746D02*
X9270420Y-18061222D01*
X9270420Y-18061222D02*
X9251372Y-18051698D01*
X9479944Y-18165984D02*
X9365658Y-18165984D01*
X9422801Y-18165984D02*
X9422801Y-17965984D01*
X9422801Y-17965984D02*
X9403753Y-17994555D01*
X9403753Y-17994555D02*
X9384706Y-18013603D01*
X9384706Y-18013603D02*
X9365658Y-18023127D01*
X9556134Y-17965984D02*
X9556134Y-18004079D01*
X9632325Y-17965984D02*
X9632325Y-18004079D01*
X9927563Y-18242174D02*
X9918039Y-18232650D01*
X9918039Y-18232650D02*
X9898991Y-18204079D01*
X9898991Y-18204079D02*
X9889468Y-18185031D01*
X9889468Y-18185031D02*
X9879944Y-18156460D01*
X9879944Y-18156460D02*
X9870420Y-18108841D01*
X9870420Y-18108841D02*
X9870420Y-18070746D01*
X9870420Y-18070746D02*
X9879944Y-18023127D01*
X9879944Y-18023127D02*
X9889468Y-17994555D01*
X9889468Y-17994555D02*
X9898991Y-17975508D01*
X9898991Y-17975508D02*
X9918039Y-17946936D01*
X9918039Y-17946936D02*
X9927563Y-17937412D01*
X10089468Y-18032650D02*
X10089468Y-18165984D01*
X10041849Y-17956460D02*
X9994230Y-18099317D01*
X9994230Y-18099317D02*
X10118039Y-18099317D01*
X10279944Y-18032650D02*
X10279944Y-18165984D01*
X10232325Y-17956460D02*
X10184706Y-18099317D01*
X10184706Y-18099317D02*
X10308515Y-18099317D01*
X10537087Y-18165984D02*
X10537087Y-17965984D01*
X10622801Y-18165984D02*
X10622801Y-18061222D01*
X10622801Y-18061222D02*
X10613277Y-18042174D01*
X10613277Y-18042174D02*
X10594230Y-18032650D01*
X10594230Y-18032650D02*
X10565658Y-18032650D01*
X10565658Y-18032650D02*
X10546611Y-18042174D01*
X10546611Y-18042174D02*
X10537087Y-18051698D01*
X10746611Y-18165984D02*
X10727563Y-18156460D01*
X10727563Y-18156460D02*
X10718039Y-18146936D01*
X10718039Y-18146936D02*
X10708515Y-18127889D01*
X10708515Y-18127889D02*
X10708515Y-18070746D01*
X10708515Y-18070746D02*
X10718039Y-18051698D01*
X10718039Y-18051698D02*
X10727563Y-18042174D01*
X10727563Y-18042174D02*
X10746611Y-18032650D01*
X10746611Y-18032650D02*
X10775182Y-18032650D01*
X10775182Y-18032650D02*
X10794230Y-18042174D01*
X10794230Y-18042174D02*
X10803753Y-18051698D01*
X10803753Y-18051698D02*
X10813277Y-18070746D01*
X10813277Y-18070746D02*
X10813277Y-18127889D01*
X10813277Y-18127889D02*
X10803753Y-18146936D01*
X10803753Y-18146936D02*
X10794230Y-18156460D01*
X10794230Y-18156460D02*
X10775182Y-18165984D01*
X10775182Y-18165984D02*
X10746611Y-18165984D01*
X10927563Y-18165984D02*
X10908515Y-18156460D01*
X10908515Y-18156460D02*
X10898992Y-18137412D01*
X10898992Y-18137412D02*
X10898992Y-17965984D01*
X11079944Y-18156460D02*
X11060896Y-18165984D01*
X11060896Y-18165984D02*
X11022801Y-18165984D01*
X11022801Y-18165984D02*
X11003753Y-18156460D01*
X11003753Y-18156460D02*
X10994230Y-18137412D01*
X10994230Y-18137412D02*
X10994230Y-18061222D01*
X10994230Y-18061222D02*
X11003753Y-18042174D01*
X11003753Y-18042174D02*
X11022801Y-18032650D01*
X11022801Y-18032650D02*
X11060896Y-18032650D01*
X11060896Y-18032650D02*
X11079944Y-18042174D01*
X11079944Y-18042174D02*
X11089468Y-18061222D01*
X11089468Y-18061222D02*
X11089468Y-18080270D01*
X11089468Y-18080270D02*
X10994230Y-18099317D01*
X11165658Y-18156460D02*
X11184706Y-18165984D01*
X11184706Y-18165984D02*
X11222801Y-18165984D01*
X11222801Y-18165984D02*
X11241849Y-18156460D01*
X11241849Y-18156460D02*
X11251372Y-18137412D01*
X11251372Y-18137412D02*
X11251372Y-18127889D01*
X11251372Y-18127889D02*
X11241849Y-18108841D01*
X11241849Y-18108841D02*
X11222801Y-18099317D01*
X11222801Y-18099317D02*
X11194230Y-18099317D01*
X11194230Y-18099317D02*
X11175182Y-18089793D01*
X11175182Y-18089793D02*
X11165658Y-18070746D01*
X11165658Y-18070746D02*
X11165658Y-18061222D01*
X11165658Y-18061222D02*
X11175182Y-18042174D01*
X11175182Y-18042174D02*
X11194230Y-18032650D01*
X11194230Y-18032650D02*
X11222801Y-18032650D01*
X11222801Y-18032650D02*
X11241849Y-18042174D01*
X11318039Y-18242174D02*
X11327563Y-18232650D01*
X11327563Y-18232650D02*
X11346611Y-18204079D01*
X11346611Y-18204079D02*
X11356134Y-18185031D01*
X11356134Y-18185031D02*
X11365658Y-18156460D01*
X11365658Y-18156460D02*
X11375182Y-18108841D01*
X11375182Y-18108841D02*
X11375182Y-18070746D01*
X11375182Y-18070746D02*
X11365658Y-18023127D01*
X11365658Y-18023127D02*
X11356134Y-17994555D01*
X11356134Y-17994555D02*
X11346611Y-17975508D01*
X11346611Y-17975508D02*
X11327563Y-17946936D01*
X11327563Y-17946936D02*
X11318039Y-17937412D01*
M02*
